<?xml version="1.0" standalone="no"?>
<!DOCTYPE svg PUBLIC "-//W3C//DTD SVG 1.1//EN" "http://www.w3.org/Graphics/SVG/1.1/DTD/svg11.dtd" >
<svg xmlns="http://www.w3.org/2000/svg">
<metadata></metadata>
<defs>
<font id="CuadrifontePicsMedium" horiz-adv-x="1512" >
<font-face units-per-em="2048" ascent="1638" descent="-410" />
<missing-glyph horiz-adv-x="1036" />
<glyph horiz-adv-x="0" />
<glyph horiz-adv-x="2048" />
<glyph unicode=" "  horiz-adv-x="1036" />
<glyph unicode="&#x09;" horiz-adv-x="1036" />
<glyph unicode="&#xa0;" horiz-adv-x="1036" />
<glyph unicode="0" horiz-adv-x="1562" d="M702 68q-6 -6 -20 -6q-20 0 -42 11t-22 23q0 10 14 18q76 -8 76 -32q0 -8 -6 -14zM822 132q-18 12 -18 26q0 12 13 22t27 10q12 0 20 -10q6 -8 6 -20q0 -14 -8 -26t-20 -12q-10 0 -20 10zM506 142q-4 8 -4 14q0 14 10 25t22 11q14 0 22 -14q4 -8 4 -16q0 -14 -9 -26 t-21 -12t-24 18zM918 784q0 -48 39 -84t87 -36q84 0 120 104q6 20 6 36t-5 32t-14 27t-17 18t-18 15l-8 6q-18 14 -56 14q-52 0 -92 -32t-42 -100zM394 66q0 2 -9 31t-9 35t-3 19t-3 19q-4 36 -16 61t-24 35t-39 29t-41 31q-2 2 -40 28t-61 50t-33 56q-4 10 -19 34t-21 42 q0 2 -6 15t-10 26t-9 33t-8 47t-3 57v16q0 68 5 119t22 128t63 138t116 97q64 32 74 32q2 0 23 5t73 7q46 2 117 10t101 8q18 0 46 -4q2 0 12 -1t16 -1q16 0 72 2t88 2q76 0 110 -8q30 -10 90 -10q76 0 195 -28t157 -62q104 -94 104 -466l-10 -226q0 -2 -7 -26t-16 -49 t-26 -52t-39 -39q-76 -46 -97 -75t-21 -109q0 -20 3 -44t3 -28q0 -18 -12 -22q-16 -8 -255 -18t-243 -14q-24 -12 -178 -12q-174 0 -212 44q-20 24 -20 38zM602 1232q-2 0 -13 -1l-22 -2t-28 -5t-32 -11t-33 -19t-34 -30q-26 -30 -26 -94q0 -60 34 -112t108 -70l12 -4 q14 -4 24 -4q22 0 104 32q72 30 72 100t-60 145t-100 75h-6zM1462 1004q0 18 -38 81t-66 63q-16 0 -33 -42t-17 -92q0 -68 38 -116t120 -50q16 0 16 12q0 4 -2 24t-4 38q-2 32 -6 49t-6 22t-2 11zM382 732q-22 8 -56 8q-90 0 -154 -72q-28 -32 -28 -82q0 -74 52 -140 t128 -66q22 0 52 10q50 16 79 64t29 106q0 64 -36 108q-8 10 -34 36t-32 28zM1460 410q18 40 18 52q0 40 -72 42q-38 0 -58 -16q-12 -12 -12 -48q0 -38 28 -68q12 -26 34 -26q32 0 62 64zM1060 386q-2 2 -7 13t-7 14t-10 12t-14 13t-19 11t-27 11t-36 10t-48 10h-4 q-32 0 -89 -24t-75 -58q-14 -26 -14 -94v-32h66q76 0 138 -3t93 -6t39 -3q12 0 15 3t3 13l6 20q6 22 6 36q0 28 -16 54zM1164 232q-28 -4 -76 -4q-110 0 -392 14t-300 14h-8l40 -180q0 -50 182 -50q42 0 100 2l58 4q20 0 51 6t143 8q100 0 177 4t105 6l26 4l16 178 q0 2 -16 2q-82 0 -106 -8z" />
<glyph unicode="1" horiz-adv-x="1796" d="M706 1318q4 -2 36 -2q30 0 118 5t120 5q30 0 42 -6l188 -10q36 0 137 -19t115 -39q0 -2 16 -18t33 -41t39 -62t43 -95t37 -126q8 -48 8 -58q0 -6 6 -6q2 0 20 4t28 4q46 0 62 -60l2 -8q0 -8 1 -21t1 -27q0 -80 -30 -110q-16 -16 -31 -25t-23 -11t-12 -5t-4 -11 q0 -14 7 -69t7 -67q0 -112 -53 -246t-149 -168q-130 -44 -198 -44q-12 0 -92 2t-160 2h-70q-54 0 -204 21t-196 33l-46 14q-126 34 -168 61t-110 115q-8 10 -20 41t-20 57t-8 28q0 4 -4 16t-9 34t-7 50q-10 142 -26 142q-26 0 -59 53t-33 105t42 86q18 14 35 19t25 3t12 2 t6 20q2 30 12 76t10 50q0 40 59 137t137 115q94 28 106 28t85 16t107 16q18 0 30 -6zM1188 1226q0 -22 4 -58q-10 -10 -18 -10q-12 0 -14 26t-3 57t-9 39q-2 2 -18 3t-18 -1v-8q0 -8 -1 -22t-1 -28v-54q-10 -8 -16 -8q-12 0 -12 36v48q0 30 -8 38q-2 4 -16 4t-18 -4 q-2 -2 -2 -16q0 -8 1 -31t1 -35q0 -34 -8 -42q-8 -6 -12 -6q-12 0 -12 36q0 10 1 30t1 30q0 26 -6 32q-8 8 -34 8l-6 -2q-2 -116 -8 -122t-12 -6q-16 0 -16 34q0 14 2 20q6 24 6 40q0 34 -24 34h-8q-22 0 -22 -4q0 -2 5 -6t10 -13t7 -21q4 -18 4 -46q0 -40 -18 -40h-2 q-8 2 -11 21t-3 41t-4 28t-9 13t-7 5q-4 -4 -4 -38q0 -66 -12 -66q-6 0 -8 2q-14 8 -14 46q0 12 2 35t2 29q0 10 -2 12t-12 2q-30 -2 -32 -14q4 -4 4 -54v-44q-10 -12 -12 -12q-12 0 -19 55t-11 55t-4 -18q0 -6 1 -24t1 -28q0 -44 -16 -44q-4 0 -8 2q-10 6 -11 56t-15 52 q-4 0 -12 9t-12 9q-2 0 -4 -2v-58v-54q-10 -10 -20 -10q-12 0 -12 38q0 4 1 15t1 17q0 50 -18 50q-22 0 -26 -7t-4 -33v-18v-44q-12 -14 -18 -14q-16 0 -16 60q0 42 -8 42q-2 0 -5 -1l-9 -3l-12 -4q-10 -2 -12 -5t-3 -7t1 -17t2 -25t2 -22t4 -13t1 -7t-5 -8q-8 -8 -10 -8 q-16 0 -24 78q-2 22 -13 25t-17 -5q-4 -4 -4 -38v-16q0 -66 -16 -66q-4 0 -14 6v48q0 48 -4 48q-2 2 -12 -4l-4 -40q-4 -66 -22 -66q-2 0 -6 4q-6 8 -6 26q0 6 1 19t1 17q0 16 -6 16q-32 0 -32 -88q0 -4 1 -16t1 -20q-14 -14 -20 -14q-14 0 -14 48q0 22 -6 22q-12 0 -34 -55 t-32 -103q-4 -30 -3 -33t15 -9q60 -22 80 -22q102 0 346 -14t276 -14h14q24 2 56 2q18 0 30 -1t16 -1q24 0 54 6q20 4 36 4q74 0 252 30t190 40q2 2 2 6q0 24 -35 96t-45 72q-2 0 -2 -6q0 -2 1 -4t2 -10t1 -13t-2 -12t-6 -7t-10 2q-22 10 -22 82q0 14 -8 28t-14 21t-10 9h-2 q-14 0 -14 -36q0 -28 10 -68q2 -4 -5 -10t-13 -6q-22 0 -22 74v38l2 24q0 4 -12 8t-16 2t-4 -14q0 -8 2 -30t2 -32q0 -30 -12 -34h-2l-4 -2q-12 0 -16 60t-22 60h-2q-4 0 -4 -14q0 -6 2 -27t2 -31q0 -22 -10 -28q-2 -2 -8 -2q-18 0 -20 76q-2 28 -7 33t-33 7q-4 0 -11 1 t-9 1q-10 0 -10 -8q0 -2 2 -16t2 -28zM858 1280h-2h2zM1632 462q-14 86 -21 182t-10 144t-5 48h-2q-4 0 -20 -7t-51 -19t-81 -20q-22 -4 -31 -12t-8 -18t-6 -30t-25 -42q-8 -10 -53 -26t-79 -16q-38 0 -57 8t-45 38q-14 16 -23 29t-12 17t-11 4q-4 0 -18 -1t-41 -3t-61 -2 q-24 0 -24 -12q0 -4 3 -13t6 -28t3 -41q2 -54 8 -76t12 -25t28 -4t42 -11q30 -14 42 -45t13 -59t1 -30q4 -6 51 -9t118 -15t121 -42q6 -4 53 -26t72 -41t43 -47q6 -6 10 -6q20 0 40 74t20 142q0 28 -2 40zM148 826q0 2 -10 2q-12 0 -24 -5t-23 -23t-11 -46q0 -42 19 -76 t37 -34q6 0 6 4l2 12q0 12 1 30t2 38l2 40t1 34q0 22 -2 24zM344 776q-34 2 -91 21t-63 19t-6 -2q-8 -48 -8 -134q0 -310 72 -410q42 -60 48 -60t29 27t39 35q200 104 318 118q12 2 12 8q0 2 -4 15t-4 25q0 24 14 54q24 48 72 48q18 0 26 -4q14 -6 18 -1t6 33v18 q0 100 -10 130q-2 8 -3 11t-7 6t-16 4t-34 1q-8 0 -20 1t-16 1q-16 0 -20 -4t-2 -11t-8 -26t-34 -43q-42 -40 -102 -40q-32 0 -65 11t-52 23t-21 18q-2 2 -14 21t-22 39t-10 30q0 6 2 8q6 6 -8 8q-6 2 -16 2zM1720 750q-4 68 -34 68q-14 0 -34 -14q-14 -8 -14 -32 q0 -12 5 -52t7 -68q2 -18 6 -21t14 1q18 8 26 14t16 28t8 58v18zM1344 708q22 22 22 56q0 14 -8 14h-2q-36 -8 -42 -8q-14 0 -14 -12q0 -16 -12 -29t-26 -13q-22 0 -22 28q0 14 -28 14q-12 0 -28 -3t-26 -7t-10 -6q34 -64 94 -64q14 0 20 2q64 12 82 28zM516 766 q-14 4 -70 4q-52 0 -52 -2q0 -8 18 -42t38 -46q54 -30 100 -30q50 0 79 32t29 54q0 4 -2 4q-24 12 -68 12l-8 -2q-2 -2 -2 -15t-9 -25t-29 -14h-4q-28 0 -28 36q0 18 10 24q4 2 3 5t-5 5zM924 668q-2 12 -5 25t-4 19l-2 12t-3 8t-6 3t-12 1h-18q-38 -2 -38 -6q0 -2 3 -10 t5 -14q2 -16 4 -90t4 -140l4 -68q2 -2 42 -2h22q16 0 18 6v2q2 8 2 38q0 136 -16 216zM824 482q-20 20 -48 20q-20 0 -35 -16t-17 -42q0 -42 6 -48h6q68 0 80 8q8 6 8 78zM1064 450q0 24 -25 39t-47 15q-10 0 -14 -4q-2 -2 -2 -26q0 -66 12 -74h26q16 0 26 -1t14 -2t6 -1 t4 2q4 4 4 17t-2 25zM1396 122q-2 22 -6 27t-22 7h-8q-14 0 -18 -15t-4 -77q0 -10 -4 -23t-4 -15q0 -6 8 -6q6 0 26 6q22 6 28 14t6 34q0 6 -1 22t-1 26zM1086 134q-12 12 -46 12q-6 0 -6 -2q-2 -4 -2 -54t-2 -56q-4 -8 8 -10h22q32 0 34 2t2 24q0 74 -10 84zM650 94 q0 4 1 9t1 7q0 22 -42 24h-14q-14 0 -16 -24q-2 -8 -2 -12q0 -2 -1 -6t-1 -6q0 -14 44 -20q6 -2 16 -2q12 0 14 30z" />
<glyph unicode="2" horiz-adv-x="1592" d="M630 808h-4q-10 0 -34 5t-36 5q-42 0 -42 -44q0 -14 2 -22q6 -42 6 -76q0 -18 -1 -44t-1 -34q0 -36 22 -50t96 -14h14h24q34 0 41 4t7 16v8q8 120 8 130q0 36 -4 62t-4 28q0 26 -88 26h-6zM350 956q6 20 69 34t129 14q44 0 66 -6q42 -12 119 -14t128 -10t65 -38 q2 -4 13 -185t11 -191q0 -152 -38 -216q-26 -42 -190 -42q-102 0 -209 15t-123 29q-38 34 -50 95t-12 165q0 24 1 78t1 86v112q0 44 12 60q8 12 8 14zM282 1098q-10 0 -23 -6t-28 -27t-15 -55v-12q6 -102 6 -252v-30q0 -112 10 -156q16 -64 15 -153t15 -129t82 -52 q90 -16 204 -16q54 0 223 5t285 5h46q68 0 100 6t37 13t9 25q10 54 10 144q0 60 -4 138t-10 150t-11 131t-10 104t-5 47q-4 84 -8 91t-54 19q-20 4 -36 4q-14 0 -42 -2t-38 -2q-22 0 -28 4q-12 6 -96 6h-22q-114 0 -212 10l-36 4q-60 6 -120 6l-188 -12q-8 0 -30 -4t-26 -4z M272 26q-62 0 -120 67t-58 95l-20 104q-4 12 -12 92t-15 209t-7 235q0 98 10 188q0 4 2 30t4 33t7 26t14 32t23 27q102 102 302 102q36 0 132 -4q34 0 97 -4t112 -7t53 -3q14 0 86 -4t112 -4q38 0 54 2q14 2 38 2q22 0 52 -5t36 -5q16 0 30 -3t26 -3h20h18q30 0 74 -9t46 -9 q48 0 81 -61t42 -130t15 -145t8 -82q18 -64 18 -452q0 -112 -6 -142q-24 -106 -53 -138t-75 -32h-46q-24 0 -36 -2q-146 -22 -688 -22q-324 0 -364 20q-2 2 -12 2z" />
<glyph unicode="3" horiz-adv-x="1644" d="M506 928q-22 -24 -60 -24q-36 0 -68 20t-32 38q0 10 18 14q2 0 10 -10t25 -21t39 -11q28 0 40 13t20 13q10 0 13 -12t-5 -20zM1182 918q-32 0 -50 19t-18 39q0 18 12 18q6 0 10 -2q2 -2 9 -12t18 -19t25 -9q22 0 46 16q14 10 24 7t10 -15q0 -16 -26 -29t-60 -13z M448 1094q148 12 248 12q78 0 92 -10q6 -4 14 -59t14 -109l6 -52q0 -54 52 -54l58 12q2 2 2 10q0 12 -7 76t-7 100q0 58 16 66q2 2 44 5t102 6t96 3q34 0 40 -2q10 -2 45 -5t41 -7q16 -10 -8 -26q-12 -8 -24 -6q-6 2 -26 2q-2 0 -20 3t-46 6t-54 3q-30 0 -56 -6 q-24 -4 -46 -7t-33 -3t-20 -1t-12 -6t-4 -11t-1 -20v-18v-34q0 -26 1 -36t6 -13t10 -3t17 -4t26 -14q22 -18 32 -43t13 -40t13 -15q2 0 14 4q2 2 68 2h60q126 0 132 4h4q36 0 44 -56q38 -220 38 -376q0 -136 -22 -176q-16 -32 -94 -50t-135 -22t-103 -4q-18 0 -199 -8 t-287 -8q-176 0 -210 20q-70 42 -90 74t-30 112l-4 36q-10 82 -10 228v48q2 28 8 51t12 39t23 29t24 19t32 13t31 9t37 7t35 5q40 8 200 20q22 2 28 5t4 8t4 19t24 30q16 14 31 23t24 10t13 5t4 10l-4 34q-12 94 -18 98q-28 14 -94 14q-50 0 -122 -6t-120 -12l-46 -6 q-26 -2 -32 -14t-14 -6q-8 4 -14 21t-4 25q2 6 36 12t66 8zM1016 814q4 2 4 10q0 14 -18 32t-28 18q-2 0 -4 -2q-4 -6 0 -31t8 -29q2 -2 19 -1t19 3zM794 820q0 54 -22 54l-2 -2h-4q-46 -16 -46 -38q0 -6 4 -10t38 -4h32zM816 774q-10 10 -70 10q-160 -4 -160 -16l26 -266 q6 -6 36 -6q26 0 94 7t78 7q22 2 22 22q0 4 -7 58t-7 112q0 60 -12 72zM570 628q-6 30 -8 59t-2 42t-3 24t-8 14t-17 3q-2 0 -46 -4q-28 -2 -47 -6t-25 -4q-10 0 -35 -7t-57 -28t-38 -51t-6 -106q0 -78 6 -84h4q26 0 156 8t134 10q2 8 2 22q0 48 -10 108zM1356 754 q-2 16 -92 16l-158 -8q-6 -2 -6 -72q0 -146 10 -156q6 -6 44 -6q36 0 93 4t98 8t43 6v4q2 4 2 6q0 16 -7 59t-17 89t-10 50zM1366 200q32 26 32 180q0 128 -24 128l-262 -14q-2 -2 -2 -30q0 -22 1 -59t3 -75t5 -72t5 -58v-22q2 -18 16 -18q4 0 29 2t47 4q122 8 150 34z M1076 498q-4 2 -24 2q-16 0 -60 -3t-60 -3h-12q-42 0 -42 -20l6 -62q8 -64 8 -132q0 -40 4 -76t4 -38q0 -8 -2 -10l-4 -2q0 -10 46 -10q26 0 63 3t61 6t26 5t2 36q0 42 -3 115t-7 131t-6 58zM850 468q0 18 -30 18q-16 0 -76 -10t-92 -10h-6h-16q-16 0 -16 -14q0 -6 2 -20 t5 -40t5 -54q2 -22 5 -50t7 -52t7 -44t5 -32l2 -12q0 -12 56 -12l162 12l-2 8q0 6 -3 29t-3 55v18v42q0 46 -3 88t-7 60zM598 346q0 68 -9 94t-33 26q-8 0 -28 -4l-244 -16v-14q0 -48 11 -122t29 -98q10 -14 50 -41t72 -27q4 0 11 -1t28 -2t55 -1l72 -2q2 2 2 16 q0 24 -8 100t-8 92zM264 1266q4 0 18 3t26 3q6 0 80 10t120 12h44q44 0 235 -17t435 -17h64h8q64 0 115 -8t78 -20t45 -27t23 -25t5 -18q22 -52 22 -168q0 -38 12 -220t12 -340v-60v-50v-96q0 -92 -23 -126t-115 -70q-130 -46 -274 -46q-46 0 -109 5t-81 5h-10 q-36 -2 -114 -2q-110 0 -235 6t-195 12l-70 6q-116 16 -180 48q-56 30 -98 94t-42 90l-2 10q-2 12 -5 31t-6 43t-5 56t-2 64q0 12 1 25t3 30t2 27q6 80 6 224t8 184q0 2 1 18t2 34t6 46t13 54t23 56t35 56q20 24 51 38t53 18zM560 1264q-4 -2 -48 -4t-101 -7t-87 -11 q-20 -4 -57 -9t-53 -10t-37 -23t-37 -50q-28 -58 -37 -91t-10 -74t-5 -69q-10 -196 -10 -380q0 -238 22 -304q22 -60 78 -101t93 -51t53 -10q4 0 80 -16t132 -16h8q216 0 365 -4t216 -8t87 -4q26 0 154 22q192 34 206 118v2q4 20 4 112q0 102 -6 277t-14 307l-6 132l-2 68 q-2 54 -23 88t-61 49t-78 20t-94 5h-80q-76 0 -116 10z" />
<glyph unicode="4" horiz-adv-x="1626" d="M698 462q146 74 204 74q34 0 60 -18t72 -66q68 -72 68 -188q0 -152 -118 -206q-88 -44 -158 -44q-66 0 -110 36q-40 30 -72 99t-32 129q0 32 8 50l4 12q2 14 8 30t14 34t22 34t30 24zM166 874q10 6 34 22t38 23t52 15t90 8h2q70 0 136 -76t66 -182q0 -64 -34 -144 q-8 -18 -24 -39t-47 -53t-80 -52t-107 -20q-4 0 -13 1t-15 1l-24 2l-36 20q-164 84 -164 232q0 74 39 144t87 98zM1122 712q2 124 78 186t174 62q94 0 134 -44l26 -32q54 -54 54 -160q0 -78 -31 -146t-81 -92q-68 -30 -118 -30q-140 0 -220 178q-16 36 -16 78zM804 1222 q2 0 38 7t64 7q108 0 150 -100q4 -12 16 -35t18 -39t6 -24q4 -32 4 -70q0 -100 -40 -144q-46 -52 -68 -74t-58 -43t-72 -21q-38 0 -82 18q-46 18 -72 35t-36 32t-30 51q-30 56 -30 80q0 14 -6 52t-6 62q0 86 86 158q20 16 49 28t47 16t22 4z" />
<glyph unicode="5" d="M720 1178l28 18q28 18 46 18q20 0 30 -16q18 -28 52 -73t50 -69t30 -70t14 -102v-26q-4 -88 -42 -150q-8 -14 -8 -18t4 -4t15 3t27 8t32 7q106 14 174 14q160 0 230 -59t70 -123q0 -42 -115 -111t-217 -69q-14 0 -38 4q-14 2 -69 9t-88 15t-53 24q-16 12 -16 -2 q-2 -6 0 -32q4 -110 22 -163t50 -94t48 -85t-12 -44q-78 26 -194 26q-42 0 -94 -6q-6 0 -33 -6t-37 -6q-16 0 -16 10t14 26q8 10 23 36t34 77t25 101l6 44q8 72 8 112q0 42 -8 42q-2 0 -15 -17t-34 -40t-39 -35q-2 -2 -25 -17t-32 -21t-34 -19t-44 -19t-46 -11t-55 -5 q-92 0 -198 56l-40 20q-110 56 -110 84q0 12 48 78q32 42 61 73t49 46t35 24t23 11l10 4q20 14 63 31t69 17h18q98 0 188 -18q24 -6 26 0q0 2 -6 12q-62 112 -62 220q0 52 16 97t39 74t47 50t40 29z" />
<glyph unicode="6" horiz-adv-x="1604" d="M248 1158q0 2 -10 34t-10 48q0 22 18 22q2 0 19 -12t40 -26t43 -20q80 -24 134 -54t73 -48t25 -18h2l2 2q4 4 4 6l8 20l24 50q54 118 84 118q14 0 30 -22t43 -62t59 -68q10 -8 18 -17t12 -13t8 -4q6 0 50 72l18 30q52 88 72 88q8 0 36 -49t55 -101t29 -54t4 -2q6 0 13 15 t19 40t26 41q4 6 22 34t31 42t21 14q14 0 20 -52q2 -8 8 -30t6 -26t4 -18t4 -18q0 -2 3 -10t9 -22t12 -30q8 -22 12 -26t22 -2q46 2 86 9t63 13t31 6q14 0 14 -18q0 -8 -5 -13t-15 -13t-18 -20q-18 -26 -56 -68t-63 -72t-25 -42q0 -4 2 -6l82 -38q82 -40 88 -46q8 -8 8 -14 q0 -8 -7 -14t-24 -15t-25 -15l-34 -22q-28 -16 -74 -56q-16 -14 -4 -24q34 -26 95 -94t61 -78q0 -12 -19 -21t-39 -13l-18 -2q-14 0 -89 -11t-77 -17q-2 -4 -2 -16t3 -40t3 -32q0 -10 12 -79t12 -99q0 -34 -12 -34q-8 0 -16 8l-152 108l-94 76q-12 0 -21 -102t-27 -102 q-10 0 -28 32l-94 110l-28 32q-22 28 -28 28q-4 0 -7 -4t-5 -10t-5 -13t-7 -11t-16 -21t-12 -19q0 -10 -24 -54l-22 -44q-10 -22 -24 -22q-16 0 -16 28q0 44 -80 172q-2 4 -4 5t-5 -1t-7 -5t-10 -9t-14 -10q-52 -34 -100 -74t-70 -56l-52 -40q-30 -22 -32 -22q-16 0 -16 18 q0 6 8 70q4 42 20 114t16 92q0 24 -14 26q-36 6 -68 6q-4 0 -49 -4t-119 -6q-28 0 -32 1t-4 13q0 18 30 42t82 57t74 51q16 12 16 18t-11 11t-41 12t-50 15q-40 16 -58 16q-4 0 -17 4t-25 8l-12 4q-2 0 -8 7t-6 13t8 14q10 8 62 47t96 73t44 38t-29 18t-69 34t-60 34 q-26 20 -26 28q0 20 123 46t123 38q0 16 -32 103t-32 91z" />
<glyph unicode="7" horiz-adv-x="1602" d="M1386 1266q10 -2 26 -2q6 0 15 1t11 1q12 0 22 -16q4 -6 4 -182q0 -24 21 -99t25 -161q6 -128 19 -254t23 -198t10 -82q0 -12 -36 -51t-88 -91t-76 -82q-8 -10 -40 -33t-36 -23q-250 -2 -497 -8t-307 -6q-86 0 -172 6q-18 2 -56 2q-32 0 -74 -3t-54 -3q-36 0 -50 15 t-14 59q0 28 -7 70t-7 80q0 32 2 50q0 6 1 21t1 23q0 50 -6 176t-6 162q0 30 4 38q4 4 4 54q0 30 -2 96t-2 90q0 28 2 32q4 8 26 30l28 34q24 28 36 28q4 0 37 46t65 92l32 46q10 6 14 22t30 16q22 0 38 -2q66 -6 152 -6q100 0 338 10t348 10q122 0 196 -8zM1202 942 q-4 0 -27 3t-58 6t-65 3q-40 0 -74 -6q-20 -4 -50 -4q-10 0 -42 2t-58 2q-56 0 -136 -8l-172 -6l-424 -22q-24 -8 -24 -48q0 -14 4 -41t4 -37t-4 -18q-2 -2 -2 -70q0 -158 8 -405t16 -255q4 -6 52 -10t94 -6l46 -2q282 0 524 4t342 8l102 4q8 10 8 170q0 192 -9 459t-15 271 q-6 6 -40 6z" />
<glyph unicode="8" horiz-adv-x="1532" d="M258 1094q4 2 20 15t31 24t46 26t69 23q48 12 52 12l12 2q10 4 27 8t38 8t45 7t44 3q24 0 34 -2q2 0 12 -1t16 -1q24 0 88 3t88 3q28 0 34 -2l100 -16q212 -24 260 -44q20 -8 22 -8q78 -32 102 -54q38 -34 66 -163t28 -271q0 -200 -56 -300l-18 -30q-28 -50 -50 -76 l-26 -34q-12 -14 -29 -30t-43 -46l-50 -56q-38 -60 -158 -74l-50 -8q-122 -16 -554 -16h-40l-68 8q-56 6 -94 17t-49 15t-40 28t-33 28q-32 24 -49 90t-33 238l-2 38q-10 96 -10 144q0 52 6 91t11 59t5 24q0 8 4 21t4 17q0 2 39 66t86 134t63 80zM850 942h-50q-84 0 -121 5 t-69 5q-74 0 -354 -16q-36 -2 -48 -8t-50 -44q-30 -28 -44 -50t-18 -35t-9 -52t-11 -69q-6 -36 -6 -78q0 -48 9 -124t9 -94q18 -226 68 -258l18 -16q18 -14 34 -25t41 -22t47 -11q8 0 31 -5t67 -11t102 -6q52 0 80 2q64 4 134 4q30 0 57 -2t41 -2q36 0 248 22q28 2 51 10 t40 23t29 25t23 32l15 30t13 33t9 27q30 76 30 184q0 66 -12 171t-12 123q-2 66 -17 108t-43 62t-53 29t-65 16t-60 15q-6 2 -154 2z" />
<glyph unicode="9" horiz-adv-x="1532" d="M258 1094q4 2 20 15t31 24t46 26t69 23q48 12 52 12l12 2q10 4 27 8t38 8t45 7t44 3q24 0 34 -2q2 0 12 -1t16 -1q24 0 88 3t88 3q28 0 34 -2l100 -16q212 -24 260 -44q20 -8 22 -8q78 -32 102 -54q38 -34 66 -163t28 -271q0 -200 -56 -300l-18 -30q-28 -50 -50 -76 l-26 -34q-12 -14 -29 -30t-43 -46l-50 -56q-38 -60 -158 -74l-50 -8q-122 -16 -554 -16h-40l-68 8q-56 6 -94 17t-49 15t-40 28t-33 28q-32 24 -49 90t-33 238l-2 38q-10 96 -10 144q0 52 6 91t11 59t5 24q0 8 4 21t4 17q0 2 39 66t86 134t63 80zM1202 1142q-14 0 -144 25 t-208 25q-30 0 -42 -2q-38 -4 -90 -4q-22 0 -51 1t-41 1q-46 0 -132 -22q-122 -34 -168 -62t-92 -86q-38 -48 -34 -52q98 6 156 6q34 0 40 -2q220 6 402 6q202 0 230 -10q22 -8 62 -15t66 -16t55 -31t45 -68t18 -120q0 -14 4 -50l4 -52q16 -120 16 -178q0 -118 -36 -224 q-2 -6 -2 -12q0 -4 2 -4q16 0 64 60q90 114 116 216l8 36q10 38 10 120q0 94 -12 200t-24 132q-8 18 -16 46t-12 37t-17 24t-34 26t-57 27q-58 22 -86 22z" />
<glyph unicode=":" horiz-adv-x="1602" d="M1386 1266q10 -2 26 -2q6 0 15 1t11 1q12 0 22 -16q4 -6 4 -182q0 -24 21 -99t25 -161q6 -128 19 -254t23 -198t10 -82q0 -12 -36 -51t-88 -91t-76 -82q-8 -10 -40 -33t-36 -23q-250 -2 -497 -8t-307 -6q-86 0 -172 6q-18 2 -56 2q-32 0 -74 -3t-54 -3q-36 0 -50 15 t-14 59q0 28 -7 70t-7 80q0 32 2 50q0 6 1 21t1 23q0 50 -6 176t-6 162q0 30 4 38q4 4 4 54q0 30 -2 96t-2 90q0 28 2 32q4 8 26 30l28 34q24 28 36 28q4 0 37 46t65 92l32 46q10 6 14 22t30 16q22 0 38 -2q66 -6 152 -6q100 0 338 10t348 10q122 0 196 -8zM1182 1240 q-152 0 -444 -7t-320 -7h-22q-10 4 -40 4q-70 0 -70 -28l-54 -80q-28 -38 -64 -78t-56 -62t-20 -28v-2q4 -4 34 -4q38 0 167 8t167 8q28 0 32 -2q2 -2 22 -2q44 0 174 9t132 9h28q78 0 156 6t94 6q30 0 66 -10q16 -4 56 -4h46q30 24 87 130t57 120t-228 14zM1324 994 q0 -12 -46 -58l2 -48q2 -92 12 -354t10 -350q0 -56 -4 -88q-2 -8 -3 -29t3 -23q12 0 121 113t109 129l-26 234l-6 48q-2 10 -6 33t-6 63l-4 64q-14 210 -30 248t-22 162q-2 28 -6 28q-2 0 -8 -11t-17 -33t-23 -40z" />
<glyph unicode=";" horiz-adv-x="1730" d="M608 76q-2 0 -15 -2t-32 -4t-33 -2q-52 0 -52 28q0 10 6 10q2 0 19 -3t35 -3q30 0 68 8q16 4 22 0t4 -14q-4 -18 -22 -18zM330 162q14 16 26 16q10 0 17 -8t7 -16q0 -10 -12 -20t-28 -10q-8 0 -14 6q-12 12 4 32zM782 140q-6 6 -6 12q0 12 16 23t32 11q8 0 14 -6 q4 -4 4 -10q0 -12 -14 -25t-28 -13q-10 0 -18 8zM1056 980q6 6 14 6q10 0 10 -16q0 -10 -8 -20t-16 -10q-6 0 -10 4q-8 6 -4 18t14 18zM1272 980q10 10 23 4t9 -16q-4 -14 -22 -14q-10 0 -12 11t2 15zM1180 980q-16 0 -16 14q0 12 14 27t24 15q2 0 2 -1t2 -1q6 -2 6 -10 q0 -12 -11 -28t-21 -16zM254 1022q0 14 17 20t25 -4q10 -10 1 -26t-27 -10q-16 6 -16 20zM800 1032v2q-2 2 -2 4q0 16 38 16q32 0 32 -16q0 -8 -12 -15t-26 -7q-24 0 -30 16zM378 1048q0 10 9 17t19 7q18 0 18 -20q0 -26 -26 -26q-20 0 -20 22zM664 1052q0 12 17 19t25 1 t3 -25t-21 -23q-8 -2 -16 7t-8 21zM528 1054q22 22 31 25t19 -9q0 -2 1 -4t1 -4q0 -12 -14 -29t-24 -17q-14 0 -14 24v14zM938 1076q16 6 30 6q16 0 16 -8t-10 -22q-10 -16 -20 -16q-8 0 -14 11t-6 21q0 8 4 8zM1486 1046h-2q-16 0 -16 30q0 16 14 16h4q18 -4 17 -23 t-17 -23zM1360 1090q4 0 15 5t18 3t7 -16q0 -6 -12 -20t-22 -14q-12 0 -18 22q-6 20 12 20zM1214 1082q0 12 14 20t22 0t-1 -23t-21 -15q-4 0 -9 7t-5 11zM1116 1134q52 24 52 -6q0 -8 -10 -16t-20 -8q-18 0 -22 30zM288 1104v2q-2 2 -2 4q0 10 11 23t21 13q12 0 12 -22 q0 -14 -9 -21t-19 -7t-14 8zM1274 1154q6 38 20 38q20 0 20 -30q0 -22 -16 -38q-6 -4 -12 -4t-10 9t-2 25zM438 1138q-24 0 -24 30q0 28 22 28h4q2 -2 4 -2q12 -2 12 -26q0 -30 -18 -30zM526 1148q-10 10 -10 24q0 12 8 20t18 8q6 0 14 -4q8 -6 -2 -30t-20 -24q-2 0 -8 6z M1002 1160q-4 4 -4 12q0 12 7 23t17 11q2 0 10 -4q4 -2 4 -12t-9 -22t-17 -12q-4 0 -8 4zM670 1170q-2 4 -2 8q0 12 9 20t19 8q12 0 12 -12q0 -8 -2 -14q-8 -18 -20 -21t-16 11zM844 1192q-2 12 15 21t27 1q6 -6 6 -12q0 -10 -10 -18t-22 -8q-14 0 -16 16zM408 1264 q4 0 22 7t91 18t207 19q18 2 46 2q32 0 85 -7t111 -7h36h26q68 0 140 -8t110 -16l38 -6q36 0 101 -31t99 -79q38 -54 62 -158t30 -182l4 -76q0 -18 6 -24t15 -5t22 -9t23 -32q10 -24 10 -38q0 -16 -30 -54l14 -58q16 -64 16 -68q0 -10 -6 -22q-4 -12 -4 -14t-11 -13t-15 -11 q-6 0 -8 -69t-3 -149t-9 -100q-26 -60 -222 -60q-24 0 -65 1t-55 1q-46 0 -64 -6q-14 -4 -128 -9t-227 -9t-117 -4q-96 -16 -278 -16q-264 0 -296 66q-24 48 -37 113t-18 116t-9 59q-10 24 -10 98v24t1 20t2 15t2 12t2 8t1 5v2q0 6 -30 24t-36 42q-12 36 -12 44q0 28 24 46 q20 16 37 26t24 12t11 5t4 9q0 4 -1 14t-3 28t-2 38q0 18 -5 65t-5 73q0 152 118 258q30 26 72 44t64 22t30 4zM622 1264q-8 -2 -43 -4t-78 -9t-87 -21q-4 0 -38 -6t-63 -19t-55 -41q-38 -38 -55 -63t-22 -35t-11 -49t-12 -61v-16q0 -232 28 -232h10q8 -2 21 -5t28 -5t33 -3 t32 -1q20 0 28 2q20 4 60 4q34 0 61 2t35 2q2 0 50 -4q56 -6 108 -6q58 0 136 9t102 9q4 0 13 -1t13 -1q20 -2 84 -2q46 0 108 2t119 4t107 4t82 4l30 2q66 -6 104 -6q36 0 36 4q0 6 -5 63t-13 123t-16 76q-2 4 -2 14q0 30 -18 60q-8 12 -8 14q0 20 -36 66t-64 56l-8 4 q0 20 -155 43t-235 23h-6q-12 0 -33 -1t-29 -1q-58 0 -127 6t-97 6q-54 0 -112 -10zM1646 488q-2 6 -4 24t-7 28t-13 10q-2 0 -10 -4q-14 -8 -255 -16t-243 -8l-4 -4q0 -2 13 -15t30 -41t25 -66q8 -50 27 -82t37 -32q12 0 26 24q2 4 14 77t48 83l24 6q28 0 45 -24t26 -49 t17 -25q2 0 2 1t2 1q6 2 16 43t48 45h4q20 0 60 -22t54 -22q12 0 20 8t8 18q0 12 -10 42zM574 500q-48 6 -92 6q-36 0 -98 -4t-94 -4q-62 0 -120 10h-10q-12 0 -15 -12t-3 -56q0 -100 24 -112q4 -2 12 -2q28 0 58 82q16 44 46 44q22 0 46 -21t30 -43q18 -64 44 -64 q18 0 55 48t53 48q30 0 57 -34t51 -67t44 -33q40 0 48 99t34 111q18 8 8 12h-6q-10 0 -70 -4t-86 -4h-16zM908 440q2 12 9 36t7 28v2q-2 0 -4 -2q-4 -4 -40 -4h-36q-24 0 -26 -2q36 -84 70 -84q12 0 15 4t5 22zM1142 386q-18 106 -108 106q-10 0 -25 -2t-21 -2 q-30 -2 -38 -19t-11 -43t-17 -38q-16 -12 -36 -12q-50 0 -78 56q-16 34 -36 34q-22 0 -28 -31t-3 -69t-15 -72t-64 -40h-6q-36 0 -83 63t-61 63q-12 0 -24 -20q-36 -74 -82 -74t-76 78q-6 18 -20 34t-26 16t-20 -22q-18 -52 -38 -77t-33 -25t-21 -4t-8 -20q0 -4 4 -32l6 -42 q8 -54 17 -81t36 -56t84 -41t149 -12q30 0 106 4q796 44 850 44h104q64 16 79 28t15 54v68q0 66 4 112q2 14 2 36q0 28 -7 35t-24 9t-29 12q-20 18 -54 30q-12 -12 -14 -40t-16 -38q-22 -16 -44 -16q-18 0 -28 10l-8 22q-10 24 -22 45t-26 21q-8 0 -14 -6q-10 -8 -16 -39 t-9 -63t-23 -57t-54 -25q-14 0 -27 6t-22 18t-15 24t-11 28t-8 26t-5 22z" />
<glyph unicode="&#x3c;" d="M746 936q-10 0 -33 16t-23 28q0 24 27 41t61 17q30 0 51 -15t21 -43q0 -50 -58 -50zM808 968q8 8 8 10q0 10 -15 17t-33 7q-16 0 -30 -8q-6 -2 -6 -6q0 -8 21 -15t39 -7q12 0 16 2zM590 892q-22 0 -60 43t-38 83t76 65t160 25q48 0 72 -8q8 -2 49 -10t71 -17t61 -38 t37 -71q0 -2 1 -7t1 -7q0 -52 -63 -76t-155 -24q-138 0 -202 36q-2 0 -6 4q-2 2 -4 2zM836 1050h-4q-2 0 -30 12t-72 12q-14 0 -102 -12q-100 -16 -100 -58q0 -28 42 -58t88 -40q104 -22 166 -22q76 0 119 21t43 47q0 40 -53 69t-95 29h-2zM1092 1136q-12 0 -61 6t-53 6 q-26 0 -94 14t-124 14h-12h-26q-28 0 -36 3t-38 3q-48 0 -110 -7t-139 -23t-132 -51t-63 -85q-2 -6 -2 -18q0 -38 32 -69t66 -45t82 -28t54 -16q38 -18 200 -26t206 -20l10 -2q8 -2 23 -4t35 -4t45 -4t49 -2q166 0 238 64t72 142q0 56 -73 104t-149 48zM104 328q0 4 -5 16 t-5 14q0 4 -13 52t-27 144t-14 216q0 98 12 226q2 26 10 51t14 41l6 14q0 48 105 118t213 70h16h20q28 0 81 7t85 7q50 0 92 -10q16 -4 64 -4q18 0 70 1t84 1q144 0 234 -26q146 -44 206 -78t88 -90q14 -28 14 -42q0 -8 3 -17t6 -21t6 -54t3 -112v-32q0 -92 -10 -330 t-26 -290q-22 -70 -73 -111t-91 -51t-99 -14t-61 -4q-84 -16 -218 -16q-120 0 -239 14t-236 44t-199 88t-102 136q0 2 -7 20t-7 22z" />
<glyph unicode="=" d="M746 936q-10 0 -33 16t-23 28q0 24 27 41t61 17q30 0 51 -15t21 -43q0 -50 -58 -50zM808 968q8 8 8 10q0 10 -15 17t-33 7q-16 0 -30 -8q-6 -2 -6 -6q0 -8 21 -15t39 -7q12 0 16 2zM836 1050h-4q-2 0 -30 12t-72 12q-14 0 -102 -12q-100 -16 -100 -58q0 -28 42 -58 t88 -40q104 -22 166 -22q76 0 119 21t43 47q0 40 -53 69t-95 29h-2zM232 1116q12 10 61 31t149 44t202 23q36 0 54 -2q22 -2 50 -2q14 0 25 1t15 1q18 0 138 -22q42 -8 104 -14t100 -11t81 -17t73 -39t52 -71q10 -20 10 -52q0 -78 -50 -142q-76 -98 -282 -98q-54 0 -113 6 t-110 14t-61 8q-560 28 -560 218q0 14 2 20q4 30 19 56t27 37t14 11zM104 328q0 4 -5 16t-5 14q0 4 -13 52t-27 144t-14 216q0 98 12 226q2 26 10 51t14 41l6 14q0 48 105 118t213 70h16h20q28 0 81 7t85 7q50 0 92 -10q16 -4 64 -4q18 0 70 1t84 1q144 0 234 -26 q146 -44 206 -78t88 -90q14 -28 14 -42q0 -8 3 -17t6 -21t6 -54t3 -112v-32q0 -92 -10 -330t-26 -290q-22 -70 -73 -111t-91 -51t-99 -14t-61 -4q-84 -16 -218 -16q-120 0 -239 14t-236 44t-199 88t-102 136q0 2 -7 20t-7 22zM528 74q4 0 45 -8t55 -8l8 -2q10 0 27 -1t39 -2 t51 -2t59 -2t65 -2t69 -1q290 0 368 50q4 2 13 9t15 11l6 6q0 4 16 18t34 57t24 115l6 60v40q2 42 4 105t4 133t3 142t1 120q0 72 -2 80q-12 48 -19 68t-26 48t-51 46t-86 36l-90 32q-104 36 -286 36h-128q-60 0 -94 6q-40 4 -100 4q-276 0 -372 -84q-36 -30 -55 -56 t-40 -111t-21 -217q0 -12 1 -37t1 -39q4 -110 15 -198t31 -146t36 -98t43 -65t40 -36t39 -23t28 -12q40 -24 96 -42t89 -24t39 -6z" />
<glyph unicode="&#x3e;" horiz-adv-x="1668" d="M344 150q0 -6 26 -24t28 -18t17 -9t35 -18t36 -11l26 -4q28 -4 60 -9t46 -5h8h2q2 0 21 -3t35 -3h10q20 2 64 2q50 0 164 -6t168 -6q96 0 160 14q4 0 26 4t44 9t48 14t48 23t34 30q2 2 2 10q0 30 -67 91t-85 61q-8 0 -30 -20t-50 -46t-85 -56t-123 -46l-82 -16 q-2 0 -9 -1t-11 -1q-70 0 -195 28t-167 64q-10 8 -25 18l-24 16t-9 12q-4 14 -6 14q-12 0 -76 -48t-64 -60zM654 1076q16 -8 42 -8q54 0 64 22q22 36 22 64q0 36 -42 60q-12 8 -16 8q-2 2 -12 2q-30 0 -69 -29t-39 -63t50 -56zM1034 1138q0 -80 86 -80q22 0 50 12 q14 8 35 44t21 50q0 24 -37 43t-57 19h-2h-8q-18 0 -34 -4t-35 -25t-19 -59zM1052 1252q-8 2 -24 2q-60 0 -134 -10q-26 -4 -55 -6t-39 -3t-10 -5q0 -6 4 -10q24 -32 24 -66q0 -40 -28 -92q10 -130 17 -289t11 -243t8 -88q-316 -156 -320 -170q78 -72 170 -88q6 0 94 -20 t132 -20q20 0 30 2q4 0 20 2t37 6t49 14q68 24 123 60t75 60l22 24q-2 8 -104 67t-122 61q6 6 6 94q0 16 -4 196q-2 46 -2 118q0 50 2 106t2 64q0 28 -6 34q-34 36 -34 84q0 30 14 59t28 43zM1260 1280q62 62 166 62q68 0 122 -33t72 -97q8 -28 8 -42q0 -46 -72 -116 l-26 -24v-40q2 -58 27 -182t25 -226v-22q-2 -82 -9 -149t-16 -117t-26 -91t-32 -67t-40 -47t-42 -32t-49 -21t-50 -13l-54 -9t-54 -10q-16 -4 -126 -4q-428 0 -620 32q-82 14 -159 103t-116 171t-39 108q0 6 -14 60t-12 94q0 4 -4 22t-10 52t-8 72q-8 94 -8 164q0 50 4 92 l4 42q0 16 -12 28q-50 52 -50 114q0 60 43 106t97 56t86 10q52 0 87 -16t42 -26t23 -32q46 0 118 11t92 11t26 -2q12 -4 54 -4q44 0 178 9t192 9q50 0 80 -6q48 -8 72 -8q22 0 30 8zM1192 556q12 -12 26 1t10 27q-2 16 -16 16q-10 0 -19 -8t-9 -18t8 -18zM1164 472l12 -18 q12 -6 22 4q22 18 18 34q-6 22 -18 22q-14 0 -26 -16t-8 -26zM1302 466q-12 -8 -6 -20q4 -8 13 -10t15 3t6 15q0 12 -8 16t-20 -4zM644 520q0 -4 10 -14t14 -10q10 0 15 17t-3 27t-22 -1t-14 -19zM534 502q26 12 0 30q-8 4 -10 4q-18 0 -18 -22q0 -16 14 -16q2 0 14 4z M558 400q0 -22 12 -22t26 32q-14 14 -26 11t-12 -21zM1086 1136q-14 40 18 40q24 0 24 -16q0 -10 -8 -22t-14 -14q-12 0 -20 12zM662 1132q0 10 5 17t10 10t7 3q16 0 20 -12q2 -2 2 -8q0 -10 -9 -20t-19 -10q-6 0 -10 4q-6 6 -6 16zM1032 440zM1032 440q4 -22 -28 -106 t-64 -86q-8 0 -25 12t-46 60t-43 122q4 -4 20 -4q12 0 59 4t73 4q34 0 54 -6z" />
<glyph unicode="?" horiz-adv-x="1552" d="M58 348q-2 48 -10 130t-8 110q0 60 24 60q4 0 7 -5t11 -17t18 -22l38 -36q110 -118 238 -118q38 0 77 9t80 24t53 19q40 12 72 35t46 43t27 36t21 16t12 -4q14 -12 -10 -36v-54q2 -104 7 -229t5 -157q0 -84 -26 -117t-106 -47q-14 -4 -78 -4q-162 0 -202 10q-2 0 -25 5 t-42 10t-43 13t-41 17t-23 19q0 2 -4 2t-12 4t-27 22t-34 46t-29 85t-16 131zM154 498q-12 8 -29 27t-29 33t-16 14q-2 -12 -2 -26q0 -72 8 -196t18 -134q2 -6 5 -16t18 -36t38 -48t66 -45t97 -33q80 -16 116 -16q6 0 28 2t50 2q38 0 66 -2h20q104 0 120 64q6 28 6 112 q0 64 -4 147t-8 137t-6 54q-4 0 -15 -11t-32 -28t-47 -23q-30 -8 -55 -16t-38 -13t-23 -8t-14 -5t-8 -2q-44 -22 -108 -22q-42 0 -84 14q-8 4 -14 4q-4 0 -44 21t-52 29zM1476 724q0 12 14 20t22 0q2 -2 2 -38q0 -88 -12 -307t-16 -241q-8 -46 -30 -73t-36 -31t-24 -4 q-8 0 -41 -8t-82 -17t-91 -13l-44 -2q-8 0 -63 -4t-85 -4q-172 0 -172 90q0 4 -10 103t-10 161q0 60 -5 102t-5 102q0 30 2 42t4 15t9 5t13 6q6 6 16 6q14 0 52 -28t62 -38q80 -34 124 -34q4 0 136 12q46 4 158 72t112 106zM1470 468q6 66 6 112q0 68 -12 68l-4 -4 q-20 -24 -124 -80t-134 -56q-22 0 -68 -4t-72 -4q-112 0 -216 82q-16 12 -20 6q-2 -2 -2 -30q0 -70 11 -246t15 -206q10 -56 54 -56q4 0 18 -6t28 -6h8q8 0 26 1t28 1h40q116 0 182 16q12 4 22 4q12 0 138 32q26 6 40 21t19 49t6 69l3 105t8 132zM342 1236l202 32 q44 0 44 -14q0 -10 -22 -24q-24 -14 -45 -44t-21 -62q0 -46 56 -74q16 -8 34 -8q20 0 43 13t29 13q4 0 10 -6q2 -2 2 -14v-20q0 -48 26 -86q10 -16 24 -22t23 -5t15 -2t6 -11t-2 -14q-4 -16 -4 -80v-28q0 -30 -2 -32q-6 -12 -14 -12q-14 0 -22 22q-10 16 -27 39t-75 64 t-120 49q-60 8 -108 8q-220 0 -298 -152q-12 -22 -22 -22q-16 0 -16 50q0 56 16 146t34 134q10 24 30 50t75 61t129 51zM472 1140q0 20 9 39t17 31t8 14q0 4 -4 4l-16 -4q-10 -2 -55 -6t-87 -13t-91 -29t-86 -65t-51 -111q-20 -96 -20 -142l4 -24q12 0 32 19t45 41t84 41 t139 19q60 0 140 -12q44 -8 85 -33t65 -47t30 -22q8 0 8 16q0 18 -20 26q-48 18 -72 118q-2 8 -44 7t-81 23t-39 92v18zM1324 892l-12 4q-10 2 -26 7t-34 10t-37 8t-31 3q-62 0 -152 -35t-152 -101q-24 -24 -28 -24t-10 6q-8 44 -8 88q0 68 28 74q62 12 62 54q0 10 -5 29 t-5 25t4 10q6 6 12 6t28 -11t38 -11t32 8q8 4 20 16t12 16l6 10q6 12 11 24t1 20q-2 2 -2 12q0 30 -62 73t-62 53q0 8 12 12l4 2h10q62 0 221 -22t187 -40q66 -42 84 -88t18 -204v-32v-86q-12 -28 -22 -28q-6 0 -18 14t-35 38t-55 40q-12 6 -20 11t-10 7zM1202 1224 q-24 6 -98 6q-34 0 -36 -2l-4 -2q0 -2 12 -15t25 -35t13 -48q0 -24 -12 -50q-14 -32 -24 -42q-34 -38 -88 -38q-12 0 -16 2h-2q-4 0 -11 -23t-27 -49t-56 -34q-12 -2 -10 -30q2 -24 10 -24l44 28q42 26 44 26t14 8t38 20t62 20q4 0 24 6t42 9t46 3q110 0 222 -74 q32 -20 34 -16q4 4 4 66q0 160 -20 186q-26 34 -57 54t-53 26t-62 12t-58 10zM728 1266q28 8 50 19t30 11q12 0 28 -8q50 -24 61 -38t11 -52q0 -90 -108 -90q-42 0 -81 17t-51 41q-4 12 -4 18q0 24 17 49t47 33zM872 1196q0 20 -16 37t-38 17q-2 0 -7 -1t-7 -1l-58 -14 q-14 0 -29 -13t-15 -27q0 -36 66 -46q28 -4 40 -4q64 0 64 52z" />
<glyph unicode="@" horiz-adv-x="1538" d="M1158 734q16 54 60 80t92 26q50 0 64 -20l8 -12q6 0 19 -13t25 -40t12 -55q0 -44 -38 -88q-48 -54 -112 -54q-56 0 -97 39t-41 95q0 14 8 42zM1314 798q0 8 -14 8q-30 0 -72 -31t-42 -73q0 -14 2 -20q24 -90 102 -90q80 0 108 88q2 6 2 18q0 32 -21 61t-41 29h-2 q-22 -4 -22 10zM228 836q2 0 33 14t57 14q16 0 34 -6q6 -2 19 -6t17 -6q6 -2 30 -29t28 -33q4 -8 4 -30q0 -54 -32 -116t-86 -86q-30 -16 -66 -16q-58 0 -93 48t-35 110q0 76 52 120q26 22 38 22zM354 812q-10 0 -21 9t-23 9t-30 -6q-86 -30 -108 -104q-4 -16 -4 -26 q0 -44 31 -84t75 -40q64 0 118 90q24 40 24 76q0 26 -14 45t-28 25t-20 6zM302 1276q72 22 176 22q74 0 188 -12t128 -12q24 0 82 -7t94 -7q18 0 54 4q12 2 38 2q46 0 103 -9t99 -20t48 -11q40 -4 71 -29t43 -47l12 -22q38 -90 38 -160q0 -46 -24 -68q-2 -2 -4 -2 q-4 0 -71 16t-115 16q-164 0 -188 -172q-12 -96 -12 -106q0 -12 1 -21t2 -16t6 -17l7 -14t10 -15t12 -15t16 -19t18 -21q20 -24 54 -40t60 -20l24 -4l8 -2q10 -4 27 -6t37 -2q50 0 106 18q38 10 48 -2q2 -12 2 -30q0 -74 -7 -198t-13 -140q-4 -14 -16 -31t-16 -19 q-36 -14 -60 -14q-2 0 -23 -4t-54 -7t-65 -3q-148 0 -220 76q-26 28 -40 71t-33 64t-67 21q-10 0 -46 -4q-10 -2 -61 -2t-65 -4q-32 -8 -46 -8q-32 0 -57 -38t-46 -91t-35 -69q-28 -32 -93 -51t-133 -19q-70 0 -108 22q-30 16 -49 31t-45 57t-40 102q-8 16 -8 172 q0 142 28 144t76 2q30 0 73 -1t57 -1q62 0 100 20t80 82q34 50 34 122q0 82 -40 154t-106 92q-50 20 -108 20q-66 0 -100 -32q-12 -10 -33 -36t-21 -30t-14 -21t-22 -17q-10 0 -12 22q0 22 -3 64t-3 62q0 158 114 224q82 46 108 54zM648 1252q0 2 -18 6t-54 8t-74 4 q-164 0 -294 -68q-68 -36 -90 -61t-40 -79v-60v-46q0 -30 4 -30q2 0 9 7l19 19t24 22q38 28 56 28q38 6 78 6q56 0 86 -16q2 -2 22 -9t36 -17t37 -27t40 -47t31 -68q16 -48 16 -106q0 -94 -45 -160t-79 -84q-54 -30 -164 -30q-30 0 -75 2t-55 2q-18 0 -20 -2 q-14 -14 -14 -114q0 -72 10 -150q4 -24 14 -52t49 -70t99 -66h50q160 0 206 64q50 84 50 100q0 6 10 28t40 48t70 26q10 0 36 7t34 7l2 -2h4q4 -4 22 -4q12 0 51 5t61 5q50 0 80 -22q20 -14 45 -74t59 -86q68 -50 180 -50q36 0 56 4l36 4q66 8 83 19t21 49l12 292 q0 12 -8 12l-36 -10q-36 -10 -74 -10q-50 0 -100 16q-16 4 -34 9t-27 8t-19 6t-17 9t-13 9t-17 15t-19 21t-26 29q-44 50 -44 150q0 96 42 178t120 100q46 10 78 10q46 0 100 -14t56 -14q4 0 6 2q6 6 6 30q0 50 -21 111t-65 95q-14 10 -57 21t-79 17l-38 6q-14 0 -41 4 t-105 4h-82q-6 0 -151 8t-147 10q-4 4 -4 6z" />
<glyph unicode="A" horiz-adv-x="1604" d="M248 1158q0 2 -10 34t-10 48q0 22 18 22q2 0 19 -12t40 -26t43 -20q80 -24 134 -54t73 -48t25 -18h2l2 2q4 4 4 6l8 20l24 50q54 118 84 118q14 0 30 -22t43 -62t59 -68q10 -8 18 -17t12 -13t8 -4q6 0 50 72l18 30q52 88 72 88q8 0 36 -49t55 -101t29 -54t4 -2q6 0 13 15 t19 40t26 41q4 6 22 34t31 42t21 14q14 0 20 -52q2 -8 8 -30t6 -26t4 -18t4 -18q0 -2 3 -10t9 -22t12 -30q8 -22 12 -26t22 -2q46 2 86 9t63 13t31 6q14 0 14 -18q0 -8 -5 -13t-15 -13t-18 -20q-18 -26 -56 -68t-63 -72t-25 -42q0 -4 2 -6l82 -38q82 -40 88 -46q8 -8 8 -14 q0 -8 -7 -14t-24 -15t-25 -15l-34 -22q-28 -16 -74 -56q-16 -14 -4 -24q34 -26 95 -94t61 -78q0 -12 -19 -21t-39 -13l-18 -2q-14 0 -89 -11t-77 -17q-2 -4 -2 -16t3 -40t3 -32q0 -10 12 -79t12 -99q0 -34 -12 -34q-8 0 -16 8l-152 108l-94 76q-12 0 -21 -102t-27 -102 q-10 0 -28 32l-94 110l-28 32q-22 28 -28 28q-4 0 -7 -4t-5 -10t-5 -13t-7 -11t-16 -21t-12 -19q0 -10 -24 -54l-22 -44q-10 -22 -24 -22q-16 0 -16 28q0 44 -80 172q-2 4 -4 5t-5 -1t-7 -5t-10 -9t-14 -10q-52 -34 -100 -74t-70 -56l-52 -40q-30 -22 -32 -22q-16 0 -16 18 q0 6 8 70q4 42 20 114t16 92q0 24 -14 26q-36 6 -68 6q-4 0 -49 -4t-119 -6q-28 0 -32 1t-4 13q0 18 30 42t82 57t74 51q16 12 16 18t-11 11t-41 12t-50 15q-40 16 -58 16q-4 0 -17 4t-25 8l-12 4q-2 0 -8 7t-6 13t8 14q10 8 62 47t96 73t44 38t-29 18t-69 34t-60 34 q-26 20 -26 28q0 20 123 46t123 38q0 16 -32 103t-32 91zM880 1038q-38 34 -68 64t-46 50t-27 36t-15 24l-7 14t-5 8t-6 2q-14 0 -55 -83t-45 -105q-4 -18 -18 -18q-16 0 -70 49t-78 55q-2 0 -42 17t-44 17q-6 0 -26 9t-22 9q-4 0 -18 6l-16 8q-2 0 -2 -4q0 -20 37 -123 t45 -119q4 -8 4 -12q0 -26 -112 -42t-112 -28q0 -8 18 -16l38 -22l22 -12l100 -38q4 -4 4 -10q0 -12 -22 -28t-63 -42t-67 -46q-12 -10 -30 -22t-26 -19t-8 -11q0 -10 52 -24q16 -4 64 -22t82 -24q40 -8 40 -22q0 -8 -14 -20t-40 -29t-36 -25l-40 -24q-80 -42 -80 -54 q0 -6 46 -6q18 0 62 2t62 2q28 0 44 -4q20 -6 32 -6q4 0 10 1t8 1q6 0 6 -4t-2 -12t-6 -23t-6 -31q-4 -22 -14 -68t-17 -82t-7 -52q0 -12 4 -12q10 0 130 89t128 113q2 10 10 10t18 -17t23 -43t17 -32q12 -16 23 -40t17 -38t10 -14q10 0 18 22q80 148 88 152q2 0 6 2 q10 0 22 -13t31 -42t33 -45q6 -10 38 -47t38 -37t10 22t6 42l2 22l14 92q6 12 14 12t23 -13t42 -40t55 -47l32 -24q84 -62 102 -62q2 0 2 14t-12 86t-12 112q0 16 -2 33t-2 19q0 12 34 14q34 0 109 8t75 18q0 8 -14 30t-49 59t-81 65q-8 6 -8 14q0 22 82 76t82 62l-2 2 q-30 26 -71 44t-64 28t-23 24q0 16 10 28l20 28q10 14 40 50t54 64t24 32t-20 4q-44 0 -126 -14q-4 0 -8 -1t-6 -1q-4 0 -7 1t-6 5t-5 9t-4 15t-5 21t-8 29t-11 36q-8 24 -13 49l-7 35t-6 10q-6 0 -44 -56q-24 -32 -37 -66t-19 -49t-18 -15q-8 0 -28 33t-36 65l-14 34 q0 4 -23 44t-25 42h-2q-14 0 -70 -95t-62 -99z" />
<glyph unicode="B" horiz-adv-x="1602" d="M1386 1266q10 -2 26 -2q6 0 15 1t11 1q12 0 22 -16q4 -6 4 -182q0 -24 21 -99t25 -161q6 -128 19 -254t23 -198t10 -82q0 -12 -36 -51t-88 -91t-76 -82q-8 -10 -40 -33t-36 -23q-250 -2 -497 -8t-307 -6q-86 0 -172 6q-18 2 -56 2q-32 0 -74 -3t-54 -3q-36 0 -50 15 t-14 59q0 28 -7 70t-7 80q0 32 2 50q0 6 1 21t1 23q0 50 -6 176t-6 162q0 30 4 38q4 4 4 54q0 30 -2 96t-2 90q0 28 2 32q4 8 26 30l28 34q24 28 36 28q4 0 37 46t65 92l32 46q10 6 14 22t30 16q22 0 38 -2q66 -6 152 -6q100 0 338 10t348 10q122 0 196 -8zM1182 1240 q-152 0 -444 -7t-320 -7h-22q-10 4 -40 4q-70 0 -70 -28l-54 -80q-28 -38 -64 -78t-56 -62t-20 -28v-2q4 -4 34 -4q38 0 167 8t167 8q28 0 32 -2q2 -2 22 -2q44 0 174 9t132 9h28q78 0 156 6t94 6q30 0 66 -10q16 -4 56 -4h46q30 24 87 130t57 120t-228 14zM1324 994 q0 -12 -46 -58l2 -48q2 -92 12 -354t10 -350q0 -56 -4 -88q-2 -8 -3 -29t3 -23q12 0 121 113t109 129l-26 234l-6 48q-2 10 -6 33t-6 63l-4 64q-14 210 -30 248t-22 162q-2 28 -6 28q-2 0 -8 -11t-17 -33t-23 -40zM1202 942q-4 0 -27 3t-58 6t-65 3q-40 0 -74 -6 q-20 -4 -50 -4q-10 0 -42 2t-58 2q-56 0 -136 -8l-172 -6l-424 -22q-24 -8 -24 -48q0 -14 4 -41t4 -37t-4 -18q-2 -2 -2 -70q0 -158 8 -405t16 -255q4 -6 52 -10t94 -6l46 -2q282 0 524 4t342 8l102 4q8 10 8 170q0 192 -9 459t-15 271q-6 6 -40 6z" />
<glyph unicode="C" horiz-adv-x="1532" d="M258 1094q4 2 20 15t31 24t46 26t69 23q48 12 52 12l12 2q10 4 27 8t38 8t45 7t44 3q24 0 34 -2q2 0 12 -1t16 -1q24 0 88 3t88 3q28 0 34 -2l100 -16q212 -24 260 -44q20 -8 22 -8q78 -32 102 -54q38 -34 66 -163t28 -271q0 -200 -56 -300l-18 -30q-28 -50 -50 -76 l-26 -34q-12 -14 -29 -30t-43 -46l-50 -56q-38 -60 -158 -74l-50 -8q-122 -16 -554 -16h-40l-68 8q-56 6 -94 17t-49 15t-40 28t-33 28q-32 24 -49 90t-33 238l-2 38q-10 96 -10 144q0 52 6 91t11 59t5 24q0 8 4 21t4 17q0 2 39 66t86 134t63 80zM1202 1142q-14 0 -144 25 t-208 25q-30 0 -42 -2q-38 -4 -90 -4q-22 0 -51 1t-41 1q-46 0 -132 -22q-122 -34 -168 -62t-92 -86q-38 -48 -34 -52q98 6 156 6q34 0 40 -2q220 6 402 6q202 0 230 -10q22 -8 62 -15t66 -16t55 -31t45 -68t18 -120q0 -14 4 -50l4 -52q16 -120 16 -178q0 -118 -36 -224 q-2 -6 -2 -12q0 -4 2 -4q16 0 64 60q90 114 116 216l8 36q10 38 10 120q0 94 -12 200t-24 132q-8 18 -16 46t-12 37t-17 24t-34 26t-57 27q-58 22 -86 22zM850 942h-50q-84 0 -121 5t-69 5q-74 0 -354 -16q-36 -2 -48 -8t-50 -44q-30 -28 -44 -50t-18 -35t-9 -52t-11 -69 q-6 -36 -6 -78q0 -48 9 -124t9 -94q18 -226 68 -258l18 -16q18 -14 34 -25t41 -22t47 -11q8 0 31 -5t67 -11t102 -6q52 0 80 2q64 4 134 4q30 0 57 -2t41 -2q36 0 248 22q28 2 51 10t40 23t29 25t23 32l15 30t13 33t9 27q30 76 30 184q0 66 -12 171t-12 123q-2 66 -17 108 t-43 62t-53 29t-65 16t-60 15q-6 2 -154 2z" />
<glyph unicode="D" horiz-adv-x="1478" d="M1108 186q-254 -44 -592 -44q-86 0 -118 8q-40 12 -60 12q-4 0 -27 6t-31 6q-6 0 -6 -2q0 -4 8 -22t8 -34q0 -30 27 -47t55 -19l28 -2q212 -18 350 -18q70 0 96 6q10 2 40 2q16 0 55 -1t57 -1q28 0 48 4q2 0 24 3t37 8t33 24t24 49q2 12 6 26t6 22t2 12q0 10 -14 10z M444 316q-10 -2 -36 -2q-18 0 -53 2t-49 2q-36 0 -36 -8l2 -2v-9v-11t-1 -17t-1 -15q0 -34 84 -38q18 -2 56 -9t48 -7q4 20 4 50q0 64 -16 64h-2zM152 344q-8 4 -14 2t0 -12q6 -12 34 -37t52 -45l26 -18q0 2 -3 11t-3 31q0 10 -1 17t-1 13t-3 10t-4 6t-8 4t-10 3t-14 3 t-17 4zM952 334q0 18 -14 18q-6 0 -18 -2t-35 -6t-43 -8l-52 -8q-20 -4 -42 -4q-14 0 -14 -8l2 -20q2 -22 2 -44l-8 -58h36q164 0 180 4q4 2 4 10v48q0 28 1 51t1 27zM1174 268l4 100q0 28 -14 28q-6 0 -18 -4t-33 -10t-43 -10l-84 -16q-6 -6 -6 -102q0 -54 16 -54q4 0 15 3 t31 8t40 7q14 2 34 6t42 8q16 2 16 36zM686 438q-6 2 -16 2q-8 0 -53 -2t-75 -2q-10 0 -28 1t-26 1h-4q-12 0 -12 -14q0 -12 10 -66q2 -12 20 -12q2 0 44 3t88 3q56 0 58 2t2 16q0 60 -8 68zM436 438q-162 24 -176 24q-2 0 -2 -18q0 -80 10 -90q12 -12 140 -12q6 0 14 1 t10 1q18 2 18 14q0 4 -2 19t-4 27q-4 30 -8 34zM734 444q-16 0 -16 -30l10 -58h4q2 -2 6 -2q32 0 117 12t89 16q2 2 2 10q0 44 -12 68q-2 6 -22 6q-28 0 -100 -11t-78 -11zM204 480q-30 2 -56 7t-40 8t-18 3q-6 0 -6 -6q10 -112 42 -112l18 -4q16 -4 40 -9t34 -7q4 -2 10 -2 q8 0 8 12q0 6 -2 29t-4 43q-2 26 -6 31t-20 7zM1150 520q-4 4 -14 4q-20 0 -63 -11t-75 -23l-32 -12q-2 0 -2 -12q0 -10 3 -28t6 -31t5 -15t12 -2q28 0 103 18t79 24v4q2 4 2 6q0 16 -8 44t-16 34zM368 1186h-6q-92 0 -180 -92q-26 -28 -55 -69t-29 -47q0 -2 -2 -4 q-20 -32 -20 -234v-86l2 -78q22 -20 67 -43t65 -23q2 0 34 -7t72 -15t62 -10q40 -4 65 -7t33 -5t14 -2t23 2t67 6t118 10q20 2 33 4t17 2q74 0 299 52t279 96q4 4 27 17t31 13h2q8 0 8 26q0 18 -4 49t-9 61t-10 58t-9 48l-4 18q0 12 -5 30t-32 65t-73 79q-158 110 -524 110 q-164 0 -356 -24zM284 1204q16 14 169 30t299 16q200 0 282 -34q12 -6 66 -21t58 -17q10 -8 55 -25t76 -38t65 -86t46 -165q0 -2 7 -42t14 -86t13 -106t6 -102q0 -44 -6 -70q-2 -10 -6 -34t-8 -38t-11 -35t-19 -39q-32 -50 -67 -76t-59 -31t-43 -20t-25 -49 q-16 -78 -62 -105t-124 -27q-18 0 -60 1t-62 1q-44 0 -66 -4q-10 -2 -84 -2q-306 0 -318 6l-46 6q-56 10 -75 23t-41 61l-2 12q-4 14 -9 31t-12 36t-18 35t-25 24q-18 10 -37 28t-31 33t-12 17q0 4 -12 24t-25 53t-17 65q-10 70 -10 72q0 14 -4 22l-4 8l2 2q2 2 2 4 q4 16 4 70q0 20 -1 72t-1 80q0 148 12 176q26 64 65 114t67 71t60 39t34 20zM510 756h-20q-58 0 -58 -6q0 -8 22 -8q6 0 14 1l16 2t14 3t9 4t3 4zM484 800q-4 6 -8 0q0 -12 4 -12q8 0 4 12zM558 804q0 14 -26 -26l-6 -10q2 -2 10 4t15 16t7 16zM568 846q0 2 -2 2t-2 -2 q0 -4 2 -4t2 4zM432 836v-8q4 -4 6 4q2 6 0 12q-4 2 -6 -8zM526 910q0 4 -4 2t-2 -8q2 -2 4 1t2 5zM356 894q58 82 120 82q24 0 46 -14t32 -26l10 -14q32 -34 32 -82q0 -50 -38 -89t-78 -39q-64 0 -74 8q-20 0 -41 43t-21 85q0 28 12 46zM1004 874q2 4 2 8q-2 12 -8 -2 q-12 -28 -12 -58q0 -38 24 -54q20 -12 24 -8l-4 4q-4 4 -9 11t-10 16t-9 22t-4 27q0 16 6 34zM1108 854q10 34 -6 36q-8 2 -8 -16q0 -8 -1 -19t-2 -16t1 -9q4 -4 10 10q4 6 6 14zM960 878q8 36 59 66t95 30q10 0 22 -4q16 -6 34 -34t18 -66q0 -44 -28 -88q-42 -64 -110 -64 q-58 0 -88 52q-8 14 -8 50t6 58zM712 602q-2 12 -6 16q-10 10 -14 -9t10 -19q12 0 10 12zM758 594q8 2 10 9t-1 14t-7 7t-10 -14q-4 -12 -3 -15t11 -1zM690 684q6 6 8 34t6 50t18 22q6 0 14 -4q6 -2 7 -15t9 -25q18 -26 34 -75t16 -69q0 -46 -80 -46q-64 0 -64 24q0 10 8 36 t16 48zM706 272q0 8 -2 18t-2 13t-2 8t-3 6t-7 3t-11 2h-17h-26q-70 0 -100 -3t-32 -3q-16 0 -16 -24q0 -10 5 -37t5 -39q0 -8 -2 -14v-6q0 -4 4 -4h18t30 -2q40 -2 79 -4t47 -2q16 0 20 4t6 22q2 6 2 8q6 40 4 54zM1400 468q-18 -12 -56 -24t-46 -12q-90 -24 -92 -28 q-6 -10 -6 -160q14 -8 24 -8q6 0 22 4t30 4q4 0 15 5t28 20t32 38t29 66t20 95zM1404 494q2 16 2 54v50q0 38 -8 38q-6 0 -16 -6t-34 -19t-48 -23l-48 -22q-72 -30 -72 -34q0 -2 4 -10t9 -25t7 -41q2 -16 16 -16q8 0 35 10t39 10q10 0 54 17t58 17h2z" />
<glyph unicode="E" horiz-adv-x="1532" d="M524 638v14q0 38 8 57t50 45t130 60q12 6 44 6q64 0 122 -31t68 -99q8 -28 8 -56q0 -78 -74 -98q-32 -10 -90 -10l-116 10q-12 0 -40 11t-50 21l-22 12q-14 12 -38 58zM914 684q0 36 -52 68t-116 32t-112 -34q-4 -2 -30 -17t-37 -28t-11 -33q0 -14 10 -38q8 -16 18 -24 t25 -13t23 -11q24 -16 52 -16q10 0 56 -5t74 -5q110 0 110 68q0 16 -6 34q-4 16 -4 22zM842 1052l56 -14q6 -2 14 -2t29 -10t25 -10l84 -18q2 -2 30 -7t56 -13t55 -35t35 -69q18 -108 18 -114q0 -8 -4 -20t-4 -32q-2 -30 -6 -78t-25 -137t-51 -113q-100 -76 -248 -76 q-16 0 -50 1t-52 1q-166 0 -304 40t-164 88q-28 52 -36 164l-4 76v38q0 56 7 100t7 48q0 26 26 80t68 76q30 20 113 38t173 18q68 0 152 -20zM602 360q14 0 62 -10t208 -10q50 0 83 2t57 7t33 8t29 15t30 16q48 24 66 71t21 114t9 89q12 42 12 84q0 90 -34 158q-8 12 -27 27 t-27 15q-2 0 -56 14t-76 14q-10 0 -20 4t-40 15t-76 21l-42 8q-78 22 -108 22q-22 0 -50 -6q-18 -4 -63 -8t-81 -11t-75 -24t-66 -56t-35 -101q-10 -66 -10 -150q0 -144 20 -198q16 -46 51 -69t86 -33t65 -18q16 -10 54 -10zM48 448q0 46 -4 76t-4 36q0 20 46 312 q10 42 18 128t36 162q10 26 74 68t112 42l110 8q108 10 168 10q34 0 62 -4l330 -28h28q86 0 155 -9t113 -27t76 -35t50 -41t27 -38t15 -36l6 -20q14 -32 14 -44q16 -116 16 -260q0 -130 -22 -266l-4 -20t-3 -14l-2 -8t-1 -5v-3q-26 -206 -78 -308q-8 -18 -13 -26t-34 -28 t-85 -46q-82 -36 -178 -36q-38 0 -98 6t-80 6q-262 10 -427 40t-255 89t-124 131t-44 188zM498 1254q-20 -4 -85 -9t-108 -12t-90 -42t-65 -97q-78 -478 -78 -594q0 -4 1 -10t1 -8q14 -94 33 -156t59 -112t91 -78t142 -49t196 -32t271 -19l56 -4q22 0 73 -6t81 -6 q114 0 230 70q18 8 25 13t22 27t27 58q84 256 84 608q0 32 -1 77t-1 55v18l-10 38q-16 60 -30 92t-21 40t-27 24q-30 26 -49 37t-104 28t-217 17q-62 0 -238 17t-228 17q-30 0 -40 -2z" />
<glyph unicode="F" d="M746 936q-10 0 -33 16t-23 28q0 24 27 41t61 17q30 0 51 -15t21 -43q0 -50 -58 -50zM808 968q8 8 8 10q0 10 -15 17t-33 7q-16 0 -30 -8q-6 -2 -6 -6q0 -8 21 -15t39 -7q12 0 16 2zM590 892q-22 0 -60 43t-38 83t76 65t160 25q48 0 72 -8q8 -2 49 -10t71 -17t61 -38 t37 -71q0 -2 1 -7t1 -7q0 -52 -63 -76t-155 -24q-138 0 -202 36q-2 0 -6 4q-2 2 -4 2zM836 1050h-4q-2 0 -30 12t-72 12q-14 0 -102 -12q-100 -16 -100 -58q0 -28 42 -58t88 -40q104 -22 166 -22q76 0 119 21t43 47q0 40 -53 69t-95 29h-2zM232 1116q12 10 61 31t149 44 t202 23q36 0 54 -2q22 -2 50 -2q14 0 25 1t15 1q18 0 138 -22q42 -8 104 -14t100 -11t81 -17t73 -39t52 -71q10 -20 10 -52q0 -78 -50 -142q-76 -98 -282 -98q-54 0 -113 6t-110 14t-61 8q-560 28 -560 218q0 14 2 20q4 30 19 56t27 37t14 11zM1092 1136q-12 0 -61 6t-53 6 q-26 0 -94 14t-124 14h-12h-26q-28 0 -36 3t-38 3q-48 0 -110 -7t-139 -23t-132 -51t-63 -85q-2 -6 -2 -18q0 -38 32 -69t66 -45t82 -28t54 -16q38 -18 200 -26t206 -20l10 -2q8 -2 23 -4t35 -4t45 -4t49 -2q166 0 238 64t72 142q0 56 -73 104t-149 48zM104 328q0 4 -5 16 t-5 14q0 4 -13 52t-27 144t-14 216q0 98 12 226q2 26 10 51t14 41l6 14q0 48 105 118t213 70h16h20q28 0 81 7t85 7q50 0 92 -10q16 -4 64 -4q18 0 70 1t84 1q144 0 234 -26q146 -44 206 -78t88 -90q14 -28 14 -42q0 -8 3 -17t6 -21t6 -54t3 -112v-32q0 -92 -10 -330 t-26 -290q-22 -70 -73 -111t-91 -51t-99 -14t-61 -4q-84 -16 -218 -16q-120 0 -239 14t-236 44t-199 88t-102 136q0 2 -7 20t-7 22zM528 74q4 0 45 -8t55 -8l8 -2q10 0 27 -1t39 -2t51 -2t59 -2t65 -2t69 -1q290 0 368 50q4 2 13 9t15 11l6 6q0 4 16 18t34 57t24 115l6 60 v40q2 42 4 105t4 133t3 142t1 120q0 72 -2 80q-12 48 -19 68t-26 48t-51 46t-86 36l-90 32q-104 36 -286 36h-128q-60 0 -94 6q-40 4 -100 4q-276 0 -372 -84q-36 -30 -55 -56t-40 -111t-21 -217q0 -12 1 -37t1 -39q4 -110 15 -198t31 -146t36 -98t43 -65t40 -36t39 -23 t28 -12q40 -24 96 -42t89 -24t39 -6z" />
<glyph unicode="G" d="M612 946q0 -8 -8 -16q-6 -6 -28 -6h-48q-44 0 -108 -8q-84 -12 -284 -12q-48 0 -62 2q2 -2 2 -4t2 -4q14 -20 79 -70t79 -62q36 -32 89 -72t90 -65t39 -27q0 -2 1 -2t1 -2q0 -20 -81 -125t-81 -109q0 -2 -57 -90t-57 -94h2q8 0 68 29t114 57l56 28l108 54q54 26 104 56 t74 43t44 13q40 0 132 -68q14 -10 55 -31t49 -27q8 -8 45 -30t41 -22q12 -6 24 -14l28 -22q20 -14 93 -54t91 -40q4 0 4 4q0 8 -14 32t-36 57t-26 41q-12 20 -61 83t-85 119t-36 78q0 2 1 4t1 4q6 10 43 47t83 79t54 50l64 58q70 60 70 74q0 10 -30 10q-86 4 -204 12t-156 8 h-54l-70 80q-6 4 -27 31t-49 55l-23 23l-19 19t-12 13t-10 9t-8 2q-10 0 -34 -60l-28 -66l-34 -70v-2zM212 1120q-14 0 -63 -47t-49 -81q0 -10 -4 -25t-2 -20t16 -7q18 -2 66 -2q76 0 233 11t173 11q4 14 40 91t36 87q0 2 -2 2t-12 9t-18 7q-12 -2 -46 -2q-24 0 -88 3t-98 3 q-112 0 -166 -32zM1406 928q-18 36 -35 58t-59 57t-121 62t-191 43q-30 6 -84 6q-140 0 -140 -8q-4 -6 75 -98t93 -102q110 -4 208 -10t149 -10t71 -4q28 0 34 6zM1426 710q0 32 -5 92t-15 58q-12 -8 -24 -20l-208 -194q-80 -80 -80 -84l234 -356q2 -2 7 -10t10 -13t11 -5 q20 0 46 60q36 78 36 246q0 32 -1 67t-3 62t-4 48t-3 34t-1 15zM258 702q-150 130 -176 130q-6 0 -6 -84q0 -112 9 -280t17 -192q24 -84 38 -84q6 0 41 53t78 120t65 91q86 114 86 126zM742 426l-62 -34q-62 -34 -126 -68t-72 -34q-4 0 -17 -8t-61 -34t-122 -60 q-84 -38 -84 -44q0 -8 26 -22q12 -6 73 -19t67 -13q8 0 168 -19t164 -21q36 -12 88 -12q28 0 50 1t32 3t14 2q2 0 6 -2t6 -2q46 -10 100 -10q96 0 196 22t114 46q4 8 -4 8q-6 0 -267 160t-289 160zM60 954q0 62 63 142t209 96h64q652 0 672 -10l12 -2q14 -4 33 -10t46 -14 t56 -19t59 -25t57 -32t49 -38t38 -45t20 -51q8 -48 15 -139t12 -188t7 -117q0 -6 1 -18t1 -16q0 -44 -20 -164q-14 -84 -75 -169t-123 -101q-128 -34 -254 -34q-30 0 -90 2t-94 2q-52 0 -85 2t-44 6t-20 6t-17 2q-24 0 -227 29t-233 47q-54 32 -78 55t-46 96t-24 199 q0 32 -2 85t-2 75q0 116 3 192t7 98t7 36t3 22z" />
<glyph unicode="H" horiz-adv-x="1778" d="M618 450l188 14q14 6 24 4t12 -9t-4 -17t-42 -22t-76 -14q-100 12 -102 44zM514 766q-12 -12 -16 -12q-12 0 -13 20t-11 53t-46 57q-14 8 -20 8q-34 0 -62 -41t-28 -63t-14 -22q-20 0 -20 24q0 40 38 89t86 49q26 0 52 -20q54 -42 54 -124v-18zM1012 754q-4 -4 -8 -4 q-14 0 -14 44q0 52 22 99t66 47h4q12 0 23 -3t20 -7t15 -8t12 -12l9 -12t7 -13t5 -12t4 -13t3 -12v-42q0 -42 -14 -54q-8 -6 -17 -3t-11 10t2 15q6 6 6 38q0 44 -18 71t-42 27q-26 0 -47 -35t-21 -97q0 -18 -6 -24zM296 1212q94 30 488 30q406 0 568 -40q80 -20 112 -133 t34 -218t6 -107l108 -4q12 0 22 72q4 34 21 55t35 21q28 0 34 -50q16 -106 16 -176q0 -176 -62 -176h-8q-20 4 -32 4q-10 0 -32 -2t-34 -2q-24 0 -54 6q-24 4 -32 4t-12 -2t-6 -8t-2 -12t-1 -19t-3 -25q-4 -34 -9 -78t-7 -61t-8 -40t-16 -30t-28 -14t-46 -9q-20 -2 -50 -2 q-22 0 -40 4l-18 2l-4 -2h-4q-6 -2 -7 -38t-4 -85t-13 -77q-12 -32 -76 -32q-100 0 -126 70q-10 28 -13 61t-4 51t-10 32t-31 18q-104 18 -132 18q-58 0 -58 -40q0 -6 -1 -16t-5 -46t-10 -86q-6 -52 -94 -52q-44 0 -87 14t-53 32q-6 12 -11 65t-23 93t-60 40h-2 q-112 0 -120 -18q-2 -4 -5 -47t-22 -75t-67 -32q-12 0 -20 2q-32 6 -48 22l-28 24q-62 56 -62 446q0 184 17 347t41 205q20 32 53 56t56 33t57 19zM1008 1206q-10 -2 -52 -2q-54 0 -167 5t-119 5h-4q-30 -6 -147 -6t-215 -22t-154 -82q-16 -18 -27 -40t-18 -43t-11 -62 t-6 -68t-6 -93t-6 -108q-2 -32 -2 -112l12 -348q0 -2 1 -7t3 -13t2 -12l8 -38q16 -74 118 -74h6q32 30 34 83t8 63q4 8 41 14t71 8l34 2q16 0 29 -2t23 -8t17 -11t13 -18t10 -21t8 -28t7 -31t8 -38t7 -41q8 -36 126 -36h34q14 2 14 16q16 170 40 190q30 24 94 24 q48 0 97 -12t63 -24q22 -20 26 -99t52 -97q40 -16 66 -16q28 0 36 25t10 91v20q2 44 5 64t10 28t21 8q6 0 36 -3t56 -3q38 0 60 7t31 26t11 36t3 54t5 61q0 12 2 35t13 54t27 31q6 0 46 -9t72 -9q22 0 34 2h18h6q18 0 27 5t17 30t8 73v14q-4 184 -16 184q-4 0 -17 -64 t-51 -64q-10 0 -14 2q-30 6 -54 6q-12 0 -28 -1t-22 -1q-30 0 -38 36q6 50 6 102q0 140 -39 229t-93 99l-162 26q-52 0 -88 2t-52 4t-20 2h-4z" />
<glyph unicode="I" horiz-adv-x="1626" d="M698 462q146 74 204 74q34 0 60 -18t72 -66q68 -72 68 -188q0 -152 -118 -206q-88 -44 -158 -44q-66 0 -110 36q-40 30 -72 99t-32 129q0 32 8 50l4 12q2 14 8 30t14 34t22 34t30 24zM918 492q-2 0 -6 2t-13 5t-19 3q-32 0 -110 -36q-46 -24 -72 -50t-30 -40l-4 -14 q0 -2 -4 -14t-7 -32t-3 -42q0 -102 82 -186q38 -38 104 -38q64 0 126 33t86 79q22 48 22 96t-16 93t-32 61q-10 8 -30 31t-37 36t-37 13zM166 874q10 6 34 22t38 23t52 15t90 8h2q70 0 136 -76t66 -182q0 -64 -34 -144q-8 -18 -24 -39t-47 -53t-80 -52t-107 -20q-4 0 -13 1 t-15 1l-24 2l-36 20q-164 84 -164 232q0 74 39 144t87 98zM492 834q-4 24 -37 43t-59 25t-32 6q-96 -8 -128 -28l-34 -20q-126 -84 -126 -218q0 -108 64 -156q10 -8 19 -15t13 -10t14 -9t26 -14t44 -24q20 -2 52 -2q24 0 41 3t25 7t28 17t38 23q48 28 79 90t31 126 q0 62 -28 102q-24 36 -30 54zM1122 712q2 124 78 186t174 62q94 0 134 -44l26 -32q54 -54 54 -160q0 -78 -31 -146t-81 -92q-68 -30 -118 -30q-140 0 -220 178q-16 36 -16 78zM1316 922q-16 -4 -18 -4q-4 0 -12 -2t-28 -13t-37 -28t-35 -50t-26 -75q-4 -16 -4 -44 q0 -18 4 -32l6 -14q0 -6 20 -44t68 -82t104 -44q104 0 151 70t47 136q0 100 -55 167t-133 67q-30 0 -52 -8zM804 1222q2 0 38 7t64 7q108 0 150 -100q4 -12 16 -35t18 -39t6 -24q4 -32 4 -70q0 -100 -40 -144q-46 -52 -68 -74t-58 -43t-72 -21q-38 0 -82 18q-46 18 -72 35 t-36 32t-30 51q-30 56 -30 80q0 14 -6 52t-6 62q0 86 86 158q20 16 49 28t47 16t22 4zM1062 914q0 6 5 27t5 33q0 30 -13 78t-60 100t-115 52q-14 0 -54 -8q-148 -36 -184 -122q-12 -28 -12 -74q0 -80 34 -154t108 -98q22 -6 36 -12t18 -8t11 -3t25 -1h32q76 34 120 95 t44 95z" />
<glyph unicode="J" horiz-adv-x="1546" d="M542 508q-8 0 -17 21t-17 57t-8 68q0 74 38 104q88 64 190 64q28 0 208 -20q26 -2 40 -4t23 -10t11 -12t8 -23t10 -29q34 -88 34 -198q0 -96 -30 -168t-84 -84l-316 -12l-42 -2q-20 6 -64 18t-70 20t-56 27t-46 45q-32 52 -41 69t-13 29t-8 49t-14 81q-22 100 -22 190 q0 266 264 266q36 0 124 3t134 3q106 0 162 -14q20 -6 65 -12t72 -14t60 -28t50 -64t19 -112q2 -50 9 -84t7 -40q0 -52 11 -181t11 -191q0 -164 -56 -212q-2 -2 -9 -14t-16 -23t-32 -22t-53 -15q-14 -2 -34 -7t-34 -5q-134 -12 -272 -12q-150 0 -230 20q-2 0 -54 9t-100 22 t-68 27q-4 2 -38 16t-52 30l-32 28q-44 40 -66 110t-30 161t-12 109q-16 102 -16 272q0 34 4 126q2 36 7 66t14 52t17 39t21 30l20 20t18 15t13 10q36 32 84 51t78 23l30 4l182 16q10 2 60 2q300 0 384 -26q34 -10 82 -16t80 -22q16 -8 101 -28t136 -64t69 -136l10 -44 q52 -254 52 -484v-40q0 -44 3 -116t3 -94q0 -60 -16 -60q-6 0 -12 6q-8 8 -9 124t-8 292t-33 298q-2 10 -9 55t-13 65t-21 53t-45 55t-72 38l-14 6q-14 6 -27 10t-19 4q-16 0 -66 18t-148 39t-224 25q-96 4 -216 4q-50 0 -82 -2t-42 -3t-18 -3t-16 -2q-102 0 -206 -64 t-114 -182l-6 -74q0 -4 -1 -22t-1 -28q0 -14 4 -110l4 -82q2 -88 24 -243t54 -193q34 -42 61 -61t53 -27t36 -14q4 -4 24 -12l34 -12q12 -4 68 -14t164 -22t208 -12q80 0 118 4l46 2q80 6 124 22t54 28t34 50q32 50 32 168q0 50 -7 142t-7 120q0 54 -3 76t-3 24 q-22 200 -30 220q-42 122 -422 122q-58 0 -128 -2l-70 -4h-6q-52 0 -92 -8t-66 -19t-44 -37t-27 -45t-13 -58t-5 -64t-1 -75q0 -22 17 -99t17 -87q0 -58 44 -121t102 -77q144 -38 170 -38q6 0 55 5t107 5q126 2 152 16q30 16 58 72q24 54 24 130q0 80 -21 157t-39 83 q-6 2 -47 7t-79 9t-40 4q-6 0 -15 3t-25 3q-52 0 -70 -2l-18 -4q-6 0 -19 -3t-17 -3q-38 0 -82 -40q-32 -32 -32 -100q0 -80 36 -100q14 -8 63 -20t93 -12q48 0 70 16q20 14 20 52q0 10 -2 25t-2 19q0 6 4 10q6 6 12 6q18 0 18 -56q0 -66 -24 -84q-38 -28 -94 -28 q-38 0 -84 11t-72 23z" />
<glyph unicode="K" horiz-adv-x="1568" d="M648 638q22 0 41 3t33 3q30 0 30 4q0 2 -5 6t-14 11t-17 13q-94 54 -336 266q-16 12 -22 12q-2 0 -26 -14t-60 -16h-6q-72 0 -114 29t-54 59q-16 40 -16 84q0 118 118 150q52 16 76 16q40 0 80 -38q24 -24 40 -73t16 -73q0 -10 -17 -49t-17 -41t68 -62t147 -125t101 -75 q4 -2 18 -12t26 -18t14 -8q14 0 14 80v34q0 62 2 94v12q0 20 -6 25t-15 3t-25 7t-34 33q-44 62 -44 120q0 106 144 144q24 4 30 4q12 0 21 -5t18 -13t17 -12q30 -16 52 -54t22 -80q0 -70 -58 -108q-26 -16 -49 -24t-31 -10t-8 -8q0 -26 -8 -112t-8 -120q0 -38 8 -46 q392 290 394 298q0 4 -4 13t-9 25t-5 36q0 38 18 76q20 40 66 72t72 32h4q4 -2 18 -2q50 0 80 -39t30 -95q0 -90 -72 -142q-28 -22 -88 -22q-48 0 -86 20q-8 -4 -96 -69t-172 -128t-86 -65q-10 -6 -10 -12t32 -6q8 0 46 1t66 1q56 0 86 -2q18 -2 70 -2q84 0 88 4q2 2 4 21 t15 41t43 32q6 2 34 15t46 18t36 5q42 0 74 -48q40 -64 40 -104q0 -14 -4 -26q-40 -92 -128 -92q-48 0 -91 27t-55 57q-4 14 -29 17t-149 3q-78 4 -142 4q-82 0 -82 -8q0 -10 90 -72t194 -130t122 -84q16 -14 22 -14q2 0 12 6t35 13t65 7q50 0 85 -46t35 -104 q0 -94 -88 -126q-18 -8 -46 -8q-30 0 -61 11t-47 23t-16 16l-2 6q-4 4 -8 11t-9 17t-8 23t-3 25q0 32 8 51t15 27t7 12q0 8 -56 56q-6 4 -58 36t-141 93t-179 135q-10 8 -20 8q-12 0 -12 -36q0 -10 2 -45t2 -57q4 -144 16 -158q4 -4 42 -18q20 -8 38 -20q78 -48 78 -114 q0 -58 -52 -110q-36 -36 -120 -36q-64 0 -108 34t-44 110q0 62 35 105t81 55q12 2 12 24q0 6 -2 36t-2 52v20v22q0 108 -4 112q-2 2 -22 -12l-358 -294l2 -4q2 -6 5 -13t5 -17t4 -23t2 -25q0 -94 -110 -130q-16 -4 -30 -4q-46 0 -85 28t-47 88v14q0 58 61 108t115 50 q30 0 44 -20q4 -8 18 -20q90 60 160 123t84 73q136 102 136 112q0 4 -24 4t-69 -4t-94 -9t-94 -10t-75 -9l-30 -4q-14 -2 -23 -17t-16 -33t-31 -39t-64 -31q-24 -6 -38 -6q-68 0 -126 84q-18 28 -18 60q0 62 46 112t130 50h26q16 -16 28 -16q32 0 52 -37t20 -75 q0 -22 16 -22q6 0 18 2t34 4l44 4q18 2 63 6t82 8t49 4zM372 1122l-6 20q-20 68 -74 80l-8 2h-12q-64 0 -111 -30t-47 -100q0 -66 43 -102t99 -36q60 0 86 40q34 54 34 86q0 6 -2 20t-2 20zM724 1184q-48 -32 -48 -90q0 -46 28 -85t56 -39q80 0 119 29t39 73q0 50 -40 91 t-92 41q-34 0 -62 -20zM1348 1168h-4q-46 0 -97 -49t-51 -99q0 -48 56 -76q20 -10 44 -10q52 0 92 48t40 102q0 78 -80 84zM1402 542q34 0 65 32t31 48q0 32 -29 77t-55 45q-10 0 -14 -2l-12 -2q-14 -4 -31 -9t-35 -13t-31 -20t-17 -28q-2 -8 -2 -26q0 -54 45 -78t85 -24z M216 728q-66 0 -104 -37t-38 -87q0 -60 48 -88q50 -28 82 -28q52 0 92 74q-4 8 -4 20q0 6 9 16t9 26q0 2 -1 8t-1 10q-6 40 -19 54t-33 17t-28 9q-6 6 -12 6zM340 250q-8 4 -14 29t-38 25h-16q-46 -4 -81 -44t-35 -84q0 -64 80 -80q8 -2 24 -2q42 0 72 24t30 68q0 20 -10 50 q-6 12 -12 14zM1458 242q-28 64 -88 64q-44 0 -80 -35t-36 -81q0 -20 4 -30q24 -72 108 -72q42 0 74 22t32 58v12q-10 54 -14 62zM928 136q4 6 4 20q0 40 -56 76t-108 36q-24 0 -34 -8q-64 -38 -64 -106q0 -34 16 -60t36 -32q38 -12 84 -12q24 0 43 6t30 13t21 19t14 19 t10 17z" />
<glyph unicode="L" horiz-adv-x="1548" d="M1042 312q18 -120 18 -206t-24 -86q-2 0 -27 -6t-35 -6h-4l-2 2l-4 2h-10q-8 0 -81 -4t-125 -4q-146 0 -216 26q-28 10 -28 142q0 96 8 136q8 32 30 54t42 28l18 6q8 0 38 24t30 30q0 10 -42 10q-60 0 -119 -35t-81 -121q-14 -56 -14 -118q0 -32 4 -75t4 -51 q0 -12 -2 -16q-8 -16 -70 -16q-140 0 -216 84q-20 24 -20 26t-14 41t-16 65q0 4 -12 83t-22 189t-10 206q0 188 40 292l14 36q30 74 137 121t181 47q18 0 26 -4q4 -2 6 -49t24 -128t72 -155q86 -120 130 -120q6 0 8 2q6 6 6 18q0 22 -12 52t-26 40l-10 8q0 2 -12 10t-28 23 t-34 38t-31 64t-15 91q0 4 -2 22t-2 30q0 60 44 76h8q10 0 27 1t37 2t46 1h50q168 0 226 -6q70 -6 83 -11t13 -27q0 -122 -16 -198t-34 -97t-37 -40t-21 -39q-2 -8 -2 -20q0 -14 8 -14q4 0 20 6t24 8q110 20 110 258v104q0 40 2 54t26 14q8 0 34 -2t42 -2q62 0 104 -17 t104 -67q56 -42 73 -113t17 -206t4 -183q2 -18 2 -46q0 -10 -2 -48t-2 -82q0 -60 6 -204v-18q0 -52 -18 -106q-8 -24 -53 -68t-85 -50q-50 -8 -74 -13t-27 -7t-21 -4t-66 -4h-14q-18 0 -24 7t-6 27q0 116 -7 199t-13 122t-25 72t-22 34t-27 21q-22 18 -36 18q-12 0 -12 -26 q0 -42 24 -80q40 -62 40 -74zM1014 1184q0 20 -116 20h-136q-106 0 -164 4h-8q-48 0 -48 -58q0 -36 10 -78q14 -66 29 -93t38 -40t31 -21l13 -13t17 -19t14 -23t12 -37t4 -50v-42q-16 -16 -32 -16q-70 0 -163 144t-97 266q-2 22 -3 31t-7 17t-18 8q-4 0 -28 -4l-38 -10 q-78 -20 -140 -63t-62 -69q0 -4 -24 -81t-24 -111q0 -48 -2 -114t-2 -94q0 -104 22 -236q4 -30 11 -86t12 -80t18 -61t34 -54t59 -32t92 -19q8 0 20 -1t16 -1q26 0 32 6q2 2 2 28l-2 68q-4 30 0 42l4 42q10 78 39 130t69 73t74 30t70 9t40 2h4q18 0 18 -38q0 -16 -6 -30 q-14 -32 -56 -49t-74 -45t-32 -88q0 -174 20 -182q54 -28 212 -28q56 0 116 4t96 8t40 8q6 6 6 82q0 176 -26 192q-16 10 -34 60t-18 92q0 48 26 48q22 0 68 -30t54 -48q52 -104 52 -260q0 -22 -1 -58t-1 -48q0 -60 26 -60h6q8 2 32 2q98 0 168 43t84 81q12 34 12 96 q0 22 -2 80t-2 96q0 58 6 132v22q0 22 -6 95t-6 129q0 26 4 90v26q0 100 -54 167t-130 97q-30 12 -124 14h-4q-18 0 -26 -5t-8 -25t6 -68q4 -40 4 -62q0 -90 -24 -153t-48 -87q-20 -20 -67 -33t-53 -19q-8 -10 -18 0q-12 10 -12 62v46q46 48 61 67t27 65t14 130v40t1 21t1 7 z" />
<glyph unicode="M" horiz-adv-x="1726" d="M306 566q0 44 5 87t9 63l6 22l6 2h6q14 0 14 -24q0 -14 -9 -61t-9 -71q0 -40 22 -52q6 -4 18 -4q34 0 70 58l78 104q12 18 24 18q4 0 10 -6t6 -8q-54 -78 -136 -176q-18 -22 -60 -22q-60 0 -60 70zM1226 706q-12 28 6 36q8 2 16 -6q24 -24 24 -88q0 -74 -56 -84h-8 q-46 0 -122 66l-36 32q-26 24 -26 34q0 12 20 12q2 0 14 -11t27 -25t21 -18l34 -28q44 -32 68 -32q32 0 34 48q0 22 -16 64zM740 874q-16 2 -20 11t2 16t14 7q140 -22 142 -24q16 -14 -10 -24q-14 -6 -22 -2q-10 4 -106 16zM514 1018q40 0 61 48t27 48t12 -6q4 -4 4 -12 q0 -26 -26 -64t-60 -44q-2 0 -6 -1t-6 -1q-34 0 -63 32t-29 52q0 6 2 6q4 4 8 4q6 0 30 -31t46 -31zM952 1058q-4 16 -4 36q0 32 16 32h4q10 -2 10 -14q0 -2 -1 -9t-1 -13q0 -32 34 -54q22 -12 34 -12q22 0 47 24t31 24q4 0 8 -4t4 -10q0 -18 -28 -39t-64 -21q-38 0 -64 24 q-20 20 -26 36zM1218 1224q72 0 127 -20t84 -46t47 -57t22 -48t4 -25q0 -4 5 -40t10 -78t9 -113t4 -143q0 -40 -4 -144q-2 -26 6 -28q2 0 28 6q30 6 58 25t34 19q16 0 30 -46q4 -12 4 -38q0 -72 -40 -116q-20 -24 -40 -37t-83 -28t-161 -15h-28q-54 0 -65 -12t-13 -72 q-2 -50 -7 -79t-19 -41t-25 -16t-34 -5t-37 -3q-6 -2 -18 -2q-38 0 -77 27t-45 47q-4 14 -5 47t-5 53t-27 37t-67 17q-4 0 -12 -1t-14 -1h-10q-10 -2 -16 -2q-14 0 -68 -5t-76 -5h-10l-40 2h-20q-12 0 -20 -3t-13 -7t-9 -15t-6 -20t-5 -31t-7 -38q-2 -6 -5 -30t-6 -32 t-11 -23t-25 -22t-43 -9q-36 -6 -56 -6q-96 0 -128 110q-12 40 -19 62t-24 40t-23 22t-43 21t-57 27q-26 12 -41 40t-19 52t-8 73t-8 73q-8 56 -8 124q0 142 18 289t48 193q10 14 30 26l36 18q154 80 654 80q290 0 364 -22q18 -6 28 -6zM1250 1002q0 6 -25 54t-25 52l-16 82 q-4 4 -63 12t-135 16t-114 8q-22 0 -30 -4q-2 -2 -64 -4t-147 -6t-133 -10l-84 -8q-24 -2 -41 -5t-23 -4t-11 -2t-11 -1q-34 0 -34 -20q0 -2 6 -48t6 -90v-20q0 -100 -80 -180q-26 -26 -69 -57t-65 -31q-6 0 -10 4q-2 2 -4 2q-4 0 -4 -38v-26q0 -22 -1 -42t-1 -22 q0 -92 16 -188l6 -46q4 -28 34 -52t51 -32t33 -12q44 -8 69 -54t41 -98t34 -66q36 -28 80 -28q62 0 82 26q4 6 20 91t30 99q16 16 62 16q14 0 44 -2t42 -2q4 0 12 1t12 1l40 4q60 6 104 6q70 0 103 -21t33 -73q0 -12 -2 -26t-2 -18q0 -14 9 -25t25 -23t18 -14q18 -16 62 -16 q10 0 21 1t20 2t16 2t11 1l4 2q14 8 16 58t12 99t48 55q10 2 42 3t56 5t52 17t43 43t17 76q0 6 5 66t5 110q0 44 -2 68q0 18 -3 54t-3 52q0 20 1 47t1 33q0 26 -5 32t-27 6q-20 0 -37 5t-27 10t-12 5q-68 26 -92 44q-8 6 -25 23t-17 21zM1378 1004q14 -12 16 6t-8 18 q-2 0 -8 -6t-6 -10q0 -2 6 -8zM1646 408q6 18 6 44q0 34 -14 34q-6 0 -16 -6q-16 -12 -55 -21t-43 -15v-4q0 -6 -1 -13t-1 -13q0 -36 -13 -63t-25 -39t-12 -16t12 -8h4q6 -2 8 -2q34 0 83 33t67 89z" />
<glyph unicode="N" horiz-adv-x="1530" d="M288 1270q2 0 16 4t38 10t53 12t67 10t74 4q60 0 116 -12q44 -10 94 -10q12 0 37 1t39 1q46 0 102 -10q22 -4 56 -8t58 -9t52 -15q10 -4 81 -19t124 -49t107 -108q14 -18 42 -78t42 -112q6 -30 6 -76q0 -72 -13 -146t-45 -164t-104 -158t-174 -92q-46 -10 -50 -10 q-10 0 -38 -6t-44 -6h-16q-28 0 -101 -3t-115 -3h-44q-12 0 -15 -6t-1 -28q2 -42 7 -76t9 -53t4 -25q0 -16 -38 -18h-12q-30 0 -53 11t-23 23l4 14q4 14 10 34t12 42t10 42t4 30q0 8 -2 10t-141 9t-173 35q-10 8 -63 30t-67 32t-41 26t-42 35t-39 69l-22 48q-36 74 -36 266 l6 134q2 6 7 47t17 86t34 77l50 74q12 16 62 50t72 34zM700 1248q-6 0 -19 3t-23 3l-10 2q-10 2 -27 5t-37 6t-45 5t-47 2q-36 0 -62 -6q-36 -8 -82 -18t-61 -14t-38 -17t-49 -37q-40 -34 -40 -48q0 -2 -8 -13t-20 -29t-18 -38l-12 -38q-32 -102 -32 -278q0 -152 38 -230 q14 -30 18 -39t17 -30t14 -24t16 -18t20 -17t27 -16t34 -19t47 -22t59 -29q74 -36 240 -36q74 0 74 8q0 2 2 11t6 34t6 65q-10 10 -80 40t-136 56l-64 26q-14 0 -53 -45t-55 -45q-10 0 -16 8q-2 2 -2 6q0 16 44 56t46 42q2 6 -8 16l-26 26q-6 6 -45 36t-41 30t-9 -6t-11 -6 q-14 0 -20 38q0 4 -1 8t-1 6q0 22 16 22q10 0 29 -13t40 -30t27 -21q14 -8 45 -35t57 -49t34 -22l126 -40q38 -14 64 -26t33 -16t9 -4l2 2q12 12 12 192q0 112 -6 118q-20 20 -52 40l-32 20q-50 32 -80 32q-22 0 -46 -15t-32 -15q-2 0 -10 -5t-14 -6t-14 5q-6 6 -6 14 q0 14 43 29t43 23q0 6 -10 12q-6 4 -36 31t-44 35l-32 16q-4 2 -46 28t-48 28q-16 4 -28 14t-12 20q0 12 12 18h4q14 0 83 -41t81 -41h2q4 2 4 16q0 18 -6 54t-14 64l-6 28q4 14 20 14t27 -68t11 -116v-24q48 -52 122 -92t100 -60q12 -8 14 -8q8 0 8 22q0 8 -2 40t-2 54 q0 56 10 98q2 6 2 64l-2 148q2 26 -10 26zM1064 1218q-118 38 -262 38q-6 0 -13 -1t-9 -1l-30 -30l-2 -42v-24q0 -44 3 -99t3 -79q0 -36 -2 -58q-6 -42 -6 -126q0 -44 6 -44q4 0 74 68t80 84q8 12 15 34t11 38l2 18q0 4 5 20t11 45t10 63q2 16 11 27t17 11q12 0 12 -16 q0 -12 -22 -100l-14 -52q-6 -30 -6 -56q0 -2 8 -2q36 0 91 34t75 110q12 38 36 38q12 0 12 -14q0 -4 -4 -16q-2 -2 -11 -24t-15 -35t-20 -35t-29 -36t-38 -27t-51 -19q-24 -4 -47 -26t-27 -22h-2q-2 0 -4 2h-4q-10 0 -58 -48l-74 -72q-36 -36 -45 -76t-9 -142v-58v-40h2 q8 0 18 10t36 28t62 32q10 4 33 14t40 17t21 7q24 0 49 42t46 93t33 63q10 10 20 10q14 0 14 -20q0 -14 -14 -28q-6 -6 -32 -65t-26 -63q2 -2 4 -2t68 38l52 30q94 56 130 80q4 4 6 4q8 2 13 -4t3 -15t-14 -17q-242 -152 -274 -158q-2 0 -54 -27t-110 -56l-70 -35 q-16 -6 -26 -10t-16 -10l-8 -8t-7 -11t-9 -13v-46q0 -48 4 -50q6 -6 124 -6q350 0 442 102q4 4 13 12t31 35t41 59t37 85t24 111l4 44q8 76 8 96v58q-24 82 -56 142t-60 93t-70 57t-68 32t-73 20t-69 20z" />
<glyph unicode="O" horiz-adv-x="1568" d="M1054 190q12 6 23 0t9 -16q-4 -26 -24 -26q-16 0 -18 18t10 24zM636 160q-10 12 3 29t27 7q8 -6 8 -12q0 -10 -9 -19t-17 -9q-10 0 -12 4zM524 172q0 6 8 17t16 11q6 0 17 -18t7 -24q-10 -14 -29 -6t-19 20zM940 154q-6 6 -6 16q0 30 22 30q10 0 18 -16q8 -20 -8 -30 t-26 0zM992 266q0 8 13 20t23 2t-2 -38q-6 -14 -16 -8q-18 10 -18 24zM592 244h-2l-2 -2q-12 0 -12 22q0 32 20 32q18 0 18 -16q0 -28 -22 -36zM106 1050q36 86 148 147t244 61q22 0 58 -4q188 -20 194 -20t16 1t18 1q24 0 46 -2q72 -4 144 -6t103 -3t66 -7t67 -20l32 -14 q146 -68 198 -134q38 -50 54 -121t22 -197t12 -172q2 -12 2 -50q0 -214 -26 -318q-14 -62 -56 -104t-71 -53t-39 -11l-78 -16q-76 -14 -140 -14h-26h-32q-24 0 -56 -3t-58 -3l-336 20q-20 -4 -52 -4q-214 0 -342 72q-16 8 -38 36l-26 34q-66 82 -90 179t-24 303q0 18 2 62 t2 70q0 80 20 158l10 42q4 12 32 90zM496 1216q-2 2 -20 2q-52 0 -129 -20t-129 -64q-16 -12 -39 -34t-61 -112t-42 -208q0 -8 -1 -35t-1 -45q0 -296 14 -352q12 -48 56 -128t68 -88h4q12 0 49 31t41 45q2 4 9 16t20 36t25 52l28 56q116 242 116 538q0 22 -1 60t-1 52 q-2 194 -6 198zM1246 308q-86 108 -86 126q0 4 -10 23t-25 55t-25 78q-8 32 -22 32q-4 0 -21 -4t-29 -4q-32 0 -64 20q-46 28 -54 90q-2 14 6 14q16 2 24 -18q28 -72 102 -72q26 0 34 8q4 4 4 16t-26 148t-26 234q0 6 1 22t1 24q0 18 1 36t2 27t1 15l-2 12l-472 28h-24 q-6 0 -6 -2v-12q0 -6 2 -79t2 -135q0 -178 -20 -314q-2 -22 6 -22q2 0 22 -8t36 -8q24 0 46 22q24 24 24 36q0 6 10 25t22 19q10 0 10 -18q0 -34 -33 -73t-91 -39q-16 8 -30 8q-30 0 -42 -46q-40 -154 -101 -272t-101 -158l-42 -40q0 -8 35 -20t96 -22t121 -10q126 0 196 44 q10 6 21 12t14 8t9 8t9 12t9 20q20 46 20 58q0 20 9 50t9 42q0 20 -20 38q-10 10 -27 35t-27 47l-12 20l-8 10l-6 10l-6 8q-4 6 -6 13t2 17q6 10 39 16t75 9t50 5q20 2 25 -5t1 -31l-14 -66q-6 -34 -15 -66t-9 -48t6 -50q10 -58 19 -94t15 -58t22 -34t22 -15t34 -8t40 -7 q40 -10 112 -10q112 0 254 32q24 6 58 43t34 51q0 6 -16 11t-54 22t-80 47q-10 8 -35 34t-25 28zM1228 1148q-108 44 -146 44q-8 0 -12 -4q-6 -6 -6 -14l-2 -42q-4 -64 -4 -86q0 -68 28 -222l8 -46q18 -106 39 -184t44 -125t38 -71t39 -50t32 -36q26 -38 89 -67t89 -29h4 q2 2 9 40t14 102t7 120q0 42 -8 102q-6 32 -7 147t-17 159q0 2 -2 6q-4 10 -4 12q0 6 -2 16t-13 38t-28 53t-49 54t-72 49q-24 10 -40 19t-21 12t-7 3zM834 488q0 2 -2 2zM736 474q16 -30 18 -10q2 22 -10 22q-4 0 -6 -2q-6 -6 -2 -10zM824 206q0 14 -6 14q-2 0 -6 -18 q-8 -52 -38 -89t-56 -54t-26 -19q0 -4 30 -4q48 -2 102 -5t62 -3l12 2q-58 54 -58 102q0 4 -8 30t-8 44z" />
<glyph unicode="P" horiz-adv-x="1552" d="M58 348q-2 48 -10 130t-8 110q0 60 24 60q4 0 7 -5t11 -17t18 -22l38 -36q110 -118 238 -118q38 0 77 9t80 24t53 19q54 14 85 49t42 61t19 26q6 0 10 -4q12 -8 15 -22t-3 -20v-54q2 -104 7 -229t5 -157q0 -84 -26 -117t-106 -47q-14 -4 -78 -4q-162 0 -202 10 q-134 34 -176 60q-112 70 -120 294zM1476 724q0 12 14 20t22 0q2 -2 2 -38q0 -88 -12 -307t-16 -241q-8 -46 -23 -68t-82 -44t-199 -34l-44 -2q-8 0 -63 -4t-85 -4q-172 0 -172 90q0 4 -10 103t-10 161q0 60 -5 102t-5 102q0 30 2 42t4 15t9 5t13 6q6 6 16 6q14 0 52 -28 t62 -38q80 -34 124 -34q4 0 136 12q46 4 158 72t112 106zM342 1236l202 32q44 0 44 -14q0 -10 -22 -24q-24 -14 -45 -44t-21 -62q0 -46 56 -74q16 -8 34 -8q20 0 43 13t29 13q4 0 10 -6q2 -2 2 -14v-20q0 -48 26 -86q10 -16 24 -22t23 -5t15 -2t6 -11t-2 -14q-4 -16 -4 -80 v-28q0 -30 -2 -32q-6 -12 -14 -12q-14 0 -22 22q-10 16 -27 39t-75 64t-120 49q-60 8 -108 8q-220 0 -298 -152q-12 -22 -22 -22q-16 0 -16 50q0 56 16 146t34 134q10 24 30 50t75 61t129 51zM1324 892q-62 28 -148 28q-170 0 -296 -132q-24 -24 -48 -24q-12 0 -18 6 q-2 20 -2 44q0 104 38 112q68 12 68 66q0 8 -2 23t-2 21t4 14q6 6 12 6t28 -11t38 -11t32 8q8 4 20 16t12 16l6 10q6 12 11 24t1 20q-2 2 -2 12q0 30 -62 73t-62 53q0 8 12 12l4 2h10q62 0 221 -22t187 -40q66 -42 84 -88t18 -204v-32v-86q-12 -28 -22 -28q-6 0 -18 14 t-35 38t-55 40q-12 6 -20 11t-10 7zM728 1266q46 32 70 32q14 0 38 -10q50 -24 61 -38t11 -52q0 -90 -108 -90q-42 0 -81 17t-51 41q-2 4 -2 14q0 42 62 86z" />
<glyph unicode="Q" horiz-adv-x="1538" d="M1158 734q16 54 60 80t92 26q50 0 64 -20l8 -12q6 0 19 -13t25 -40t12 -55q0 -44 -38 -88q-48 -54 -112 -54q-56 0 -97 39t-41 95q0 14 8 42zM228 836q2 0 33 14t57 14q16 0 34 -6q6 -2 19 -6t17 -6q6 -2 30 -29t28 -33q4 -8 4 -30q0 -54 -32 -116t-86 -86 q-30 -16 -66 -16q-58 0 -93 48t-35 110q0 76 52 120q26 22 38 22zM302 1276q72 22 176 22q74 0 188 -12t128 -12q24 0 82 -7t94 -7q18 0 54 4q12 2 38 2q46 0 103 -9t99 -20t48 -11q40 -4 71 -29t43 -47l12 -22q38 -90 38 -160q0 -46 -24 -68q-2 -2 -4 -2q-4 0 -71 16 t-115 16q-164 0 -188 -172q-12 -96 -12 -106q0 -12 1 -21t2 -16t6 -17l7 -14t10 -15t12 -15t16 -19t18 -21q20 -24 54 -40t60 -20l24 -4l8 -2q10 -4 27 -6t37 -2q50 0 106 18q38 10 48 -2q2 -12 2 -30q0 -74 -7 -198t-13 -140q-4 -14 -16 -31t-16 -19q-36 -14 -60 -14 q-2 0 -23 -4t-54 -7t-65 -3q-148 0 -220 76q-26 28 -40 71t-33 64t-67 21q-10 0 -46 -4q-10 -2 -61 -2t-65 -4q-32 -8 -46 -8q-32 0 -57 -38t-46 -91t-35 -69q-28 -32 -93 -51t-133 -19q-70 0 -108 22q-30 16 -49 31t-45 57t-40 102q-8 16 -8 172q0 142 28 144t76 2 q30 0 73 -1t57 -1q62 0 100 20t80 82q34 50 34 122q0 82 -40 154t-106 92q-50 20 -108 20q-66 0 -100 -32q-12 -10 -33 -36t-21 -30t-14 -21t-22 -17q-10 0 -12 22q0 22 -3 64t-3 62q0 158 114 224q82 46 108 54z" />
<glyph unicode="R" horiz-adv-x="1642" d="M392 514q-42 0 -72 45t-30 101q0 26 10 52q20 52 47 76t27 34q0 2 -1 6t-1 6q-2 6 -2 22q0 34 16 72t34 56q14 14 51 26t73 12q48 0 72 -24q10 -10 14 -10q6 0 10 11t26 27t68 26q42 12 70 12q86 0 100 -92q0 -6 6 -6q2 0 42 21t76 21q44 0 86 -28q10 -4 26 -12t43 -41 t27 -73q0 -12 -2 -20q-2 -12 2 -14t26 -2q68 0 104 -43t36 -97q0 -68 -35 -116t-87 -58q-16 -4 -16 -27t-15 -55t-67 -52q-48 -18 -84 -18q-34 0 -67 15t-35 15q-6 0 -12 -8q-48 -78 -120 -78q-20 0 -50 8t-36 8t-38 24t-38 24l-2 -2q-14 -24 -92 -24q-62 0 -98 24 q-4 2 -17 11t-24 17t-22 19t-15 21q-8 18 -8 40q0 10 2 22t2 16q0 10 -10 10zM872 912q0 4 1 10t1 8q0 44 -20 73t-58 29q-8 0 -24 -4q-4 -2 -24 -6t-28 -7t-24 -10t-24 -16t-15 -22t-7 -31t-13 -21t-21 15q-32 62 -80 62q-2 0 -7 -1t-7 -1q-54 -10 -73 -24t-33 -56 q-12 -28 -12 -58q0 -20 10 -37t10 -21q0 -6 -6 -12l-16 -6q-16 -6 -32 -15t-30 -35t-14 -64v-12q2 -48 29 -76t57 -28q16 0 24 6q8 4 15 2t8 -10t-9 -22q-20 -24 -20 -50q0 -6 4 -17t15 -27t28 -29t47 -23t66 -10q4 0 13 1t15 1q36 4 48 37t14 35q8 6 14 6t9 -26t33 -54 t100 -32h10q46 0 67 28t27 59t16 33h2q2 0 40 -36t84 -36l30 6q44 8 67 33t23 53q0 22 -18 44q-10 10 -6 21t18 11q22 -14 48 -14q56 0 88 68q14 28 14 58q0 48 -32 83t-54 35q-10 4 -26 4q-14 0 -42 -6q-6 -2 -14 -2q-14 0 -14 14q0 6 5 29t5 37q0 28 -14 48q-18 26 -26 26 l-42 22q-40 24 -74 24q-44 0 -82 -38q-12 -12 -23 -28t-17 -26t-12 -10q-4 0 -10 10q-4 8 -2 28zM66 818q0 2 -5 9t-9 27t-4 52q0 66 27 115t61 72t79 37t68 16t41 2h2q2 2 6 17t11 31t24 35t41 27q44 22 98 22q60 0 98 -38q12 -6 14 -5t10 14t16 21q76 66 156 66 q56 0 102 -27t66 -61q4 -10 10 -10q2 0 19 17t37 21q44 14 94 14q110 0 132 -86q8 -24 12 -24q42 22 96 22q78 0 120 -60q22 -32 22 -86v-32q-10 -26 -23 -48t-20 -31t-7 -13q0 -8 18 -10q28 -4 58 -39t30 -79q0 -26 -17 -78t-35 -80q-8 -10 -8 -22q0 -10 24 -17t48 -39 t24 -98v-14q-2 -84 -39 -139t-89 -67q-20 -4 -20 -18q0 -2 1 -10t1 -14q0 -26 -26 -64q-20 -32 -80 -50t-120 -18q-56 0 -74 16q-6 6 -14 6q-6 0 -21 -21t-39 -31q-48 -26 -68 -26q-14 0 -82 30q-20 8 -36 19t-24 18t-14 12t-10 5q-8 0 -18 -18q-54 -80 -162 -80l-62 8 q-26 0 -64 35t-38 47q0 8 -8 8q-4 0 -10 -10t-15 -22t-40 -23t-77 -11h-2q-94 0 -154 81t-60 179q0 54 22 98q2 4 2 8q0 6 -15 9t-39 16t-40 43q-28 48 -28 102q0 46 20 92t40 68l20 24l-28 26q-26 26 -26 32zM1154 158q0 -6 3 -13t24 -20t59 -13q4 0 12 1t14 1q78 6 116 23 t38 67q0 24 -4 38q-4 20 -4 22q0 16 19 15t53 12t62 63q24 38 24 114q0 40 -14 60l-6 12q-6 12 -13 21t-23 18t-36 11q-28 2 -28 14q0 6 13 26t33 59t34 85q2 6 2 18q0 34 -22 64t-70 36q-36 4 -36 20q0 8 36 56t36 90q0 10 -4 30q-4 12 -4 16q0 20 -35 43t-77 23 q-44 0 -82 -30q-18 -12 -24 -12q-12 0 -19 51t-39 65q-42 20 -74 20q-18 0 -43 -8t-33 -8q-12 0 -44 -44t-42 -44q-12 0 -12 38q-2 44 -42 72t-64 28q-2 0 -17 3t-27 3q-48 0 -114 -42q-28 -20 -38 -50t-13 -49t-15 -19h-6q-8 2 -8 18q0 38 -34 61t-80 23q-52 0 -89 -30 t-37 -88q0 -2 1 -10t1 -12q2 -14 -9 -21t-25 7q-22 22 -50 22q-24 0 -84 -26q-56 -24 -86 -73t-30 -103q0 -46 21 -80t57 -42q20 -6 20 -16q0 -8 -7 -17t-19 -22t-14 -15q-60 -80 -60 -148q0 -56 32 -91t70 -35q10 0 22 4q14 6 20 -6t0 -20l-28 -42q-20 -32 -20 -82 q0 -82 54 -154t134 -72h14q48 4 73 25t38 43t27 26h4q8 0 15 -20t22 -48t47 -42q36 -18 72 -18q62 0 108 43t46 67q0 2 4 9t14 7t22 -16q18 -28 72 -60t82 -32q42 0 66 28t34 56t18 28l8 -4q8 -4 8 -8z" />
<glyph unicode="S" horiz-adv-x="1630" d="M1084 392q0 40 10 52t32 12q6 0 18 -1t16 -1q10 0 16 2l290 20q126 -2 126 -170q0 -46 -11 -101t-21 -86t-14 -41q-28 -52 -63 -70t-89 -18q-20 0 -61 3t-59 3q-168 14 -182 44q-10 20 -10 176zM1120 416q-4 -4 -4 -12q0 -2 -5 -38t-5 -62q0 -24 2 -34q0 -2 4 -54t8 -102 t8 -52q12 -12 95 -25t153 -13q62 0 86 12q46 22 68 96t22 158q0 82 -16 108q-26 42 -164 42q-52 0 -115 -6t-101 -12zM50 442q0 36 12 45t52 9h12q32 0 65 -4t39 -4q14 0 32 6t86 6q184 0 208 -14q26 -16 28 -24q2 -6 2 -14v-46q0 -52 4 -98q6 -84 6 -136q0 -64 -9 -100 t-20 -44t-27 -8h-18q-12 0 -53 1t-59 2t-54 4t-59 8t-53 12t-54 19t-46 28q-8 6 -25 23t-17 21q-62 62 -62 200q0 20 8 76q2 8 2 32zM496 458h-12q-46 0 -95 8t-63 8q-22 0 -52 -10q-20 -6 -28 -6q-4 0 -18 -3t-24 -3q-14 0 -32 6q-10 4 -36 4q-50 0 -54 -8q-8 -42 -8 -100 q0 -118 40 -178q38 -56 104 -87t106 -31q20 0 55 -5t53 -5h16h28q14 0 31 -1t21 -1q16 0 22 9t6 39q4 78 4 150q0 74 -8 104q-4 20 -4 30t2 28t2 24q0 28 -50 28h-6zM1054 1234q0 22 3 30t35 17t98 9q58 0 160 -6q48 -2 81 -19t51 -34t29 -53t14 -53t7 -57q2 -16 2 -42 q0 -34 -15 -45t-61 -11q-12 0 -52 1t-70 1q-50 2 -95 4t-63 2q-6 0 -22 -1t-26 -1q-16 -2 -38 -2q-18 0 -22 7t-6 29zM1498 1032q0 134 -56 178t-182 44h-34h-64q-64 -2 -66 -14q-6 -32 -6 -80q0 -94 14 -140q2 -4 93 -9t161 -5h76q50 0 57 3t7 23zM90 1216q0 8 41 34t65 26 h12q12 2 30 3t40 3t50 3t54 1q132 0 166 -26q30 -24 30 -176q0 -74 -10 -88v-2l-2 -2q0 -4 4 -17t4 -19q0 -14 -18 -14q-2 0 -6 1t-8 1q-28 4 -44 4q-26 0 -89 -5t-97 -5q-40 0 -76 6q-10 2 -32 2q-10 0 -32 -1t-34 -1q-98 0 -98 72v42v56q0 14 6 26q6 18 6 20q0 12 20 34z M534 1200q0 48 -102 48q-6 0 -46 3t-70 3q-226 0 -242 -136q-4 -44 -4 -60q0 -46 14 -62t38 -16t32 -4q6 -4 84 -4q54 0 129 3t128 6t53 5t-3 6t-1 14q4 40 4 56q0 40 -7 88t-7 50z" />
<glyph unicode="T" horiz-adv-x="1626" d="M698 462q146 74 204 74q34 0 60 -18t72 -66q68 -72 68 -188q0 -152 -118 -206q-88 -44 -158 -44q-66 0 -110 36q-40 30 -72 99t-32 129q0 32 8 50l4 12q2 14 8 30t14 34t22 34t30 24zM918 492q-2 0 -6 2t-13 5t-19 3q-32 0 -110 -36q-46 -24 -72 -50t-30 -40l-4 -14 q0 -2 -4 -14t-7 -32t-3 -42q0 -102 82 -186q38 -38 104 -38q64 0 126 33t86 79q22 48 22 96t-16 93t-32 61q-10 8 -30 31t-37 36t-37 13zM166 874q10 6 34 22t38 23t52 15t90 8h2q70 0 136 -76t66 -182q0 -64 -34 -144q-8 -18 -24 -39t-47 -53t-80 -52t-107 -20q-4 0 -13 1 t-15 1l-24 2l-36 20q-164 84 -164 232q0 74 39 144t87 98zM492 834q-4 24 -37 43t-59 25t-32 6q-96 -8 -128 -28l-34 -20q-126 -84 -126 -218q0 -108 64 -156q10 -8 19 -15t13 -10t14 -9t26 -14t44 -24q20 -2 52 -2q24 0 41 3t25 7t28 17t38 23q48 28 79 90t31 126 q0 62 -28 102q-24 36 -30 54zM1122 712q2 124 78 186t174 62q94 0 134 -44l26 -32q54 -54 54 -160q0 -78 -31 -146t-81 -92q-68 -30 -118 -30q-140 0 -220 178q-16 36 -16 78zM1316 922q-16 -4 -18 -4q-4 0 -12 -2t-28 -13t-37 -28t-35 -50t-26 -75q-4 -16 -4 -44 q0 -18 4 -32l6 -14q0 -6 20 -44t68 -82t104 -44q104 0 151 70t47 136q0 100 -55 167t-133 67q-30 0 -52 -8zM804 1222q2 0 38 7t64 7q108 0 150 -100q4 -12 16 -35t18 -39t6 -24q4 -32 4 -70q0 -100 -40 -144q-46 -52 -68 -74t-58 -43t-72 -21q-38 0 -82 18q-46 18 -72 35 t-36 32t-30 51q-30 56 -30 80q0 14 -6 52t-6 62q0 86 86 158q20 16 49 28t47 16t22 4zM1062 914q0 6 5 27t5 33q0 30 -13 78t-60 100t-115 52q-14 0 -54 -8q-148 -36 -184 -122q-12 -28 -12 -74q0 -80 34 -154t108 -98q22 -6 36 -12t18 -8t11 -3t25 -1h32q76 34 120 95 t44 95z" />
<glyph unicode="U" d="M720 1178l28 18q28 18 46 18q20 0 30 -16q18 -28 52 -73t50 -69t30 -70t14 -102v-26q-4 -88 -42 -150q-8 -14 -8 -18t4 -4t15 3t27 8t32 7t34 7t24 5t47 9t73 9q40 0 76 -14q8 -4 14 -4q48 0 127 -55t79 -125q0 -42 -115 -111t-217 -69q-14 0 -38 4q-14 2 -69 9t-88 15 t-53 24q-16 12 -16 -2q-2 -6 0 -32q4 -110 22 -163t50 -94t48 -85t-12 -44q-78 26 -194 26q-42 0 -94 -6q-6 0 -33 -6t-37 -6q-16 0 -16 10t14 26q8 10 23 36t34 77t25 101l6 44q8 72 8 112q0 42 -8 42q-2 0 -15 -17t-34 -40t-39 -35l-18 -12l-18 -12l-8 -6q-2 0 -66 -34 t-112 -34q-14 0 -34 4l-40 10q-12 2 -29 7t-29 9t-14 4q-14 0 -66 28l-40 20q-110 56 -110 84q0 12 48 78q32 42 61 73t49 46t35 24t23 11l10 4q20 14 63 31t69 17h18q98 0 188 -18q24 -6 26 0q0 2 -6 12q-62 112 -62 220q0 52 16 97t39 74t47 50t40 29zM986 666 q-30 0 -59 -15t-47 -30t-20 -15q-4 0 -17 13t-13 23t16 18q42 18 68 83t26 141q0 96 -42 156q-102 138 -108 138q-2 0 -22 -10t-50 -31t-58 -50t-48 -74t-20 -93q0 -88 36 -159t71 -108t35 -47q0 -2 -1 -2t-1 -2q-4 -10 -14 -10q-8 0 -30 15t-61 31t-85 18q-2 0 -21 4t-48 7 t-55 3q-68 0 -108 -24q-8 -6 -25 -15t-31 -19l-30 -18q-28 -18 -84 -84t-56 -84q0 -6 24 -20l42 -30q70 -48 182 -72l36 -10q8 -2 30 -2q64 0 146 44t128 110q30 40 30 48q0 2 7 9t11 9h4q32 0 32 -104q0 -22 -4 -46t-6 -72t-14 -95t-46 -121q-8 -18 -8 -26q0 -2 30 -2 q24 0 84 1t80 1h26q8 -2 17 -4t14 -3t9 -1q12 0 12 8q0 4 -22 38q-22 32 -37 66t-23 57t-14 60t-8 52t-4 55t-2 46v16q0 36 14 36q8 0 52 -30t74 -30l126 -16q24 -4 40 -4q92 0 189 56t97 88q0 48 -57 90t-83 42q-2 0 -43 14t-83 14q-26 0 -70 -10q-4 -2 -56 -12t-54 -10z " />
<glyph unicode="V" horiz-adv-x="1510" d="M1186 1266q46 0 123 -29t117 -77q46 -56 46 -240q0 -222 -62 -324q-50 -74 -116 -102q-20 -8 -109 -20t-165 -12h-14l-86 2q-14 0 -36 1t-28 1q-12 0 -24 -2h-2q-8 -8 -8 -50q0 -92 18 -176l10 -52q4 -18 8 -34t8 -29t6 -19l10 -38q6 -24 6 -40q0 -22 -13 -27t-55 -5h-50 q-108 0 -116 8q-6 6 -6 12t9 29t13 41l6 34q8 38 8 118q0 130 -10 210q-2 32 -5 37t-23 5q-404 8 -472 60q-20 16 -50 58t-44 84l-14 38q-26 76 -26 178q0 36 3 74t6 68t7 55t8 41l2 14q0 56 102 104t188 48h18q36 0 108 1t106 1q384 0 598 -46zM234 1254q-4 -2 -28 -11 t-44 -18t-41 -33t-27 -56q-22 -130 -22 -224q0 -98 18 -152l14 -44q20 -60 48 -96t65 -51t68 -19t81 -7t82 -9q22 -4 190 -11t190 -15q4 -2 20 -2q14 0 83 -4t117 -4q80 0 154 12q14 2 28 3t21 2t16 4t19 9t26 18q70 58 88 104t34 168q8 50 8 104q0 58 -9 109t-19 73l-10 22 q-28 72 -314 109t-592 37q-238 0 -264 -18zM772 480q-4 0 -28 5t-32 5q-6 0 -6 -2q-2 -2 -2 -16q0 -8 6 -87t6 -137q0 -104 -18 -184q-4 -20 -4 -24q0 -10 24 -10h56q74 0 74 10q0 2 -30 131t-30 231q0 6 1 19t1 19q2 26 0 33t-18 7z" />
<glyph unicode="W" d="M612 946q0 -8 -8 -16q-6 -6 -28 -6h-48q-44 0 -108 -8q-84 -12 -284 -12q-48 0 -62 2q2 -2 2 -4t2 -4q14 -20 79 -70t79 -62q36 -32 89 -72t90 -65t39 -27q0 -2 1 -2t1 -2q0 -20 -81 -125t-81 -109q0 -2 -57 -90t-57 -94h2q8 0 68 29t114 57l56 28l108 54q54 26 104 56 t74 43t44 13q40 0 132 -68q14 -10 55 -31t49 -27q8 -8 45 -30t41 -22q12 -6 24 -14l28 -22q20 -14 93 -54t91 -40q4 0 4 4q0 8 -14 32t-36 57t-26 41q-12 20 -61 83t-85 119t-36 78q0 2 1 4t1 4q6 10 43 47t83 79t54 50l64 58q70 60 70 74q0 10 -30 10q-86 4 -204 12t-156 8 h-54l-70 80q-6 4 -27 31t-49 55l-23 23l-19 19t-12 13t-10 9t-8 2q-10 0 -34 -60l-28 -66l-34 -70v-2zM60 954q0 62 63 142t209 96h64q652 0 672 -10l12 -2q14 -4 33 -10t46 -14t56 -19t59 -25t57 -32t49 -38t38 -45t20 -51q8 -48 15 -139t12 -188t7 -117q0 -6 1 -18t1 -16 q0 -44 -20 -164q-14 -84 -75 -169t-123 -101q-128 -34 -254 -34q-30 0 -90 2t-94 2q-52 0 -85 2t-44 6t-20 6t-17 2q-24 0 -227 29t-233 47q-54 32 -78 55t-46 96t-24 199q0 32 -2 85t-2 75q0 116 3 192t7 98t7 36t3 22z" />
<glyph unicode="X" horiz-adv-x="1568" d="M648 638q22 0 41 3t33 3q30 0 30 4q0 2 -5 6t-14 11t-17 13q-94 54 -336 266q-16 12 -22 12q-2 0 -26 -14t-60 -16h-6q-72 0 -114 29t-54 59q-16 40 -16 84q0 118 118 150q52 16 76 16q40 0 80 -38q24 -24 40 -73t16 -73q0 -10 -17 -49t-17 -41t68 -62t147 -125t101 -75 q4 -2 18 -12t26 -18t14 -8q14 0 14 80v34q0 62 2 94v12q0 20 -6 25t-15 3t-25 7t-34 33q-44 62 -44 120q0 106 144 144q24 4 30 4q12 0 21 -5t18 -13t17 -12q30 -16 52 -54t22 -80q0 -70 -58 -108q-26 -16 -49 -24t-31 -10t-8 -8q0 -26 -8 -112t-8 -120q0 -38 8 -46 q392 290 394 298q0 4 -4 13t-9 25t-5 36q0 38 18 76q20 40 66 72t72 32h4q4 -2 18 -2q50 0 80 -39t30 -95q0 -90 -72 -142q-28 -22 -88 -22q-48 0 -86 20q-8 -4 -96 -69t-172 -128t-86 -65q-10 -6 -10 -12t32 -6q8 0 46 1t66 1q56 0 86 -2q18 -2 70 -2q84 0 88 4q2 2 4 21 t15 41t43 32q6 2 34 15t46 18t36 5q42 0 74 -48q40 -64 40 -104q0 -14 -4 -26q-40 -92 -128 -92q-48 0 -91 27t-55 57q-4 14 -29 17t-149 3q-78 4 -142 4q-82 0 -82 -8q0 -10 90 -72t194 -130t122 -84q16 -14 22 -14q2 0 12 6t35 13t65 7q50 0 85 -46t35 -104 q0 -94 -88 -126q-18 -8 -46 -8q-30 0 -61 11t-47 23t-16 16l-2 6q-4 4 -8 11t-9 17t-8 23t-3 25q0 32 8 51t15 27t7 12q0 8 -56 56q-6 4 -58 36t-141 93t-179 135q-10 8 -20 8q-12 0 -12 -36q0 -10 2 -45t2 -57q4 -144 16 -158q4 -4 42 -18q20 -8 38 -20q78 -48 78 -114 q0 -58 -52 -110q-36 -36 -120 -36q-64 0 -108 34t-44 110q0 62 35 105t81 55q12 2 12 24q0 6 -2 36t-2 52v20v22q0 108 -4 112q-2 2 -22 -12l-358 -294l2 -4q2 -6 5 -13t5 -17t4 -23t2 -25q0 -94 -110 -130q-16 -4 -30 -4q-46 0 -85 28t-47 88v14q0 58 61 108t115 50 q30 0 44 -20q4 -8 18 -20q90 60 160 123t84 73q136 102 136 112q0 4 -24 4t-69 -4t-94 -9t-94 -10t-75 -9l-30 -4q-14 -2 -23 -17t-16 -33t-31 -39t-64 -31q-24 -6 -38 -6q-68 0 -126 84q-18 28 -18 60q0 62 46 112t130 50h26q16 -16 28 -16q32 0 52 -37t20 -75 q0 -22 16 -22q6 0 18 2t34 4l44 4q18 2 63 6t82 8t49 4z" />
<glyph unicode="Y" horiz-adv-x="1482" d="M776 112h4q4 0 28 5t34 5q18 0 18 -12q0 -2 -4 -14q-10 -20 -58 -20l-68 8q-22 0 -26 20q0 14 16 16q12 4 56 -8zM386 254q0 2 2 5t7 6t11 3q10 0 26 -25t44 -25q12 0 20 19t22 19h6q14 -2 14 -14q0 -14 -18 -34t-30 -24q-6 -2 -18 -2q-32 0 -59 28t-27 44zM992 314 q10 0 26 -18t36 -18t28 16t14 20q8 6 16 6q10 0 10 -14q0 -20 -20 -43t-48 -23q-6 0 -22 4q-12 4 -33 25t-21 35q0 10 14 10zM678 1312q10 66 114 66q56 0 97 -26t39 -74q0 -14 10 -14q16 0 82 -18t124 -36l60 -18q10 0 40 -15t74 -53t72 -86q52 -90 52 -160q0 -40 -15 -71 t-29 -43l-14 -12l-14 -14t-11 -12t-8 -8t-8 -6t-7 -4t-8 -2t-9 -1t-13 -1h-4q-34 0 -34 -70q0 -24 2 -38q4 -44 5 -107t3 -83l6 -60q0 -4 5 -52t5 -78q0 -156 -100 -178q-62 -14 -76 -14q-108 -2 -252 -18t-174 -16q-16 0 -36 4q-8 2 -86 6t-136 22l-38 14q-76 24 -111 153 t-35 235q0 4 1 29t1 57q0 48 -2 86t-6 52l-2 14q-2 2 -45 2t-84 25t-65 91q-8 20 -8 46q0 94 68 178q10 14 50 50t54 46l34 24q50 38 110 70t94 46l34 14q4 0 21 10t53 21t84 11q34 0 36 16zM882 1268q6 6 6 16q0 22 -33 41t-71 19t-62 -24q-14 -14 -14 -26q0 -10 11 -18 t41 -16l28 -8q12 -4 34 -4q40 0 60 20zM940 766q-58 -108 -156 -108q-16 0 -43 3t-35 3q-36 0 -100 60t-108 60q-6 0 -26 -4q-32 -8 -104 -54t-84 -50q-10 -2 -10 -30q0 -14 5 -64t5 -78q0 -26 -2 -38v-24q0 -98 26 -214t88 -148q96 -48 288 -48l96 4q18 0 135 14t177 16 q34 0 59 4t52 17t41 41t14 72q0 18 -11 189t-11 241q0 32 6 62q2 4 2 10q0 8 -10 12t-27 9t-31 15q-102 86 -158 86q-48 0 -78 -58z" />
<glyph unicode="Z" horiz-adv-x="1562" d="M84 850q-2 2 -4 2q-2 -12 -2 -25t4 -37l6 -48l20 -146q8 -24 34 -288l4 -44q2 -34 8 -42t18 -6q16 2 57 3t68 4t27 11q0 6 -4 47t-9 118t-5 167v76q0 22 -2 30t-5 10t-15 5t-24 9q-72 34 -116 73t-52 59zM838 874q-12 18 -25 47t-20 48t-9 19q-4 0 -16 -37t-34 -86 t-44 -71q-10 -10 -10 -14l24 -30q24 -30 50 -64t30 -40q4 -8 8 -8q8 0 22 24t32 61t30 55q8 10 8 16t-4 12t-14 19t-18 29zM744 1204q-10 12 -30 40t-35 41t-47 31t-86 28t-132 14h-14q-20 0 -40 -2l-22 -4q-30 0 -108 -51t-110 -113q-46 -92 -46 -178q0 -96 55 -172 t161 -114q28 -8 62 -8h14l50 4q68 4 122 21t85 38t54 49t31 48l16 40l6 22q36 72 36 160l-8 78q0 14 -14 28zM1298 1340q-4 2 -48 25t-86 23q-38 0 -88 -14q-92 -26 -180 -113t-88 -201q0 -98 74 -200q6 -12 20 -31t65 -50t111 -31h20q18 0 30 3t28 3q82 0 174 73t102 169 q0 4 1 27t1 37t-1 35t-1 25l-6 44q-4 36 -14 55t-28 38t-28 35q-26 38 -58 48zM278 1380q-2 2 -21 18t-36 28t-27 12q-20 0 -47 -55t-27 -97q0 -18 6 -26q80 70 140 100q16 8 18 11t-6 9zM1418 1278q2 2 2 12q0 34 -23 100t-39 66h-2q-12 -8 -37 -32t-25 -36q0 -4 6 -8 q32 -12 59 -37t41 -45t16 -20h2zM72 1156q4 0 20 102q0 16 2 42t20 81t52 81q18 14 28 14q16 0 65 -36t51 -52q0 -8 10 -8l36 6q36 6 76 6q18 0 70 -4q70 -8 108 -22t80 -50q30 -26 56 -59t38 -51t18 -18q2 0 6 6q20 38 65 91t87 73l34 16q94 48 166 48q28 0 58 -6t36 -6 q14 0 18 10q10 20 45 49t55 29q4 0 10 -6q18 -16 42 -82t24 -94q0 -120 8 -158t8 -110q2 -110 30 -377t28 -345q0 -80 -18 -88q-4 -2 -26 -2q-12 0 -71 3t-99 3q-66 0 -112 -8h-72t-134 -2t-70 -6q-2 -2 -2 -22l26 -354q0 -12 1 -16t2 -10t1 -16q2 -22 36 -29t44 -15 q24 -16 8 -32q-8 -4 -11 -2t-14 8t-21 6q-18 2 -21 -4t-1 -40q2 -48 -12 -48q-18 0 -18 32v16q0 20 -6 20t-26 -25t-30 -25q-6 0 -12 6t-6 10q0 10 34 44t32 44l-18 174q0 32 -18 248q-2 16 -3 22t-6 10t-15 4q-8 0 -24 -2t-46 -5t-60 -5q-22 -2 -38 -5t-28 -3 q-20 0 -20 -14q0 -2 3 -35t3 -67q0 -48 6 -116t12 -112l6 -44q4 -22 38 -52t34 -40q0 -4 -4 -8t-10 -4q-8 0 -26 15t-20 15t-2 -14v-16q0 -50 -12 -50l-8 4q-10 8 -11 29t-2 37t-9 16q-10 0 -40 -32q-20 -22 -32 -28q-12 8 -12 20q0 14 38 45t48 47q0 4 -16 201t-18 199 t-20 2l-290 -18q-8 0 -80 -6t-84 -6q-22 0 -22 10q0 2 1 8t1 12q0 14 -2 20q-6 26 -11 124t-11 136q-48 290 -48 412q0 10 1 20t1 12q0 6 -4 22q-6 20 -6 58q0 44 8 76t16 47t8 19zM1040 834q0 8 14 17t28 9q22 0 22 -30q0 -18 -16 -29t-28 -3q-4 4 -12 17t-8 19zM412 774 q-18 6 -18 28q0 18 11 35t23 17h4q24 -2 24 -38q0 -44 -32 -44q-8 0 -12 2zM940 616q0 -98 68 -98q14 0 22 2h2q6 0 23 -14t27 -14q12 0 22 12q16 16 16 32q0 12 -10 12q-14 0 -30 -18q-24 14 -24 30q0 2 1 7t1 7q0 10 -6 18t-12 8q-8 0 -15 -25t-11 -27t-12 -2 q-14 0 -24 16t-10 32t-8 24q-2 4 -7 4t-9 -2t-4 -4zM610 536q0 -22 -12 -28h-2l-4 -2q-10 0 -23 21t-21 21q-4 0 -6 -2q-10 -8 -10 -18q0 -4 2 -13t2 -15q0 -8 -6 -18t-16 -10q-20 0 -54 46q-10 14 -19 16t-13 -4t-4 -14q0 -6 4 -6q2 0 13 -17t29 -35t38 -18q28 0 60 38 q16 -6 28 -6q24 0 37 20t13 48q0 24 -18 24t-18 -28zM766 334q-14 0 -30 11t-20 11q-14 0 -14 -10q0 -12 17 -27t33 -15q8 0 12 -2t10 -2q20 0 37 30t17 46q0 10 -8 12t-17 -4t-9 -12q0 -8 -8 -23t-20 -15zM1228 270q54 2 178 2l80 -2q6 24 6 76l-16 246l-4 36l-28 264 q0 6 -2 6q-4 0 -23 -23t-51 -55t-64 -50q-10 -6 -27 -16t-28 -16t-19 -8q-20 -4 -27 -11t-7 -25q0 -10 5 -66t7 -114q2 -66 11 -147t9 -97z" />
<glyph unicode="[" horiz-adv-x="1642" d="M872 912q0 4 1 10t1 8q0 44 -20 73t-58 29q-8 0 -24 -4q-4 -2 -24 -6t-28 -7t-24 -10t-24 -16t-15 -22t-7 -31t-13 -21t-21 15q-32 62 -80 62q-2 0 -7 -1t-7 -1q-54 -10 -73 -24t-33 -56q-12 -28 -12 -58q0 -20 10 -37t10 -21q0 -6 -6 -12l-16 -6q-16 -6 -32 -15t-30 -35 t-14 -64v-12q2 -48 29 -76t57 -28q16 0 24 6q8 4 15 2t8 -10t-9 -22q-20 -24 -20 -50q0 -6 4 -17t15 -27t28 -29t47 -23t66 -10q4 0 13 1t15 1q36 4 48 37t14 35q8 6 14 6t9 -26t33 -54t100 -32h10q46 0 67 28t27 59t16 33h2q2 0 40 -36t84 -36l30 6q44 8 67 33t23 53 q0 22 -18 44q-10 10 -6 21t18 11q22 -14 48 -14q56 0 88 68q14 28 14 58q0 48 -32 83t-54 35q-10 4 -26 4q-14 0 -42 -6q-6 -2 -14 -2q-14 0 -14 14q0 6 5 29t5 37q0 28 -14 48q-18 26 -26 26l-42 22q-40 24 -74 24q-44 0 -82 -38q-12 -12 -23 -28t-17 -26t-12 -10 q-4 0 -10 10q-4 8 -2 28zM66 818q0 2 -5 9t-9 27t-4 52q0 66 27 115t61 72t79 37t68 16t41 2h2q2 2 6 17t11 31t24 35t41 27q44 22 98 22q60 0 98 -38q12 -6 14 -5t10 14t16 21q76 66 156 66q56 0 102 -27t66 -61q4 -10 10 -10q2 0 19 17t37 21q44 14 94 14q110 0 132 -86 q8 -24 12 -24q42 22 96 22q78 0 120 -60q22 -32 22 -86v-32q-10 -26 -23 -48t-20 -31t-7 -13q0 -8 18 -10q28 -4 58 -39t30 -79q0 -26 -17 -78t-35 -80q-8 -10 -8 -22q0 -10 24 -17t48 -39t24 -98v-14q-2 -84 -39 -139t-89 -67q-20 -4 -20 -18q0 -2 1 -10t1 -14 q0 -26 -26 -64q-20 -32 -80 -50t-120 -18q-56 0 -74 16q-6 6 -14 6q-6 0 -21 -21t-39 -31q-48 -26 -68 -26q-14 0 -82 30q-20 8 -36 19t-24 18t-14 12t-10 5q-8 0 -18 -18q-54 -80 -162 -80l-62 8q-26 0 -64 35t-38 47q0 8 -8 8q-4 0 -10 -10t-15 -22t-40 -23t-77 -11h-2 q-94 0 -154 81t-60 179q0 54 22 98q2 4 2 8q0 6 -15 9t-39 16t-40 43q-28 48 -28 102q0 46 20 92t40 68l20 24l-28 26q-26 26 -26 32z" />
<glyph unicode="\" horiz-adv-x="1558" d="M734 1348q10 0 28 -1t28 -1q42 0 119 3t109 3q66 0 112 -8q20 -4 79 -9t97 -11t81 -35t61 -77q56 -142 56 -432q0 -34 -1 -98t-1 -94q0 -136 12 -200q6 -36 6 -74q0 -108 -49 -193t-123 -93q-282 -28 -312 -28q-14 0 -37 2t-87 5t-172 3q-68 0 -140 2t-80 2h-20t-15 -3 t-10 -4t-6 -8t-4 -10t-3 -15t-4 -18q-14 -54 -55 -97t-77 -43q-16 0 -24 8q-12 12 -12 28q0 8 3 33t3 41q0 30 -10 56q-4 10 -5 21t-4 14t-17 5q-76 10 -106 42q-14 14 -35 49t-21 43q0 4 -11 35t-22 94t-13 145q-2 48 -7 88t-5 72q0 12 3 48t3 62v54v106q0 72 10 118 q2 4 6 37t11 66t13 43q2 4 12 28t24 45t34 31q2 2 20 14t35 23t50 24t69 17q304 44 370 44q12 0 22 -1t12 -1z" />
<glyph unicode="]" horiz-adv-x="1622" d="M328 -352q0 26 27 44t57 18q26 0 44 -12t18 -34q0 -30 -23 -46t-53 -16q-28 0 -49 13t-21 33zM396 -150q0 24 32 47t74 23q18 0 26 -2t21 -4t19 -3t15 -4t12 -5l9 -6t8 -10t4 -14t3 -17t1 -23q0 -22 -3 -32t-29 -22t-78 -12h-10h-42q-30 14 -38 21t-8 16t-6 17 q-10 16 -10 30zM660 126q16 0 35 -24t19 -46q0 -40 -27 -67t-75 -27q-10 0 -34 4q-8 2 -44 7t-52 10t-34 25t-18 54q0 30 2 34q8 16 60 32t98 16q32 0 52 -10q12 -8 18 -8zM174 1394q178 114 456 114q90 0 240 -13t200 -13h32q6 0 20 1t20 1q128 0 235 -46t133 -92 q74 -172 74 -424q0 -44 -12 -156q-8 -62 -8 -152t-9 -154t-39 -126q-16 -32 -34 -54t-45 -32t-40 -14t-53 -6t-50 -4q-742 12 -848 20q-80 6 -144 24t-98 38t-56 40t-28 34l-6 12q0 2 -1 4t-2 5t-4 7t-6 11t-8 21t-11 32t-15 46t-17 62q-10 50 -10 328q0 194 14 228l4 24 q4 24 11 54t19 64t35 66t51 50z" />
<glyph unicode="^" horiz-adv-x="1544" d="M1280 -92q0 -12 20 -85t20 -91q0 -22 -10 -22q-8 0 -21 9t-33 25t-32 24q-60 40 -112 78t-85 63t-58 45t-37 30l-10 8q-6 0 -38 32q-134 10 -257 15t-179 7t-107 4t-77 18t-51 38t-65 74q-108 136 -108 456v96v34v50l6 54q8 132 33 211t47 98t54 28t36 13q6 4 35 12t41 8 q14 0 86 8t194 8q156 0 618 -24l88 -4q28 -2 48 -4t30 -4t15 -5t7 -4t4 -1q22 0 41 -26t30 -66t19 -77t13 -73t5 -38q8 -34 8 -196q0 -58 -1 -174t-1 -158q0 -70 2 -84q0 -2 3 -34t3 -60q0 -158 -104 -194q-28 -8 -98 -8q-40 0 -40 -14q0 -4 1 -12t3 -22t4 -26q0 -4 5 -19 t5 -21z" />
<glyph unicode="_" horiz-adv-x="1630" d="M1084 392q0 40 10 52t32 12q6 0 18 -1t16 -1q10 0 16 2l290 20q126 -2 126 -170q0 -46 -11 -101t-21 -86t-14 -41q-28 -52 -63 -70t-89 -18q-20 0 -61 3t-59 3q-168 14 -182 44q-10 20 -10 176zM50 442q0 36 12 45t52 9h12q32 0 65 -4t39 -4q14 0 32 6t86 6 q184 0 208 -14q26 -16 28 -24q2 -6 2 -14v-46q0 -52 4 -98q6 -84 6 -136q0 -64 -9 -100t-20 -44t-27 -8h-18q-12 0 -53 1t-59 2t-54 4t-59 8t-53 12t-54 19t-46 28q-8 6 -25 23t-17 21q-62 62 -62 200q0 20 8 76q2 8 2 32zM1054 1234q0 22 3 30t35 17t98 9q58 0 160 -6 q48 -2 81 -19t51 -34t29 -53t14 -53t7 -57q2 -16 2 -42q0 -34 -15 -45t-61 -11q-12 0 -52 1t-70 1q-50 2 -95 4t-63 2q-6 0 -22 -1t-26 -1q-16 -2 -38 -2q-18 0 -22 7t-6 29zM90 1216q0 8 41 34t65 26h12q12 2 30 3t40 3t50 3t54 1q132 0 166 -26q30 -24 30 -176 q0 -74 -10 -88v-2l-2 -2q0 -4 4 -17t4 -19q0 -14 -18 -14q-2 0 -6 1t-8 1q-28 4 -44 4q-26 0 -89 -5t-97 -5q-40 0 -76 6q-10 2 -32 2q-10 0 -32 -1t-34 -1q-98 0 -98 72v42v56q0 14 6 26q6 18 6 20q0 12 20 34z" />
<glyph unicode="`" horiz-adv-x="1638" d="M816 150q42 2 68 14t37 23t15 11q6 0 12 -6q2 -2 2 -8q0 -12 -12 -27t-46 -30t-84 -17h-22q-76 0 -76 28q0 18 20 18q6 0 30 -3t42 -3h14zM1166 268q-12 0 -22 15t-10 31q0 30 32 30h6q32 -2 32 -34q0 -16 -10 -29t-28 -13zM314 284q-18 8 -18 28t18 38t34 18q8 0 14 -6 q12 -10 12 -38q0 -48 -32 -48q-14 0 -28 8zM610 1294q28 0 147 7t183 7q114 0 148 -18q22 -10 69 -15t102 -32t125 -97l51 -51l42 -42t33 -31t26 -26t18 -20t14 -16t9 -13t7 -14t3 -13t3 -16l6 -44q4 -28 4 -40q0 -38 -20 -92t-22 -84q-8 -78 -8 -162l2 -76l4 -60 q4 -60 4 -84q0 -86 -78 -166q-18 -18 -82 -58q-12 -10 -38 -17t-71 -13t-61 -10q-36 -4 -58 -4q-38 0 -129 7t-133 7q-54 0 -88 -8h-26q-26 -2 -69 -4t-91 -4t-103 -3t-97 -1q-62 0 -102 4q-54 6 -90 25t-48 35t-23 40t-13 28q-10 16 -20 209t-10 237q0 74 -14 128t-34 96 t-24 58q0 4 -9 31t-9 43q0 66 116 190q34 38 78 66t72 39t71 24t51 17q92 36 170 36h12zM1150 1234q-6 0 -28 8t-26 8q-10 0 -56 12t-94 12q-26 0 -40 -2q-24 -2 -60 -2q-18 0 -37 1t-23 1q-10 0 -16 -2q-42 -6 -72 -6q-68 0 -115 -4t-65 -10t-31 -10t-19 -4 q-160 -48 -220 -88q-48 -32 -110 -108t-62 -128q0 -34 33 -100t37 -100q16 -146 23 -301t15 -220t34 -101q10 -16 15 -22t11 -10t10 -5t15 -3t23 -6q54 -18 188 -18q92 0 261 10t205 10q6 0 16 -1t14 -1q84 -10 134 -10q122 0 199 26t87 54q4 10 4 82q0 90 -2 100l-4 50 q-18 212 -18 242q0 52 13 91t49 105q30 54 30 116q0 38 -14 77t-34 69t-45 58t-45 44t-38 28l-16 14q-10 8 -42 19t-58 19z" />
<glyph unicode="a" horiz-adv-x="1638" d="M816 150q42 2 68 14t37 23t15 11q6 0 12 -6q2 -2 2 -8q0 -12 -12 -27t-46 -30t-84 -17h-22q-76 0 -76 28q0 18 20 18q6 0 30 -3t42 -3h14zM1166 268q-12 0 -22 15t-10 31q0 30 32 30h6q32 -2 32 -34q0 -16 -10 -29t-28 -13zM314 284q-18 8 -18 28t18 38t34 18q8 0 14 -6 q12 -10 12 -38q0 -48 -32 -48q-14 0 -28 8zM610 1294q28 0 147 7t183 7q114 0 148 -18q22 -10 69 -15t102 -32t125 -97l51 -51l42 -42t33 -31t26 -26t18 -20t14 -16t9 -13t7 -14t3 -13t3 -16l6 -44q4 -28 4 -40q0 -38 -20 -92t-22 -84q-8 -78 -8 -162l2 -76l4 -60 q4 -60 4 -84q0 -86 -78 -166q-18 -18 -82 -58q-12 -10 -38 -17t-71 -13t-61 -10q-36 -4 -58 -4q-38 0 -129 7t-133 7q-54 0 -88 -8h-26q-26 -2 -69 -4t-91 -4t-103 -3t-97 -1q-62 0 -102 4q-54 6 -90 25t-48 35t-23 40t-13 28q-10 16 -20 209t-10 237q0 74 -14 128t-34 96 t-24 58q0 4 -9 31t-9 43q0 66 116 190q34 38 78 66t72 39t71 24t51 17q92 36 170 36h12zM1150 1234q-6 0 -28 8t-26 8q-10 0 -56 12t-94 12q-26 0 -40 -2q-24 -2 -60 -2q-18 0 -37 1t-23 1q-10 0 -16 -2q-42 -6 -72 -6q-68 0 -115 -4t-65 -10t-31 -10t-19 -4 q-160 -48 -220 -88q-48 -32 -110 -108t-62 -128q0 -34 33 -100t37 -100q16 -146 23 -301t15 -220t34 -101q10 -16 15 -22t11 -10t10 -5t15 -3t23 -6q54 -18 188 -18q92 0 261 10t205 10q6 0 16 -1t14 -1q84 -10 134 -10q122 0 199 26t87 54q4 10 4 82q0 90 -2 100l-4 50 q-18 212 -18 242q0 52 13 91t49 105q30 54 30 116q0 38 -14 77t-34 69t-45 58t-45 44t-38 28l-16 14q-10 8 -42 19t-58 19zM1558 862q-4 28 -19 60t-30 52t-19 20l2 -10q2 -8 5 -28t3 -42q0 -38 -4 -58q-8 -54 -49 -123t-41 -149q0 -32 6 -74q14 -166 14 -174l2 -8v-24 t1 -32t2 -39t1 -41q0 -32 -2 -52t-3 -28t-1 -10q0 -4 4 -4q10 0 28 17t39 53t31 78l-2 44q-6 130 -6 214q0 140 23 220t23 84q0 8 -4 28q-2 4 -3 13t-1 13z" />
<glyph unicode="b" horiz-adv-x="1482" d="M776 112h4q4 0 28 5t34 5q18 0 18 -12q0 -2 -4 -14q-10 -20 -58 -20l-68 8q-22 0 -26 20q0 14 16 16q12 4 56 -8zM386 254q0 2 2 5t7 6t11 3q10 0 26 -25t44 -25q12 0 20 19t22 19h6q14 -2 14 -14q0 -14 -18 -34t-30 -24q-6 -2 -18 -2q-32 0 -59 28t-27 44zM992 314 q10 0 26 -18t36 -18t28 16t14 20q8 6 16 6q10 0 10 -14q0 -20 -20 -43t-48 -23q-6 0 -22 4q-12 4 -33 25t-21 35q0 10 14 10zM1106 1032q16 16 40 16q36 0 71 -23t35 -49q0 -14 -16 -30q-16 -12 -34 -12q-34 0 -68 28t-34 54q0 10 6 16zM1204 988q-6 8 -19 12t-22 4t-9 -2 q-2 -6 16 -18t28 -12q16 0 6 16zM760 866q-28 0 -47 39t-19 85q0 64 36 64h4q16 -2 48 -48t32 -82q0 -12 -2 -16q-14 -42 -52 -42zM746 988q-10 12 -16 12q-8 0 -8 -14q0 -22 14 -53t28 -31q4 0 10 6q4 4 4 12q0 14 -13 38t-19 30zM306 914q-4 20 -4 28q0 46 38 78t70 32 q18 0 18 -12t-18 -34l-14 -30q-12 -30 -31 -57t-35 -27q-6 0 -10 2q-8 4 -14 20zM360 980q-2 4 -4 3t-10 -9q-20 -26 -8 -34q4 0 14 18t8 22zM678 1312q10 66 114 66q56 0 97 -26t39 -74q0 -14 10 -14q16 0 82 -18t124 -36l60 -18q10 0 40 -15t74 -53t72 -86q52 -90 52 -160 q0 -40 -15 -71t-29 -43l-14 -12l-14 -14t-11 -12t-8 -8t-8 -6t-7 -4t-8 -2t-9 -1t-13 -1h-4q-34 0 -34 -70q0 -24 2 -38q4 -44 5 -107t3 -83l6 -60q0 -4 5 -52t5 -78q0 -156 -100 -178q-62 -14 -76 -14q-108 -2 -252 -18t-174 -16q-16 0 -36 4q-8 2 -86 6t-136 22l-38 14 q-76 24 -111 153t-35 235q0 4 1 29t1 57q0 48 -2 86t-6 52l-2 14q-2 2 -45 2t-84 25t-65 91q-8 20 -8 46q0 94 68 178q10 14 50 50t54 46l34 24q50 38 110 70t94 46l34 14q4 0 21 10t53 21t84 11q34 0 36 16zM882 1268q6 6 6 16q0 22 -33 41t-71 19t-62 -24q-14 -14 -14 -26 q0 -10 11 -18t41 -16l28 -8q12 -4 34 -4q40 0 60 20zM526 1234q-4 -2 -46 -19t-73 -32t-79 -43t-84 -58l-28 -24q-140 -108 -140 -226q0 -58 38 -96t102 -38q52 0 130 50t92 54q52 16 80 16q50 0 102 -56t118 -66q32 -4 42 -4q68 0 100 48l22 28l8 10q0 4 17 28t23 28 q40 32 80 32q44 0 106 -48t64 -48q42 -22 124 -24l50 46q32 30 32 60q0 8 -3 25t-3 27q0 44 -35 103t-71 85q-92 76 -126 76l-72 20q-16 4 -20 4q-18 0 -85 17t-93 17q-12 0 -24 -4q-24 -12 -46 -12q-28 0 -93 25t-109 25q-48 0 -100 -26zM940 766q-58 -108 -156 -108 q-16 0 -43 3t-35 3q-36 0 -100 60t-108 60q-6 0 -26 -4q-32 -8 -104 -54t-84 -50q-10 -2 -10 -30q0 -14 5 -64t5 -78q0 -26 -2 -38v-24q0 -98 26 -214t88 -148q96 -48 288 -48l96 4q18 0 135 14t177 16q34 0 59 4t52 17t41 41t14 72q0 18 -11 189t-11 241q0 32 6 62 q2 4 2 10q0 8 -10 12t-27 9t-31 15q-102 86 -158 86q-48 0 -78 -58z" />
<glyph unicode="c" horiz-adv-x="1562" d="M702 68q-6 -6 -20 -6q-20 0 -42 11t-22 23q0 10 14 18q76 -8 76 -32q0 -8 -6 -14zM822 132q-18 12 -18 26q0 12 13 22t27 10q12 0 20 -10q6 -8 6 -20q0 -14 -8 -26t-20 -12q-10 0 -20 10zM506 142q-4 8 -4 14q0 14 10 25t22 11q14 0 22 -14q4 -8 4 -16q0 -14 -9 -26 t-21 -12t-24 18zM918 784q2 68 42 100t92 32q38 0 56 -14l8 -6q10 -8 18 -15t17 -18t14 -27t5 -32t-6 -36q-36 -104 -120 -104q-48 0 -87 36t-39 84zM1124 764q6 16 6 30q0 36 -29 60t-67 24q-48 0 -72 -44q-8 -16 -8 -38q0 -38 29 -66t65 -28q52 0 76 62zM394 66q0 2 -9 31 t-9 35t-3 19t-3 19q-4 36 -16 61t-24 35t-39 29t-41 31q-2 2 -40 28t-61 50t-33 56q-4 10 -19 34t-21 42q0 2 -6 15t-10 26t-9 33t-8 47t-3 57v16q0 68 5 119t22 128t63 138t116 97q64 32 74 32q2 0 23 5t73 7q46 2 117 10t101 8q18 0 46 -4q2 0 12 -1t16 -1q16 0 72 2t88 2 q76 0 110 -8q30 -10 90 -10q76 0 195 -28t157 -62q104 -94 104 -466l-10 -226q0 -2 -7 -26t-16 -49t-26 -52t-39 -39q-76 -46 -97 -75t-21 -109q0 -20 3 -44t3 -28q0 -18 -12 -22q-16 -8 -255 -18t-243 -14q-24 -12 -178 -12q-174 0 -212 44q-20 24 -20 38zM808 1232 q-58 0 -78 -4q-10 -2 -26 -2q-12 0 -2 -8q2 0 4 -2q48 -24 66 -70l16 -46q14 -40 14 -78q0 -74 -50 -116t-82 -42q-42 -14 -94 -14q-108 0 -152 74q-20 36 -20 38t-7 19t-14 43t-7 52q0 62 42 112q18 22 16 24t-24 2q-118 0 -192 -60q-42 -34 -74 -76t-32 -64 q-40 -162 -40 -284q0 -6 1 -19t1 -19q14 -136 32 -136q4 0 4 32v34l5 15t17 32t32 42t51 38t73 25q36 4 40 4q10 0 23 -3t25 -3t35 -14t48 -39t44 -73t19 -106q0 -20 -13 -59t-61 -86t-120 -49q-32 0 -32 -8q0 -6 50 -44l150 -8h14q42 0 76 -3t53 -6t23 -3q12 0 12 32 q2 54 14 92t40 58t43 29t54 17t43 10q12 4 24 4q40 0 98 -23t74 -39q48 -60 48 -120q0 -36 -20 -64l-2 -2q0 -6 20 -6q22 0 78 6l44 4q16 2 36 3t27 2t18 3t18 6t15 11t22 19q-72 42 -72 122q0 42 25 70t73 32h18q18 0 32 -4t22 -7t10 -3q4 0 6 4q4 4 4 188q0 84 -4 86h-12 q-12 2 -30 6t-40 11t-44 22t-40 35t-29 53t-11 75v2q0 48 10 85t21 54t11 19q0 16 -191 41t-319 25zM602 1232q-2 0 -13 -1l-22 -2t-28 -5t-32 -11t-33 -19t-34 -30q-26 -30 -26 -94q0 -60 34 -112t108 -70l12 -4q14 -4 24 -4q22 0 104 32q72 30 72 100t-60 145t-100 75h-6z M1462 1004q0 18 -38 81t-66 63q-16 0 -33 -42t-17 -92q0 -68 38 -116t120 -50q16 0 16 12q0 4 -2 24t-4 38q-2 32 -6 49t-6 22t-2 11zM382 732q-22 8 -56 8q-90 0 -154 -72q-28 -32 -28 -82q0 -74 52 -140t128 -66q22 0 52 10q50 16 79 64t29 106q0 64 -36 108q-8 10 -34 36 t-32 28zM1460 410q18 40 18 52q0 40 -72 42q-38 0 -58 -16q-12 -12 -12 -48q0 -38 28 -68q12 -26 34 -26q32 0 62 64zM1060 386q-2 2 -7 13t-7 14t-10 12t-14 13t-19 11t-27 11t-36 10t-48 10h-4q-32 0 -89 -24t-75 -58q-14 -26 -14 -94v-32h66q76 0 138 -3t93 -6t39 -3 q12 0 15 3t3 13l6 20q6 22 6 36q0 28 -16 54zM1164 232q-28 -4 -76 -4q-110 0 -392 14t-300 14h-8l40 -180q0 -50 182 -50q42 0 100 2l58 4q20 0 51 6t143 8q100 0 177 4t105 6l26 4l16 178q0 2 -16 2q-82 0 -106 -8z" />
<glyph unicode="d" horiz-adv-x="1796" d="M706 1318q4 -2 36 -2q30 0 118 5t120 5q30 0 42 -6l188 -10q36 0 137 -19t115 -39q0 -2 16 -18t33 -41t39 -62t43 -95t37 -126q8 -48 8 -58q0 -6 6 -6q2 0 20 4t28 4q46 0 62 -60l2 -8q0 -8 1 -21t1 -27q0 -80 -30 -110q-16 -16 -31 -25t-23 -11t-12 -5t-4 -11 q0 -14 7 -69t7 -67q0 -112 -53 -246t-149 -168q-130 -44 -198 -44q-12 0 -92 2t-160 2h-70q-54 0 -204 21t-196 33l-46 14q-126 34 -168 61t-110 115q-8 10 -20 41t-20 57t-8 28q0 4 -4 16t-9 34t-7 50q-10 142 -26 142q-26 0 -59 53t-33 105t42 86q18 14 35 19t25 3t12 2 t6 20q2 30 12 76t10 50q0 40 59 137t137 115q94 28 106 28t85 16t107 16q18 0 30 -6zM1188 1226q0 -22 4 -58q-10 -10 -18 -10q-12 0 -14 26t-3 57t-9 39q-2 2 -18 3t-18 -1v-8q0 -8 -1 -22t-1 -28v-54q-10 -8 -16 -8q-12 0 -12 36v48q0 30 -8 38q-2 4 -16 4t-18 -4 q-2 -2 -2 -16q0 -8 1 -31t1 -35q0 -34 -8 -42q-8 -6 -12 -6q-12 0 -12 36q0 10 1 30t1 30q0 26 -6 32q-8 8 -34 8l-6 -2q-2 -116 -8 -122t-12 -6q-16 0 -16 34q0 14 2 20q6 24 6 40q0 34 -24 34h-8q-22 0 -22 -4q0 -2 5 -6t10 -13t7 -21q4 -18 4 -46q0 -40 -18 -40h-2 q-8 2 -11 21t-3 41t-4 28t-9 13t-7 5q-4 -4 -4 -38q0 -66 -12 -66q-6 0 -8 2q-14 8 -14 46q0 12 2 35t2 29q0 10 -2 12t-12 2q-30 -2 -32 -14q4 -4 4 -54v-44q-10 -12 -12 -12q-12 0 -19 55t-11 55t-4 -18q0 -6 1 -24t1 -28q0 -44 -16 -44q-4 0 -8 2q-10 6 -11 56t-15 52 q-4 0 -12 9t-12 9q-2 0 -4 -2v-58v-54q-10 -10 -20 -10q-12 0 -12 38q0 4 1 15t1 17q0 50 -18 50q-22 0 -26 -7t-4 -33v-18v-44q-12 -14 -18 -14q-16 0 -16 60q0 42 -8 42q-2 0 -5 -1l-9 -3l-12 -4q-10 -2 -12 -5t-3 -7t1 -17t2 -25t2 -22t4 -13t1 -7t-5 -8q-8 -8 -10 -8 q-16 0 -24 78q-2 22 -13 25t-17 -5q-4 -4 -4 -38v-16q0 -66 -16 -66q-4 0 -14 6v48q0 48 -4 48q-2 2 -12 -4l-4 -40q-4 -66 -22 -66q-2 0 -6 4q-6 8 -6 26q0 6 1 19t1 17q0 16 -6 16q-32 0 -32 -88q0 -4 1 -16t1 -20q-14 -14 -20 -14q-14 0 -14 48q0 22 -6 22q-12 0 -34 -55 t-32 -103q-4 -30 -3 -33t15 -9q60 -22 80 -22q102 0 346 -14t276 -14h14q24 2 56 2q18 0 30 -1t16 -1q24 0 54 6q20 4 36 4q74 0 252 30t190 40q2 2 2 6q0 24 -35 96t-45 72q-2 0 -2 -6q0 -2 1 -4t2 -10t1 -13t-2 -12t-6 -7t-10 2q-22 10 -22 82q0 14 -8 28t-14 21t-10 9h-2 q-14 0 -14 -36q0 -28 10 -68q2 -4 -5 -10t-13 -6q-22 0 -22 74v38l2 24q0 4 -12 8t-16 2t-4 -14q0 -8 2 -30t2 -32q0 -30 -12 -34h-2l-4 -2q-12 0 -16 60t-22 60h-2q-4 0 -4 -14q0 -6 2 -27t2 -31q0 -22 -10 -28q-2 -2 -8 -2q-18 0 -20 76q-2 28 -7 33t-33 7q-4 0 -11 1 t-9 1q-10 0 -10 -8q0 -2 2 -16t2 -28zM858 1280h-2h2zM1592 874q4 6 0 32t-12 26q-14 0 -168 -31t-194 -33q-220 -20 -298 -20q-34 0 -94 4l-64 6l-390 16q-48 0 -86 7t-58 14t-24 7q-8 0 -12 -22q-4 -12 -2 -26t12 -10q4 2 10 2q4 0 8 -2t9 -6t18 -8t33 -8q78 -14 147 -19 t101 -6t42 -7q8 -8 38 -8q6 0 31 -3t86 -7t153 -4h42q142 0 234 12l46 6q82 10 141 19t77 13t22 4q22 0 84 22t68 30zM1632 462q-14 86 -21 182t-10 144t-5 48h-2q-4 0 -20 -7t-51 -19t-81 -20q-22 -4 -31 -12t-8 -18t-6 -30t-25 -42q-8 -10 -53 -26t-79 -16q-38 0 -57 8 t-45 38q-14 16 -23 29t-12 17t-11 4q-4 0 -18 -1t-41 -3t-61 -2q-24 0 -24 -12q0 -4 3 -13t6 -28t3 -41q2 -54 8 -76t12 -25t28 -4t42 -11q30 -14 42 -45t13 -59t1 -30q4 -6 51 -9t118 -15t121 -42q6 -4 53 -26t72 -41t43 -47q6 -6 10 -6q20 0 40 74t20 142q0 28 -2 40z M148 826q0 2 -10 2q-12 0 -24 -5t-23 -23t-11 -46q0 -42 19 -76t37 -34q6 0 6 4l2 12q0 12 1 30t2 38l2 40t1 34q0 22 -2 24zM344 776q-34 2 -91 21t-63 19t-6 -2q-8 -48 -8 -134q0 -310 72 -410q42 -60 48 -60t29 27t39 35q200 104 318 118q12 2 12 8q0 2 -4 15t-4 25 q0 24 14 54q24 48 72 48q18 0 26 -4q14 -6 18 -1t6 33v18q0 100 -10 130q-2 8 -3 11t-7 6t-16 4t-34 1q-8 0 -20 1t-16 1q-16 0 -20 -4t-2 -11t-8 -26t-34 -43q-42 -40 -102 -40q-32 0 -65 11t-52 23t-21 18q-2 2 -14 21t-22 39t-10 30q0 6 2 8q6 6 -8 8q-6 2 -16 2z M1720 750q-4 68 -34 68q-14 0 -34 -14q-14 -8 -14 -32q0 -12 5 -52t7 -68q2 -18 6 -21t14 1q18 8 26 14t16 28t8 58v18zM1344 708q22 22 22 56q0 14 -8 14h-2q-36 -8 -42 -8q-14 0 -14 -12q0 -16 -12 -29t-26 -13q-22 0 -22 28q0 14 -28 14q-12 0 -28 -3t-26 -7t-10 -6 q34 -64 94 -64q14 0 20 2q64 12 82 28zM516 766q-14 4 -70 4q-52 0 -52 -2q0 -8 18 -42t38 -46q54 -30 100 -30q50 0 79 32t29 54q0 4 -2 4q-24 12 -68 12l-8 -2q-2 -2 -2 -15t-9 -25t-29 -14h-4q-28 0 -28 36q0 18 10 24q4 2 3 5t-5 5zM924 668q-2 12 -5 25t-4 19l-2 12 t-3 8t-6 3t-12 1h-18q-38 -2 -38 -6q0 -2 3 -10t5 -14q2 -16 4 -90t4 -140l4 -68q2 -2 42 -2h22q16 0 18 6v2q2 8 2 38q0 136 -16 216zM824 482q-20 20 -48 20q-20 0 -35 -16t-17 -42q0 -42 6 -48h6q68 0 80 8q8 6 8 78zM1064 450q0 24 -25 39t-47 15q-10 0 -14 -4 q-2 -2 -2 -26q0 -66 12 -74h26q16 0 26 -1t14 -2t6 -1t4 2q4 4 4 17t-2 25zM996 360q-6 0 -52 2t-84 2q-292 0 -472 -118q-18 -12 -40 -35t-22 -31q28 -48 138 -74q12 -4 26 -8t23 -7t15 -3q16 0 16 38v12q0 38 38 38q12 0 36 -5t32 -5q40 0 40 -28q0 -8 -4 -40q0 -6 -1 -15 t-1 -11q0 -14 18 -18q6 0 20 -2t22 -4l136 -20q58 -8 92 -8q30 0 30 6q0 2 -2 4t-2 20q0 8 1 30t1 32q0 26 -2 30q-4 20 -4 24q0 24 22 24q10 0 41 -9t43 -9q16 0 21 -14t7 -84q2 -52 8 -52q108 -4 120 -4q46 0 46 8l-2 2v7v11q0 12 3 49t3 59v12q0 32 20 32q2 0 66 -8 q46 -8 46 -50q0 -12 -4 -38t-4 -32q0 -16 10 -16l4 2h4q28 6 64 33t36 59q0 10 -6 22q-20 36 -69 70t-89 52l-38 16q-2 0 -54 17t-86 19q-68 4 -130 10t-80 6zM1396 122q-2 22 -6 27t-22 7h-8q-14 0 -18 -15t-4 -77q0 -10 -4 -23t-4 -15q0 -6 8 -6q6 0 26 6q22 6 28 14t6 34 q0 6 -1 22t-1 26zM1086 134q-12 12 -46 12q-6 0 -6 -2q-2 -4 -2 -54t-2 -56q-4 -8 8 -10h22q32 0 34 2t2 24q0 74 -10 84zM650 94q0 4 1 9t1 7q0 22 -42 24h-14q-14 0 -16 -24q-2 -8 -2 -12q0 -2 -1 -6t-1 -6q0 -14 44 -20q6 -2 16 -2q12 0 14 30z" />
<glyph unicode="e" horiz-adv-x="1668" d="M662 1132q0 10 5 17t10 10t7 3q16 0 20 -12q2 -2 2 -8q0 -10 -9 -20t-19 -10q-6 0 -10 4q-6 6 -6 16zM1086 1136q-14 40 18 40q24 0 24 -16q0 -10 -8 -22t-14 -14q-12 0 -20 12zM558 400q0 18 12 21t26 -11q-14 -32 -26 -32t-12 22zM534 502q-12 -4 -14 -4q-14 0 -14 16 q0 22 18 22q2 0 10 -4q26 -18 0 -30zM644 520q0 8 14 19t22 1t3 -27t-15 -17q-4 0 -14 10t-10 14zM1302 466q12 8 20 4t8 -16q0 -14 -13 -17t-21 9q-6 12 6 20zM1164 472q0 6 14 23t24 17q12 0 14 -20q4 -16 -18 -34q-10 -8 -18 -5t-12 11zM1192 556q-8 8 -8 18t9 18t19 8 q14 0 16 -16q4 -14 -10 -27t-26 -1zM1260 1280q62 62 166 62q68 0 122 -33t72 -97q8 -28 8 -42q0 -46 -72 -116l-26 -24v-40q2 -58 27 -182t25 -226v-22q-2 -82 -9 -149t-16 -117t-26 -91t-32 -67t-40 -47t-42 -32t-49 -21t-50 -13l-54 -9t-54 -10q-16 -4 -126 -4 q-428 0 -620 32q-82 14 -159 103t-116 171t-39 108q0 6 -14 60t-12 94q0 4 -4 22t-10 52t-8 72q-8 94 -8 164q0 50 4 92l4 42q0 16 -12 28q-50 52 -50 114q0 60 43 106t97 56t86 10q52 0 87 -16t42 -26t23 -32q46 0 118 11t92 11t26 -2q12 -4 54 -4q44 0 178 9t192 9 q50 0 80 -6q48 -8 72 -8q22 0 30 8zM1590 1170q0 8 -2 20t-13 33t-28 38t-53 30t-82 13h-18q-26 -2 -63 -19t-37 -27q0 -2 10 -6q10 -2 13 -11t-7 -15q-4 -2 -14 -2q-12 0 -37 6t-29 6t-4 -2q0 -4 10 -14q24 -28 24 -56q0 -60 -58 -118q-24 -24 -90 -24h-36h-4 q-4 -8 -4 -124q0 -46 1 -154t1 -150q0 -90 -2 -98q-6 -30 -6 -34q16 -2 76 -34t134 -72l72 -42q16 -8 49 -40t60 -59t31 -27q2 0 2 2t13 38t25 85t12 83q0 2 3 33t6 80t3 89q0 66 -8 104q-6 26 -27 146t-21 146q0 8 -1 17t-2 14t-1 10t2 9t8 6q16 10 54 53t38 67zM610 1242 l-206 -30q-10 0 -17 10t-12 22t-23 24t-50 14q-48 4 -64 4q-78 0 -122 -44q-38 -38 -38 -80q0 -60 70 -120q-2 -22 -6 -38t-6 -44t-4 -47t-3 -25t-2 -11t-1 -11t1 -20t4 -54t7 -86l30 -214q6 -16 9 -42t12 -55t31 -69q8 -12 14 -32t41 -67t45 -47q6 0 29 26t29 26l136 88 l28 18q6 4 85 34t115 58q16 12 32 18t18 10t2 22q0 4 -1 23t-1 33l-14 266q-2 32 -3 84t-3 76l-6 52q-2 26 -16 26q-4 0 -24 -6t-36 -6q-36 0 -70 24q-50 34 -50 78q0 26 17 52t33 40l16 14q0 6 -26 6zM1052 1252q-8 2 -24 2q-60 0 -134 -10q-26 -4 -55 -6t-39 -3t-10 -5 q0 -6 4 -10q24 -32 24 -66q0 -40 -28 -92q10 -124 19 -279t14 -229t9 -80q6 -6 22 -6q10 0 46 3t56 3q28 0 60 -8h2q18 0 18 160q0 66 -2 104q-2 46 -2 118q0 50 2 106t2 64q0 28 -6 34q-34 36 -34 84q0 30 14 59t28 43zM1034 1138q0 -80 86 -80q22 0 50 12q14 8 35 44 t21 50q0 24 -37 43t-57 19h-2h-8q-18 0 -34 -4t-35 -25t-19 -59zM654 1076q16 -8 42 -8q54 0 64 22q22 36 22 64q0 36 -42 60q-12 8 -16 8q-2 2 -12 2q-30 0 -69 -29t-39 -63t50 -56zM1054 426q-2 0 -42 -89t-72 -89q-8 0 -21 6t-49 47t-74 111q-286 -126 -290 -140 q78 -72 170 -88q6 0 94 -20t132 -20q20 0 30 2q4 0 20 2t37 6t49 14q68 24 123 60t75 60l22 24q-2 8 -93 61t-111 53zM344 150q0 -6 26 -24t28 -18t17 -9t35 -18t36 -11l26 -4q28 -4 60 -9t46 -5h8h2q2 0 21 -3t35 -3h10q20 2 64 2q50 0 164 -6t168 -6q96 0 160 14q4 0 26 4 t44 9t48 14t48 23t34 30q2 2 2 10q0 30 -67 91t-85 61q-8 0 -30 -20t-50 -46t-85 -56t-123 -46l-82 -16q-2 0 -9 -1t-11 -1q-70 0 -195 28t-167 64q-10 8 -25 18l-24 16t-9 12q-4 14 -6 14q-12 0 -76 -48t-64 -60z" />
<glyph unicode="f" horiz-adv-x="1592" d="M494 568q0 34 -4 95t-4 87q0 54 13 79t49 25q20 0 44 -6q12 -2 60 -3t79 -9t31 -30q0 -2 -1 -11t-1 -27t2 -69t2 -79q0 -106 -28 -118q-12 -6 -84 -6q-108 0 -140 30q-6 6 -10 6q-8 0 -8 36zM630 808h-4q-10 0 -34 5t-36 5q-42 0 -42 -44q0 -14 2 -22q6 -42 6 -76 q0 -18 -1 -44t-1 -34q0 -36 22 -50t96 -14h14h24q34 0 41 4t7 16v8q8 120 8 130q0 36 -4 62t-4 28q0 26 -88 26h-6zM350 956q6 20 69 34t129 14q44 0 66 -6q42 -12 119 -14t128 -10t65 -38q2 -4 13 -185t11 -191q0 -152 -38 -216q-26 -42 -190 -42q-102 0 -209 15t-123 29 q-38 34 -50 95t-12 165q0 24 1 78t1 86v112q0 44 12 60q8 12 8 14zM360 602v-26q0 -214 96 -214q192 -24 306 -24q54 0 74 6q2 0 9 2t12 4t13 8t14 15t13 26t12 39t8 55t3 75q0 32 -7 100t-9 116l-2 78q0 36 -9 53t-19 20t-42 5t-56 6q-4 0 -86 4t-94 12q-12 6 -36 6 q-106 0 -147 -13t-51 -47q-2 -10 -2 -306zM278 1132q150 18 270 18q80 0 145 -9t71 -9h12q60 6 94 6q4 0 75 -5t109 -5q30 0 38 2q10 2 26 2q18 0 42 -5t30 -5q22 0 34 -9t18 -30t7 -41t3 -58t6 -64q2 -6 9 -91t15 -216t8 -223q0 -120 -14 -156q-18 -52 -148 -52 q-28 0 -65 2t-43 2h-8q-6 -2 -16 -2q-6 0 -28 2t-38 2q-12 0 -52 -4q-54 -8 -288 -8q-210 0 -238 10q-4 2 -31 9t-43 13t-31 24t-15 42q0 2 -8 31t-8 83q0 52 -14 154t-14 138q0 20 2 30q2 14 2 50q0 30 -4 99t-4 103q0 158 94 170zM282 1098q-10 0 -23 -6t-28 -27t-15 -55 v-12q6 -102 6 -252v-30q0 -112 10 -156q16 -64 15 -153t15 -129t82 -52q90 -16 204 -16q54 0 223 5t285 5h46q68 0 100 6t37 13t9 25q10 54 10 144q0 60 -4 138t-10 150t-11 131t-10 104t-5 47q-4 84 -8 91t-54 19q-20 4 -36 4q-14 0 -42 -2t-38 -2q-22 0 -28 4q-12 6 -96 6 h-22q-114 0 -212 10l-36 4q-60 6 -120 6l-188 -12q-8 0 -30 -4t-26 -4zM272 26q-62 0 -120 67t-58 95l-20 104q-4 12 -12 92t-15 209t-7 235q0 98 10 188q0 4 2 30t4 33t7 26t14 32t23 27q102 102 302 102q36 0 132 -4q34 0 97 -4t112 -7t53 -3q14 0 86 -4t112 -4q38 0 54 2 q14 2 38 2q22 0 52 -5t36 -5q16 0 30 -3t26 -3h20h18q30 0 74 -9t46 -9q48 0 81 -61t42 -130t15 -145t8 -82q18 -64 18 -452q0 -112 -6 -142q-24 -106 -53 -138t-75 -32h-46q-24 0 -36 -2q-146 -22 -688 -22q-324 0 -364 20q-2 2 -12 2zM130 1144q-62 -60 -62 -312 q0 -116 12 -263t24 -237l12 -88q6 -48 28 -85t50 -55t55 -30t47 -14l18 -4q94 0 320 -8t292 -8q50 0 74 6l220 14q218 12 228 16q74 34 74 276q0 52 -4 162t-4 160v22q0 18 -16 140l-8 38q-6 38 -11 91t-7 75t-11 54t-23 44t-41 27t-65 20t-96 7q-38 2 -64 4t-33 3l-14 2 t-15 1q-216 0 -449 14t-275 14q-88 0 -145 -18t-111 -68z" />
<glyph unicode="g" horiz-adv-x="1596" d="M1390 1000q0 -130 -90 -130h-6q-62 0 -84 52q-12 32 -12 56q0 80 82 110q16 6 28 6q38 0 38 -26q0 -2 6 -8t17 -22t21 -38zM1274 1006q2 6 8 20t6 18t-4 4t-16 -6q-36 -20 -36 -66q0 -40 16 -40q2 0 14 30zM1304 910q52 0 52 46q0 24 -11 46t-21 22q-4 0 -6 -2 q-22 -40 -34 -92q-4 -14 -1 -17t21 -3zM1134 1082q14 88 148 88q20 0 48 -2t34 -2h10q36 0 44 -12t20 -82l10 -60l6 -38q6 -42 6 -122q0 -34 -1 -129t-1 -153v-88v-50q0 -92 -16 -124t-70 -50q-24 -8 -52 -8q-32 0 -62 14t-32 14q-8 0 -19 9t-24 33t-17 56q-38 366 -38 586 q0 78 6 120zM1422 430l-6 -22q-6 -22 -21 -44t-39 -22q-10 0 -35 -2t-37 -2q-58 0 -66 50q-20 160 -20 216q0 82 28 109t100 35h16q74 0 74 -94q0 -8 -1 -24t-1 -22l4 -18q2 0 4 24t5 71t3 95q0 140 -26 264l-5 35t-6 26t-6 14t-16 9t-25 2t-42 2h-12q-24 0 -42 -2t-30 -3 t-21 -8t-14 -9t-10 -13t-6 -14t-4 -19t-3 -20q-4 -16 -4 -66q0 -58 14 -220t14 -234q0 -38 2 -68t5 -51t10 -37t10 -25t14 -17t14 -10t16 -7t17 -7q32 -16 66 -16q70 0 80 68q4 36 4 60q0 16 -2 16zM1326 706q-6 4 -18 3t-16 -7q-2 -2 -2 -38q0 -134 8 -270q0 -14 5 -18 t23 -2q22 0 22 6l-4 16q-4 16 -4 32v12q0 6 1 28t1 36q0 190 -16 202zM1256 682q0 4 -4 4t-9 -10t-9 -29t-4 -41q0 -14 4 -46q6 -32 10 -80t7 -70t11 -22h2q2 0 2 36q0 244 -10 258zM1376 666l-4 6q-4 0 -4 -62q0 -84 8 -84l2 2q2 2 2 30zM1420 464h2q4 0 4 34q0 38 -6 38 q-2 0 -2 -4v-16q0 -50 2 -52zM1372 414l2 -4q8 0 8 62q0 40 -6 40q-2 0 -2 -2q-2 -2 -2 -76v-20zM224 1186q46 30 248 30q120 0 150 -12q8 -4 20 -4q130 0 220 -13t137 -30t73 -51t31 -59t7 -69q6 -156 6 -256q0 -286 -26 -374q-20 -76 -66 -98t-180 -22q-14 0 -50 1t-60 1 q-328 4 -422 35t-110 153q-26 172 -26 272q0 18 1 38t1 22q0 8 -4 16q0 64 -6 106q-6 44 -6 114q0 162 62 200zM274 1168q-22 -4 -33 -10t-23 -31t-20 -75q-4 -28 -4 -84q0 -154 18 -365t40 -247q32 -56 128 -74l36 -6q50 -10 366 -10q186 0 222 12q80 28 80 384q0 38 -1 97 t-1 77q-2 166 -18 210q-26 68 -112 84q-270 50 -504 50q-96 0 -174 -12zM44 1146q0 98 51 132t167 34h30q6 0 37 1t51 1q64 0 88 -6h9t5 3l4 6t6 10t8 13l22 30q20 28 110 28q40 0 116 -6t98 -6t28 2t18 2q26 0 26 -12q0 -18 -13 -44t-13 -30q0 -8 18 -8q8 0 42 -6t54 -6 q16 0 24 2q32 4 128 4q266 0 302 -38q28 -30 39 -87t18 -184t13 -185q4 -34 4 -98t8 -110q16 -86 16 -258q0 -138 -22 -172q-14 -20 -31 -34t-28 -21t-37 -12t-32 -6t-42 -1h-38h-40h-44q-28 0 -35 -3t-7 -15v-10v-18q0 -28 -8 -34t-36 -14q-20 -4 -30 -4q-20 0 -39 12 t-25 12q-20 0 -20 44q0 26 -16 26q-2 0 -45 -4t-89 -4q-64 0 -104 4h-24q-24 2 -61 3t-80 1t-88 1t-75 1q-60 0 -62 -2t-2 -10q0 -4 1 -15t1 -17q0 -42 -28 -52l-44 -10q-12 2 -34 5t-30 5t-19 7t-14 14t-3 23q0 8 1 21t1 15q0 18 -48 26t-68 46q-14 30 -18 54t-5 58t-7 68 q-44 230 -44 672zM870 1350h-24q-44 0 -125 6t-109 6q-42 0 -62 -10q-6 -2 -17 -20t-11 -22t82 -7t164 -3l80 -2q4 2 14 20t8 32zM336 1278q-32 -4 -90 -4h-26q-36 0 -57 -3t-42 -14t-32 -36t-13 -65q-6 -78 -6 -168q0 -218 26 -475t48 -347q2 -10 7 -17t14 -12t20 -8t31 -5 t40 -2t53 -1t65 -1t81 -1t97 -3q212 -6 372 -6t292 5t184 11l52 6q72 0 72 250q0 126 -12 182q-12 58 -24 292t-38 338q-6 26 -19 36t-48 14t-49 8l-106 8q-86 0 -162 -4t-82 -4q-26 0 -44 6zM364 22q0 10 -1 26t-3 26v10q-4 4 -38 4q-56 0 -62 -6q-4 -4 -4 -26v-20 q0 -12 7 -15t41 -7q12 -2 28 -2t32 10zM1168 34q-2 44 -14 44q-2 0 -15 -1t-23 -1q-16 0 -26 2h-4q-10 0 -10 -16q0 -12 2 -15t11 -7t17 -10q10 -10 26 -10q20 0 36 14z" />
<glyph unicode="h" horiz-adv-x="1644" d="M506 928q-22 -24 -60 -24q-36 0 -68 20t-32 38q0 10 18 14q2 0 10 -10t25 -21t39 -11q28 0 40 13t20 13q10 0 13 -12t-5 -20zM1182 918q-32 0 -50 19t-18 39q0 18 12 18q6 0 10 -2q2 -2 9 -12t18 -19t25 -9q22 0 46 16q14 10 24 7t10 -15q0 -16 -26 -29t-60 -13z M448 1094q148 12 248 12q78 0 92 -10q6 -4 14 -59t14 -109l6 -52q0 -54 52 -54l58 12q2 2 2 10q0 12 -7 76t-7 100q0 58 16 66q2 2 44 5t102 6t96 3q34 0 40 -2q10 -2 45 -5t41 -7q16 -10 -8 -26q-12 -8 -24 -6q-6 2 -26 2q-2 0 -20 3t-46 6t-54 3q-30 0 -56 -6 q-24 -4 -46 -7t-33 -3t-20 -1t-12 -6t-4 -11t-1 -20v-18v-34q0 -26 1 -36t6 -13t10 -3t17 -4t26 -14q22 -18 32 -43t13 -40t13 -15q2 0 14 4q2 2 68 2h60q126 0 132 4h4q36 0 44 -56q38 -220 38 -376q0 -136 -22 -176q-16 -32 -94 -50t-135 -22t-103 -4q-18 0 -199 -8 t-287 -8q-176 0 -210 20q-70 42 -90 74t-30 112l-4 36q-10 82 -10 228v48q2 28 8 51t12 39t23 29t24 19t32 13t31 9t37 7t35 5q40 8 200 20q22 2 28 5t4 8t4 19t24 30q16 14 31 23t24 10t13 5t4 10l-4 34q-12 94 -18 98q-28 14 -94 14q-50 0 -122 -6t-120 -12l-46 -6 q-26 -2 -32 -14t-14 -6q-8 4 -14 21t-4 25q2 6 36 12t66 8zM1016 814q4 2 4 10q0 14 -18 32t-28 18q-2 0 -4 -2q-4 -6 0 -31t8 -29q2 -2 19 -1t19 3zM794 820q0 54 -22 54l-2 -2h-4q-46 -16 -46 -38q0 -6 4 -10t38 -4h32zM816 774q-10 10 -70 10q-160 -4 -160 -16l26 -266 q6 -6 36 -6q26 0 94 7t78 7q22 2 22 22q0 4 -7 58t-7 112q0 60 -12 72zM1072 762q-32 14 -186 14l-32 -2q-2 -2 -2 -18q0 -26 4 -82t8 -100t6 -48q0 -4 32 -4q26 0 69 3t73 5t30 4q2 2 2 18q0 6 -2 53t-2 87v70zM570 628q-6 30 -8 59t-2 42t-3 24t-8 14t-17 3q-2 0 -46 -4 q-28 -2 -47 -6t-25 -4q-10 0 -35 -7t-57 -28t-38 -51t-6 -106q0 -78 6 -84h4q26 0 156 8t134 10q2 8 2 22q0 48 -10 108zM1356 754q-2 16 -92 16l-158 -8q-6 -2 -6 -72q0 -146 10 -156q6 -6 44 -6q36 0 93 4t98 8t43 6v4q2 4 2 6q0 16 -7 59t-17 89t-10 50zM1366 200 q32 26 32 180q0 128 -24 128l-262 -14q-2 -2 -2 -30q0 -22 1 -59t3 -75t5 -72t5 -58v-22q2 -18 16 -18q4 0 29 2t47 4q122 8 150 34zM1076 498q-4 2 -24 2q-16 0 -60 -3t-60 -3h-12q-42 0 -42 -20l6 -62q8 -64 8 -132q0 -40 4 -76t4 -38q0 -8 -2 -10l-4 -2q0 -10 46 -10 q26 0 63 3t61 6t26 5t2 36q0 42 -3 115t-7 131t-6 58zM850 468q0 18 -30 18q-16 0 -76 -10t-92 -10h-6h-16q-16 0 -16 -14q0 -6 2 -20t5 -40t5 -54q2 -22 5 -50t7 -52t7 -44t5 -32l2 -12q0 -12 56 -12l162 12l-2 8q0 6 -3 29t-3 55v18v42q0 46 -3 88t-7 60zM598 346 q0 68 -9 94t-33 26q-8 0 -28 -4l-244 -16v-14q0 -48 11 -122t29 -98q10 -14 50 -41t72 -27q4 0 11 -1t28 -2t55 -1l72 -2q2 2 2 16q0 24 -8 100t-8 92zM264 1266q4 0 18 3t26 3q6 0 80 10t120 12h44q44 0 235 -17t435 -17h64h8q64 0 115 -8t78 -20t45 -27t23 -25t5 -18 q22 -52 22 -168q0 -38 12 -220t12 -340v-60v-50v-96q0 -92 -23 -126t-115 -70q-130 -46 -274 -46q-46 0 -109 5t-81 5h-10q-36 -2 -114 -2q-110 0 -235 6t-195 12l-70 6q-116 16 -180 48q-56 30 -98 94t-42 90l-2 10q-2 12 -5 31t-6 43t-5 56t-2 64q0 12 1 25t3 30t2 27 q6 80 6 224t8 184q0 2 1 18t2 34t6 46t13 54t23 56t35 56q20 24 51 38t53 18zM560 1264q-4 -2 -48 -4t-101 -7t-87 -11q-20 -4 -57 -9t-53 -10t-37 -23t-37 -50q-28 -58 -37 -91t-10 -74t-5 -69q-10 -196 -10 -380q0 -238 22 -304q22 -60 78 -101t93 -51t53 -10q4 0 80 -16 t132 -16h8q216 0 365 -4t216 -8t87 -4q26 0 154 22q192 34 206 118v2q4 20 4 112q0 102 -6 277t-14 307l-6 132l-2 68q-2 54 -23 88t-61 49t-78 20t-94 5h-80q-76 0 -116 10z" />
<glyph unicode="i" horiz-adv-x="1664" d="M310 24q4 0 18 -4t18 -4h8q8 -2 22 -3t30 -3t38 -3t42 -1q72 0 116 14q14 4 27 8t22 7t17 5t13 4t10 3t7 2l4 2t3 2t1 3q0 4 -12 16t-14 12t-15 -11t-29 -15q-44 -10 -238 -10q-104 0 -128 8q-6 2 -14 4l-6 2q-2 0 -30 13t-36 13q-2 0 -2 -2q0 -4 10 -14q16 -16 46 -28 t49 -16t23 -4zM1572 278h-2q-8 0 -53 -63t-45 -67h4q60 0 86 76q14 46 10 54zM260 104q-6 192 -14 202q-2 4 -8 4l-4 -2h-6q-30 -6 -70 -6h-14q-22 0 -22 -12q0 -8 2 -14l2 -14q2 -14 6 -31t10 -37t19 -36t29 -24q18 -8 31 -15t17 -9t9 -4t13 -2zM294 102q0 -18 50 -18h32 q42 2 46 12q2 4 2 14q0 4 -2 42t-2 76v16v12v33t-6 15t-10 5t-22 0t-34 3q-32 4 -44 2q-22 -2 -22 -26q0 -6 1 -18t2 -34t1 -42q2 -38 5 -63t3 -29zM462 312q-18 0 -18 -42q0 -28 6 -88q6 -68 9 -79t15 -13q2 0 18 -1t28 -1t29 1t19 1q14 2 14 12l-2 26q-2 26 -2 54 q0 138 -14 138h-2h-6q-10 0 -45 -4t-49 -4zM754 170h2q14 0 32 53t18 85q0 16 -6 16q-46 0 -50 -6q-4 -4 -4 -68q0 -78 8 -80zM714 318q-4 4 -72 4q-36 0 -38 -4v-24q0 -182 16 -198q2 -2 6 -2q10 0 37 21t31 21q8 2 22 8v42v104q0 26 -2 28zM1568 326q24 14 24 70 q0 28 -6 28q-2 0 -53 -64t-102 -134t-51 -80q0 -6 38 -4q46 48 60 70l58 80q22 28 32 34zM800 362q0 14 -14 55t-22 41h-4q0 -4 -5 -38t-5 -48q0 -10 2 -12t24 -4t24 6zM1030 410q6 2 6 22l-16 88q-2 0 -10 -18t-32 -62t-62 -90q-16 -20 -28 -39t-19 -31t-12 -22t-9 -15 t-8 -5q-8 0 -12 -16t-19 -45t-49 -55q-6 -4 -11 -8t-7 -6t-4 -3t-4 -1q-18 0 6 -22q14 -12 18 -8q28 18 143 172t129 164zM670 532q-16 0 -32 5t-18 5q-8 0 -8 -46q0 -44 -4 -84t-4 -42q0 -16 24 -16h10h58q12 0 16 2t5 6t2 18t3 28q8 40 8 68q0 18 -12 30q-26 26 -48 26z M170 334q52 0 66 4t14 20q0 2 -1 13t-1 17q-12 128 -12 142q0 10 -12 10t-36 -9t-40 -19l-18 -8q-4 -4 -6 -32t-2 -68t-2 -56q-2 -10 5 -12t45 -2zM1590 484q-4 80 -6 80q-10 0 -154 -199t-144 -215q0 -6 44 -6l38 48q28 32 94 127t78 107zM580 546q-2 2 -61 10t-67 8 t-8 -58l8 -162q2 -2 12 -2q14 0 40 3t46 5t22 4q12 12 12 142q0 46 -4 50zM422 410q0 158 -22 158q-2 0 -4 -2q-4 -4 -20 -4h-18q-38 0 -78 -10q-14 -2 -14 -36q0 -22 10 -138q2 -36 18 -36q2 0 15 1t23 1q20 0 32 -2q14 -2 40 -2h2q12 0 14 9t2 61zM146 638q-8 0 -25 -11 t-21 -11q-8 0 -16 -16t-8 -30q0 -26 20 -26q6 0 10 1t6 5l4 8l6 12l8 16q28 52 16 52zM658 642q-12 -4 -14 -4q-6 0 -15 4t-13 4q-10 0 -22 -24l-14 -28q0 -4 34 -12q6 -2 14 -2q14 0 32 36q14 28 4 26h-6zM238 646q-8 20 -14 20q-12 0 -21 -7t-12 -12t-11 -25l-22 -44 q-6 -12 -6 -18q0 -8 6 -8q4 0 12 3t19 8t19 9q6 16 8 23t3 9l6 12t13 30zM574 654q0 4 -19 11t-25 3q-14 -10 -34 -64q8 -6 21 -9t22 -3h11q2 2 1 6t5 14q18 28 18 42zM308 592q16 2 16 24q0 18 -8 39t-12 21q-10 0 -17 -5t-10 -11t-9 -21l-10 -25q-8 -14 -8 -24q0 -8 10 -8 q4 0 21 4t27 6zM468 616q0 12 13 32t13 24q0 8 -22 8q-34 -2 -42 -5t-8 -15v-28q0 -20 4 -25t22 -5q20 4 20 6v8zM1032 688q-2 0 -26 -32t-72 -110t-96 -170q2 -28 4 -43t3 -18t3 -1l14 18l26 34q60 76 97 156t43 122l8 42q-2 2 -4 2zM1576 742q8 12 8 36q0 50 -10 50 q-8 0 -60 -70l-34 -46q-2 -4 -6 -8t-7 -8l-6 -8t-5 -6l-54 -74l-218 -290q6 -62 8 -80q0 8 96 134t192 248zM1582 952q-2 4 -10 2l-20 -26q-20 -24 -54 -71t-62 -91l-20 -32q-18 -32 -39 -61t-41 -41q-26 -16 -39 -29t-30 -35t-37 -42q-32 -16 -37 -23t-5 -41v-28 q0 -64 2 -64t9 10t7 12q0 8 172 237t190 239q14 8 14 36v48zM806 1006q0 28 -73 88t-145 60h-2q-158 -4 -260 -31t-138 -59t-36 -68q0 -18 -28 -32q-8 -152 -8 -198q0 -38 4 -66q6 -26 22 -26q4 0 45 16t83 16q10 0 27 5t23 5q24 0 32 -68q4 -52 18 -52q4 0 10 8q2 4 5 54 t25 54q20 4 54 4q20 0 39 -2t33 -5t24 -6t16 -5l6 -2q36 -16 84 -16q104 0 154 92q20 38 20 86q0 20 -4 43t-8 40t-9 32t-9 23zM184 1174q0 2 4 14l4 14q0 4 -4 4t-15 -10t-22 -31t-11 -41q0 -4 -5 -26t-5 -30t4 -12l44 40q0 2 -3 7t-4 16t7 35q6 14 6 20zM1380 1120 q0 -4 -58 -112l-58 -110q0 -4 13 -17t15 -13t8 8q22 38 60 94l22 36q2 4 22 34t38 58l18 28l22 34q8 10 16 21t12 16t4 7q0 6 -19 28t-29 22q-2 0 -6 -4q-14 -20 -47 -73t-33 -57zM286 1242q0 14 -16 14q-30 0 -40 -38q-2 -10 -9 -32t-12 -39t-5 -25t4 -8q8 0 12 4t23 13 t21 13q4 6 13 48t9 50zM364 1202q12 42 12 54q0 10 -12 10q-16 0 -25 -2t-15 -11t-8 -16t-6 -28t-8 -39q-4 -12 10 -12q4 0 14 2q8 2 12 2q14 2 26 40zM452 1182q22 54 22 78q0 12 -10 12q-26 0 -38 -4t-15 -8t-6 -23t-7 -33q-8 -22 -7 -28t15 -4q42 4 46 10zM1404 1278 q-28 0 -36 -14l-26 -52t-56 -108t-54 -94q-50 -82 -50 -90q0 -6 10 -6q6 0 15 -2t13 -2q20 0 54 74t74 143t61 103t21 38q0 10 -26 10zM568 1284q-8 2 -16 2q-34 0 -44 -30q-18 -56 -18 -72h32q12 0 18 1t9 2t4 6t1 11t3 18t7 24q12 30 4 38zM650 1206q18 60 18 72 q0 10 -30 14q-22 0 -26 -3t-10 -27l-12 -46q-6 -22 -3 -26t25 -6q14 -2 21 -1t10 5t7 18zM1334 1298q-4 2 -14 2t-17 -9t-27 -46t-46 -75q-6 -8 -88 -147t-82 -141q0 -12 -114 -209t-132 -213q8 -28 12 -28q2 0 6 5t11 19t15 26q4 6 15 26t27 45t40 59q224 312 368 606 l22 42q12 24 13 30t-9 8zM714 1154q10 0 31 55t21 81q0 12 -6 12q-24 0 -38 -6t-17 -10t-9 -26t-8 -30q-16 -56 -14 -58t19 -10t21 -8zM1102 1016q10 18 52 88t76 128t34 66t-16 8q-6 0 -25 3t-27 3q-14 0 -14 -8q0 -2 -5 -7t-14 -21t-19 -42q-62 -164 -185 -370t-133 -230 q-38 -90 -62 -108q4 -4 20 -24q6 -10 10 -10t34 49t72 121t82 142t70 124l30 52zM1060 1116q0 6 41 95t41 103l-2 4l-16 2h-24l-38 -2l-154 -426q0 -16 -7 -19t-16 0t-11 1l-2 -18q-2 -16 -4 -35t-2 -23q-2 -20 4 -16q24 24 142 236l42 82q6 8 6 16zM872 1246q16 48 16 64 q0 10 -6 10q-8 0 -39 -5t-35 -5q-8 0 -9 -11t-10 -49t-31 -86q-6 -12 -6 -22q0 -6 5 -12t17 -15t22 -21q14 -14 16 -14q8 0 18 36l14 44q12 36 16 50zM1016 1290q6 14 6 22t-18 8h-26q-6 0 -34 4h-6q-4 0 -7 -1t-5 -3t-4 -6t-4 -11t-4 -15t-6 -22t-9 -29l-12 -36l-15 -45 l-36 -108l36 -138q6 -2 41 89t65 178t38 113zM1608 276q0 -14 -6 -37t-21 -57t-55 -58t-98 -24h-16q-38 2 -74 4t-56 1t-40 1t-29 1t-19 3t-12 6t-5 10t-4 15t-4 23t-7 30q-2 4 -2 16q0 8 -7 51t-7 67q0 4 1 12t1 12q6 52 6 84v50q0 28 11 41t57 35q22 10 51 60t29 106 q0 54 -34 102q-32 44 -76 44q-40 0 -64 -46q-74 -150 -74 -254q0 -38 14 -102t14 -108q0 -48 -14 -110q-8 -28 -8 -32q0 -20 -33 -92t-63 -92q-52 -36 -110 -36q-30 0 -66 11t-44 11q-6 0 -10 -2q-154 -50 -224 -50h-8q-4 0 -54 1t-72 3t-70 10t-75 21t-56 37t-41 58 q-52 140 -52 284q0 34 4 98q0 12 -1 14t-8 2t-13 8q-24 24 -24 60q0 46 50 104q-4 20 -4 150q0 298 34 362q40 74 163 101t287 34t222 21q50 14 204 14q304 0 432 -46q28 -8 30 -8q60 0 104 -112t52 -208q2 -18 2 -58q0 -22 -1 -78t-1 -92q0 -86 4 -136q6 -88 6 -144 q0 -72 -8 -134zM406 968q2 -2 2 -6q0 -2 -9 -30t-9 -58q0 -10 -7 -31t-7 -27q0 -8 4 -12t21 -1t21 -3q6 -6 6 -12q0 -24 -46 -24q-8 0 -20 4q-14 6 -14 48q0 48 17 103t33 55q6 0 8 -6zM538 848q20 0 33 31t21 31q2 0 10 -4q4 -4 4 -16q0 -54 -48 -70h-4q-4 -2 -9 -3t-11 -1 q-40 0 -66 46q-8 14 -8 22q0 10 12 10q16 0 36 -28q10 -18 30 -18zM292 874q0 -6 -2 -16t-18 -27t-44 -17h-6q-50 0 -66 50q-2 4 -2 14t6 14t13 0t9 -12q4 -12 20 -24t30 -12q20 0 28 28q4 12 12 16t14 0t6 -14zM1026 216l-62 -62l-32 -46q-8 -10 -20 -24t-19 -22t-7 -12 q0 -2 6 -2q10 0 28 8q50 18 88 112q2 6 6 16t7 18t5 14zM1040 264q8 34 8 64l-8 46q-8 0 -50 -56t-98 -131t-84 -105q-20 -20 -20 -22t7 -5t18 -6t19 -3q12 0 14 8q2 10 68 80l106 114q10 12 20 16zM1198 190q6 -40 8 -42q6 -2 14 -2q20 0 30 18q8 14 51 74t88 122t51 70 l52 76q22 32 92 106q-6 74 -12 74q-4 0 -38 -44q-2 -2 -20 -23t-32 -41l-28 -40q-14 -18 -22 -32l-48 -66l-80 -106q-20 -26 -44 -62t-39 -56t-23 -26zM1334 766q2 -12 2 -46v-26q0 -6 2 -6q6 0 25 28t42 65t35 49q8 8 64 85t64 81q6 2 6 10q0 14 -9 49t-15 35 q-2 0 -71 -110t-79 -130q-16 -30 -37 -56t-29 -28zM1326 800q18 28 68 106t89 138t39 64t5 10t7 6q8 0 8 12t-8 22q-2 2 -4 2q-6 0 -26 -30l-58 -84l-80 -122q-50 -78 -50 -94zM746 538q6 22 27 65t39 77l18 32l8 16l-2 2l-12 -12q-42 -38 -118 -70l-12 -30q0 -4 -12 -21 t-12 -21l10 -4q12 -4 31 -13t35 -21z" />
<glyph unicode="j" horiz-adv-x="1600" d="M328 186q-30 0 -52 18t-30 36l-8 18q10 28 46 -8q26 -26 48 -26t48 28t34 28q6 0 8 -2q4 -4 4 -10q0 -22 -29 -52t-69 -30zM606 828q0 18 18 18t18 -16q0 -22 -24 -48t-56 -26q-30 0 -47 23t-17 47q0 18 8 20q4 2 8 2q6 0 9 -6t4 -14t7 -18t14 -16t18 -6q14 0 27 14 t13 26zM136 846q10 36 38 -2q18 -26 30 -26q6 0 21 22t27 22q8 0 16 -6q2 -2 2 -6q0 -16 -23 -42t-47 -26q-12 0 -18 4q-10 6 -28 30t-18 30zM140 944q0 2 12 14h34q42 -2 73 -4t43 -3t16 -1h6q20 4 26 -4q4 -4 4 -42q0 -28 -4 -113t-4 -123q0 -78 14 -78q4 0 10 6q4 4 4 10 t5 23t15 66t18 123q6 68 20 110q10 16 130 16q98 0 104 -12q2 -4 2 -10q0 -18 -36 -18q-2 0 -10 1t-12 1q-42 6 -70 6t-46 -4t-27 -13t-12 -15t-4 -15t-1 -11l-24 -184q52 -26 52 -72q0 -14 -10 -30q-8 -18 -32 -18q-4 0 -10 1t-8 1q-16 0 -28 -6l-122 -4q-44 0 -44 34 q0 24 23 50t45 26q8 0 11 2t5 10t2 18t1 30t3 40q6 36 6 112q0 44 -6 48q-10 8 -62 8h-36q-76 0 -76 24zM424 594q12 0 8 12q-4 16 -14 14q-6 -2 -6 -16q0 -10 12 -10zM308 588q6 4 3 16t-17 12q-6 0 -15 -5t-13 -12t0 -11t21 -4t21 4zM438 1314q2 0 86 3t138 3q90 0 122 -8 q318 -10 394 -24q20 -4 66 -12t69 -13t60 -14t58 -18t43 -23t33 -31t13 -39q2 -26 21 -172t19 -234q0 -28 -4 -88q-2 -24 -2 -84q0 -28 1 -92t1 -98q0 -144 -18 -208q-26 -88 -42 -104q-32 -34 -178 -50q-74 -8 -232 -8h-90q-12 0 -64 3t-92 3q-52 0 -80 -2q-474 0 -542 22 q-52 18 -87 57t-51 97t-21 109t-5 119q0 24 1 63t1 55q0 30 -4 66q-12 60 -12 306q0 200 20 242q0 2 6 16t11 24t15 26t24 28t33 24t46 20t59 10q10 0 75 13t109 13zM678 1280q0 8 -12 8q-20 0 -24 -10q-2 -4 6 -8q6 -2 7 0t5 4t10 2q8 0 8 4zM740 1268q14 0 2 12q-4 2 -6 2 q-4 0 -4 -4q-4 -10 8 -10zM362 1264q6 0 11 -4t7 -8l2 -2q0 -10 18 12q14 14 4 14h-2q-48 -6 -48 -10q0 -2 8 -2zM850 1272q0 4 -4 4q-2 0 -2 -1t-2 -1q-4 -2 2 -4q6 -4 6 2zM1170 1248q-2 2 -4 2l-4 -2l2 -14q6 0 6 14zM426 1078q-20 22 -37 50t-26 44t-11 16q-4 0 -4 -18 q-2 -32 -9 -57t-19 -42t-22 -28t-31 -19t-32 -12t-36 -9t-33 -7q-14 -4 -34 -4q-14 0 -30 4t-18 4q-6 0 -8 -26v-16l10 -558l2 -4l20 26q20 26 63 56t99 38q8 0 29 5t29 5q18 0 30 -12q6 -6 8 -6q26 12 62 12q78 0 146 -70q48 -52 48 -136l-2 -30q-6 -18 -16 -18t-40 10 l-40 12q-16 4 -20 4q-24 0 -78 28t-76 82q-14 32 -20 20q-2 -2 -4 -8q-50 -106 -182 -106q-8 0 -23 1t-19 1q-14 0 -14 -4q0 -126 88 -212q44 -42 174 -42h72h12l296 -14q14 0 18 6t1 13t-9 9q-20 6 -20 42q0 20 5 46t12 51t15 47t12 36l6 16q0 16 40 69t70 65 q122 54 122 184q0 32 -12 80q-4 18 -25 36t-39 18q-8 0 -12 -2q-12 -6 -29 -60t-29 -106l-12 -50q0 -14 -38 -14q-72 0 -72 22q0 4 4 87t4 141q0 112 -18 172q-4 12 -5 26t-5 15l-12 3t-34 2q-168 0 -216 54zM1442 1178q0 4 -4 4t-4 -2q-2 -4 3 -6t5 4zM788 1162v2 q-2 0 -6 -34q20 0 24 3t-1 6t-11 10t-6 13zM610 1030q6 0 2 6q-4 4 -6 4t-2 -4q0 -6 6 -6zM700 1028q-4 0 -8 2l-6 2l-2 -2q0 -2 12 -2t14 2v2v-2q-2 -2 -10 -2zM760 964q6 -20 8 -20q8 0 8 28q0 36 -12 36q-2 0 -4 -2q-4 -4 -4 -12q0 -16 4 -30zM958 958q-6 14 -12 14v-4 q2 -2 4 -14q4 -22 8 -8q2 6 0 12zM986 792q-6 2 -11 16t-7 14l-8 -14q-6 -12 2 -21t20 -11l12 -4q14 10 -8 20zM918 796q4 12 -8 12q-4 0 -4 -6q-2 -10 8 -10q4 0 4 4zM1018 504q0 4 -4 4t-8 -7t-5 -13t1 -8q2 0 9 11t7 13zM1070 424q8 38 8 62q0 20 -6 20t-12 -26t-6 -48 q0 -32 8 -32t8 24zM1470 374q2 0 4 21t2 39v20q-8 0 -8 -62q0 -18 2 -18zM910 408q-2 2 -4 2q-8 -4 -12 -12q4 0 11 4t5 6zM872 388q2 -2 10 6q-10 0 -10 -6zM842 348q0 2 -2 2t-5 -3t-1 -5t5 0t3 6zM1470 284q4 8 4 20q0 20 -6 20q-2 0 -4 -22q2 -16 6 -18zM1374 248 q0 2 -2 2q-8 0 -8 -10q0 -4 2 -4q4 0 7 5t1 7zM1230 202q10 0 16 16q4 6 -4 6q-4 0 -12 -5t-8 -9q0 -8 8 -8zM928 164q0 -48 2 -48q4 0 12 31t8 45l-2 6l-4 -8q-6 -8 -12 -18zM1470 182q0 -6 -3 -24t-3 -20t3 -6t5 -2q6 6 6 54q0 10 -2 10q-6 0 -6 -12zM1272 114q2 2 2 16 q0 30 -4 30t-4 -28q2 -18 6 -18zM1222 100q0 -12 2 -12q8 0 8 34q0 16 -4 16q-6 0 -6 -38zM1076 76q6 4 2 15t-10 11t-6 -4q-2 -6 3 -16t11 -6zM876 82q0 2 -2 4h-2q-8 0 -4 -6q4 -2 8 2zM1444 76q-16 0 -28 -12q-4 -4 2 -6h6q26 0 26 14q0 4 -6 4zM838 56q-2 2 -4 2 q-6 0 -6 -10q0 -4 4 -4t6 4t0 8zM948 48q0 2 -2 2q-4 0 -4 -4q2 0 6 2zM978 38l2 2q0 6 -8 6h-2q0 -4 2 -6t4 -2h2z" />
<glyph unicode="k" horiz-adv-x="1796" d="M482 404q0 2 -2 6v4q0 28 32 28q2 0 5 -1t5 -1q16 -4 16 -24q0 -28 -20 -34q-30 -8 -36 22zM374 424q0 8 11 16t21 8q16 0 16 -22q0 -16 -9 -30t-17 -14q-14 0 -18 28q0 4 -2 10zM462 584q116 0 160 -61t44 -141q0 -6 4 -6q14 0 53 59t49 111l6 38q4 22 11 31t19 1 q6 -6 6 -16q0 -94 -76 -198l-20 -28q0 -4 -21 -23t-57 -39t-68 -20h-6q-6 -2 -15 -3t-20 -2t-24 -2t-25 -1q-30 0 -40 4q-8 2 -39 5t-63 19q-38 18 -52 20q-2 2 -10 6q-18 16 -48 38q-26 20 -50 58t-36 66l-10 28q0 10 16 10q10 0 20 -22t26 -52t38 -46q2 -2 6 -4q4 -4 6 -4 q4 0 4 19t14 50t50 55l12 10q12 8 21 13t26 12t39 11t50 4zM632 376q-8 174 -170 174q-14 0 -54 -4q-36 -6 -80 -40t-44 -78q0 -14 -3 -27t-3 -15q0 -10 44 -26q22 -10 38 -16q50 -22 152 -22q92 0 118 20q4 2 2 34zM468 832q-12 0 -12 16q0 28 29 60t73 32q8 0 28 -4 q18 -4 38 -28t20 -44q0 -26 -18 -26q-12 0 -18 28q-4 16 -22 31t-38 15q-38 0 -60 -58q-8 -22 -20 -22zM174 856q-8 8 -8 20q0 24 30 47t68 23q42 0 70 -30q20 -22 20 -48q0 -24 -14 -24q-12 0 -18 22q-6 18 -26 34t-42 16q-40 0 -60 -46q-12 -22 -20 -14zM152 1106 q0 8 11 20t11 14t35 42t37 74q4 40 40 86t52 46q6 0 44 -79t64 -79h6q38 0 61 12t33 27t31 51t43 66q8 12 18 12q26 0 65 -86t43 -90h2q6 0 47 5t106 10t125 5q102 0 194 -18l44 -8q82 -16 143 -103t65 -137l18 -118q12 -30 70 -30q44 0 44 16q0 4 -9 11t-18 26t-9 49 q0 18 13 31t29 13q46 0 46 -86q0 -16 6 -20h4q16 0 37 18t21 52q0 6 -4 26q-4 18 13 20t21 -10l2 -10q2 -10 2 -20q0 -40 -26 -68q-46 -46 -78 -46q-8 0 -39 -18t-67 -18q-16 0 -32 6l-16 6q-10 0 -10 -50q-6 -310 -22 -400t-62 -146l-18 -24q0 -2 -14 -17t-51 -40t-81 -43 l-38 -14q-84 -38 -234 -54t-260 -16l-32 2q-2 2 -31 5t-62 5t-43 6q-4 2 -70 14t-127 29t-69 35l-82 86q-60 62 -93 126t-40 103t-10 109t-7 96q0 2 -2 11t-2 15l18 216l26 116q14 44 27 73t22 36t14 11t5 10zM712 1200q0 18 -30 85t-46 67q-2 0 -4 -2q-12 -12 -37 -53 t-31 -61q-8 -22 -27 -31t-56 -11t-51 -6q-10 -2 -14 0t-10 14t-10 18q-12 18 -37 65t-25 51t-4 4q-8 0 -19 -12t-23 -42t-16 -72q-2 -10 -46 -63t-50 -63q-2 -4 -21 -33t-31 -56t-14 -59q0 -4 -12 -62t-16 -108l-4 -64q-4 -64 -4 -92q0 -110 24 -197t47 -122t66 -79t47 -50 q10 -14 38 -25t34 -21q16 -24 130 -44l36 -6q6 -2 16 -2q2 0 23 -5t62 -11t85 -8q4 0 45 -3t59 -3q102 0 196 13t138 25l42 12q10 0 48 16t90 51t78 71q24 34 35 53t18 50t9 49t5 81t7 115q8 94 8 180q0 162 -28 241t-78 129q-86 86 -334 86q-50 0 -101 -3t-79 -7l-26 -4 q-34 0 -60 -12l-26 -10q-10 0 -16 12v14zM1616 882q2 -2 4 -2q6 0 6 14q0 46 -16 46q-4 0 -6 -2t-2 -14q0 -30 14 -42z" />
<glyph unicode="l" horiz-adv-x="1710" d="M482 348q0 -8 -12 -21t-32 -13q-28 0 -60 26q-34 28 -36 36l-4 10q-2 0 -19 -24t-35 -26q-10 -2 -30 -2q-36 0 -36 12q0 8 14 16q6 4 30 5t35 18t11 63v20q-2 44 -27 76t-25 86q0 14 11 18t37 6t46 10q4 2 10 2q20 0 20 -38q0 -48 -28 -108q-2 -4 -2 -20q0 -26 10 -66 t16 -48q26 -34 54 -34l36 12q4 0 10 -5t6 -11zM346 606q0 6 -2 6q-10 2 -12 -12q-2 -4 0 -8l4 -6q6 0 10 20zM462 802q0 4 -3 18t-3 20q0 18 22 18q2 0 6 -5t8 -16t4 -23q0 -34 -30 -62q-16 -16 -34 -16q-24 0 -46 28t-22 52q0 14 10 16h2q8 0 25 -32t31 -32h4q8 2 17 14 t9 20zM270 782q8 8 11 31t5 40t10 17t16 -8q6 -6 6 -24q0 -32 -16 -66t-42 -34q-8 0 -12 2q-18 6 -38 41t-20 53q0 4 2 6q4 4 15 0t11 -10q18 -54 40 -54q6 0 12 6zM874 936q2 16 14 24t20 -2q30 -38 34 -400l2 -66l-10 -38q0 -2 -3 -11t-4 -14t-5 -15t-10 -16t-14 -15 t-18 -15t-24 -11t-33 -8t-41 -3q-74 0 -120 42t-54 84l-10 42q-12 46 -12 196q0 166 6 178q4 6 21 -1t37 1q10 6 24 6q6 0 13 -1t9 -1q10 0 10 14q2 18 15 22t23 -10q6 -10 18 -5t24 -3q4 -4 10 1t14 9t22 0q2 -4 21 -1t21 17zM808 744h-2l-4 -4q2 -2 4 0t2 4zM852 680 l2 -16q6 0 2 24l-2 6q-2 2 -2 -14zM628 540q0 4 -2 8t-4 0v-6l4 -6zM764 480q8 8 4 20q-4 8 -8 4q-2 -4 -2 -14q4 -8 6 -10zM830 464l-2 2q-10 0 -4 -6q2 -2 4 0t2 4zM898 438q0 4 -6 5t-8 -3t-1 -13t3 -9q12 6 12 20zM678 426q2 2 -6 8q-4 4 -4 0q0 -2 4 -6t6 -2zM688 418 q0 2 -4 6q0 -2 4 -6zM740 390q8 0 2 11t-10 1q-4 -12 8 -12zM764 382q10 -2 10 4q-4 10 -16 6q-2 -4 6 -10zM60 490q0 6 -5 24t-5 24q-10 56 -10 122q0 82 20 144q6 18 10 42t9 32t21 12q26 6 38 139t42 167q56 66 102 88q46 24 92 38t70 16l24 2q112 4 250 4q328 0 452 -28 q146 -34 171 -44t91 -60q52 -40 81 -108t35 -127t16 -103t30 -44h4q20 4 30 31t10 45q0 16 -4 27t-5 13t5 10q6 6 12 6q10 0 18 -13t8 -33q0 -18 -14 -60q-12 -32 -33 -47t-38 -17t-17 -4q-2 -4 -3 -44t-5 -99t-12 -101q-28 -124 -51 -193t-37 -88t-38 -41q-38 -34 -73 -52 t-52 -20t-27 -7t-10 -17q0 -4 2 -21t2 -37q0 -56 -16 -56q-8 0 -14 10q-6 8 -6 28q0 8 2 25t2 25q0 32 -30 32h-8q-102 -8 -114 -20q-2 -2 -2 -44q0 -54 -16 -54q-4 0 -6 2q-12 6 -12 24q0 8 2 24t2 22q0 20 -18 20h-6q-66 -10 -278 -10h-6q-16 0 -21 -1t-9 -5t-4 -14 q0 -4 1 -22t1 -32q0 -24 -18 -24q-4 0 -10 6q-6 8 -6 24q0 8 2 23t2 21q0 22 -30 24q-16 2 -29 4t-20 4t-11 2q-2 0 -4 -2q-8 -8 -8 -46q0 -30 2 -44q-12 -14 -20 -14q-16 0 -16 40q0 12 2 34t2 28q0 8 -2 10q-6 6 -129 26t-169 60q-48 42 -71 84t-32 67t-23 33 q-32 16 -47 51t-15 57zM442 1300q-4 0 -22 -3t-37 -7t-44 -14t-53 -28t-54 -44q-84 -84 -84 -470q0 -244 20 -300q4 -8 4 -22v-14q0 -48 60 -134q24 -32 80 -56t100 -32l44 -6q12 0 96 -19t150 -19h16q572 16 658 94l34 28q20 18 35 47t21 48t14 55l8 34l12 38 q36 144 36 284q0 40 -3 79t-8 70t-11 60t-11 49t-10 35t-9 23l-2 8q-8 46 -67 98t-103 64q-232 66 -590 66q-72 0 -142 -3t-104 -5zM76 642q6 -6 10 6q2 16 -6 16q-6 0 -6 -14q0 -6 2 -8zM124 494q0 4 -4 4t-4 -6q0 -12 6 -12q4 0 4 6l-2 2v6z" />
<glyph unicode="m" horiz-adv-x="1562" d="M84 850q-2 2 -4 2q-2 -12 -2 -25t4 -37l6 -48l20 -146q8 -24 34 -288l4 -44q2 -34 8 -42t18 -6q16 2 57 3t68 4t27 11q0 6 -4 47t-9 118t-5 167v76q0 22 -2 30t-5 10t-15 5t-24 9q-72 34 -116 73t-52 59zM360 232q112 2 218 7t156 9l50 6q2 0 15 1t36 3t49 2h24 q8 0 26 -1t28 -1q16 0 236 10q-2 16 -3 66t-5 60q-2 6 -10 153t-14 161q-2 6 -18 6q-6 0 -29 -3t-37 -3q-16 0 -24 2q-20 4 -24 4q-22 0 -51 13t-49 27t-22 14q-6 0 -55 -91t-65 -91q-4 0 -29 33t-49 67l-24 34q-20 30 -44 30q-10 0 -14 -2q-48 -26 -75 -37t-37 -12t-34 -4 t-52 -11q-10 -2 -40 -2h-18q-36 0 -42 -6t-6 -76q0 -238 26 -338q2 -12 6 -30zM838 874q-12 18 -25 47t-20 48t-9 19q-4 0 -16 -37t-34 -86t-44 -71q-10 -10 -10 -14l24 -30q24 -30 50 -64t30 -40q4 -8 8 -8q8 0 22 24t32 61t30 55q8 10 8 16t-4 12t-14 19t-18 29zM744 1204 q-10 12 -30 40t-35 41t-47 31t-86 28t-132 14h-14q-20 0 -40 -2l-22 -4q-30 0 -108 -51t-110 -113q-46 -92 -46 -178q0 -96 55 -172t161 -114q28 -8 62 -8h14l50 4q68 4 122 21t85 38t54 49t31 48l16 40l6 22q36 72 36 160l-8 78q0 14 -14 28zM1298 1340q-4 2 -48 25t-86 23 q-38 0 -88 -14q-92 -26 -180 -113t-88 -201q0 -98 74 -200q6 -12 20 -31t65 -50t111 -31h20q18 0 30 3t28 3q82 0 174 73t102 169q0 4 1 27t1 37t-1 35t-1 25l-6 44q-4 36 -14 55t-28 38t-28 35q-26 38 -58 48zM278 1380q-2 2 -21 18t-36 28t-27 12q-20 0 -47 -55t-27 -97 q0 -18 6 -26q80 70 140 100q16 8 18 11t-6 9zM1418 1278q2 2 2 12q0 34 -23 100t-39 66h-2q-12 -8 -37 -32t-25 -36q0 -4 6 -8q32 -12 59 -37t41 -45t16 -20h2zM72 1156q4 0 20 102q0 16 2 42t20 81t52 81q18 14 28 14q16 0 65 -36t51 -52q0 -8 10 -8l36 6q36 6 76 6 q18 0 70 -4q70 -8 108 -22t80 -50q30 -26 56 -59t38 -51t18 -18q2 0 6 6q20 38 65 91t87 73l34 16q94 48 166 48q28 0 58 -6t36 -6q14 0 18 10q10 20 45 49t55 29q4 0 10 -6q18 -16 42 -82t24 -94q0 -120 8 -158t8 -110q2 -110 30 -377t28 -345q0 -80 -18 -88q-4 -2 -26 -2 q-12 0 -71 3t-99 3q-66 0 -112 -8h-72t-134 -2t-70 -6q-2 -2 -2 -22l26 -354q0 -12 1 -16t2 -10t1 -16q2 -22 36 -29t44 -15q24 -16 8 -32q-8 -4 -11 -2t-14 8t-21 6q-18 2 -21 -4t-1 -40q2 -48 -12 -48q-18 0 -18 32v16q0 20 -6 20t-26 -25t-30 -25q-6 0 -12 6t-6 10 q0 10 34 44t32 44l-18 174q0 32 -18 248q-2 16 -3 22t-6 10t-15 4q-8 0 -24 -2t-46 -5t-60 -5q-22 -2 -38 -5t-28 -3q-20 0 -20 -14q0 -2 3 -35t3 -67q0 -48 6 -116t12 -112l6 -44q4 -22 38 -52t34 -40q0 -4 -4 -8t-10 -4q-8 0 -26 15t-20 15t-2 -14v-16q0 -50 -12 -50l-8 4 q-10 8 -11 29t-2 37t-9 16q-10 0 -40 -32q-20 -22 -32 -28q-12 8 -12 20q0 14 38 45t48 47q0 4 -16 201t-18 199t-20 2l-290 -18q-8 0 -80 -6t-84 -6q-22 0 -22 10q0 2 1 8t1 12q0 14 -2 20q-6 26 -11 124t-11 136q-48 290 -48 412q0 10 1 20t1 12q0 6 -4 22q-6 20 -6 58 q0 44 8 76t16 47t8 19zM1040 834q0 8 14 17t28 9q22 0 22 -30q0 -18 -16 -29t-28 -3q-4 4 -12 17t-8 19zM412 774q-18 6 -18 28q0 18 11 35t23 17h4q24 -2 24 -38q0 -44 -32 -44q-8 0 -12 2zM940 616q0 2 4 4t9 2t7 -4q8 -8 8 -24t10 -32t24 -16q8 0 12 2t11 27t15 25 q6 0 12 -8t6 -18q0 -2 -1 -7t-1 -7q0 -16 24 -30q16 18 30 18q10 0 10 -12q0 -16 -16 -32q-10 -12 -22 -12q-10 0 -27 14t-23 14h-2q-8 -2 -22 -2q-68 0 -68 98zM610 536q0 28 18 28t18 -24q0 -28 -13 -48t-37 -20q-12 0 -28 6q-32 -38 -60 -38q-20 0 -38 18t-29 35t-13 17 q-4 0 -4 6q0 8 4 14t13 4t19 -16q34 -46 54 -46q10 0 16 10t6 18q0 6 -2 15t-2 13q0 10 10 18q2 2 6 2q8 0 21 -21t23 -21l2 2h4q12 6 12 28zM766 334q12 0 20 15t8 23t9 13t17 3t8 -12q0 -16 -17 -46t-37 -30q-6 0 -10 2t-12 2q-16 0 -33 15t-17 27q0 10 14 10q4 0 20 -11 t30 -11zM1228 270q54 2 178 2l80 -2q6 24 6 76l-16 246l-4 36l-28 264q0 6 -2 6q-4 0 -23 -23t-51 -55t-64 -50q-10 -6 -27 -16t-28 -16t-19 -8q-20 -4 -27 -11t-7 -25q0 -10 5 -66t7 -114q2 -66 11 -147t9 -97z" />
<glyph unicode="n" horiz-adv-x="1910" d="M288 654q-6 6 -6 18q0 24 23 53t49 29q20 0 36 -16q4 -4 12 -11t8 -8t3 -8t-3 -11q-6 -14 -14 -14t-25 16t-21 16q-18 0 -29 -36t-19 -36q-6 0 -14 8zM534 678q-6 6 -6 16q0 22 26 46t54 24q34 0 56 -34q8 -14 8 -28t-8 -25t-16 -11q-12 0 -12 20v12q0 32 -32 32 q-28 0 -42 -38q-4 -14 -13 -18t-15 4zM60 1272q-20 46 -20 76q0 70 63 112t135 42q34 0 62 -14q36 -16 55 -90t25 -144t10 -72h2q4 0 84 25t116 25q12 0 16 -2h52h18q6 6 21 63t52 113t103 78q24 8 58 8q114 0 114 -82q0 -16 -2 -22q-8 -48 -22 -85t-23 -54t-9 -21 q0 -8 36 -10q126 -10 192 -17t174 -38t156 -81q18 -18 20 -18q4 0 7 7t11 23t18 30l20 30q24 34 52 54l32 22q58 42 88 42q10 -2 23 -9t39 -46t30 -101q4 -76 4 -108q0 -64 -8 -122t-15 -92t-28 -78t-28 -57t-35 -54t-30 -43q-32 -50 -56 -50h-14h-4l-48 -320 q-6 -46 -85 -100t-179 -60q-110 -8 -202 -8h-28q-16 0 -22 -2q-38 -12 -178 -12l-382 14q-74 0 -136 24t-86 48l-26 24q-46 56 -71 237t-25 353q0 112 10 148q2 10 5 27t10 36t21 45q12 24 12 26q0 4 -21 46t-58 97t-69 79q-12 8 -36 58zM284 1452q-24 12 -62 12 q-100 0 -142 -84q-8 -16 -8 -36q0 -46 58 -110t60 -72t8 -16t19 -28t27 -50q22 -50 34 -54q16 -6 8 -36l10 -34q2 -6 4 -14t4 -14t2 -10q0 -18 -12 -18q-4 0 -6 2q-10 4 -16 26t-12 22q-16 0 -30 -90t-14 -194q0 -80 8 -128q10 -62 14 -109t5 -59t5 -18q2 -4 6 0t12 8t26 -6 q64 -36 90 -36q8 0 14 2t11 7t7 8t6 11t6 10q16 22 16 50q0 36 -41 90t-41 74q0 16 10 19t50 5q18 2 28 2l50 2q8 -8 8 -24q0 -18 -15 -63t-15 -59q0 -6 4 -14q2 -12 8 -31t27 -50t49 -31q12 0 26 6q14 8 46 40l34 34h10q16 0 16 -14q0 -4 -18 -26t-44 -45t-44 -27 q-16 -4 -25 -63t-19 -69q-12 -12 -68 -12q-28 0 -36 4q-2 2 -10 31t-19 58t-19 31q-104 34 -126 48q-14 10 -16 -4q0 -6 4 -24q8 -50 17 -78t51 -67t116 -63q30 -10 172 -20t280 -10q96 0 166 6l42 4q60 4 82 4h34q72 0 118 8q6 2 20 2q34 0 99 28t101 66q18 20 45 150 t27 266q0 92 -14 170l-8 42q-12 74 -23 117t-18 52t-13 18t-10 19q-14 44 -74 87t-90 43q-4 0 -20 6t-45 14t-63 12q-24 2 -58 9t-84 9q-36 2 -79 6t-53 4q-30 0 -44 -22l-202 -270q-12 -20 -24 -20q-10 0 -20 30q84 88 182 229t98 165l6 14q6 16 13 38t7 42q0 66 -74 66 q-20 0 -30 -2q-40 -6 -71 -28t-52 -64t-32 -71t-24 -81t-17 -62q-6 -20 -17 -69t-15 -61l-10 -40q-16 -56 -26 -56t-10 20q0 40 54 232q2 12 -8 12l-22 4q-22 4 -42 4q-44 0 -96 -18l-52 -16q-28 -8 -60 -38l2 -48q4 -68 4 -106q0 -62 -16 -62l-8 4q-10 10 -13 132t-17 251 t-54 157zM1718 604q60 70 92 180t32 220q0 98 -22 163t-58 65q-26 0 -92 -58t-84 -124q-2 -8 -5 -14t-5 -7t-4 -3t-2 -4q0 -4 10 -20t23 -45t17 -65q0 -4 19 -105t19 -165v-18q0 -16 -1 -33t-1 -19q0 -12 4 -12q6 0 58 64zM464 548q-2 2 -20 2q-28 0 -36 -4q-2 0 -2 -4 q0 -10 18 -31t22 -21t12 20t8 32q0 6 -2 6zM462 286l-2 4q-4 24 -10 24q-2 0 -4 -2q-4 -8 -9 -15t-7 -10t-4 -5t-2 -4t2 -6t10 -18t16 -34q4 -8 8 -18t5 -13t5 -7t9 -5t15 -1h10t7 1t5 3l4 4t3 7t2 9t3 14t4 16q6 24 6 36q0 16 -8 16q-6 0 -16 6t-12 6q-6 0 -6 -12 q0 -8 5 -34t5 -38q0 -22 -14 -22q-6 0 -10 10t-8 25t-7 30t-3 23z" />
<glyph unicode="o" horiz-adv-x="2094" d="M406 1400h-2q-22 0 -77 54t-55 98q0 26 16 40q14 14 32 14q38 0 64 -69t26 -119q0 -14 -4 -18zM364 1472q0 22 -16 57t-32 35q-4 0 -10 -6q-2 -2 -2 -8q0 -18 25 -52t33 -34q2 0 2 8zM282 1250q-64 0 -64 64q2 0 0 7t5 17t17 20t36 18t64 8q56 0 78 -46q8 -14 8 -36 t-12 -22q-8 0 -12 4l-12 6q-36 -10 -62 -25t-46 -15zM360 1316q20 6 20 16q0 18 -48 18q-30 0 -66 -16q-18 -10 -18 -24q0 -26 36 -26q20 0 32 12q18 14 44 20zM522 1350q22 98 102 98q28 0 51 -17t23 -39q0 -28 -35 -50t-83 -41t-58 -25q-12 -8 -16 -8q-12 0 -12 16 q0 10 10 21t18 45zM662 1392q0 6 -12 15t-26 9q-44 0 -64 -64q-2 -4 -2 -10q0 -10 12 -10q18 0 55 25t37 35zM450 1446q0 136 70 136h4q42 -2 42 -44q0 -44 -42 -108t-58 -64t-16 80zM484 1442h2q8 0 25 33t17 55q0 18 -16 18q-12 0 -21 -33t-9 -59q0 -12 2 -14zM500 390 q0 16 11 23t17 7q8 0 18 -11t6 -19q-8 -24 -32 -24q-20 0 -20 24zM180 400q0 -12 -9 -22t-19 -10q-6 0 -18 11t-12 19q0 26 34 26q24 0 24 -24zM516 1236q64 16 322 16q366 0 480 -54q72 -34 132 -239t60 -421q0 -50 -2 -74q-2 -32 -2 -84q0 -118 40 -118h10l35 5t28 6t16 5 t22 15l23 23t40 42q48 50 48 238l-6 134q-8 22 -30 32t-47 13t-58 26t-59 69q-18 34 -18 96q0 46 6 52q4 4 46 4q44 0 77 5t50 11t23 6q16 0 50 -48q6 -10 12 -10q8 0 17 30t17 34l6 2h10q8 0 38 -1t46 -1q58 0 76 6q22 8 28 -8q2 -28 2 -64q0 -130 -30 -170 q-32 -52 -112 -68q-4 0 -11 -2t-9 -2t-6 -2t-5 -5l-3 -9t-2 -15v-21t5 -82t5 -122q0 -134 -34 -236q-30 -88 -50 -112q-74 -92 -324 -100l-294 -24l-38 -4q-358 -42 -556 -42q-114 0 -197 13t-132 29t-86 51t-53 59t-40 70q-42 84 -42 412q0 264 22 378q8 36 20 66t25 51 t29 38t30 27t30 18t26 11t22 5l10 4q46 18 140 18q20 0 24 -2q8 -2 22 -37t20 -35q12 0 20 38q2 10 1 21t1 19t10 8t24 6zM1208 1198q-272 20 -390 20q-38 0 -48 -2q-28 -4 -64 -4q-10 0 -35 1t-37 1q-114 0 -126 -20q-2 -2 -4 -24t-12 -40t-30 -18h-4q-36 4 -48 48 q-4 18 -9 21t-25 1l-44 -2q-10 0 -22 -2t-21 -3t-11 -1q-8 0 -20 -3t-44 -20t-57 -44t-48 -85t-27 -136q-8 -160 -8 -298q0 -136 8 -206l4 -38q4 -44 6 -63t11 -34t13 -17t27 -11t37 -15q38 -16 90 -28l38 -10q48 -12 78 -12q26 0 54 -3t38 -3q56 0 190 54q42 16 77 33 t50 24t21 7q4 0 8 -4t4 -8q0 -8 -55 -40t-152 -65t-185 -33q-36 0 -72 6q-178 32 -222 54h-2q2 -4 5 -13t18 -32t37 -42t63 -40t93 -31q60 -12 184 -12q170 0 447 22t464 42t199 22q12 4 22 4q30 0 82 46t52 82l26 74q24 74 24 112q0 94 -5 170t-9 118t-4 52q0 22 14 22h4h4 q10 0 33 5t29 5q4 0 10 1t21 10t27 22t23 41t13 66q4 48 4 62q0 34 -28 34q-14 0 -22 -2q-4 -2 -8 -38t-16 -36l-8 4q-10 8 -8 26q4 28 4 30q0 12 -34 14h-2q-36 0 -47 -45t-25 -49q-12 -4 -32 18l-40 50q-10 12 -25 13t-25 -3l-8 -6q-2 -2 -2 -24q0 -58 -12 -58q-4 0 -10 6 q-4 4 -8 38l-6 34h-8q-52 0 -60 -4q-2 0 -2 -18q0 -24 7 -52t31 -60t62 -42q82 -22 99 -38t17 -84q0 -10 -1 -50t-1 -70v-28q0 -144 -48 -200l-26 -28q-78 -92 -180 -92q-52 0 -62 26q-18 44 -18 132q0 34 3 98t3 92q0 52 -8 78q0 2 -14 123t-42 187q0 2 -12 38t-23 63 t-35 61t-54 50q-46 26 -78 26z" />
<glyph unicode="p" horiz-adv-x="1568" d="M1054 190q12 6 23 0t9 -16q-4 -26 -24 -26q-16 0 -18 18t10 24zM636 160q-10 12 3 29t27 7q8 -6 8 -12q0 -10 -9 -19t-17 -9q-10 0 -12 4zM524 172q0 6 8 17t16 11q6 0 17 -18t7 -24q-10 -14 -29 -6t-19 20zM940 154q-6 6 -6 16q0 30 22 30q10 0 18 -16q8 -20 -8 -30 t-26 0zM992 266q0 8 13 20t23 2t-2 -38q-6 -14 -16 -8q-18 10 -18 24zM592 244h-2l-2 -2q-12 0 -12 22q0 32 20 32q18 0 18 -16q0 -28 -22 -36zM106 1050q36 86 148 147t244 61q22 0 58 -4q188 -20 194 -20t16 1t18 1q24 0 46 -2q72 -4 144 -6t103 -3t66 -7t67 -20l32 -14 q146 -68 198 -134q38 -50 54 -121t22 -197t12 -172q2 -12 2 -50q0 -214 -26 -318q-14 -62 -56 -104t-71 -53t-39 -11l-78 -16q-76 -14 -140 -14h-26h-32q-24 0 -56 -3t-58 -3l-336 20q-20 -4 -52 -4q-214 0 -342 72q-16 8 -38 36l-26 34q-66 82 -90 179t-24 303q0 18 2 62 t2 70q0 80 20 158l10 42q4 12 32 90zM1246 308q-86 108 -86 126q0 4 -10 23t-25 55t-25 78q-8 32 -22 32q-4 0 -21 -4t-29 -4q-32 0 -64 20q-46 28 -54 90q-2 14 6 14q16 2 24 -18q28 -72 102 -72q26 0 34 8q4 4 4 16t-26 148t-26 234q0 6 1 22t1 24q0 18 1 36t2 27t1 15 l-2 12l-472 28h-24q-6 0 -6 -2v-12q0 -6 2 -79t2 -135q0 -178 -20 -314q-2 -22 6 -22q2 0 22 -8t36 -8q24 0 46 22q24 24 24 36q0 6 10 25t22 19q10 0 10 -18q0 -34 -33 -73t-91 -39q-16 8 -30 8q-30 0 -42 -46q-40 -154 -101 -272t-101 -158l-42 -40q0 -8 35 -20t96 -22 t121 -10q126 0 196 44q10 6 21 12t14 8t9 8t9 12t9 20q20 46 20 58q0 20 9 50t9 42q0 20 -20 38q-10 10 -27 35t-27 47l-12 20l-8 10l-6 10l-6 8q-4 6 -6 13t2 17q6 10 39 16t75 9t50 5q20 2 25 -5t1 -31l-14 -66q-6 -34 -15 -66t-9 -48t6 -50q10 -58 19 -94t15 -58t22 -34 t22 -15t34 -8t40 -7q40 -10 112 -10q112 0 254 32q24 6 58 43t34 51q0 6 -16 11t-54 22t-80 47q-10 8 -35 34t-25 28zM736 474q16 -30 18 -10q2 22 -10 22q-4 0 -6 -2q-6 -6 -2 -10zM824 206q0 14 -6 14q-2 0 -6 -18q-8 -52 -38 -89t-56 -54t-26 -19q0 -4 30 -4 q48 -2 102 -5t62 -3l12 2q-58 54 -58 102q0 4 -8 30t-8 44z" />
<glyph unicode="q" horiz-adv-x="1940" d="M570 276q-8 14 2 25t28 1q2 -2 45 -5t98 -7t83 -4q6 0 14 2h8q14 4 21 -9t-3 -27q-4 -6 -26 -6q-12 0 -71 6t-97 6h-18h-18q-54 0 -66 18zM670 410q18 8 72 34t99 47t53 21q16 0 16 -6q0 -8 -24 -22t-63 -33t-47 -23l-74 -36q-2 0 -38 -17t-72 -32t-40 -15q-6 0 -11 6 t-3 15t14 13q2 0 24 10t48 20t46 18zM364 696q20 0 36 43t26 43q4 0 10 -6q4 -4 4 -12q0 -28 -21 -63t-53 -35q-18 0 -32 10q-48 32 -48 54q0 6 4 8q2 2 6 2q10 0 33 -22t35 -22zM650 782q2 16 10 16t15 -15t7 -33q0 -12 -2 -18q-16 -58 -60 -58q-30 0 -54 36q-8 14 -8 24 q0 14 12 14t22 -16q14 -24 28 -24q32 0 32 50zM770 1274q10 -8 24 -44t22 -68l10 -32q0 -10 12 -10q78 0 128 16t84 18l119 7t76 5t41 3t23 2t11 1t19 -1t57 -4t104 -5q20 0 55 -3t49 -3q48 0 72 26t56 118q50 148 50 212q0 26 -7 70t-9 66q-2 28 -20 89t-18 87q0 36 26 54 q10 8 24 8q48 0 85 -116t37 -230q0 -24 -4 -56q-2 -10 -6 -46t-8 -60t-13 -61t-25 -73t-40 -70q-88 -132 -88 -244q0 -14 1 -32t1 -22q0 -40 15 -235t15 -321q0 -232 -48 -296q-32 -40 -75 -63t-69 -23q-20 0 -20 -22q0 -14 -6 -39t-6 -73v-44q0 -38 -16 -67t-34 -29 q-28 0 -42 51t-23 112t-21 73t-42 12q-28 0 -34 -6q-4 -4 -4 -14t9 -54t9 -68q0 -70 -60 -76h-6q-16 0 -28 9t-16 17l-4 10l-4 16q-6 16 -6 56q0 28 -3 45t-5 24t-2 9q0 8 -3 9t-15 1t-24 4q-10 4 -60 4q-66 0 -149 -7t-89 -13q-10 -14 -10 -56q0 -66 18 -168q-6 -18 -9 -22 t-16 -9t-41 -5q-16 0 -24 1t-14 3t-10 9t-6 12t-7 21t-9 28q-8 22 -12 94t-16 84q-14 14 -52 14q-18 0 -24 -8q-8 -14 -8 -62q0 -14 1 -51t1 -55q0 -90 -20 -102q-8 -4 -16 -4q-48 0 -62 36q-14 42 -24 124t-30 116q-6 12 -35 23t-65 38t-62 79q-30 60 -48 112t-22 77t-8 43 t-9 23t-19 5q-22 0 -40 -2q-20 -2 -44 -2q-12 0 -23 2t-25 2q-22 0 -22 18t34 18q12 0 46 -3t50 -3q30 0 40 8q2 2 2 24q0 36 -10 38q-2 0 -44 21t-56 21h-2q-14 -2 -25 11t-11 23q0 4 6 12t10 8t59 -28t65 -28h2q6 2 6 58q0 72 -12 294t-12 268q0 26 2 30q2 6 2 26 q0 30 14 74t36 44q6 0 20 -10q82 -68 134 -98q98 12 202 20q56 2 67 7t15 23q6 26 31 64t59 56zM376 46q-10 0 -25 5t-24 9t-9 0q20 -74 84 -104q8 -4 27 -12t25 -11t20 -12t19 -20t13 -28t12 -41t8 -58q4 -38 12 -69t16 -46t14 -15q10 0 10 42q0 8 -1 49t-1 59 q0 128 66 128q20 0 42 -8q44 -14 53 -33t10 -81t21 -128q4 -18 18 -18h12q26 2 26 18q0 4 -10 45t-10 81q0 42 12 92q4 24 19 32t45 8q8 0 28 -1t32 -1q18 0 66 4h4q18 0 116 8t154 8q148 0 152 -50q0 -2 5 -16t10 -36t5 -42q0 -22 8 -48l10 -28q0 -8 8 -8q4 0 9 47t9 93 l2 48q0 32 19 47t48 21t37 12q2 2 18 10t24 15t23 26t23 43t14 67t6 99q0 50 -2 76q-6 148 -15 292t-13 220t-4 118q0 76 15 110t71 110q100 136 100 352q0 20 -1 41t-3 36t-3 26t-3 19v6q0 16 -21 85t-43 93q-6 10 -10 10t-4 -12q0 -6 23 -126t23 -198q0 -66 -14 -108 l-32 -104q-56 -168 -148 -180q-4 0 -12 -1t-14 -1q-34 0 -144 11t-158 11q-22 0 -50 -4q-6 -2 -52 -2q-116 0 -224 -27t-112 -27q-8 0 -16 4q-4 2 -16 5t-18 8t-10 17q-20 74 -20 78q0 24 -12 36q0 2 -4 2q-12 0 -35 -39t-23 -55q0 -14 -14 -36q-6 -6 -46 -7t-87 -3t-63 -6 l-24 -2q-26 -4 -54 -6t-38 -2h-4q-12 4 -67 51t-65 47h-2q-6 -4 -14 -52l-6 -44l24 -666q2 -2 45 -17t82 -36t39 -41q0 -2 -1 -6t-1 -8t1 -13t1 -13q0 -14 -14 -14q-6 0 -22 4q-52 14 -62 14q-6 0 -17 2t-25 0q-20 0 -20 -12q0 -6 2 -15t7 -28t9 -37q24 -98 36 -98q2 0 8 7 t13 10t21 -5q24 -14 34 -14q24 0 47 25t35 63q16 56 16 162q0 82 -18 134q-8 26 -33 68t-25 56q0 28 74 34q4 0 11 1t9 1q22 0 26 -10t4 -42q-2 -74 -14 -98t-12 -26q0 -8 6 -32q4 -20 4 -48q0 -6 -1 -35t-1 -51l-2 -84q56 -126 118 -126q14 0 26 6t32 28t28 22q2 0 10 -8 q14 -14 -22 -46q-48 -42 -70 -42q-12 0 -18 2q-36 8 -63 34t-40 48t-15 22t-16 -24t-41 -48t-61 -24zM492 516q6 40 6 54q0 18 -20 18h-10q-26 0 -26 -8q0 -6 19 -39t27 -33q4 0 4 8zM338 308h6q8 0 8 4q0 8 -44 26t-58 18h-2q-2 -2 -2 -14q0 -24 4 -28q2 -2 20 -3t40 -2 t28 -1zM1278 -262q6 6 6 72q0 94 -28 94h-4q-16 -2 -16 -18q0 -4 2 -31t4 -55q0 -52 16 -64q2 -2 8 -2q8 0 12 4z" />
<glyph unicode="r" horiz-adv-x="1966" d="M618 692q26 54 78 84t88 30q18 0 18 -8q0 -12 -41 -25t-82 -51t-41 -108q0 -46 29 -78t61 -32q14 0 28 10q16 12 32 29t26 26t16 9q4 0 8 -4q2 -2 2 -8q0 -4 -3 -26t-3 -36q0 -80 72 -104q36 -12 60 -12q50 0 78 37t32 81t8 85t10 45q6 6 18 3t8 -17q0 -12 -1 -30t-8 -66 t-21 -84t-44 -66t-72 -30q-18 0 -42 6l-62 18q-28 8 -44 40t-23 61t-9 29l-26 -16q-24 -16 -46 -16q-36 0 -78 48q-38 46 -38 106q0 18 3 35t7 27zM1398 1048q6 8 17 3t9 -19q0 -2 -1 -5t-1 -5q0 -26 20 -59t40 -33q14 0 26 22q6 14 15 17t15 -2t6 -9q0 -12 -19 -39t-43 -27 q-18 0 -42 24q-50 58 -50 104q0 20 8 28zM1734 968q0 -2 4 -15t4 -19q0 -38 46 -73t92 -62t46 -45q0 -16 -69 -83t-69 -73q0 -4 -19 -31t-29 -37q-2 -32 -4 -68t-3 -46t-4 -27t-7 -27l-12 -30l-10 -40q-12 -40 -31 -83t-41 -67l-28 -32q-34 -36 -85 -58t-91 -28t-96 -11 t-74 -7q-48 -8 -184 -8q-160 0 -337 11t-189 21q-8 4 -23 11t-53 35t-68 62t-57 95t-33 133q-2 24 -9 57t-13 53l-6 20q-2 2 -29 2t-65 9t-66 31l-2 2q-4 2 -9 6t-11 9t-13 12t-14 15t-13 18t-10 22t-7 26t-3 28q0 30 16 72q14 36 35 48t21 20q0 14 -10 36q-6 16 -6 28 q0 42 41 74t83 32h6h28h32q18 0 34 -14l8 -4q6 0 11 35t29 87t74 86q126 82 418 82q30 0 73 -1t51 -1q6 0 12 1t8 1q14 4 80 4q154 0 337 -30t233 -82q30 -30 45 -53t18 -33t6 -34t7 -40q4 -20 4 -22zM1008 1226q-22 0 -49 -2t-39 -2q-4 0 -17 1t-19 1h-30q-48 0 -110 -4 t-100 -8l-38 -4q-28 0 -90 -29t-86 -53q-34 -34 -48 -99t-18 -111t-14 -46q-4 0 -10 6q-6 4 -18 31t-32 37q-14 6 -92 6q-66 -34 -66 -76q0 -20 19 -50t19 -36q0 -14 -24 -16q-70 -10 -70 -94q0 -22 6 -48q8 -44 63 -68t105 -26l50 -2q22 -12 29 -79t30 -159t85 -154l32 -32 l32 -16q44 -22 70 -31t118 -20t254 -13q34 0 84 -2t72 -2q88 0 174 14q12 2 64 6t83 11t76 24t79 52t54 87l18 42q56 134 56 374v110q0 68 6 84v4q2 4 2 6q0 10 -2 26t-5 32t-5 31t-4 25l-2 10q0 60 -31 111t-62 72t-43 21q-274 62 -480 62q-28 0 -76 -4zM1884 752 q0 6 -33 27t-67 39l-32 18q-8 -16 -8 -136q0 -100 4 -100z" />
<glyph unicode="s" horiz-adv-x="1944" d="M906 786q8 0 26 -19t46 -38t64 -19q44 0 72 27t28 59q0 24 -10 36q-48 68 -48 86q0 14 12 14q14 0 35 -29t35 -57t14 -30q2 -20 -12 -61t-36 -53q-62 -28 -104 -28q-32 0 -58 14t-39 28t-15 14q-4 0 -4 -6q-8 -26 -44 -61t-86 -35q-64 0 -101 50t-37 116q0 72 40 112 q40 38 56 38q10 0 12 -8v-2l2 -2q0 -6 -19 -21t-39 -46t-20 -79q0 -4 1 -12t1 -14q4 -42 36 -71t72 -29q48 0 78 44q20 24 20 60q0 22 22 22zM372 1212q0 12 12 24t22 12q6 0 12 -6q14 -14 14 -38q0 -40 -24 -40q-6 0 -16 10q-20 26 -20 38zM1146 -196q92 42 94 42q4 0 8 -4 q6 -6 6 -10q0 -6 -10 -13t-34 -19t-36 -20q-14 -8 -28 8q-10 10 0 16zM186 852q0 -20 -14 -20q-4 0 -28 20t-40 26l-8 4q-10 4 -18 8t-17 10t-15 13t-6 13q0 4 12 16q48 42 84 66l28 20q40 26 44 26q8 0 14 35t20 88t40 83q40 48 98 82t91 45t41 11q6 0 69 18t93 18h4 q158 -6 238 -6q50 0 85 2t49 3t18 1q8 0 14 -2l234 -26q34 0 76 -10t68 -18t30 -12l32 -18l24 -12q10 0 36 -41t26 -61q0 -4 6 -30t6 -74v-18q0 -26 4 -105t4 -127v-44q-2 -28 -2 -66q0 -24 2 -42t2 -28q0 -22 -2 -40q-2 -34 -2 -90q12 2 28 9t18 7l20 6q22 8 50 8 q40 0 84 -12q80 -22 80 -96q0 -56 -58 -100q-8 -6 -8 -14q0 -4 8 -21t8 -35q0 -36 -36 -88q-36 -50 -106 -50q-50 0 -93 23t-61 59q-12 22 -20 22q-6 0 -21 -14t-48 -30t-79 -20l-268 -28v-4q0 -2 -1 -7t-1 -11l16 -382l-2 -2v-2l4 -8q4 -8 4 -22q0 -2 -4 -38 q-10 -64 -22 -64q-6 0 -14 12v2q-2 2 -2 4q0 10 7 40t7 38q0 10 -26 -8l-32 -20q-10 -6 -20 -16t-15 -12t-9 0q-12 4 -12 20q0 8 46 39t50 41q4 8 4 54l-12 348q-12 2 -34 2q-56 0 -112 -4q-12 0 -16 -1t-10 -5t-7 -13t-3 -26t-2 -45q0 -10 1 -38t1 -46q4 -212 16 -212 q2 0 22 15t30 5q4 -4 4 -8q0 -12 -38 -36t-40 -30q-30 -104 -54 -104q-6 0 -8 4q-6 10 -4 19t8 19l6 10q0 4 5 17t8 21t-1 14h-4q-6 0 -34 -13t-38 -13q-6 0 -8 2q-6 6 -6 10q0 10 28 27t55 31t25 22q-4 192 -4 294v30v24l2 10l2 4v4q0 12 -42 12h-12q-60 0 -108 6l-38 4 q-144 14 -230 42t-111 49t-67 75q-10 10 -14 16q-58 74 -58 332q0 60 3 126t6 110t3 50t-2 6q-12 0 -66 -40t-54 -48q0 -4 48 -32t48 -44zM974 1394q-24 -4 -58 -4q-36 0 -120 4t-116 4q-34 0 -50 -4l-162 -42q-16 -4 -51 -23t-82 -65t-61 -96q-40 -152 -40 -438 q0 -204 24 -264q20 -46 43 -76t35 -40t54 -30t56 -28q28 -16 150 -30t220 -20t112 -6q70 8 186 8h70q50 0 58 4q2 2 14 2q36 0 80 5t113 32t93 75q8 16 30 88l12 36q16 52 16 332q0 306 -26 414q-12 48 -58 80t-105 44t-93 16t-54 4q-2 0 -92 11t-142 11q-42 0 -56 -4z M1848 436q24 22 24 50q0 34 -41 58t-93 24q-58 0 -98 -34q-4 -4 -8 -6t-6 -2t-3 -2t-2 -6t-3 -16q-2 -14 -5 -23t-4 -13t-1 -12q0 -34 -20 -73t-20 -53q0 -26 38 -64q50 -48 102 -48q48 0 81 38t33 72q0 14 -22 39t-22 31q0 10 28 16q24 6 42 24z" />
<glyph unicode="t" horiz-adv-x="1736" d="M296 434q0 12 16 12q28 0 70 -34t42 -72q0 -26 -20 -57t-36 -31q-8 0 -14 10v2q0 4 19 32t19 46q0 40 -70 68q-24 16 -26 24zM882 388q-2 0 -20 -8t-30 -8q-42 0 -82 48t-40 148q0 32 2 50q8 68 35 110t47 42q6 0 10 -6q2 -2 2 -6t-15 -21t-31 -60t-18 -109v-44 q14 -56 26 -70q2 -2 10 -12q28 -32 54 -32q48 0 83 29t35 91q0 4 -1 13t-1 13q16 12 20 12q6 0 10 -8t10 -24t14 -26q42 -52 114 -52q46 0 84 38q30 30 30 86q0 48 -25 112t-51 109t-26 49q0 2 10 8t12 6q4 0 31 -41t55 -111t28 -128q0 -78 -54 -124q-48 -40 -102 -40 q-30 0 -59 13t-48 25t-21 12t-4 -6t-11 -19t-25 -27q-38 -32 -58 -32zM520 -350q0 20 12 20q8 0 16 -8t8 -18q0 -6 -10 -16q-4 -4 -10 -4q-16 0 -16 26zM282 -356q-26 0 -26 20q0 10 8 20t16 10q4 0 6 -2q10 -10 10 -34q0 -14 -14 -14zM396 -352q-10 4 -10 16q0 10 8 20 t16 10q10 0 12 -12q4 -12 -6 -26t-20 -8zM316 -244q0 10 10 17t20 -1q12 -14 3 -27t-21 -9t-12 20zM720 88q-18 0 -86 11t-74 11q-18 0 -36 4t-20 4q-18 0 -58 -86q-20 -42 -30 -55t-22 -13q-10 0 -26 26t-41 65t-49 61q-18 18 -26 31t-7 16t-3 8t-20 13q-18 8 -43 31 t-42 40t-17 19q0 4 2 8t2 8t-6 10q-36 34 -57 146t-21 216q0 44 8 80q2 10 13 143t21 167q14 44 14 52q0 46 65 125t171 105q6 2 88 5t207 6t217 3q172 0 192 -10q16 -6 58 -6h50q80 0 116 -14q4 -2 10 -2q12 0 16 28t29 65t87 53q18 6 38 6t30 -8q50 -36 50 -126v-19 t-1 -15t-1 -8q0 -4 8 -4q4 0 27 4t39 4q68 0 104 -72v-26q0 -50 -34 -92t-68 -58l-34 -18l-64 -34q-6 -2 -13 -5t-9 -5t-6 -5t-5 -8t-2 -13t-1 -20q0 -6 1 -38t1 -58q0 -18 10 -139t10 -193q0 -106 -18 -166l-10 -38q-22 -72 -59 -116t-72 -60t-97 -32q-10 -4 -24 -4 q-2 0 -35 -7t-73 -14t-56 -7q-26 -2 -26 -32q0 -6 3 -48t3 -82q0 -50 -6 -122l-2 -34q8 -28 19 -48t19 -56q2 -10 -4 -18t-16 -8q-6 0 -12 6q-8 10 -4 19t-10 37q-8 12 -24 60q10 206 10 264v21t-1 17t-1 8q-2 14 -30 14h-38q-36 0 -74 8q-12 2 -25 5t-21 5t-12 2 q-14 0 -14 -18q0 -2 1 -13t1 -17q12 -150 12 -256q0 -120 -22 -120l-2 2h-2q-10 4 -10 26q0 6 3 54t3 94q0 84 -6 140q-10 100 -20 106q-4 4 -10 4zM1424 984q24 20 90 52t107 69t41 89q0 56 -46 66q-24 6 -44 6q-34 0 -55 -17t-31 -33t-16 -16q-2 0 -8 6q-8 8 2 30t10 28 t6 31t6 45q0 28 -10 50q-22 48 -46 48q-14 0 -38 -12q-42 -16 -54 -34t-32 -96q-6 -16 -30 -16q-12 0 -44 10t-58 10q-18 0 -28 -2q-6 -2 -24 -2q-20 0 -112 10t-166 10q-56 0 -126 -6q-38 -4 -110 -4q-30 0 -82 1t-76 1q-98 0 -166 -27t-124 -109q-24 -34 -24 -48 q0 -10 -14 -50t-20 -88q-2 -16 -6 -34t-6 -58q0 -34 -10 -129t-10 -133q0 -20 4 -40q2 -6 2 -28q0 -78 30 -157t60 -119l30 -42q44 -42 305 -91t483 -49q120 0 192 16l36 10q34 6 57 14t66 34t71 81t36 135t8 146q0 54 -8 144t-10 156q0 86 -8 142zM438 126q-8 0 -62 14 t-70 20q-12 4 -14 4q-4 0 -4 -4q0 -10 28 -38l24 -32q10 -12 46 -66q2 -6 8 -6q10 0 25 25t25 49l12 26q0 8 -18 8z" />
<glyph unicode="u" horiz-adv-x="1730" d="M608 76q-2 0 -15 -2t-32 -4t-33 -2q-52 0 -52 28q0 10 6 10q2 0 19 -3t35 -3q30 0 68 8q16 4 22 0t4 -14q-4 -18 -22 -18zM330 162q14 16 26 16q10 0 17 -8t7 -16q0 -10 -12 -20t-28 -10q-8 0 -14 6q-12 12 4 32zM782 140q-6 6 -6 12q0 12 16 23t32 11q8 0 14 -6 q4 -4 4 -10q0 -12 -14 -25t-28 -13q-10 0 -18 8zM1056 980q6 6 14 6q10 0 10 -16q0 -10 -8 -20t-16 -10q-6 0 -10 4q-8 6 -4 18t14 18zM1272 980q10 10 23 4t9 -16q-4 -14 -22 -14q-10 0 -12 11t2 15zM1180 980q-16 0 -16 14q0 12 14 27t24 15q2 0 2 -1t2 -1q6 -2 6 -10 q0 -12 -11 -28t-21 -16zM254 1022q0 14 17 20t25 -4q10 -10 1 -26t-27 -10q-16 6 -16 20zM800 1032v2q-2 2 -2 4q0 16 38 16q32 0 32 -16q0 -8 -12 -15t-26 -7q-24 0 -30 16zM378 1048q0 10 9 17t19 7q18 0 18 -20q0 -26 -26 -26q-20 0 -20 22zM664 1052q0 12 17 19t25 1 t3 -25t-21 -23q-8 -2 -16 7t-8 21zM528 1054q22 22 31 25t19 -9q0 -2 1 -4t1 -4q0 -12 -14 -29t-24 -17q-14 0 -14 24v14zM938 1076q16 6 30 6q16 0 16 -8t-10 -22q-10 -16 -20 -16q-8 0 -14 11t-6 21q0 8 4 8zM1486 1046h-2q-16 0 -16 30q0 16 14 16h4q18 -4 17 -23 t-17 -23zM1360 1090q4 0 15 5t18 3t7 -16q0 -6 -12 -20t-22 -14q-12 0 -18 22q-6 20 12 20zM1214 1082q0 12 14 20t22 0t-1 -23t-21 -15q-4 0 -9 7t-5 11zM1116 1134q52 24 52 -6q0 -8 -10 -16t-20 -8q-18 0 -22 30zM288 1104v2q-2 2 -2 4q0 10 11 23t21 13q12 0 12 -22 q0 -14 -9 -21t-19 -7t-14 8zM1274 1154q6 38 20 38q20 0 20 -30q0 -22 -16 -38q-6 -4 -12 -4t-10 9t-2 25zM438 1138q-24 0 -24 30q0 28 22 28h4q2 -2 4 -2q12 -2 12 -26q0 -30 -18 -30zM526 1148q-10 10 -10 24q0 12 8 20t18 8q6 0 14 -4q8 -6 -2 -30t-20 -24q-2 0 -8 6z M1002 1160q-4 4 -4 12q0 12 7 23t17 11q2 0 10 -4q4 -2 4 -12t-9 -22t-17 -12q-4 0 -8 4zM670 1170q-2 4 -2 8q0 12 9 20t19 8q12 0 12 -12q0 -8 -2 -14q-8 -18 -20 -21t-16 11zM844 1192q-2 12 15 21t27 1q6 -6 6 -12q0 -10 -10 -18t-22 -8q-14 0 -16 16zM408 1264 q4 0 22 7t91 18t207 19q18 2 46 2q32 0 85 -7t111 -7h36h26q68 0 140 -8t110 -16l38 -6q36 0 101 -31t99 -79q38 -54 62 -158t30 -182l4 -76q0 -18 6 -24t15 -5t22 -9t23 -32q10 -24 10 -38q0 -16 -30 -54l14 -58q16 -64 16 -68q0 -10 -6 -22q-4 -12 -4 -14t-11 -13t-15 -11 q-6 0 -8 -69t-3 -149t-9 -100q-26 -60 -222 -60q-24 0 -65 1t-55 1q-46 0 -64 -6q-14 -4 -128 -9t-227 -9t-117 -4q-96 -16 -278 -16q-264 0 -296 66q-24 48 -37 113t-18 116t-9 59q-10 24 -10 98v24t1 20t2 15t2 12t2 8t1 5v2q0 6 -30 24t-36 42q-12 36 -12 44q0 28 24 46 q20 16 37 26t24 12t11 5t4 9q0 4 -1 14t-3 28t-2 38q0 18 -5 65t-5 73q0 152 118 258q30 26 72 44t64 22t30 4zM622 1264q-8 -2 -43 -4t-78 -9t-87 -21q-4 0 -38 -6t-63 -19t-55 -41q-38 -38 -55 -63t-22 -35t-11 -49t-12 -61v-16q0 -232 28 -232h10q8 -2 21 -5t28 -5t33 -3 t32 -1q20 0 28 2q20 4 60 4q34 0 61 2t35 2q2 0 50 -4q56 -6 108 -6q58 0 136 9t102 9q4 0 13 -1t13 -1q20 -2 84 -2q46 0 108 2t119 4t107 4t82 4l30 2q66 -6 104 -6q36 0 36 4q0 6 -5 63t-13 123t-16 76q-2 4 -2 14q0 30 -18 60q-8 12 -8 14q0 20 -36 66t-64 56l-8 4 q0 20 -155 43t-235 23h-6q-12 0 -33 -1t-29 -1q-58 0 -127 6t-97 6q-54 0 -112 -10zM1598 684q-46 0 -106 5t-90 5q-62 0 -130 -12q-10 -2 -32 -2q-16 0 -50 3t-48 3q-4 0 -12 -1t-10 -1q-62 -8 -118 -8q-30 0 -75 2t-59 2q-32 0 -54 -6q-30 -10 -136 -10q-46 0 -139 2 t-129 2q-64 0 -78 -4q-6 -2 -30 -2t-76 3t-66 3q-18 0 -20 -2l-8 -2q-8 -2 -17 -5t-18 -9t-15 -14t-6 -18q0 -8 2 -12q20 -76 244 -76q32 0 78 1t58 1h16q56 -4 82 -4q48 0 118 5t92 5t50 -4q20 -4 42 -4q42 0 168 14t178 14q102 0 198 5t142 9l44 6q26 0 45 17t19 39 q0 20 -14 34q-16 16 -40 16zM1646 488q-2 6 -4 24t-7 28t-13 10q-2 0 -10 -4q-14 -8 -255 -16t-243 -8l-4 -4q0 -2 13 -15t30 -41t25 -66q8 -50 27 -82t37 -32q12 0 26 24q2 4 14 77t48 83l24 6q28 0 45 -24t26 -49t17 -25q2 0 2 1t2 1q6 2 16 43t48 45h4q20 0 60 -22 t54 -22q12 0 20 8t8 18q0 12 -10 42zM574 500q-48 6 -92 6q-36 0 -98 -4t-94 -4q-62 0 -120 10h-10q-12 0 -15 -12t-3 -56q0 -100 24 -112q4 -2 12 -2q28 0 58 82q16 44 46 44q22 0 46 -21t30 -43q18 -64 44 -64q18 0 55 48t53 48q30 0 57 -34t51 -67t44 -33q40 0 48 99 t34 111q18 8 8 12h-6q-10 0 -70 -4t-86 -4h-16zM908 440q2 12 9 36t7 28v2q-2 0 -4 -2q-4 -4 -40 -4h-36q-24 0 -26 -2q36 -84 70 -84q12 0 15 4t5 22zM1142 386q-18 106 -108 106q-10 0 -25 -2t-21 -2q-30 -2 -38 -19t-11 -43t-17 -38q-16 -12 -36 -12q-50 0 -78 56 q-16 34 -36 34q-22 0 -28 -31t-3 -69t-15 -72t-64 -40h-6q-36 0 -83 63t-61 63q-12 0 -24 -20q-36 -74 -82 -74t-76 78q-6 18 -20 34t-26 16t-20 -22q-18 -52 -38 -77t-33 -25t-21 -4t-8 -20q0 -4 4 -32l6 -42q8 -54 17 -81t36 -56t84 -41t149 -12q30 0 106 4q796 44 850 44 h104q64 16 79 28t15 54v68q0 66 4 112q2 14 2 36q0 28 -7 35t-24 9t-29 12q-20 18 -54 30q-12 -12 -14 -40t-16 -38q-22 -16 -44 -16q-18 0 -28 10l-8 22q-10 24 -22 45t-26 21q-8 0 -14 -6q-10 -8 -16 -39t-9 -63t-23 -57t-54 -25q-14 0 -27 6t-22 18t-15 24t-11 28t-8 26 t-5 22z" />
<glyph unicode="v" horiz-adv-x="1628" d="M344 1268q-34 -8 -70 -22l-46 -22q-76 -30 -76 -66l4 -18q4 4 33 26t75 53t80 49zM706 322q0 -12 -30 -43t-85 -60t-109 -29q-68 0 -124 48q-8 6 -17 13t-15 11t-11 9t-8 9t-3 6q0 18 12 18q20 0 72 -46q34 -30 102 -30q108 0 174 88q18 22 26 22q4 0 10 -6t6 -10z M336 526q30 -28 30 -62q0 -26 -6 -52t-33 -53t-69 -27q-18 0 -28 2q-26 4 -48 20t-22 24q0 2 -3 8t-6 15t-3 19q0 22 14 44q54 80 118 80q38 0 56 -18zM290 368q18 8 31 33t13 49q0 58 -60 58h-12q-34 -4 -56 -31t-22 -55q0 -38 42 -54q18 -6 36 -6q16 0 28 6zM636 502 q14 44 74 44q44 0 82 -23t38 -55q0 -46 -23 -73t-39 -30t-30 -3h-6q-102 0 -102 94zM728 394q28 0 44 19t16 45t-15 45t-41 19q-12 0 -18 -2q-46 -10 -46 -66q0 -24 16 -42t44 -18zM414 552q30 16 41 91t27 75q6 0 10 -2q10 -4 10 -8q0 -2 -4 -9t-8 -24t-6 -43q0 -14 -6 -34 t-12 -34l-6 -14q0 -8 29 -28t29 -34q0 -4 -6 -14q-8 -12 -14 -12t-29 26t-47 30q-22 2 -22 18q0 8 14 16zM728 716q4 -8 4 -14q0 -14 -12 -28t-24 -14q-24 0 -24 28q0 18 9 35t21 17q14 0 26 -24zM274 668q-10 -16 -24 -16q-16 0 -31 17t-15 35q0 32 38 32q12 0 24 -16 t12 -34q0 -12 -4 -18zM556 1296q18 -4 76 -4q24 0 78 1t78 1q56 0 82 -6q30 -8 86 -8q24 0 82 2t90 2q96 0 156 -18q4 -2 74 -15t100 -29l38 -20q92 -48 92 -264q0 -52 -5 -110t-12 -103t-7 -55q-2 -32 -5 -53t-3 -27q0 -14 -8 -91t-8 -93v-34q0 -70 -14 -141t-26 -95 q-14 -28 -32 -49t-44 -35t-44 -22t-55 -12t-55 -6t-66 -4t-66 -2l-22 2h-42q-32 0 -46 -2q-30 -6 -374 -6q-270 0 -348 14q-74 16 -128 75t-83 146t-42 178t-13 193q0 74 12 182q8 56 8 182q20 200 90 250q130 86 300 86q50 0 106 -10zM222 1062q236 174 246 180q14 6 14 14 q0 20 -44 20q-16 0 -24 -2q-2 0 -2 -1t-2 -1q-2 -6 -11 -10t-33 -14t-52 -26q-34 -20 -176 -132q-34 -26 -34 -70q0 -30 14 -30q2 0 16 8t16 8l34 28q36 28 38 28zM792 1262q-24 0 -24 -14q0 -8 -8 -15t-38 -29t-60 -48q-126 -108 -134 -118q-4 -6 6 -24t14 -20q8 -4 40 24 l34 28l86 76l76 70q64 54 64 58q0 12 -56 12zM596 1246q0 8 -38 8q-40 0 -46 -22q-6 -16 -16 -16t-65 -37t-113 -81t-106 -82l-50 -38q-20 -16 -16 -22q18 -26 52 -52h2q8 0 26 25t32 51l14 24q0 12 13 28t25 16q4 0 8 -4t8 -4q8 0 19 9t40 35t57 48q28 24 30 24l8 6 q8 6 17 13t11 9l58 38q30 18 30 24zM698 1222q32 24 26 32q-4 0 -8 -2t-16 -2q-8 0 -21 1t-19 1q-18 0 -18 -12q0 -6 -24 -20t-65 -39t-69 -53q-142 -112 -142 -124q0 -8 50 -50q4 -4 8 -4q16 0 49 64t47 64q4 0 6 -2q4 -2 8 -2q8 0 82 60l34 32q44 36 72 56zM1160 1246 q0 4 -26 4q-16 0 -49 -2t-35 -2q-14 -16 -20 -21t-9 -5t-16 -8t-37 -28l-36 -36q-8 -8 -27 -23t-39 -31l-40 -36q-18 -14 -48 -44t-30 -34q20 -52 38 -52q6 0 12 8q22 40 45 69t35 55q18 36 34 36q8 0 16 -13t20 -9q20 10 60 44l82 70q70 56 70 58zM990 1244q-22 2 -44 2 h-40q-8 -8 -25 -18t-48 -35t-81 -73q-12 -12 -23 -20t-17 -12t-9 -7t-3 -7l18 -40q6 -14 16 -14q8 0 19 9t41 37t58 52q8 6 29 27t46 43t49 38q18 14 14 18zM970 804l28 26q28 26 30 26q6 0 11 2t14 10t21 18t36 31t52 43l28 24q62 48 105 81t56 43t23 18t22 20q24 24 38 24 q10 0 10 -10q0 -16 -18 -28q-242 -188 -298 -238l-68 -58q-14 -12 -30 -28t-24 -22t-18 -6h-4q-12 0 -14 -4t0 -24q2 -70 16 -70q8 0 42 30l34 30q56 46 187 140t209 158l32 30q10 8 18 13t11 7l6 4t4 4t1 6q0 24 -60 65t-100 41q-8 0 -38 -20t-66 -48t-38 -30l-58 -42 q-36 -28 -120 -103t-88 -79v-6q0 -78 8 -78zM1342 816q46 36 50 36q2 0 24 17t54 40t52 35q24 14 28 21t4 23v12q0 58 -20 58q-6 0 -10 -2l-60 -52q-60 -52 -92 -66q-6 -2 -10 -6t-6 -7t-4 -3t-15 -11t-29 -24t-22 -17l-62 -42l-36 -28q-38 -28 -81 -62t-55 -46 q-12 -24 -2 -26q14 0 34 -7t22 -7q6 0 6 4l4 6q2 0 91 63t93 63l12 8q12 6 14 6l6 6q8 8 10 8zM932 866q-8 154 -30 154q-2 0 -4 -2q-4 -6 -14 -16t-24 -29t-30 -53q-26 -52 -40 -52q-8 0 -34 38t-48 74l-22 38q-2 2 -10 -10q-6 -12 -12 -20l-28 -42q-6 -8 -11 -18t-9 -16 t-7 -12l-5 -10t-5 -7t-5 -4t-4 -1q-6 0 -58 76q-12 16 -21 32t-13 22t-8 6q-6 0 -24 -28q-12 -18 -24 -43t-19 -38t-15 -13l-16 16l-32 28q-50 46 -50 52q0 8 -8 4q-6 -2 -12 -14q-12 -24 -41 -74t-39 -50q-2 0 -55 57t-55 57q-14 -4 -14 -392v-46q0 -132 31 -230t72 -147 t95 -77t86 -34t60 -6h10q40 0 305 4t267 6q8 8 8 166q0 116 -12 162q-4 14 -4 68q14 14 46 18t58 44q10 16 10 44q0 78 -82 78q-26 0 -51 -5t-27 -5q-12 0 -12 42q0 10 -7 100t-7 108zM634 1014q-2 0 -32 -25t-30 -31q0 -4 6 -13t12 -7q4 2 25 35t21 37zM1386 710q4 0 23 17 t23 17l110 74q10 10 10 76q0 26 -6 26l-152 -96q-262 -188 -262 -196l30 -80q2 0 112 81t112 81zM1518 676h2q18 0 18 76q0 22 -2 22q-18 0 -160 -103t-184 -143q-24 -22 -30 -22t-19 -17t-37 -39t-50 -32q-12 -4 -13 -7t1 -21q4 -26 10 -26q4 0 13 6t30 22t41 30l56 38 l80 56q48 32 111 77t92 64t39 19h2zM1522 576q0 12 2 32t2 24q0 12 -4 12q-2 0 -25 -16t-29 -16q-4 0 -48 -32l-40 -30q-48 -34 -83 -56t-46 -29t-19 -12t-18 -15q-132 -102 -154 -102h-10q6 -72 14 -72q4 0 16 9t36 26t52 31t112 71t156 107l72 50q14 6 14 18zM1058 150 q102 74 108 74q2 0 84 49t167 100t89 57q6 12 6 60q0 26 -6 26l-262 -172l-76 -52q-18 -12 -35 -23t-24 -17t-13 -10t-10 -5t-7 -2t-7 -1q-10 0 -12 -3t-2 -17q0 -18 -2 -30q-2 -34 2 -34zM1358 212q2 0 19 12t46 30t57 28q20 8 22 10q4 4 4 52q0 36 -2 38q0 2 -5 2h-9 t-4 -2t-10 -8t-14 -6t-23 -13t-58 -38t-79 -47l-72 -38q-180 -120 -180 -144q0 -28 4 -34t18 -6q4 0 144 82t142 82zM1490 222q2 8 2 16q0 16 -26 4q-24 -8 -101 -56t-141 -92l-66 -44q0 -6 60 -6q84 0 86 18q2 12 13 19t39 24t60 45q46 36 58 36t16 36zM1458 134q0 4 -4 4 q-6 0 -29 -17t-41 -33l-20 -18q0 -4 8 -4q40 0 68 40q18 26 18 28zM958 928q50 48 252 206l86 70q12 8 12 14q0 2 -5 4t-17 4t-20 6q-24 10 -36 10q-10 0 -20 -4t-16 -8t-21 -16t-23 -18q-78 -52 -124 -101t-80 -61q0 -16 5 -55t7 -51z" />
<glyph unicode="w" horiz-adv-x="1772" d="M170 864q-6 28 -6 54q0 62 40 107t102 65t113 28t97 8h24q88 -6 136 -6q22 0 52 1t38 1q36 0 56 -10q30 -14 70 -14q32 0 179 -37t179 -55q62 -34 62 -98q0 -58 -53 -116t-129 -82q-150 -48 -160 -48q-4 0 -10 6t-38 6q-14 0 -57 -2t-67 -2t-60 4q-12 2 -42 2t-71 5 t-93 19l-126 24q-20 0 -60 14t-70 28l-30 14q-36 14 -51 31t-25 53zM1128 1008l-204 50q-40 0 -93 13t-139 15q-52 2 -110 5t-78 3q-54 0 -128 -18l-12 -4q-14 -2 -29 -6t-35 -12t-37 -20t-33 -27t-25 -38t-9 -49q0 -20 6 -42t10 -22q2 0 11 15t35 39t64 40q26 10 75 22 t85 20l36 6l10 2q10 0 27 1t37 2t47 2t51 1q116 0 176 -18q4 0 54 -12t89 -27t65 -35q50 -40 72 -77t24 -52t6 -15t14 6q24 12 56 52t32 78t-38 60q-68 42 -112 42zM768 952q0 2 -6 2l-4 -4q6 -4 10 2zM506 922l-2 -2q2 0 2 2zM980 920q-28 8 -28 4q0 -2 2 -6q6 -14 26 -14 q12 0 18 2t2 6t-20 8zM410 870q0 4 3 15t-1 13l-4 4q-8 0 -8 -38q0 -12 2 -12t4 6q4 8 4 12zM1074 860q8 4 -20 20q-14 10 -16 6q-4 -6 12 -17t24 -9zM1096 836q8 0 2 6t-10 2q-4 -8 8 -8zM252 818q14 -6 14 -2q2 10 -16 18q-6 2 -8 -2q-2 -8 10 -14zM594 806q-2 2 -5 2 t-5 -4l-2 -20h2q4 2 8 11t2 11zM1138 750q8 8 -8 28q-4 8 -6 2q-10 -32 -8 -34t11 0t11 4zM602 730q-2 4 -6 -2q-6 -6 4 -6q6 0 2 8zM1058 720q2 2 -2 4q-12 2 -40 -10q-12 6 -21 7t-13 0t-4 -3t8 -8t12 -6q8 0 33 7t27 9zM780 708q0 2 -3 3t-5 -1t4 -6q4 -2 4 4zM176 1142 q92 76 500 76q176 0 246 -16q12 -2 41 -6t47 -8l48 -12q38 -8 64 -16t34 -10t12 -2q2 0 18 -4l42 -12q106 -26 168 -110t62 -166q0 -18 -2 -28q-4 -16 1 -24t5 -16q0 -12 8 -12q12 0 83 18t103 18t44 -16q8 -8 16 -39t8 -43q0 -2 2 -18t4 -39t2 -47q0 -30 -2 -46 q-4 -30 -8 -96t-9 -100t-16 -77t-35 -62t-60 -19q-2 0 -8 1t-10 1q-66 10 -98 10q-18 0 -38 -2t-22 -2q-10 0 -14 6q-6 10 1 18t19 8q2 0 13 1t31 3t40 2q16 0 56 -4q14 -2 38 -2q20 0 30 7t14 17t10 40t14 54q22 76 22 218q0 166 -26 188q-4 4 -20 4q-34 0 -99 -14t-73 -20 q-20 -12 -20 -36l8 -32h2q2 0 44 6t68 6q56 0 56 -28q0 -4 -1 -7t-1 -5q0 -4 2 -28t5 -66t3 -86l2 -90q-8 -24 -13 -33t-26 -20t-59 -13q-72 -8 -94 -8q-32 0 -34 10l-2 4q-2 0 -12 -57t-34 -125t-60 -90q-44 -26 -116 -35t-157 -10t-119 -7q-36 -6 -262 -6q-152 0 -168 6 l-26 2q-24 4 -59 10t-74 14t-74 21t-51 29q-14 10 -35 27t-61 69t-48 104q-2 18 -9 43t-7 33l-6 26q-4 24 -4 40v14q6 48 6 130v88q0 56 2 64q8 32 8 76q0 28 4 76t34 144t82 138zM856 1178q-10 0 -111 4t-155 4q-70 0 -88 -6q-8 -2 -95 -6t-163 -32t-104 -98 q-68 -170 -68 -494q0 -250 50 -342q52 -92 140 -126t282 -58q32 -4 92 -4l246 6q38 0 182 12t166 16q14 2 35 7t55 33t34 70q0 2 40 216t40 272v14q-4 32 -4 109t-12 133t-46 94q-56 60 -106 82t-204 58q-32 8 -50 12q-100 24 -156 24zM1610 596q0 8 -1 18t-1 15t-1 10t-2 8 t-4 5t-6 3t-9 1q-14 0 -78 -10q-20 -2 -29 -6t-12 -12t-3 -17t-1 -28t-7 -37l-36 -208q26 -2 58 -2q136 0 136 42v102q0 72 -4 116z" />
<glyph unicode="x" horiz-adv-x="1558" d="M734 1348q10 0 28 -1t28 -1q42 0 119 3t109 3q66 0 112 -8q20 -4 79 -9t97 -11t81 -35t61 -77q56 -142 56 -432q0 -34 -1 -98t-1 -94q0 -136 12 -200q6 -36 6 -74q0 -108 -49 -193t-123 -93q-282 -28 -312 -28q-14 0 -37 2t-87 5t-172 3q-68 0 -140 2t-80 2h-20t-15 -3 t-10 -4t-6 -8t-4 -10t-3 -15t-4 -18q-14 -54 -55 -97t-77 -43q-16 0 -24 8q-12 12 -12 28q0 8 3 33t3 41q0 30 -10 56q-4 10 -5 21t-4 14t-17 5q-76 10 -106 42q-14 14 -35 49t-21 43q0 4 -11 35t-22 94t-13 145q-2 48 -7 88t-5 72q0 12 3 48t3 62v54v106q0 72 10 118 q2 4 6 37t11 66t13 43q2 4 12 28t24 45t34 31q2 2 20 14t35 23t50 24t69 17q304 44 370 44q12 0 22 -1t12 -1zM840 1314q-10 -2 -38 -2q-18 0 -65 2t-73 2q-86 0 -126 -16q-4 -2 -76 -11t-148 -25t-96 -32q-12 -10 -33 -26t-30 -26t-24 -43t-31 -87q-2 -4 -2 -14 q0 -12 -11 -92t-11 -118v-14v-36q0 -24 -1 -87t-1 -95q0 -64 4 -82q0 -2 3 -55t7 -105t20 -119t42 -107q2 -2 7 -12t9 -15t14 -14t21 -14t31 -9t46 -6q18 -2 23 -2t10 -5t4 -10t2 -23t7 -38q8 -32 8 -60q0 -18 -5 -36t-5 -20t6 -6h2q10 0 28 10t41 42t35 78q22 78 44 78 q2 0 10 -4q4 -2 71 -7t182 -9t221 -4q342 0 422 40q100 48 100 238l-12 128q0 4 -1 16t-2 38t-1 64v50q0 20 1 60t1 56q0 158 -11 270t-21 144l-10 34q0 6 -9 26t-36 45t-63 31q-64 16 -86 16q-4 0 -49 6t-113 12t-128 6q-56 0 -104 -6z" />
<glyph unicode="y" horiz-adv-x="1622" d="M328 -352q0 26 27 44t57 18q26 0 44 -12t18 -34q0 -30 -23 -46t-53 -16q-28 0 -49 13t-21 33zM436 -346q0 6 -11 13t-25 7q-16 0 -32 -10q-10 -6 10 -16q6 -4 12 -6t16 -2q30 0 30 14zM396 -150q0 24 32 47t74 23q18 0 26 -2t21 -4t19 -3t15 -4t12 -5l9 -6t8 -10t4 -14 t3 -17t1 -23q0 -22 -3 -32t-29 -22t-78 -12h-10h-42q-30 14 -38 21t-8 16t-6 17q-10 16 -10 30zM518 -126h-4q-4 0 -17 5t-21 5q-18 0 -38 -20q-8 -8 -8 -12q0 -16 22 -33t66 -17q12 0 44 4q24 6 24 26q0 16 -14 31t-34 15q-8 0 -20 -4zM660 126q16 0 35 -24t19 -46 q0 -40 -27 -67t-75 -27q-10 0 -34 4q-8 2 -44 7t-52 10t-34 25t-18 54q0 30 2 34q8 16 60 32t98 16q32 0 52 -10q12 -8 18 -8zM608 90q-20 16 -56 16t-63 -12t-27 -32q0 -12 4 -20t8 -13t16 -9t20 -5t28 -5t32 -6q32 -4 40 -4q68 0 68 48q0 42 -60 42h-10zM174 1394 q178 114 456 114q90 0 240 -13t200 -13h32q6 0 20 1t20 1q128 0 235 -46t133 -92q74 -172 74 -424q0 -44 -12 -156q-8 -62 -8 -152t-9 -154t-39 -126q-16 -32 -34 -54t-45 -32t-40 -14t-53 -6t-50 -4q-742 12 -848 20q-80 6 -144 24t-98 38t-56 40t-28 34l-6 12q0 2 -1 4 t-2 5t-4 7t-6 11t-8 21t-11 32t-15 46t-17 62q-10 50 -10 328q0 194 14 228l4 24q4 24 11 54t19 64t35 66t51 50zM212 1384q-84 -62 -112 -167t-28 -309q0 -64 4 -256l2 -54l8 -36q12 -46 27 -83t26 -62t36 -45t36 -31t46 -22t47 -14t58 -11t60 -12l850 -26q30 8 78 8 q64 0 103 33t54 96t20 123t8 145t9 131q8 48 8 116q0 54 -6 111t-10 85l-6 30q-26 176 -72 214q-56 48 -157 76t-187 28q-6 0 -16 -1t-14 -1h-30q-38 0 -191 10t-247 10q-290 0 -404 -86z" />
<glyph unicode="z" horiz-adv-x="1544" d="M1280 -92q0 -12 20 -85t20 -91q0 -22 -10 -22q-8 0 -21 9t-33 25t-32 24q-60 40 -112 78t-85 63t-58 45t-37 30l-10 8q-6 0 -38 32q-134 10 -257 15t-179 7t-107 4t-77 18t-51 38t-65 74q-108 136 -108 456v96v34v50l6 54q8 132 33 211t47 98t54 28t36 13q6 4 35 12t41 8 q14 0 86 8t194 8q156 0 618 -24l88 -4q28 -2 48 -4t30 -4t15 -5t7 -4t4 -1q22 0 41 -26t30 -66t19 -77t13 -73t5 -38q8 -34 8 -196q0 -58 -1 -174t-1 -158q0 -70 2 -84q0 -2 3 -34t3 -60q0 -158 -104 -194q-28 -8 -98 -8q-40 0 -40 -14q0 -4 1 -12t3 -22t4 -26q0 -4 5 -19 t5 -21zM148 1148q-48 -46 -60 -150l-4 -44q-10 -86 -10 -232l6 -248q0 -84 39 -171t75 -131t50 -54q44 -26 146 -33t235 -8t201 -9q14 -2 32 -2q8 0 17 1t11 1q14 0 48 -34q32 -34 116 -96t152 -108l68 -46q2 2 -7 56t-23 113t-22 69q-10 10 -2 23t32 13h22q134 0 168 35 t34 179q0 30 -2 129t-2 173v125v101l-2 40l-4 42q-6 58 -13 103t-11 76t-18 53t-18 34t-24 21t-24 11t-32 7t-32 5q-334 34 -646 34q-410 0 -496 -78z" />
<glyph unicode="{" horiz-adv-x="1548" d="M1042 312q18 -120 18 -206t-24 -86q-2 0 -27 -6t-35 -6h-4l-2 2l-4 2h-10q-8 0 -81 -4t-125 -4q-146 0 -216 26q-28 10 -28 142q0 96 8 136q8 32 30 54t42 28l18 6q8 0 38 24t30 30q0 10 -42 10q-60 0 -119 -35t-81 -121q-14 -56 -14 -118q0 -32 4 -75t4 -51 q0 -12 -2 -16q-8 -16 -70 -16q-140 0 -216 84q-20 24 -20 26t-14 41t-16 65q0 4 -12 83t-22 189t-10 206q0 188 40 292l14 36q30 74 137 121t181 47q18 0 26 -4q4 -2 6 -49t24 -128t72 -155q86 -120 130 -120q6 0 8 2q6 6 6 18q0 22 -12 52t-26 40l-10 8q0 2 -12 10t-28 23 t-34 38t-31 64t-15 91q0 4 -2 22t-2 30q0 60 44 76h8q10 0 27 1t37 2t46 1h50q168 0 226 -6q70 -6 83 -11t13 -27q0 -122 -16 -198t-34 -97t-37 -40t-21 -39q-2 -8 -2 -20q0 -14 8 -14q4 0 20 6t24 8q110 20 110 258v104q0 40 2 54t26 14q8 0 34 -2t42 -2q62 0 104 -17 t104 -67q56 -42 73 -113t17 -206t4 -183q2 -18 2 -46q0 -10 -2 -48t-2 -82q0 -60 6 -204v-18q0 -52 -18 -106q-8 -24 -53 -68t-85 -50q-50 -8 -74 -13t-27 -7t-21 -4t-66 -4h-14q-18 0 -24 7t-6 27q0 116 -7 199t-13 122t-25 72t-22 34t-27 21q-22 18 -36 18q-12 0 -12 -26 q0 -42 24 -80q40 -62 40 -74z" />
<glyph unicode="|" d="M212 1120q-14 0 -63 -47t-49 -81q0 -10 -4 -25t-2 -20t16 -7q18 -2 66 -2q76 0 233 11t173 11q4 14 40 91t36 87q0 2 -2 2t-12 9t-18 7q-12 -2 -46 -2q-24 0 -88 3t-98 3q-112 0 -166 -32zM1406 928q-18 36 -35 58t-59 57t-121 62t-191 43q-30 6 -84 6q-140 0 -140 -8 q-4 -6 75 -98t93 -102q110 -4 208 -10t149 -10t71 -4q28 0 34 6zM1426 710q0 32 -5 92t-15 58q-12 -8 -24 -20l-208 -194q-80 -80 -80 -84l234 -356q2 -2 7 -10t10 -13t11 -5q20 0 46 60q36 78 36 246q0 32 -1 67t-3 62t-4 48t-3 34t-1 15zM258 702q-150 130 -176 130 q-6 0 -6 -84q0 -112 9 -280t17 -192q24 -84 38 -84q6 0 41 53t78 120t65 91q86 114 86 126zM742 426l-62 -34q-62 -34 -126 -68t-72 -34q-4 0 -17 -8t-61 -34t-122 -60q-84 -38 -84 -44q0 -8 26 -22q12 -6 73 -19t67 -13q8 0 168 -19t164 -21q36 -12 88 -12q28 0 50 1t32 3 t14 2q2 0 6 -2t6 -2q46 -10 100 -10q96 0 196 22t114 46q4 8 -4 8q-6 0 -267 160t-289 160zM60 954q0 62 63 142t209 96h64q652 0 672 -10l12 -2q14 -4 33 -10t46 -14t56 -19t59 -25t57 -32t49 -38t38 -45t20 -51q8 -48 15 -139t12 -188t7 -117q0 -6 1 -18t1 -16 q0 -44 -20 -164q-14 -84 -75 -169t-123 -101q-128 -34 -254 -34q-30 0 -90 2t-94 2q-52 0 -85 2t-44 6t-20 6t-17 2q-24 0 -227 29t-233 47q-54 32 -78 55t-46 96t-24 199q0 32 -2 85t-2 75q0 116 3 192t7 98t7 36t3 22z" />
<glyph unicode="}" horiz-adv-x="1532" d="M524 638v14q0 38 8 57t50 45t130 60q12 6 44 6q64 0 122 -31t68 -99q8 -28 8 -56q0 -78 -74 -98q-32 -10 -90 -10l-116 10q-12 0 -40 11t-50 21l-22 12q-14 12 -38 58zM602 360q14 0 62 -10t208 -10q50 0 83 2t57 7t33 8t29 15t30 16q48 24 66 71t21 114t9 89 q12 42 12 84q0 90 -34 158q-8 12 -27 27t-27 15q-2 0 -56 14t-76 14q-10 0 -20 4t-40 15t-76 21l-42 8q-78 22 -108 22q-22 0 -50 -6q-18 -4 -63 -8t-81 -11t-75 -24t-66 -56t-35 -101q-10 -66 -10 -150q0 -144 20 -198q16 -46 51 -69t86 -33t65 -18q16 -10 54 -10zM48 448 q0 46 -4 76t-4 36q0 20 46 312q10 42 18 128t36 162q10 26 74 68t112 42l110 8q108 10 168 10q34 0 62 -4l330 -28h28q86 0 155 -9t113 -27t76 -35t50 -41t27 -38t15 -36l6 -20q14 -32 14 -44q16 -116 16 -260q0 -130 -22 -266l-4 -20t-3 -14l-2 -8t-1 -5v-3 q-26 -206 -78 -308q-8 -18 -13 -26t-34 -28t-85 -46q-82 -36 -178 -36q-38 0 -98 6t-80 6q-262 10 -427 40t-255 89t-124 131t-44 188z" />
<glyph unicode="~" horiz-adv-x="1510" d="M1186 1266q46 0 123 -29t117 -77q46 -56 46 -240q0 -222 -62 -324q-50 -74 -116 -102q-20 -8 -109 -20t-165 -12h-14l-86 2q-14 0 -36 1t-28 1q-12 0 -24 -2h-2q-8 -8 -8 -50q0 -92 18 -176l10 -52q4 -18 8 -34t8 -29t6 -19l10 -38q6 -24 6 -40q0 -22 -13 -27t-55 -5h-50 q-108 0 -116 8q-6 6 -6 12t9 29t13 41l6 34q8 38 8 118q0 130 -10 210q-2 32 -5 37t-23 5q-404 8 -472 60q-20 16 -50 58t-44 84l-14 38q-26 76 -26 178q0 36 3 74t6 68t7 55t8 41l2 14q0 56 102 104t188 48h18q36 0 108 1t106 1q384 0 598 -46zM772 480q-4 0 -28 5t-32 5 q-6 0 -6 -2q-2 -2 -2 -16q0 -8 6 -87t6 -137q0 -104 -18 -184q-4 -20 -4 -24q0 -10 24 -10h56q74 0 74 10q0 2 -30 131t-30 231q0 6 1 19t1 19q2 26 0 33t-18 7z" />
<glyph unicode="&#x2000;" horiz-adv-x="943" />
<glyph unicode="&#x2001;" horiz-adv-x="1886" />
<glyph unicode="&#x2002;" horiz-adv-x="943" />
<glyph unicode="&#x2003;" horiz-adv-x="1886" />
<glyph unicode="&#x2004;" horiz-adv-x="628" />
<glyph unicode="&#x2005;" horiz-adv-x="471" />
<glyph unicode="&#x2006;" horiz-adv-x="314" />
<glyph unicode="&#x2007;" horiz-adv-x="314" />
<glyph unicode="&#x2008;" horiz-adv-x="235" />
<glyph unicode="&#x2009;" horiz-adv-x="377" />
<glyph unicode="&#x200a;" horiz-adv-x="104" />
<glyph unicode="&#x202f;" horiz-adv-x="377" />
<glyph unicode="&#x205f;" horiz-adv-x="471" />
</font>
</defs>
</svg>
