<?xml version="1.0" standalone="no"?>
<!DOCTYPE svg PUBLIC "-//W3C//DTD SVG 1.1//EN" "http://www.w3.org/Graphics/SVG/1.1/DTD/svg11.dtd" >
<svg xmlns="http://www.w3.org/2000/svg">
<metadata></metadata>
<defs>
<font id="RougeBold" horiz-adv-x="911" >
<font-face units-per-em="2048" ascent="1638" descent="-410" />
<missing-glyph horiz-adv-x="1044" />
<glyph unicode="&#xfb01;" horiz-adv-x="1499" d="M139 885q10 60 56 55q7 -1 23 -3.5t21 -2.5t14.5 1.5t13.5 7t9 16t9 26.5q14 54 14 244q0 74 55 98q26 10 60 2q52 -6 123 0q22 5 70 -0.5t71 0.5q50 8 70 0q81 -15 81 -65q0 -11 -15.5 -29.5t-41.5 -22.5q-22 -2 -59 5.5t-56 7.5q-46 6 -69.5 5.5t-68.5 -4t-70 -3.5 q-18 0 -27.5 -14.5t-10.5 -38t1 -45t6 -42.5q5 -35 -4 -94q-16 -53 24 -53q14 0 39.5 -1.5t49.5 -1.5t51 3q19 4 41.5 -14t21.5 -48q-3 -26 -15 -35.5t-40 -9.5h-99q-33 0 -56 -14.5t-23 -42.5q0 -29 -5 -95t-4 -104q19 -176 19 -358q0 -22 -2 -74.5t-1 -92t7 -77.5 q16 -104 0 -219q-14 -92 -4 -211q6 -88 6 -223q0 -40 -19.5 -72t-52.5 -32q-57 0 -67 34q-4 41 -3 59t8.5 67t8.5 63q4 45 4 141q-10 79 -10 184q0 164 6 244q4 39 4 73.5t-2 73t-2 62.5q0 41 2 138t2.5 161t-5 147.5t-19.5 143.5q-3 11 -5.5 15.5t-19 10t-49.5 5.5 q-30 0 -48 13.5t-18 35.5zM1030 1368q0 34 19.5 70.5t66.5 48.5q29 5 73 -32t44 -66q0 -40 -17 -68.5t-47 -32.5q-61 -7 -100 20t-39 60zM1061 829q-4 49 18 80t45 31q29 0 54 -25t16 -84q-8 -35 -8 -94q0 -30 5.5 -123t2.5 -145q-9 -104 -4 -195q9 -113 0 -188 q0 -20 5 -61.5t5 -65.5q0 -48 -23.5 -76t-52.5 -28q-22 0 -35.5 28.5t-13.5 75.5q0 53 6 176q7 84 0 137q-12 172 -12 334q0 164 -8 223z" />
<glyph unicode="&#xfb02;" horiz-adv-x="1531" d="M139 885q10 60 56 55q7 -1 23 -3.5t21 -2.5t14.5 1.5t13.5 7t9 16t9 26.5q14 54 14 244q0 74 55 98q26 10 60 2q52 -6 123 0q22 5 70 -0.5t71 0.5q50 8 70 0q81 -15 81 -65q0 -11 -15.5 -29.5t-41.5 -22.5q-22 -2 -59 5.5t-56 7.5q-46 6 -69.5 5.5t-68.5 -4t-70 -3.5 q-18 0 -27.5 -14.5t-10.5 -38t1 -45t6 -42.5q5 -35 -4 -94q-16 -53 24 -53q14 0 39.5 -1.5t49.5 -1.5t51 3q19 4 41.5 -14t21.5 -48q-3 -26 -15 -35.5t-40 -9.5h-99q-33 0 -56 -14.5t-23 -42.5q0 -29 -5 -95t-4 -104q19 -176 19 -358q0 -22 -2 -74.5t-1 -92t7 -77.5 q16 -104 0 -219q-14 -92 -4 -211q6 -88 6 -223q0 -40 -19.5 -72t-52.5 -32q-57 0 -67 34q-4 41 -3 59t8.5 67t8.5 63q4 45 4 141q-10 79 -10 184q0 164 6 244q4 39 4 73.5t-2 73t-2 62.5q0 41 2 138t2.5 161t-5 147.5t-19.5 143.5q-3 11 -5.5 15.5t-19 10t-49.5 5.5 q-30 0 -48 13.5t-18 35.5zM1083 31q-4 83 7 233q1 21 6 70t6 71.5t-2 75.5q-15 165 -15 578q-3 48 1 137t4 123q0 20 4 117.5t2 169t-13 104.5q-10 40 12.5 58t57.5 18t51.5 -42t9.5 -122q-3 -76 0 -154q8 -113 0 -165q-14 -84 -14 -199q0 -14 -4 -135t2 -138q6 -49 7 -110 t-0.5 -101t-5.5 -118.5t-5 -108.5q-2 -40 -2 -86t1 -105t1 -93q0 -55 8 -85t16 -36t21 -6q17 0 54 2t55 2q19 0 32 -2t28.5 -8.5t22.5 -23.5t3 -42q-4 -29 -24.5 -43t-45.5 -6q-63 24 -107 24h-24q-13 0 -28.5 -20t-30.5 -25q-39 -14 -64 3.5t-25 66.5q0 72 -2 121z" />
<glyph horiz-adv-x="0" />
<glyph horiz-adv-x="2048" />
<glyph unicode=" "  horiz-adv-x="1044" />
<glyph unicode="&#x09;" horiz-adv-x="1044" />
<glyph unicode="&#xa0;" horiz-adv-x="1044" />
<glyph unicode="!" horiz-adv-x="835" d="M317 -100q0 39 41 51q73 23 95 4q69 -58 69 -100q0 -31 -28 -57.5t-56 -26.5q-66 0 -95 36t-26 93zM352 1229q-7 63 19 101t51 38q13 0 22.5 -2t21 -8t18 -19.5t11.5 -34.5t4 -55.5t-7 -79.5q-9 -60 0 -149q6 -67 -4.5 -201.5t-10.5 -175.5q0 -27 2 -80t2 -80v-278 q0 -80 -49 -94q-39 -9 -51.5 5.5t-15.5 67.5q0 53 4 76q12 52 -4 143q-11 60 -11 179q0 110 4 163q0 13 2 69t2 116q0 199 -10 299z" />
<glyph unicode="&#x22;" horiz-adv-x="845" d="M225 1073q-14 37 7.5 59.5t62.5 22.5q40 0 57 -30t10 -85q-18 -148 -18 -243q0 -94 10 -154q16 -48 -7.5 -84.5t-53.5 -36.5q-36 0 -51.5 13t-15 37.5t5.5 59.5q1 7 1 11q7 32 0 88q-4 34 -4 71.5t2 84.5t2 74q0 9 0.5 28t0.5 30t-2 26.5t-7 27.5zM487 696q-7 7 -1 87 t6 112q-2 13 5 66.5t1 68.5t-6 43q0 25 21 40t48 15q25 0 41 -21.5t21 -55.5q3 -26 3.5 -34t-2.5 -36.5t-3 -36.5q-9 -52 -9 -278q0 -172 -65 -172q-30 0 -39.5 20t-9.5 68q0 69 -11 114z" />
<glyph unicode="#" horiz-adv-x="1144" d="M238 254q0 21 18 39t57 14l29 -4q15 -2 24 -0.5t12.5 10t4.5 12t1 16.5l-1 13q0 12 3.5 36.5t2 38.5t-11.5 20q-6 6 -27.5 6t-36.5 -6q-27 -8 -49 6t-26 43q-3 26 13.5 44.5t41.5 18.5q8 0 33 -4t47 -4q9 0 14.5 12t5.5 21q0 1 -2 11t-2 24q0 5 -1 16t-1.5 18.5t1 16.5 t5.5 14.5t13 9.5t22 4q25 0 41 -20t12 -57q-4 -34 -4.5 -36.5t4.5 -23.5q3 -5 8 -5.5t14 2t13 3.5q10 2 18 1.5t18 -2t11 -1.5q11 0 17.5 2.5t8.5 9.5t1.5 13.5t-1.5 20.5t-1 24v6.5v8.5v9t0.5 10t1.5 10t2.5 10t3.5 9t5 8t6.5 6t8.5 5q35 14 54 -8t12 -74 q-7 -11 -4.5 -40.5t24.5 -29.5q6 -6 46.5 -2t48.5 4q56 0 73 -35q10 -20 -2 -49.5t-47 -29.5q-14 0 -49 5.5t-59 2.5q-17 -7 -17 -39q0 -64 11 -101q5 -9 79 -14q20 0 56 6q69 12 69 -55q0 -45 -59 -45q-9 0 -23 3t-18 3q-12 0 -34.5 2t-40.5 2t-34 -4q-12 -7 -12 -55 q-2 -22 2 -59.5t4 -51.5q0 -27 -18.5 -45t-34.5 -18q-22 0 -34 13.5t-14.5 28.5t-2.5 38q0 24 2 48.5t2 36.5t-4 23q-10 25 -29 25h-61q-21 0 -21 -21q11 -67 6 -112q-3 -18 -5 -25.5t-8.5 -19t-18.5 -14.5t-31 -1q-27 3 -35.5 20t-5.5 58q4 25 4 90q0 5 0.5 13t0.5 11 t-1 7.5t-3.5 6t-7 2.5t-11.5 1q-12 0 -27 -6q-3 -1 -11 -3.5t-12.5 -4t-13 -1.5t-16.5 3q-47 5 -47 51zM492 319q0 -6 1.5 -11t4.5 -8t6 -4.5t9 -2t9 -0.5h10.5h10.5h9.5h10t8.5 1t8.5 3.5t6.5 7.5t6 12q4 17 4 105q0 26 -16.5 38.5t-40.5 12.5q-11 0 -26.5 -4.5t-18.5 -9.5 q-9 -17 -9.5 -38.5t3.5 -52.5t4 -49z" />
<glyph unicode="$" horiz-adv-x="880" d="M260 -53q0 33 23 54t55 15q14 -2 35 -2q24 -4 39 2.5t26.5 18t20.5 14.5q35 12 35 105q0 44 -30 93t-71 72q-66 36 -97.5 82t-31.5 121q0 14 5.5 32.5t11 30.5t15 30t11.5 22q33 60 55 88q24 28 28.5 53t-1.5 53q-4 54 15 83.5t42 29.5q11 0 24 -4t27.5 -23t10.5 -51 q-2 -9 -2 -19t1 -22.5t1 -19.5h39q59 0 59 -53q0 -30 -21.5 -50.5t-52.5 -25.5q-12 -41 -98 -45q-31 -45 -31 -94q0 -68 39 -99q72 -57 125.5 -142.5t53.5 -145.5q0 -52 -54 -136q-11 -22 -75 -88q-15 -11 -11 -26q6 -43 6 -115q0 -102 -65 -102q-44 0 -49 77q0 10 5.5 49.5 t0.5 65.5q-2 16 -45 16q-29 0 -51.5 13t-22.5 43z" />
<glyph unicode="%" horiz-adv-x="1521" d="M205 608q2 36 35.5 90.5t85.5 98t96 43.5q27 0 56 -12t42.5 -21.5t48 -37.5t39.5 -32q44 -34 66.5 -103.5t7.5 -125.5q-13 -38 -30 -65.5t-46 -53t-76.5 -38.5t-111.5 -13q-46 0 -82 25t-88 83q-47 45 -43 162zM324 557q5 -27 9 -39.5t16 -31t36 -26t61 -7.5 q114 0 121 86q4 75 -54.5 126.5t-115.5 51.5q-30 0 -57 -47.5t-16 -112.5zM459 10q6 22 15 41t15.5 29t21 29.5t21.5 29.5q8 10 32.5 41.5t35.5 46t28 41t29 51.5q53 92 80 127q57 75 158 250q32 57 51 101q55 94 92 94q41 0 53.5 -20.5t12.5 -55.5q0 -16 -7.5 -31 t-15 -23.5t-26.5 -29.5q-51 -51 -115 -160q-17 -24 -51 -85t-58 -93q-45 -53 -59 -90q-29 -71 -90 -153q-57 -76 -74 -144q-6 -29 -14 -46t-22 -24t-25 -8.5t-35 -1.5q-28 0 -44.5 28t-8.5 56zM852 154q-4 32 -0.5 57t18.5 50t24 36t36 41q84 94 200 94q43 0 109.5 -55.5 t73.5 -108.5q19 -116 -48 -209.5t-169 -93.5q-103 0 -168 55t-76 134zM979 203q0 -69 21.5 -99t68.5 -30q54 0 87.5 35t33.5 129q0 33 -22.5 56t-49.5 23q-51 0 -95 -29t-44 -85z" />
<glyph unicode="&#x26;" horiz-adv-x="1079" d="M238 240q2 56 22 97.5t84 115.5q15 17 15.5 34t-5.5 27.5t-24.5 31.5t-26.5 32q-67 88 -59 233q9 166 202 262q38 19 56 37q20 20 65 20q22 0 44 -19t22 -32q0 -28 -22.5 -43.5t-62.5 -25.5t-50 -15q-20 -7 -49 -35.5t-46 -54.5q-38 -56 -26 -157q8 -68 23.5 -101 t66.5 -84q50 -50 131 -37q16 1 20.5 12.5t2.5 39.5q-9 20 -9 65q0 29 25.5 46.5t48.5 17.5q51 0 51 -60q0 -12 -3 -40.5t-3 -49.5q0 -29 29 -29q6 0 17 2t20 2q25 5 84 5q35 0 59.5 -24.5t24.5 -49.5q4 -25 -22.5 -41.5t-61.5 -13.5q-5 0 -35 5t-64 5q-19 0 -27.5 -1.5 t-16 -10t-7.5 -27.5q0 -5 -1 -32t0 -45.5t5 -37.5q6 -104 -59 -104q-34 0 -50.5 16t-15.5 37.5t2 44.5q9 57 9 100q0 29 -8 40t-25 14q-59 6 -66 10q-36 -33 -88 -49q-32 -12 -45 -50t-20 -108q-5 -56 10.5 -101.5t48.5 -62.5q5 -2 60 -33.5t90 -31.5q46 0 67 -21.5 t21 -40.5q0 -26 -23 -46.5t-57 -20.5q-31 0 -58.5 10t-65 31.5t-50.5 27.5q-96 56 -139.5 140t-34.5 174z" />
<glyph unicode="'" horiz-adv-x="587" d="M223 1073q-6 28 11 49t49 21q59 0 74.5 -36t7.5 -112q-3 -47 -3 -86q0 -159 -8 -209q-4 -83 4 -114q18 -58 2 -87.5t-61 -29.5q-34 0 -48.5 27t-6.5 77q0 20 -5.5 67.5t-5.5 76.5q0 22 -2 62t-2 74t4 67q6 62 -10 153z" />
<glyph unicode="(" horiz-adv-x="806" d="M188 502q-6 123 18.5 232.5t78.5 240.5q72 177 149 268q108 120 148 146q30 28 49.5 40.5t40.5 12.5q28 0 41.5 -18.5t13.5 -37.5q0 -11 -2 -20t-3.5 -14t-8.5 -10t-9 -6.5t-12.5 -6.5t-13.5 -6q-21 -11 -57 -41q-14 -12 -38 -29t-39.5 -29.5t-21.5 -23.5 q-18 -27 -34 -55.5t-33.5 -65t-25.5 -54t-27.5 -63.5t-22.5 -53q-54 -115 -60 -301q0 -52 -6 -110q-10 -146 60 -355q68 -205 120.5 -290t139.5 -146q67 -46 67 -84q0 -21 -14 -36t-39 -15q-37 0 -110 61q-66 62 -156.5 193t-116.5 237q-52 194 -65 288q-10 76 -11 151z" />
<glyph unicode=")" horiz-adv-x="806" d="M80 -373q0 10 1 17.5t4 13.5t5 9.5t8 7.5t8.5 5.5t11 5.5t11.5 5q21 11 57 41q14 12 38 29t39.5 29.5t21.5 23.5q15 23 30 49.5t26 47t25 51.5t21 47t21.5 50t19.5 45q53 113 59 302q0 42 7 110q10 146 -60 354q-68 205 -120.5 290.5t-139.5 146.5q-68 47 -68 84 q0 21 14.5 36t39.5 15q36 0 110 -62q66 -62 156.5 -193t116.5 -237q26 -97 36.5 -139.5t24 -130t14.5 -168.5q6 -123 -18 -233t-78 -240q-72 -177 -149 -268q-108 -120 -148 -146q-30 -28 -49.5 -40.5t-40.5 -12.5q-28 0 -41.5 18t-13.5 37z" />
<glyph unicode="*" horiz-adv-x="1079" d="M293 989q7 19 33 29.5t43 5.5q14 -4 27 -13t26.5 -20.5t19.5 -15.5l31 -21q6 -6 14.5 -6.5t14.5 6.5q6 9 6.5 23t-2.5 40.5t-4 43.5q-3 22 17.5 42.5t43.5 20.5q25 0 40 -22.5t9 -52.5q0 -3 -2 -12.5t-3 -16.5t-2.5 -17t-1.5 -17.5t0.5 -15t4 -11t8.5 -3.5q10 0 34 14 t50 40q19 18 48.5 14t37.5 -25q5 -16 2 -28.5t-10 -20t-22 -16.5q-15 -11 -35.5 -22t-24.5 -13l-4.5 -2.5t-8.5 -4.5t-10 -6t-11 -7.5t-10.5 -8t-8.5 -9t-5 -8.5t-1.5 -8.5t4.5 -8.5q17 -18 28 -28t32.5 -27t39.5 -33q20 -13 11 -48q-9 -38 -60 -38q-10 0 -19 2t-17.5 7.5 t-13.5 9t-13 13t-11 13t-11.5 16t-10.5 14.5q-13 23 -39 45q-10 19 -39 -10q-11 -11 -33 -37.5t-39 -42.5q-2 -1 -6.5 -5.5t-7 -6t-7 -4t-10 -3.5t-12.5 -1q-21 0 -35 13t-16 26q-13 39 45 84q3 3 16 11.5t21 15t15.5 15t6 16t-13.5 13.5q-11 6 -44.5 24t-59.5 32 q-24 14 -37.5 33t-7.5 34z" />
<glyph unicode="+" d="M150 387q0 25 29 42t79 17q36 0 76 -8q5 -1 17 -3t17 -3t13.5 -0.5t15.5 2.5q4 2 7 5.5t5 8.5t3 10t1.5 12t0.5 10.5v10v7.5q0 17 -1 53.5t-1 54.5q-3 30 14.5 55t46.5 25q23 0 41 -20t18 -50l-5 -35q-5 -35 -5 -89v-6.5v-8v-9t0.5 -9t1.5 -8.5t2 -8.5t3 -7.5t4.5 -6 t6 -3.5t7.5 -1.5q14 0 46 5t54 5q13 0 24.5 -1.5t31.5 -5.5t28 -5q31 -8 31 -53q0 -48 -51 -56q-18 0 -57.5 5.5t-65.5 5.5h-7t-7 0.5t-7 0.5t-6.5 -0.5t-5.5 -1t-5 -1.5t-3 -3q-6 -3 -9.5 -8t-7 -17t-4.5 -15q-3 -16 -1 -30t5.5 -49t1.5 -67q0 -26 -17 -41.5t-48 -15.5 q-14 0 -25.5 7t-18.5 19t-11 27.5t-4 34.5q0 8 4 53.5t1.5 73.5t-16.5 33q-7 2 -31.5 0.5t-31.5 3.5q-14 4 -29 4.5t-43 -1t-49 -1.5q-27 0 -45 15.5t-18 41.5z" />
<glyph unicode="," horiz-adv-x="712" d="M233 100q0 48 30.5 76.5t115.5 28.5q44 0 77 -68t21 -106q-26 -74 -90 -181q-44 -65 -74 -65q-49 0 -49 51q0 46 39 66q9 6 19.5 19t14.5 28.5t-9 25.5q-35 21 -64 50q-31 36 -31 75z" />
<glyph unicode="-" horiz-adv-x="1079" d="M219 324q-5 27 14 48t50 21q29 0 78.5 -7t72.5 -7q20 0 60 8q6 0 30 3t32 2.5t36 -3.5q74 -15 178 -2q85 4 90 -53q4 -36 -7.5 -51t-41.5 -15q-11 0 -37 3t-47 3q-26 0 -84.5 4.5t-95.5 4.5q-21 0 -75 -5.5t-95 -5.5q-8 0 -22 0.5t-26 0.5t-22 -1q-33 -3 -58 14t-30 38z " />
<glyph unicode="." horiz-adv-x="720" d="M238 70q0 41 39.5 74.5t84.5 33.5q38 0 81.5 -47t43.5 -106q0 -33 -35 -66t-69 -33q-26 0 -41 1t-34.5 6.5t-33.5 18.5t-24 34q-19 47 -12 84z" />
<glyph unicode="/" horiz-adv-x="1044" d="M-145 -588q23 64 86 150q61 90 122 205q0 1 22 40t30 60q2 5 14 33t15.5 36.5t14.5 31.5t18 36t18.5 31.5t23.5 34.5q52 58 117 190t78 154q34 55 99 180t108 197q68 121 75 135q11 22 34 65t42 81t35 77q12 31 48 84.5t50 83.5q18 39 50.5 107t43.5 98q18 46 41 77.5 t42.5 42.5t38 15t28.5 -4q34 -15 43 -52t-14 -63q-15 -17 -31.5 -35t-21.5 -23.5t-9.5 -14.5t-5.5 -21q-3 -20 -15 -45t-41 -71t-34 -54q-70 -95 -115 -205q-25 -57 -100 -192q-68 -125 -164 -289q-163 -270 -244 -438q-122 -238 -174 -314q-57 -84 -112 -198 q-9 -21 -31 -57t-31 -54q-11 -20 -23.5 -45.5t-25 -53.5t-18.5 -40q-10 -27 -42.5 -48t-54.5 -8q-22 12 -30.5 33.5t0.5 46.5z" />
<glyph unicode="0" horiz-adv-x="1247" d="M219 354q0 25 19 103q16 84 44 133.5t97 99.5q50 39 130 67.5t128 28.5q59 0 134 -34t149 -101q106 -98 106 -309q0 -108 -139 -268q-40 -52 -145 -83.5t-203 -31.5q-32 0 -57.5 20.5t-28.5 61.5q-234 119 -234 313zM334 328q0 -51 63 -140q12 -19 23.5 -20.5t22 14.5 t16.5 29.5t14 36.5q14 41 51.5 117.5t61.5 117.5q0 1 8 15q88 164 37 164q-76 0 -143.5 -36t-98.5 -75q-17 -21 -36 -91t-19 -132zM557 133q-4 -13 16 -30t39 -17q44 0 91.5 15t76.5 38q19 14 32.5 31.5t32.5 48.5t25 39q11 19 14 46.5t3 92.5q0 112 -56 174q-17 19 -32 21 t-27 -14t-19 -30.5t-16 -39.5q-11 -41 -51 -111q-1 -2 -13.5 -21t-17.5 -28.5t-16.5 -33t-22.5 -50.5q-6 -18 -28 -61t-31 -70z" />
<glyph unicode="1" horiz-adv-x="1239" d="M205 41q0 40 27.5 57.5t76.5 10.5q100 -16 172 2q14 3 44.5 3t47.5 7q43 18 43 43q0 60 2.5 116t2.5 82q0 118 10 189q1 15 0 28t-2.5 20.5t-1.5 8.5q0 25 -5.5 38.5t-15.5 10.5q-25 -4 -104 0q-11 0 -39 -3t-49 -3q-36 -4 -63.5 12t-20.5 58q3 20 28.5 35.5t63.5 15.5 q22 0 70 -5t69 -5q19 0 55 8q58 5 84 0q35 -8 57 -38.5t13 -63.5q-3 -11 -15 -48.5t-14 -58.5q0 -11 -2 -33t-2 -34q-3 -59 0 -115q7 -55 -2 -166q-18 -104 13 -104q14 0 49.5 -0.5t55 -0.5t48.5 1.5t53 5.5q65 8 90 4q74 -21 74 -64q0 -22 -16 -43t-47 -26q-33 0 -39 -0.5 t-35.5 3.5t-34.5 5q-38 5 -112 5.5t-109 4.5q-84 5 -164 -4q-28 -2 -108.5 -0.5t-108.5 -5.5q-66 -11 -76 -8q-25 6 -44 24t-19 31z" />
<glyph unicode="2" horiz-adv-x="999" d="M250 16q0 24 19 41.5t44 26.5l31 14q14 12 43 41q60 54 95 92.5t46 71.5q8 19 12.5 42.5t6 39.5t2.5 44t2 40q5 72 -29.5 135.5t-99.5 91.5q-38 14 -59.5 31.5t-28.5 48.5q-4 33 10.5 50.5t48.5 23.5q18 3 33.5 -5.5t41.5 -30.5t44 -34q87 -61 131 -169t33 -212 q-10 -81 -56.5 -161t-111.5 -134q-12 -10 -10 -20t20 -10h45q93 5 113 2q74 0 104 10q35 10 60.5 -11t25.5 -55q0 -33 -22.5 -51t-42.5 -18q-15 0 -44 2t-44 2q-38 3 -120.5 -0.5t-123.5 0.5q-12 0 -34.5 1.5t-42 1.5t-38.5 -3q-12 -4 -51 -4q-21 0 -37 20.5t-16 44.5z" />
<glyph unicode="3" horiz-adv-x="901" d="M184 692q0 23 30 41.5t65 11.5q53 -17 184 -10q26 0 53 6q79 9 105 4q31 -6 51 -30.5t20 -59.5q0 -23 -9.5 -36.5t-31.5 -26.5q-38 -30 -89.5 -105.5t-84.5 -109.5q-14 -14 -4 -33q18 -25 53 -70q7 -11 17 -23t26 -30t23 -26q90 -111 90 -279q0 -58 -9 -104t-22.5 -79.5 t-44.5 -72t-58 -65.5t-81 -76q-26 -24 -43 -38t-57 -31t-82 -17q-24 0 -46.5 19.5t-19.5 49.5q1 18 13.5 30t25 16.5t37 10.5t33.5 9q42 10 82 43t63 70q78 97 78 219q0 116 -49 200q-11 13 -64 88q-7 8 -27.5 30.5t-31.5 39.5q-34 8 -50.5 32.5t-9.5 57.5q5 16 14.5 32 t22 30t25.5 26.5t27.5 27.5t23.5 28q6 7 12 17.5t11 19.5t16.5 30.5t20.5 38.5q1 13 1.5 20t-14.5 10.5t-24 4t-27 0.5q-30 0 -84 -6t-84 -6q-76 0 -76 71z" />
<glyph unicode="4" horiz-adv-x="1163" d="M143 342q0 29 90 86q30 23 88 75t93 79q31 25 94.5 82.5t99.5 87.5q39 31 49 43q1 1 7.5 7t8 7.5t7.5 6.5t8.5 7l7.5 6t8.5 5.5t8 4.5t8 4t8 2t8.5 1q44 0 56.5 -27.5t7.5 -91.5q-7 -90 -5.5 -137.5t4 -78t1.5 -38.5q0 -7 -1 -20.5t-1 -21.5t2 -17.5t9.5 -15.5t20.5 -9 q24 -3 67 3.5t63 6.5q64 0 77 -47q4 -20 -4.5 -33.5t-26.5 -19.5t-34.5 -8t-36.5 -2q-86 0 -115 -6q-13 -4 -19 -14.5t-6.5 -18.5t-0.5 -27q1 -20 1 -42t-0.5 -48t-0.5 -39q0 -154 2 -170q10 -56 8 -84q-7 -71 -53 -84q-37 -12 -57 15.5t-27 74.5q-2 15 8 78v107 q-3 66 -2 96t4.5 61t3.5 45q-5 42 -55 52q-125 30 -213 14q-32 -6 -98 -10.5t-78 -5.5q-95 -16 -95 59zM424 403q67 9 94 -4q43 -17 123 0q12 4 18.5 8.5t8 7t4.5 9.5q13 61 15.5 116.5t-1.5 84t-10 30.5q-9 3 -18.5 -3t-20.5 -16t-16 -13q-48 -24 -91 -60.5t-98 -93.5 q-43 -39 -35 -58q4 -10 27 -8z" />
<glyph unicode="5" horiz-adv-x="909" d="M184 -522q24 84 115 90q43 6 104.5 61.5t100.5 112.5q74 116 74 192q0 83 -32 163t-89 143q-95 100 -185 133q-34 14 -34 59q0 15 5 46t5 50q0 12 -2 31t-2 29q-9 78 4 129q2 14 23 28.5t46 14.5q38 0 105 -23q20 -5 86 0q40 8 70 8q51 0 76 -29.5t12 -64.5 q-7 -22 -28 -33.5t-42 -11.5q-17 0 -48 10.5t-46 10.5q-38 0 -113 -6q-7 -3 -10 -7.5t-6.5 -28t-3.5 -67.5q0 -46 65 -76q52 -31 123 -114q5 -7 26 -38t26.5 -40t22 -36.5t23 -44t16.5 -43t15.5 -54t9.5 -58.5q7 -69 -12.5 -147.5t-56.5 -134.5q-67 -108 -174 -195 q-37 -37 -45 -43q-64 -46 -98.5 -63t-69.5 -17q-29 0 -45 20.5t-11 43.5z" />
<glyph unicode="6" horiz-adv-x="1267" d="M219 352q0 317 262 428q29 10 50.5 105.5t21.5 134.5q-1 65 24.5 95.5t65.5 19.5q34 -10 42 -52.5t-9 -72.5q-16 -23 -25 -80q0 -9 -2.5 -20.5t-6.5 -25t-5 -18.5q-16 -57 -4 -78.5t74 -39.5q108 -27 153 -70q77 -66 125.5 -132.5t58.5 -146.5q16 -132 -122 -270 q-37 -34 -59.5 -52.5t-59.5 -44t-73 -36.5t-73 -10q-142 6 -229.5 42.5t-138.5 104.5q-70 98 -70 219zM358 383q0 -117 54 -199q14 -25 75 -45t109 -20q46 0 71 2t58.5 10.5t61.5 28.5t59 53q43 49 54 85.5t11 90.5q0 35 -2 52t-15.5 43.5t-41.5 58.5q-18 24 -76.5 59 t-83.5 35q-10 0 -36 -0.5t-41.5 0t-37.5 1t-40.5 3t-34.5 6.5q-68 -27 -98 -63.5t-42 -89.5q-13 -43 -4 -111z" />
<glyph unicode="7" horiz-adv-x="1089" d="M199 700q0 27 16.5 39.5t52.5 12.5q2 0 125 -7q168 0 250 -8q20 0 66.5 11t72.5 8q50 -7 82 -25q28 -15 46 -40t12 -40q-3 -12 -11 -21t-16 -14t-19.5 -12.5t-19.5 -15.5q-41 -39 -80.5 -117.5t-85.5 -191.5q-77 -164 -129 -334q-8 -30 -57 -133q-9 -18 -38 -86t-67 -148 q-10 -22 -23.5 -35t-27.5 -17t-26.5 -3.5t-22.5 4.5q-51 20 -25 100q102 199 140 310q18 56 69 137q23 41 94 220.5t115 248.5q10 13 12.5 35t-7.5 40.5t-31 18.5q-7 0 -38 5.5t-46 0.5q-25 -8 -55 -11.5t-48.5 -3t-54.5 2.5t-45 2q-3 6 -47.5 2t-57.5 -4q-38 0 -56.5 20 t-18.5 49z" />
<glyph unicode="8" horiz-adv-x="1095" d="M223 840q0 68 11 110.5t45 75.5q81 81 153 117q56 22 111 20q50 -5 92 -22.5t58.5 -30.5t41.5 -37q50 -64 73.5 -98t46 -87t22.5 -102q0 -50 -16 -94t-39.5 -72t-44 -45t-36.5 -24q-16 -9 -22.5 -18t-3.5 -18t9 -16t17 -18q22 -22 37 -48.5t31 -68.5t22 -55 q25 -49 25 -125q0 -42 -17 -80t-63 -84q-35 -44 -76 -73q-33 -19 -113.5 -30t-144.5 7q-60 21 -105 55t-54 56q-2 6 -10.5 26t-11.5 28.5t-9.5 27t-9.5 31.5t-6.5 31.5t-5 38t-1.5 40.5q0 88 113 205q13 17 17.5 24.5t4.5 22.5t-12 33q-3 3 -16 16.5t-26 27.5t-21 21 q-13 15 -24 32.5t-17.5 31t-11.5 33.5l-7.5 30t-4 31t-1.5 26.5v26v21.5zM358 846q0 -117 29.5 -173t116.5 -75q41 -9 88 3t76 36q41 25 59.5 68t13.5 90q-12 85 -69 170q-43 73 -129 84q-112 16 -170 -78q-15 -30 -15 -125zM369 272q0 -105 28 -163q17 -32 42.5 -55.5 t54.5 -24.5q78 -11 178 45q31 17 47 57.5t16 83.5q0 60 -28 116.5t-76 86.5q-15 12 -47 16t-33 4q-9 1 -21 -1.5t-20 -5t-24 -9.5t-19 -8q-56 -22 -77 -55.5t-21 -86.5z" />
<glyph unicode="9" horiz-adv-x="1277" d="M223 414q15 134 115 227q70 67 148.5 111.5t144.5 44.5q102 0 254 -86q69 -40 121.5 -138.5t48.5 -183.5q-8 -88 -48 -174.5t-108 -155.5q-19 -18 -59 -42t-54 -35q-63 -48 -69 -101q-5 -69 -21 -170q-5 -43 -21 -66.5t-52 -23.5q-35 0 -51 17.5t-19 54.5q-3 25 1.5 53.5 t10.5 48.5t21 62q15 85 -39 104l-31 10q-30 10 -57 25q-81 42 -139 116t-62 148q-46 72 -35 154zM373 348q13 -55 30.5 -96.5t29.5 -58.5t34 -43q25 -26 39 -38.5t40.5 -25t55.5 -12.5q14 0 34.5 7.5t36.5 6.5t34 -18q23 8 41.5 16.5t31.5 15.5t25 19t18.5 19t15 24t12 25 t12.5 31t14 34q38 74 38 174q0 94 -135 193q-71 48 -94 34q-66 -26 -95 -23q-23 3 -38 19q-33 -6 -72.5 -36.5t-68.5 -75.5q-29 -38 -41 -98t2 -93z" />
<glyph unicode=":" horiz-adv-x="737" d="M238 668q5 50 50.5 96.5t98.5 46.5q34 0 75.5 -39t41.5 -72q0 -45 -36.5 -96t-74.5 -51q-68 0 -114.5 30.5t-40.5 84.5zM244 20q0 42 14.5 73t37.5 47t46 23t45 7q40 0 72.5 -28.5t32.5 -78.5q0 -23 -5.5 -44.5t-19.5 -43.5t-42 -35.5t-67 -13.5q-50 0 -82 32.5t-32 61.5 z" />
<glyph unicode=";" horiz-adv-x="735" d="M238 678q-3 71 34.5 102t135.5 31q29 0 54 -36t25 -75q0 -74 -51 -118.5t-123 -20.5q-30 9 -52.5 42.5t-22.5 74.5zM250 70q0 66 39.5 97.5t99.5 31.5q35 0 74 -45t39 -80q0 -65 -60 -148l-20 -30t-28 -41t-29 -35q-12 -18 -48.5 -28t-48.5 3q-14 20 -9.5 46.5t20.5 39.5 q68 60 24 80q-25 13 -39 44.5t-14 64.5z" />
<glyph unicode="&#x3c;" d="M272 354q0 18 13 38t32 32q16 9 33 24t28.5 27.5t32 36t31.5 35.5q12 12 37 44.5t25 35.5q13 14 19.5 20.5t23.5 13.5t39 7t36.5 -16.5t14.5 -39.5q0 -47 -55 -80q-13 -6 -24 -16t-25 -26t-21 -23q-17 -19 -29 -37.5t-20 -26.5q-3 -4 -16 -19.5t-19 -25.5 q-8 -10 -3.5 -27.5t21.5 -31.5q18 -20 33 -42.5t19 -27.5q9 -10 23.5 -27.5t22 -27t20 -22t24.5 -23.5q45 -31 45 -70q0 -35 -27 -50.5t-55 -4.5q-19 7 -40.5 35.5t-27.5 34.5q-6 5 -23 29.5t-32 39.5q-12 11 -36.5 45t-49.5 56q-70 55 -70 110z" />
<glyph unicode="=" d="M139 498q0 20 29.5 39t85.5 16q22 -1 81 -7.5t97 -6.5q40 0 115.5 11t120.5 11q102 0 102 -69q0 -16 -14.5 -33.5t-38.5 -20.5q-39 -3 -135.5 -1.5t-159.5 -2.5q-20 -1 -50 1.5t-38 2.5q-60 6 -115 -6q-35 -10 -57.5 10.5t-22.5 55.5zM154 254q0 28 30.5 47t94.5 12 q55 -6 124 -6q60 0 80 2q59 8 90 0q22 -4 35 -2.5t39 6t45 4.5q10 0 21 -4t21 -11t17.5 -18t8.5 -24q4 -27 -20 -44t-58 -17q-30 0 -73.5 -0.5t-65 -0.5t-48.5 1t-49 4q-77 3 -151 0q-14 0 -38.5 -2t-33.5 -2q-29 0 -49 14t-20 41z" />
<glyph unicode="&#x3e;" d="M274 651q0 56 74 56q12 0 22 -4t20 -16t13.5 -17t14.5 -23q14 -17 44 -60.5t56.5 -75.5t48.5 -48q70 -54 70 -101q0 -19 -13.5 -43t-31.5 -36q-72 -40 -125 -123q-7 -10 -32.5 -37t-35.5 -47q-8 -13 -14 -20t-19.5 -14t-31.5 -7q-20 0 -37.5 16.5t-17.5 34.5 q0 16 14.5 41.5t44.5 40.5q29 12 104 121q7 10 18.5 29t16.5 26q8 10 4 30t-18 34q-14 16 -22 27t-17 26l-12 20q-41 51 -93 97q-45 33 -45 73z" />
<glyph unicode="?" horiz-adv-x="944" d="M233 1298q0 26 23 40t61 14q14 0 34 -11.5t30 -20t37 -32.5q91 -78 165.5 -171.5t106.5 -170.5q7 -18 11 -35.5t5 -39t1.5 -35t0 -41t-0.5 -39.5q-7 -106 -80 -224q-44 -68 -86.5 -109t-106.5 -85q-3 -3 -11.5 -9t-11.5 -8.5t-10 -9t-7 -10.5t-3 -12.5t2 -14.5 q4 -18 4 -141q0 -64 -59 -74q-33 -6 -54.5 21t-15.5 70q2 13 2.5 46.5t3.5 53.5q-14 58 3 89t67 64q75 46 118 86.5t56 65t29 68.5q14 38 22.5 96.5t8.5 95.5q0 65 -30 140.5t-81 134.5q-32 47 -109 90q-84 48 -101 64q-24 23 -24 54zM244 -115q8 32 42 53t87 21 q25 -3 47 -36t22 -58q-3 -50 -49.5 -72.5t-75.5 -19.5q-39 5 -56 38.5t-17 69.5v4z" />
<glyph unicode="@" horiz-adv-x="1423" d="M233 383q0 75 18.5 136t41.5 93q63 85 127 143.5t153 94.5q79 29 213 24q47 -3 83 -10.5t78 -23.5t80.5 -47t72.5 -76q90 -115 90 -250q0 -97 -47 -174q-28 -44 -95.5 -68t-152.5 -10q-42 0 -64 -12q-50 -43 -110 -43q-158 0 -205 119q-9 25 -10 52t6 57.5t15.5 55 t23.5 60.5q9 25 30.5 43t47 27.5t46 13.5t36.5 4q11 0 22 -0.5t22 -2.5t19 -3.5t18.5 -5.5t16 -5.5t16 -6t13.5 -6t14 -6.5t12 -5q18 -13 30.5 -25.5t19 -28.5t9.5 -27t7 -32q14 -47 14 -76q0 -15 2.5 -25.5t7.5 -14.5t9.5 -6.5t13.5 0.5t14 4.5t15.5 7t13.5 6.5 q53 27 53 147q0 112 -53 174q-31 43 -96.5 75t-132.5 36q-98 4 -170.5 -21.5t-153.5 -87.5q-105 -82 -105 -260q0 -54 2 -88t14 -83t36 -81q20 -28 47 -54.5t63.5 -53t82.5 -44.5t93 -22q140 -10 250 45q14 5 32 4.5t33 -14t15 -37.5t-11 -36.5t-40 -26.5q-26 -12 -61 -21.5 t-71 -14t-65 -3.5q-157 11 -264 66.5t-190 152.5q-56 78 -75.5 143.5t-19.5 153.5zM621 362q-7 -36 16 -77q13 -35 55 -35q57 0 97 29.5t40 85.5q0 45 -22 94q-7 21 -20.5 28t-41 7t-51.5 -14.5t-38.5 -36.5t-23 -43t-11.5 -38z" />
<glyph unicode="A" horiz-adv-x="1978" d="M150 6q10 25 33.5 57t45.5 52q39 39 39 45q-6 37 27 73t74 39q96 143 149 209q154 191 283 334q27 32 180 229q28 40 59 29q24 -11 50 -74q49 -42 83 -85.5t46 -66t41 -81.5q46 -90 102 -170q49 -74 131 -164q34 -34 88 -94q114 -152 170 -244q88 -28 88 -90 q0 -18 -19 -44t-55 -26q-52 0 -79.5 29t-59.5 103q-11 27 -35.5 45t-54.5 18t-83.5 -7t-90.5 -7q-27 0 -83 2t-81 2q-30 0 -89 1t-89 1q-58 0 -170 -6t-168 -6q-17 0 -84.5 5t-118 3t-80.5 -17q-28 -12 -57 -45q-52 -57 -63 -75q-27 -42 -39 -51q-14 -9 -35 -9 q-29 0 -51.5 21t-3.5 65zM498 250q1 -12 13 -20t34.5 -11t37 -4t41.5 0h7q82 0 117 -6q216 29 370 29q34 0 122 -6.5t138 -2.5q5 0 17.5 -2t17.5 -2q37 0 44.5 29.5t-9.5 44.5q-22 26 -67 94.5t-68 98.5q-172 224 -223 333q-31 60 -74 62q-19 0 -45 -29t-78 -99 q-11 -15 -16 -22q-97 -140 -254 -325q-28 -36 -57 -67t-41.5 -44t-20 -26t-6.5 -25z" />
<glyph unicode="B" horiz-adv-x="1099" d="M303 -438q5 10 7.5 27.5t3 34.5t1.5 53t2 61q1 33 5 95.5t6 115.5t2 100q0 78 -8.5 238t-8.5 239q0 90 11 205q13 98 0 330q-2 35 -7 188q-11 248 62 248q69 0 136 -24t101 -76q47 -71 63 -166.5t-22 -140.5q-15 -15 -41 -52q-4 -8 -21 -30.5t-22 -38t0 -33.5 q27 -49 60 -70q63 -40 102 -100t76 -150q66 -147 66 -331q0 -119 -64.5 -260t-126.5 -203q-54 -54 -129 -141.5t-104 -108.5q-6 -18 -10.5 -28t-15 -28.5t-25 -28t-33.5 -9.5q-33 0 -56.5 26.5t-9.5 57.5zM424 1292q8 -28 8 -92q0 -11 -1 -35.5t-1 -39t2 -31.5t7 -25t14 -8 q46 0 70.5 43.5t27.5 144.5q0 42 -41 81.5t-78 27.5q-10 -4 -11.5 -27.5t3.5 -38.5zM438 51q0 -91 4 -114q7 -77 0 -150q-4 -19 7 -28.5t34 8.5q63 54 121.5 121.5t77.5 115.5q63 143 63 348q0 93 -22 180t-68 140q-3 4 -31.5 33t-37.5 40q-9 9 -23.5 26t-24.5 29 t-22.5 23.5t-23 15.5t-19.5 1q-7 -3 -11 -8.5t-6 -17.5t-1 -22.5t1 -35.5t1 -45q0 -40 -2 -118.5t-2 -115.5q0 -69 -7.5 -210t-7.5 -216z" />
<glyph unicode="C" horiz-adv-x="1013" d="M223 532q14 153 135 293q191 224 355 224q49 0 49 -58q0 -34 -33 -50t-98 -21q-191 -113 -252 -273q-25 -87 -25 -125q0 -117 19 -160q9 -26 24.5 -50.5t16.5 -26.5q2 -4 11.5 -21t12 -22t11 -20.5t12.5 -21t12 -19t13 -20t13.5 -17.5t15 -18.5t15 -16t17.5 -15.5 q36 -29 110 -55q3 -6 35 -2t43 4q28 0 54 -26t26 -56t-36.5 -39.5t-123.5 -9.5q-68 0 -149.5 51t-147.5 139q-54 72 -99.5 208t-35.5 224z" />
<glyph unicode="D" horiz-adv-x="1148" d="M299 -367q10 70 10 224q0 128 10 288q2 17 4.5 54t4.5 55q3 59 3 100t-1.5 68t-1.5 35q-4 55 -6 158.5t-5 150.5q-10 137 -10 203q0 28 3 95.5t3 109.5q0 56 31 75q58 34 102 -10q2 -2 9 -13t12 -14q89 -47 184 -139q91 -43 166 -199q30 -62 71.5 -200.5t41.5 -181.5 q0 -108 -29.5 -244.5t-69.5 -208.5q-38 -85 -104.5 -168.5t-173.5 -194.5q-40 -40 -60 -59t-51 -41t-49 -22q-19 0 -39 4.5t-40 23.5t-15 51zM428 70q0 -139 14 -265q2 -17 2 -39t2 -30q9 -49 137 114q55 70 117 160q45 67 73 184.5t28 243.5q0 43 -17 123.5t-39.5 153.5 t-37.5 100q-18 34 -47 67t-53 54t-75 63q-17 17 -40.5 28.5t-42.5 2.5q-3 -2 -5.5 -5t-4.5 -8t-3 -9t-1.5 -11.5t-1 -12t-1 -14t-0.5 -14.5q-4 -67 6 -159q8 -55 6.5 -153.5t1.5 -156.5q3 -81 -7.5 -219t-10.5 -198z" />
<glyph unicode="E" horiz-adv-x="1118" d="M100 492q0 21 13 35t31.5 18.5t38 5.5t32.5 -4q10 -3 22 -3.5t23 1.5t27.5 4t31.5 2q28 0 33 106q1 41 16.5 88t39.5 84q10 15 32.5 48.5t32.5 48.5q8 12 26 40.5t29 45.5t26.5 36.5t27.5 30.5q8 7 28.5 27.5t35 33t34.5 28t40.5 23t39.5 7.5q22 3 41.5 -8.5t27.5 -28.5 t0.5 -36t-32.5 -31q-35 -20 -62 -36.5t-47.5 -33.5t-32 -27t-25.5 -29.5t-18.5 -26t-19.5 -30.5q-25 -50 -39 -71q-46 -71 -72 -252q-1 -5 -3 -14.5t-3 -14t0 -10t5.5 -8t13.5 -2.5q49 -2 152 3t136 5q27 0 57.5 2t37.5 2q33 -3 65.5 -26t32.5 -42q0 -9 -8.5 -21.5t-24 -23 t-31.5 -10.5q-36 0 -102.5 7t-106.5 7q-91 3 -153 -3.5t-62 -24.5q0 -96 26.5 -210.5t57.5 -144.5q31 -40 84 -114q72 -96 97 -105q65 -29 65 -78q0 -22 -17 -40.5t-48 -18.5q-27 0 -67.5 35.5t-102.5 107.5q-156 178 -203 359q-29 114 -37 217q0 9 -25 24q-24 4 -36 3 t-38 -7.5t-40 -7.5q-103 0 -103 58z" />
<glyph unicode="F" horiz-adv-x="1110" d="M303 29q-5 23 -6.5 42t1 34t5 24t8 22t6.5 17q-6 63 -4.5 98t6.5 96t5 97q-6 221 -17 401q-4 51 4 146t8 129q0 95 138 63q31 -8 245 -8q12 0 35 7t39 7q55 -6 55 -80q0 -52 -141 -49q-29 0 -69 8q-87 7 -113 7q-45 0 -51 -5q-23 -13 -23 -65q2 -37 4 -126.5t4 -123.5 q4 -49 4 -108q0 -6 -8 -154q-2 -39 -5 -138.5t-5 -136.5q-3 -47 12.5 -73.5t46.5 -26.5q6 0 26 -6t40 -5q29 4 129 3q123 0 188 10q84 12 84 -61q0 -18 -29 -43t-48 -25q-12 0 -41 5t-50 5q-8 0 -37.5 3t-53.5 3.5t-62 -2.5q-34 -4 -76.5 -2.5t-62.5 4t-37 -1.5 q-5 -1 -8.5 -3.5t-5.5 -7.5t-3 -9t-1.5 -11t-0.5 -11.5v-13.5v-13q0 -20 -1 -54t-1 -64.5t2 -61.5q8 -140 8 -248q0 -143 -8 -209q-7 -43 -45 -49q-54 -1 -75 21t-11 57q12 45 18 99t6 90.5t-1.5 105.5t-1.5 100q0 168 -25 291z" />
<glyph unicode="G" horiz-adv-x="1034" d="M219 342q0 71 4 104q5 99 25.5 183.5t38 121.5t30.5 50q15 15 37 65q59 126 127 189q154 146 240 178q34 12 60 -1.5t30 -47.5q6 -47 -35 -70q-28 -15 -70 -34t-65 -30.5t-54.5 -34.5t-58.5 -54q-80 -89 -133.5 -249.5t-46.5 -332.5q6 -114 21 -215q13 -118 114 -205 q44 -47 71.5 -66.5t51.5 -15.5q25 7 25 25q0 10 1 37.5t1 31.5q0 34 -3 106t-3 113q0 24 5 70t5 68q6 75 39 75q36 0 48.5 -14t12.5 -45q0 -4 3.5 -24t4 -47t-3.5 -93q-1 -33 0 -61t3.5 -97.5t3.5 -115.5q2 -56 -0.5 -141.5t-2.5 -88.5q0 -30 2.5 -65.5t7.5 -84t7 -69.5 q13 -157 -49 -182q-25 -11 -41.5 3t-22 43.5t-8 67t1.5 74.5q6 61 0 125q0 7 -2.5 34.5t0.5 33.5q1 20 -24.5 42t-84.5 54q-81 41 -158 132.5t-114 189.5q-41 108 -41 268z" />
<glyph unicode="H" horiz-adv-x="1327" d="M299 1294q-2 42 2 68t15.5 38.5t25.5 16.5t37 4q13 0 25.5 -15.5t21 -47.5t8.5 -74q0 -11 1.5 -114t-1.5 -111q-2 -49 -2 -193q0 -121 2 -166q3 -52 3 -79.5t-2.5 -79.5t-2.5 -82q0 -12 1.5 -21.5t3 -16.5t5.5 -12.5t6.5 -9.5t8.5 -6t9 -3.5t11.5 -2t12 -0.5h14h14.5 q213 0 289 10q29 4 46.5 10t25.5 18t10 23t2 33q0 21 -3 56.5t-3 70.5q0 19 8 46t24.5 50t36.5 23q19 0 30 -6t16.5 -22t5.5 -44q0 -38 4 -63q3 -29 -1.5 -96t-4.5 -109q0 -120 10 -207q1 -14 5 -60.5t5 -62.5t3 -63t-1 -64q0 -20 -3 -40.5t-9.5 -43t-20 -37t-32.5 -14.5 q-26 0 -42 19t-22 49t-6 74q0 36 8 102q5 69 5.5 120.5t-11.5 84t-37 39.5q-9 3 -23 3.5t-34.5 -0.5t-26.5 -1q-18 0 -66 -2.5t-82 -3t-98 3.5q-66 4 -77 -25q-2 -8 -7 -27t-7.5 -34t-2.5 -29q0 -28 5 -89t5 -97q0 -39 -15.5 -54.5t-53.5 -11.5q-31 6 -43.5 41.5 t-12.5 108.5q0 13 2 30t5 41t4 37q0 145 -4 178q-1 14 -5 42.5t-7 53.5t-3 44q0 88 5 271.5t5 270.5q0 14 -10 131q-3 70 -10 129z" />
<glyph unicode="I" horiz-adv-x="1308" d="M225 -35q0 49 68 49q1 0 46.5 -2.5t87.5 -3.5t95 2q51 7 56 70q4 49 4 205q0 14 0.5 41t0.5 43.5t-1 39.5t-4 44q-2 31 -6.5 87.5t-6.5 96.5t-2 76q0 54 8 172q3 64 -14 71q-16 5 -22.5 5.5t-25.5 -3t-26 -4.5q-49 -3 -102 -3.5t-91 19.5t-32 60q3 43 107 43q9 0 31 -0.5 t34 -0.5t31.5 1.5t36.5 5.5q68 12 188 -4q35 -2 309 -2q18 0 27.5 -1t23 -5t21.5 -14t12 -27q7 -36 -15.5 -56t-57.5 -20q-24 0 -67.5 10.5t-64.5 10.5q-49 -2 -153 -2q-38 0 -25 -82q9 -52 0 -185q-7 -87 -4 -155q8 -110 8 -168q0 -12 -4 -100.5t-4 -192.5q0 -57 43 -57 q47 0 117 -9q35 -4 113 -4q44 0 74 -15t30 -42q0 -30 -36 -50.5t-97 -8.5q-92 24 -141 24q-35 0 -141 -12.5t-167 -5.5q-18 0 -51 1t-60.5 1t-51.5 -2q-48 -4 -73.5 11.5t-25.5 47.5z" />
<glyph unicode="J" horiz-adv-x="1128" d="M154 1128q17 83 174 37q38 -10 198 -10q92 0 170.5 5t155.5 5q18 2 61 2t62 2q34 3 57 -16t23 -35q0 -42 -56 -49q-22 -4 -60.5 -8t-53.5 -6q-38 -11 -150 0q-23 3 -33 -11t-10 -38q0 -22 4 -126.5t0 -134.5q0 -25 -4.5 -66.5t-6 -67t4.5 -74.5q6 -43 6 -138 q0 -36 -3 -136.5t-3 -176.5q-7 -137 -59 -307.5t-127 -235.5q-6 -6 -23 -27.5t-33.5 -32.5t-39.5 -11q-37 0 -51 24t-5 51q7 18 44 49.5t42 36.5q35 35 70.5 117.5t48.5 169.5q16 112 16 223q0 137 -6 205q-7 90 0 150q11 101 11 153q0 41 -11 180q-4 56 4 164q1 44 -55 56 q-21 4 -82 8q-12 0 -46.5 1t-58 0.5t-46.5 -5.5q-67 -14 -102 8t-27 65z" />
<glyph unicode="K" horiz-adv-x="1048" d="M283 1358q0 7 -1 29.5t-0.5 39.5t3.5 31q6 33 28 58.5t45 25.5q56 0 69 -33.5t5 -115.5q-19 -129 -14 -219q6 -65 6 -140q0 -22 2.5 -51.5t5 -62t2.5 -60.5q0 -33 -6 -106t-6 -117q0 -110 65 -45q22 22 45 54.5t51.5 77.5t47.5 71q30 37 61 86q10 18 29.5 39t38.5 24 q31 4 43 -12t12 -37q0 -43 -14 -66q-68 -72 -170 -213q-17 -19 -35.5 -46.5t-28.5 -44t-32 -57t-27 -50.5q-7 -14 -4 -33.5t12 -30.5q101 -120 215 -194q45 -31 125 -111q26 -18 42.5 -37t21.5 -47q4 -63 -56 -63q-17 0 -26.5 5.5t-20.5 18.5q-19 25 -41 48t-52.5 47.5 t-48.5 38t-58.5 42t-53.5 37.5q-11 7 -21.5 14.5t-23.5 17t-24 17.5q-27 23 -41 15q-2 0 -4.5 -1t-5 -4.5t-5 -9t-4 -15.5t-2.5 -23q-8 -54 -3.5 -145t-0.5 -144q-7 -60 -6 -79t5.5 -42.5t4.5 -42.5q0 -34 -21 -60.5t-57 -19.5q-20 3 -39.5 28.5t-15.5 47.5q17 74 10 196 q-5 30 -0.5 172.5t4.5 186.5q-6 59 -6 198q0 105 2 156q0 31 2 95t1.5 115.5t-5.5 98.5q-11 65 2 217q2 29 -2 64.5t-12 84.5t-12 81z" />
<glyph unicode="L" horiz-adv-x="950" d="M295 -94q0 17 3.5 36t9.5 43t9 40q3 38 3.5 78.5t-0.5 97t-1 78.5v307q0 20 2.5 61.5t2.5 63.5q0 18 -2.5 57t-2.5 61q0 92 2.5 164.5t2.5 79.5q3 52 3 116t-2 116.5t-4 127.5t-2 134q0 36 2 59t8.5 47t20.5 35.5t37 11.5q19 0 32 -5.5t19 -17.5t8.5 -23t1 -29.5t-3 -29 t-5.5 -28.5q-1 -4 -1 -6q-5 -19 -5.5 -44t0.5 -65t1 -55q0 -26 6 -80.5t6 -66.5q13 -195 7 -289q-1 -6 -6 -54t-6.5 -64.5t-4 -54.5t-2 -67t3.5 -59q7 -60 8 -125.5t-2 -116t-6.5 -121t-3.5 -124.5q0 -28 7.5 -95.5t7.5 -109.5q0 -41 4 -45q33 -11 73 0q10 2 52 2 q36 0 129 12q45 7 67.5 -12t22.5 -47q0 -37 -21 -50t-74 -10q-77 3 -132 2.5t-62 -0.5q-54 11 -109 -2q-49 -15 -76.5 3t-27.5 63z" />
<glyph unicode="M" horiz-adv-x="2168" d="M309 94q-3 59 6 170t9 164q0 17 -3 54t-2 57q2 33 2 70.5t-1 84.5t-1 72v59.5v47.5t0.5 36t0 28.5t-1 19.5t-2 16t-3 11.5t-4.5 10.5q-25 53 5.5 87.5t64.5 25.5q8 -3 15.5 -6t13 -5.5t12.5 -7t10.5 -6.5t10 -8.5t9 -8t9.5 -9.5t8.5 -10t9.5 -11.5t10 -11.5 q66 -75 164 -150q141 -104 303 -104q210 0 310 66q8 4 22 10.5t39.5 18t46.5 20.5q144 54 285 129q46 35 70.5 48t48.5 13q20 0 31.5 -4t16.5 -15.5t6 -21t1 -30.5q0 -28 10 -90.5t10 -98.5q0 -201 15 -287q8 -47 0 -155q-11 -109 -4 -178q4 -35 4 -191q0 -71 -12.5 -100 t-43.5 -29q-25 1 -41.5 5.5t-33 23t-23.5 51.5q-4 18 -4.5 37.5t2 41.5t5.5 39t8.5 43t7.5 40q3 20 4.5 38t2 41.5t0 38.5t-1.5 51t-1 58q-9 152 -13 467q0 23 -7 33t-22 7t-29 -9.5t-38 -19.5q-13 -7 -20 -11q-29 -14 -54.5 -26t-42 -19t-36 -14t-27.5 -10t-25.5 -8.5 t-21.5 -6.5q-10 -4 -65 -23t-77 -30q-157 -58 -272 -58q-190 0 -354 105q-22 12 -44 26.5t-55 38t-45 31.5q-19 10 -32 5t-13 -21q0 -21 -4 -53.5t-5 -50t5 -54.5q8 -51 8 -219q0 -1 -1.5 -64t1.5 -65q13 -223 11 -264q-6 -50 -24 -64t-56 -6q-39 9 -51.5 31.5t-16.5 62.5z " />
<glyph unicode="N" horiz-adv-x="1998" d="M299 66q3 27 9.5 77.5t11 92t4.5 77.5q0 61 -5.5 172t-5.5 183q0 36 -3 112t-3 121q0 104 7 135q16 59 59 60q21 0 43.5 -16t66.5 -56v2q5 -5 30 -26t39 -32t37.5 -29.5t45 -33.5t43.5 -28q218 -146 397 -314v4q13 -10 75.5 -64.5t98.5 -80.5q19 -16 58.5 -47.5t71 -57.5 t55.5 -49q69 -60 86 -69q30 -16 36 16q1 4 4 15.5t4.5 18t3 21t-0.5 23.5q-6 61 -6 201q0 89 -9 168q-14 116 -6 163q4 36 0 150q-5 52 22.5 76t49.5 24q55 0 59 -94q4 -22 -1 -68t-1 -71q11 -95 11 -260q0 -143 -9 -209q-2 -49 -2 -240q0 -24 13 -67.5t14 -69.5 q0 -59 -55 -59q-29 0 -99.5 57t-218.5 196v-2q-14 12 -59.5 55.5t-75.5 63.5q-29 20 -120.5 107t-117.5 98q-19 12 -108.5 78t-130.5 102q-74 66 -139 114.5t-90.5 63.5t-38.5 21q-6 3 -10.5 3t-8.5 -3t-6 -12t-2 -23q0 -30 9 -80.5t7 -85.5q-4 -35 -4 -174q0 -34 8 -84 q4 -52 4 -237q0 -21 3.5 -68t3.5 -78q0 -38 -30.5 -65t-60.5 -9q-69 38 -63 91z" />
<glyph unicode="O" horiz-adv-x="1511" d="M223 526q8 106 67.5 219t162.5 199q137 111 278 111q16 2 32.5 2.5t29.5 0.5t30 -3.5t27 -5t28 -7.5t26 -8.5t28 -11t26 -11t29 -13t29 -13.5q30 -13 53 -30t40 -38.5t27 -37t24 -42t20 -36.5q18 -31 38.5 -74t47 -133t26.5 -166q0 -102 -38.5 -194.5t-110.5 -159.5 q-75 -79 -207.5 -112.5t-288.5 -20.5q-186 20 -305 194q-78 82 -102 177t-17 214zM358 483q0 -93 28.5 -169.5t86.5 -153.5q78 -105 252 -105q221 0 325.5 97t102.5 301q-3 151 -51.5 262t-95.5 141q-61 0 -136.5 25t-134.5 63q-124 -3 -229 -103t-133 -220 q-15 -79 -15 -138z" />
<glyph unicode="P" horiz-adv-x="1093" d="M295 -735q0 77 8 229q1 13 5.5 70t3.5 69t-3 68q0 6 -3 37t-2.5 40t3.5 42q1 14 1 31.5t-0.5 39.5t-0.5 33v125q0 23 -1 68.5t-1 82.5t2 68q3 43 4.5 143t5.5 152q3 47 -2.5 132.5t-5.5 121.5q0 14 -5 154.5t-5 232.5q0 85 35 105q38 18 56 1t18 -61q0 -11 11 -25.5 t27 -23.5q71 -26 125 -70q111 -84 169 -156t67 -118q4 -19 35.5 -113t31.5 -155q0 -79 -34 -224.5t-64 -195.5q-84 -151 -178 -262q-23 -26 -77.5 -71.5t-82.5 -74.5q-9 -10 -13 -27.5t-5 -43.5t-2 -33q0 -18 -3 -65.5t-3 -88.5q0 -58 5 -130t5 -93q0 -19 -2 -32t-8 -28 t-21 -22.5t-37 -7.5q-29 0 -44 22.5t-15 53.5zM414 1010q7 -98 14 -168q7 -96 18 -166q5 -126 -12 -238q-9 -75 -2 -155q0 -173 -4 -224q-3 -6 -1.5 -62.5t1.5 -59.5q0 -56 45 -11q74 80 150 207q48 74 80 204t32 294q0 55 -30.5 142.5t-61.5 127.5q-65 84 -122.5 131.5 t-92.5 36.5q-14 -8 -14 -59z" />
<glyph unicode="Q" horiz-adv-x="1691" d="M225 492q-5 31 -5 61t4.5 58.5t10.5 55t18 54t22.5 50.5t28 50t31.5 47t34.5 46.5t35.5 44.5t37 45q125 145 443 145q48 0 187.5 -64.5t162.5 -89.5q238 -238 238 -428q0 -79 -23 -167t-51 -136q-112 -203 -281 -248q-24 -6 -44.5 -13t-32 -12t-28.5 -17.5t-22 -16 t-24 -21t-23 -20.5q-49 -37 -49 -109q-1 -15 -6 -42t-5.5 -37.5t3.5 -36.5q3 -8 4.5 -17.5t3 -17.5t2.5 -21t1.5 -21t0.5 -26v-27v-33v-36q0 -88 -59 -88q-21 0 -40.5 22.5t-19.5 65.5q0 31 3 82.5t3 93.5q0 21 -6 82t-4 80q6 81 -76 96q-188 37 -301 160q-76 88 -115 183.5 t-59 222.5zM358 463q0 -95 46.5 -172t132.5 -148q31 -25 43 -34.5t37.5 -27t45 -24.5t39.5 -8q31 -2 46 22.5t15 63t-2 84t-6.5 86t1.5 68.5q7 36 27 60t42 24q25 0 50 -37.5t16 -91.5q-4 -28 -0.5 -81.5t-3.5 -107.5q-5 -42 32 -55t115 14q78 21 125 62q80 66 108.5 108 t55.5 129q25 87 25 170q0 37 -39 125q-92 175 -179 228q-69 43 -153 74.5t-148 31.5q-110 0 -182 -24t-145 -103q-117 -131 -133 -209q-11 -65 -11 -227z" />
<glyph unicode="R" horiz-adv-x="964" d="M295 1083q0 55 12 140q0 24 1.5 36t13.5 23.5t36 11.5q21 0 43 -14t46.5 -44.5t39.5 -52.5t41 -63q59 -79 96.5 -149.5t61.5 -163.5q25 -109 25 -209q0 -71 -30 -199t-54 -174q-50 -88 -101 -149q-10 -9 -14 -15.5t-0.5 -12.5t6 -8.5t14 -9.5t15.5 -10q76 -58 108 -73 q66 -40 146 -76q17 -5 26.5 -14t13 -17.5t5.5 -23.5q3 -48 -32 -66.5t-69 6.5q-38 21 -77 49q-19 12 -58 40.5t-63 43.5q-17 8 -39 20t-34.5 18.5t-16.5 6.5q-29 0 -29 -139q0 -25 -2 -70t-2 -92.5t4 -109.5q3 0 1.5 -35.5t-1.5 -38.5q0 -25 -21.5 -45t-41.5 -20 q-23 0 -40 18.5t-16 56.5q8 136 8 183q0 32 -2 98t-2 102q0 47 5.5 149.5t5.5 162.5q0 34 -5.5 106t-5.5 113q-2 38 -2 82.5t1 100t1 85.5q0 211 -10 309q-8 82 -8 133zM414 1020q0 -126 10 -174q16 -107 8 -205q-2 -17 -2 -53t1 -78t1 -51q0 -31 -2 -96t-2 -95 q0 -18 3 -33.5t9.5 -27t18.5 -8t28 25.5q46 54 73.5 141t27.5 171q0 363 -121 501q-4 5 -12.5 9.5t-17.5 6.5t-16 -6.5t-7 -27.5z" />
<glyph unicode="S" horiz-adv-x="946" d="M272 866q28 76 87 138.5t143 91.5q47 24 121 24q30 0 46.5 -9.5t16.5 -37.5q0 -45 -26.5 -62t-88.5 -5q-17 7 -69.5 -21.5t-83.5 -69.5q-19 -27 -39 -108q-11 -38 33.5 -121.5t113.5 -153.5q139 -139 150 -190q42 -214 -123 -328q-124 -82 -215 -69q-26 4 -40.5 17.5 t-14.5 31.5q0 17 6.5 28.5t23.5 20t27 12t37 11.5q121 18 160 118q16 47 16 99q0 82 -76 149q-49 41 -96 95.5t-72 99.5q-72 147 -37 239z" />
<glyph unicode="T" horiz-adv-x="1024" d="M29 1298q0 30 21.5 42t64.5 12q18 0 54 4.5t55 5t55 -7.5q131 -27 294 -17q29 2 74.5 8t79 10.5t76 4.5t78.5 -8q6 -2 17 -5q61 -16 79.5 -27t13.5 -36q-2 -19 -13.5 -28t-37.5 -9q-39 0 -102 6.5t-97 6.5q-84 0 -159 -27q-22 -7 -33.5 -23.5t-11.5 -56.5q0 -56 5 -169 t5 -173q0 -90 -4 -129q-17 -170 -17 -514q0 -40 -1.5 -124.5t-1 -150.5t4.5 -126q8 -147 -2 -209q0 -17 2.5 -50t3 -51.5t-3.5 -52.5q-7 -29 -34 -43t-52 -6q-21 9 -33 32t-12 46q0 58 10.5 190.5t10.5 196.5q0 9 -2 164.5t-2 367.5q0 70 5 207t5 203v397q0 43 -12.5 58.5 t-57.5 15.5q-22 0 -76 7t-83 7q-7 0 -37.5 -4t-53.5 -4q-30 3 -52.5 19t-22.5 40z" />
<glyph unicode="U" horiz-adv-x="968" d="M260 428q0 29 4 91.5t4 96.5q11 107 11 154q0 12 2 48.5t2 58.5q0 11 -9 112q0 15 -2 25q-19 64 47 90q33 12 56.5 -22.5t21.5 -92.5q-3 -1 -1.5 -118.5t1.5 -118.5q0 -23 -5.5 -92t-2.5 -109q0 -29 -5 -95t-5 -108q0 -116 33 -227q11 -33 32.5 -49.5t42.5 -16.5 q48 -3 67 40t19 134q0 54 9 164q0 5 1 22t2 54.5t1 91.5q0 17 1 54t1 57q8 106 8 164q0 47 -8 133q0 21 -1.5 45.5t11 46t39.5 24.5h4q42 0 53 -38t8 -132v-292q0 -55 -8 -137.5t-8 -147.5q0 -66 4 -109q2 -99 -35 -198q-21 -52 -62.5 -78.5t-90.5 -26.5q-103 0 -153 55 t-70 173q-19 122 -19 274z" />
<glyph unicode="V" horiz-adv-x="1779" d="M143 1016q-8 30 10.5 55t51.5 25q30 0 51 -23.5t43 -73.5q5 -10 16.5 -36t18.5 -41q13 -31 98 -174q13 -22 53 -86t62 -101q2 -4 74.5 -139.5t95.5 -188.5q8 -17 17.5 -33.5t15.5 -26.5t21 -28.5t19 -23.5t25.5 -28t24.5 -27q70 -84 131 32q26 37 53 90q9 17 35 65t40 73 t37 65t44.5 75.5t44.5 70.5q4 7 49.5 86.5t68.5 124.5q60 118 80 143q69 83 80 139q12 34 29 48t55 7q25 -4 37.5 -14.5t12 -27t-6.5 -33.5t-18 -39q-7 -12 -29.5 -54t-38.5 -69t-31 -47q-11 -16 -71 -119q-29 -53 -107 -175t-116 -198q-66 -119 -70 -125q-2 -3 -24.5 -37 t-29 -43.5t-25 -39t-27 -45.5t-20.5 -39.5t-19 -42.5q-9 -24 -12.5 -32t-17 -32t-25.5 -34.5t-33.5 -21t-45.5 -10.5q-31 0 -48.5 18.5t-42.5 63.5q-5 9 -7 13q-3 6 -28.5 61t-43.5 82q-20 31 -71.5 122.5t-77.5 135.5q-23 44 -79 129.5t-69 106.5q-10 19 -55 112 q-58 139 -100 201q-23 24 -43 53q-56 64 -62 111z" />
<glyph unicode="W" horiz-adv-x="2523" d="M154 971q-9 73 49 73q36 0 58 -18t38 -55q38 -75 100 -160q3 -5 17 -22t28.5 -35.5t42.5 -61.5t60 -100q18 -32 61 -94q19 -23 46 -66t36 -55q2 -3 15.5 -25.5t22 -35t28 -39.5t48 -61t66.5 -77q24 -26 50.5 -36t40.5 6q6 6 32 30t44.5 42.5t46.5 53.5t51 74 q10 16 7 43.5t-14 40.5q-19 22 -41 54t-47 57q-22 22 -55 63q-106 141 -154 185q-22 22 -55.5 80t-58.5 83q-3 4 -12 12.5t-13.5 14t-9 15.5t-4.5 22q0 31 15.5 46.5t51.5 18.5q29 3 46 -11.5t30 -47.5q43 -77 45 -80q5 -6 38.5 -55t64.5 -78q2 -2 61 -80q51 -77 154 -180 q9 -12 36 -11.5t44 17.5q3 3 25 27.5t27.5 31t25 29t31 38t32 41.5t42 56t46.5 66q36 65 49 80q2 3 14 17t21 25.5t21 30t20 35.5q13 24 38.5 36.5t53.5 12.5q29 0 42 -18t9 -41t-20 -41q-1 -1 -51.5 -53.5t-77.5 -93.5q-75 -96 -109 -146q-88 -128 -121 -164 q-27 -38 -35 -57.5t-8 -52.5q0 -73 74 -158q7 -7 41.5 -45.5t58.5 -58.5q26 -16 40 -17.5t30 11.5q26 25 76.5 90.5t71.5 89.5q37 47 65 94q27 46 154 209q24 36 76.5 98t66.5 80q9 12 44.5 56t58 75.5t38.5 63.5q1 2 6 9t6 9t6.5 9t7.5 8t8.5 7t10 5.5t12 3.5t14.5 1.5 t17 -1.5q37 -5 53.5 -40.5t-18.5 -66.5q-19 -15 -34 -34t-31.5 -45t-22.5 -35q-30 -42 -86.5 -107t-83.5 -102q-13 -21 -80 -84q-24 -24 -38.5 -41t-46 -63.5t-79.5 -125.5q-97 -161 -198 -262q-9 -9 -23 -30t-28 -30t-39 -9q-24 0 -40 10.5t-36 34.5q-15 15 -57.5 52 t-65.5 62q-13 13 -55 80q-31 51 -50 63q-31 20 -59 -14q-12 -12 -45 -54t-63 -77q-44 -56 -72 -88q-80 -76 -129 -76q-57 0 -119 111q-37 71 -114 168q-102 123 -170 260q-5 11 -16 27.5t-19.5 27.5t-28 35.5t-25.5 32.5q-67 78 -143 201q-5 8 -14 23l-12 20l-9 15t-9 14 t-7.5 11t-8 11t-7.5 8.5t-9 9.5q-28 32 -30 62z" />
<glyph unicode="X" horiz-adv-x="1542" d="M143 1094q47 61 90 20q49 -42 70 -94q29 -52 49 -66q17 -18 92 -79t113 -113q62 -76 143 -146q43 -43 70 -43q62 0 135 113q28 44 97 112.5t94 100.5q17 22 75 67t78 85q19 32 41 50.5t58 18.5q10 -1 17 -3t16.5 -7.5t16 -17.5t9.5 -31q6 -43 -64 -82q-37 -27 -120 -119 q-14 -14 -43 -46t-45 -48q-101 -100 -160 -174q-16 -19 -36.5 -41.5t-32 -35.5t-15.5 -21q-16 -26 18 -62q70 -70 115 -119q37 -45 125 -133q94 -105 156 -145q26 -20 39.5 -45.5t13.5 -42.5q0 -28 -20.5 -50t-49.5 -22q-51 0 -98 80q-26 51 -96 121q-2 2 -41.5 37t-84 78.5 t-73.5 80.5q-70 82 -115 82q-21 0 -50.5 -19t-51.5 -46q-13 -13 -42 -37.5t-51 -47.5t-38 -48q-17 -21 -70.5 -74t-73.5 -86q-15 -37 -48 -67t-60 -33q-27 -1 -45 10.5t-23.5 27.5t-7.5 32t4 24q17 28 63.5 61t57.5 49q7 13 45 52.5t57 56.5q23 26 54.5 57.5t70 68 t56.5 54.5q14 14 23.5 30.5t13 36.5t-8.5 36q-104 122 -174 180q-51 41 -112 108q-14 14 -54 55.5t-65 63.5q-14 12 -36.5 34.5t-37.5 38.5l-16 17q-49 49 -17 105z" />
<glyph unicode="Y" horiz-adv-x="1337" d="M16 1313q0 29 21 44t53 15q41 0 66 -53q10 -21 132 -134.5t165 -146.5q37 -27 94 -72.5t69 -54.5q25 -20 52 -47q7 -5 13.5 -7t15 1.5t12 5.5t15 10.5t13.5 10.5q101 82 183 166q19 19 72.5 70t80.5 79q35 44 96 105q13 16 20.5 23t23 13.5t36.5 6.5q45 0 61 -28.5 t-12 -66.5q-11 -16 -21 -25t-27.5 -20t-20.5 -14q-14 -8 -30 -19.5t-26 -19t-29.5 -24.5t-24.5 -21.5t-28.5 -26.5t-25.5 -24l-139 -139q-5 -6 -21.5 -24t-29.5 -32t-38.5 -39.5t-54.5 -52.5q-2 -8 -2 -30.5t-5 -44t-19 -40.5q-11 -19 -11 -135q0 -50 3 -140.5t3.5 -141 t-3.5 -140.5q-6 -62 4 -175.5t10 -157.5q0 -42 -10.5 -66.5t-44.5 -38.5q-38 -16 -62 4t-24 72q0 14 3 65.5t3 96.5q0 20 -0.5 58.5t-0.5 61t1 49t4 42.5q4 37 4 79.5t-2 97.5t-2 89q0 96 -19 229q-2 9 -7 39.5t-8 42.5t-10.5 35t-18 41t-25.5 37q-40 42 -107.5 98.5 t-126.5 95.5q-20 13 -40.5 29t-47.5 42t-43 42t-54 55.5t-54 55.5q-2 2 -8.5 9.5t-8.5 10t-8 9.5t-8 10.5t-6.5 10t-6.5 11t-4 10.5t-3 11.5t-1 11.5z" />
<glyph unicode="Z" horiz-adv-x="1257" d="M145 1020q3 29 37.5 44t100.5 5q35 -4 129 4q107 11 176 2q202 -19 342 -2q149 6 149 -82q0 -24 -9 -39.5t-32 -40.5q-12 -23 -35.5 -71.5t-33.5 -67.5q-37 -58 -95 -160q-10 -18 -29 -55.5t-36 -67t-37 -55.5q-8 -13 -34 -52.5t-42 -64.5q-97 -162 -180 -352l-3 -5 q-3 -6 -4.5 -8.5t-4.5 -8t-3.5 -9t-1 -8.5t1 -8t4.5 -6t9 -4.5t14 -1.5q124 0 238 20q55 6 97 -7.5t42 -43.5q0 -28 -12.5 -48t-36.5 -20q-28 0 -59 9q-49 11 -101 4q-49 -8 -96 -9t-108.5 2t-94.5 3q-84 0 -84 61q0 24 9 39.5t30 38.5q7 11 31 47t39 64q37 82 94 157 q28 35 70 111t51 90q48 67 98 166.5t90 161.5q80 136 80 184q0 35 -63 33q-72 -4 -121 0t-113.5 3.5t-120.5 -11.5q-26 -5 -91.5 3t-96.5 1q-69 -11 -104 -11q-24 0 -39 19t-11 47z" />
<glyph unicode="[" horiz-adv-x="806" d="M246 1130q-5 174 0 224q15 97 92 88q54 -5 76.5 -4.5t77.5 3.5t96 3q37 0 55 -11.5t29 -39.5q10 -26 -19 -48t-75 -22q-8 0 -31.5 3t-42.5 3q-53 0 -96 -14q-39 -8 -39 -51q0 -44 5 -164t5 -209q0 -4 6 -238q12 -156 0 -315q-6 -123 -6 -401q0 -31 -3 -100t-3 -109 q0 -61 10 -105q4 -23 19.5 -26t41.5 2q35 4 89.5 1t58.5 3q15 2 36 3.5t43 -9.5t27 -33q12 -41 -22.5 -58.5t-73.5 -11.5q-24 4 -50 4t-64 -2t-64 -2q-8 0 -37 3t-43 1q-51 -4 -72.5 22.5t-17.5 63.5q8 68 8 147t-4 174.5t-4 145.5q0 90 6 189q4 119 4 378q0 263 -8 343 q-10 85 -10 169z" />
<glyph unicode="\" horiz-adv-x="1044" d="M-100 1640q36 19 76.5 -20t72.5 -109q27 -56 88.5 -166t91.5 -171q53 -106 140 -248q56 -97 149 -271q146 -265 283 -499q25 -50 58 -111t52.5 -95t68 -118.5t60.5 -105.5q16 -32 56.5 -91.5t56.5 -91.5q27 -46 21.5 -88.5t-54.5 -42.5q-50 0 -90 76q-28 51 -81.5 157.5 t-82.5 159.5q-21 39 -61.5 108t-56.5 97q-124 203 -187 338q-17 34 -42 78.5t-58.5 100.5t-56.5 93.5t-61.5 99t-47.5 75.5q-29 46 -61 106.5t-81.5 161.5t-86.5 172q-9 18 -32 65t-36 72t-36 60.5t-46 60.5q-21 23 -34.5 48t-12 54t30.5 45z" />
<glyph unicode="]" horiz-adv-x="806" d="M109 1372q-12 41 22.5 58.5t73.5 11.5q24 -4 50 -4t64 2t64 2q8 0 37 -3t43 -1q51 4 72.5 -22.5t17.5 -63.5q-8 -68 -8 -147t4 -174.5t4 -145.5q0 -90 -6 -189q-4 -119 -4 -379q0 -262 8 -342q10 -85 10 -170q5 -173 0 -223q-15 -97 -92 -88q-54 5 -76.5 4.5t-77.5 -3.5 t-96 -3q-37 0 -55 11.5t-29 39.5q-11 26 18.5 48t75.5 22q8 0 31.5 -3t42.5 -3q53 0 96 14q39 8 39 51q0 44 -5 164t-5 209q0 4 -6 238q-12 156 0 315q6 123 6 401q0 31 3 100t3 109q0 61 -10 105q-4 23 -20 26t-42 -2q-35 -4 -89 -1t-58 -3q-15 -2 -36 -3.5t-43 9.5t-27 33 z" />
<glyph unicode="^" d="M125 737q16 24 39 45t39 39q23 26 50 53.5t63.5 63t52.5 51.5q12 21 20.5 32.5t27 24t42.5 15.5q35 4 78 -45q21 -24 52.5 -55t43.5 -46l27 -30t33.5 -36.5t31.5 -31.5q4 -4 25 -20t31 -31t10 -35q0 -30 -18.5 -49.5t-35.5 -19.5t-34.5 12t-22.5 18t-23 29 q-81 98 -131 145q-8 8 -21 22t-18 19t-14 11t-15 4.5t-14.5 -6t-19.5 -15.5q-6 -6 -27.5 -27t-32 -32t-27.5 -30t-30 -36q-11 -11 -30.5 -41t-38.5 -49q-39 -39 -70 -31q-30 8 -42.5 36.5t-0.5 45.5z" />
<glyph unicode="_" d="M94 -39q0 64 96 64q38 0 107.5 -6t110 -8t104.5 5q32 6 101 1.5t104 2.5q44 11 67.5 2t26.5 -42q9 -80 -74 -80h-114q-31 -6 -89 2t-81 8q-27 0 -73 -4.5t-89 -4t-96 10.5q-2 0 -13.5 -2t-15.5 -2.5t-14.5 -1.5t-15 0t-13 3t-12.5 6t-8.5 10t-6.5 15t-2 21z" />
<glyph unicode="`" horiz-adv-x="700" d="M182 1167q-11 60 56 70q22 3 44.5 -14.5t30.5 -40.5q3 -8 26 -50.5t28 -68.5q7 -31 39 -66q34 -49 34 -73q0 -25 -10 -35t-39 -10q-41 0 -63 53q-6 14 -16 31t-18.5 28.5t-24 31t-21.5 28.5q-64 75 -66 116z" />
<glyph unicode="a" horiz-adv-x="1212" d="M219 354q0 219 158 308q8 5 41.5 25.5t45.5 26.5t39.5 18t51.5 16t53 4q36 0 82 -16.5t76 -33.5q4 -4 12 1.5t8 13.5q0 32 17 65t53 33q17 0 26 -3t13.5 -12t5 -17t0.5 -27q0 -11 4.5 -59.5t-0.5 -59.5q-9 -53 0 -86q10 -65 10 -127q0 -63 -10 -131q-6 -35 -7.5 -72.5 t0.5 -91.5t1 -70q0 -14 5.5 -41.5t6.5 -37.5q3 -21 -17 -42.5t-42 -21.5q-33 0 -54.5 25t-21.5 75q0 79 -65 47q-66 -28 -88 -28q-70 0 -149.5 23t-121.5 51q-58 28 -95.5 96.5t-37.5 148.5zM352 418q-19 -172 66 -219q32 -20 51.5 -29.5t55 -18t77.5 -8.5q51 0 109 37 q35 27 53 89.5t18 129.5q0 113 -20 152q-15 31 -59 58.5t-82 27.5q-65 4 -107 -5.5t-72 -49.5q-83 -96 -90 -164z" />
<glyph unicode="b" horiz-adv-x="1009" d="M299 -373q17 92 19 157t-4.5 135.5t-6.5 115.5q-2 57 0.5 145t-0.5 99q-6 44 -6 96.5t3 128t3 127.5q0 26 -1 77.5t-1 93t2 75.5q2 39 2 217q0 32 1.5 100t1 121t-4.5 102q-4 35 -4 96q0 44 14.5 68.5t40.5 24.5q38 0 56 -31.5t18 -71.5q0 -12 -7 -39t-7 -43q0 -57 4 -84 q7 -20 4 -136.5t-2 -141.5q0 -65 63 -105q65 -46 91 -67q143 -123 184 -330q28 -133 24 -213q0 -81 -26 -185.5t-88 -176.5q-17 -20 -54 -77t-67 -89q-28 -31 -48.5 -51t-33.5 -30.5t-16 -13.5q-35 -44 -35 -73q0 -7 4 -26.5t2 -33.5q-4 -19 -24 -33t-35 -14q-38 0 -56 24.5 t-10 61.5zM418 188q10 -92 10 -178q0 -6 -1 -22q-4 -88 17 -95q13 -4 37 17q87 87 146 285q20 79 20 157q0 19 3 61t1.5 73t-10.5 61q-45 174 -98 223q-126 126 -121 16q0 -14 7 -59.5t5 -64.5q-5 -162 -10 -199q-18 -153 -6 -275z" />
<glyph unicode="c" horiz-adv-x="825" d="M219 330q0 53 35 182q29 95 119 180q63 63 84 78q64 41 96 41q14 0 22 -1t19.5 -9.5t17.5 -24.5q19 -42 -41 -76q-12 -7 -47.5 -25.5t-46.5 -26t-33.5 -25.5t-35.5 -39.5t-25 -51.5q-5 -15 -10.5 -43t-10.5 -43q-3 -9 -4 -23.5t-1 -26.5t0.5 -28t0.5 -20q0 -107 41 -182 t140 -117q89 -37 84 -80q-2 -80 -115 -45q-56 20 -150 107q-63 59 -101 140t-38 159z" />
<glyph unicode="d" horiz-adv-x="970" d="M219 362q0 48 16 151t44 212q24 84 82 168.5t165 206.5q48 56 41 123q-6 53 -5 80t5 93.5t4 116.5q0 33 -7 106t-7 118q0 77 22.5 110t53.5 33q36 0 52.5 -30.5t15 -66t-10.5 -67.5q-18 -77 -8 -184q11 -41 12 -88.5t-5 -120t-7 -94.5q-4 -63 -4 -219v-238q0 -51 -3 -163 t-3 -177q0 -192 4 -237q0 -33 3 -109t3 -121q0 -20 -2 -65t-2 -68q28 -27 31.5 -60t-11.5 -81.5t-16 -52.5q0 -20 9 -64t9 -68t-1 -37t-6 -29.5t-18 -24t-34 -7.5q-22 0 -42.5 30.5t-27.5 74.5q-13 65 -8 208q-5 8 -61 64q-82 68 -129 131q-103 140 -128.5 220t-25.5 226z M338 442q6 -287 100 -411q68 -89 96 -100q36 -14 29 70v3q-1 34 -6.5 115t-5.5 125q0 42 5 169t5 230v258q0 21 -12 27.5t-28 0t-29 -19.5q-56 -64 -93 -153t-37 -174q0 -25 -12 -71.5t-12 -68.5z" />
<glyph unicode="e" horiz-adv-x="1234" d="M133 373q0 32 21.5 48.5t54.5 16.5q7 0 36 -3t38 -3q47 0 61.5 10t32.5 56q14 50 51 110q41 63 98 109q30 29 83 61.5t91 46.5q32 13 56 -1t24 -52q0 -50 -45 -80q-17 -8 -65 -19.5t-58 -17.5q-26 -20 -40.5 -33t-35 -36.5t-31 -52.5t-11.5 -64q0 -37 63 -31q43 2 82.5 0 t50.5 0q26 2 79 -4t62 -6q33 0 92 5t91 5q41 0 61.5 -11t20.5 -40q0 -22 -8.5 -35.5t-26 -19t-33 -7.5t-40.5 -3t-38 -3q-29 -2 -41 -1.5t-42 5t-46 5.5q-38 4 -80 4.5t-98.5 -1t-85.5 -1.5q-70 0 -70 -37q0 -60 32 -127t97 -117q15 -12 31 -20t26 -11t41.5 -11t51.5 -13 q21 -8 30 -26t9 -34q0 -15 -14 -26.5t-39 -11.5q-134 0 -265 143q-47 43 -75.5 90t-53.5 115q-4 9 -8.5 30t-9.5 36.5t-12 19.5q-16 10 -33 10t-39.5 -5t-36.5 -5q-47 0 -66.5 9t-19.5 34z" />
<glyph unicode="f" horiz-adv-x="765" d="M139 885q10 60 56 55q7 -1 23 -3.5t21 -2.5t14.5 1.5t13.5 7t9 16t9 26.5q14 54 14 244q0 74 55 98q26 10 60 2q52 -6 123 0q22 5 70 -0.5t71 0.5q50 8 70 0q81 -15 81 -65q0 -11 -15.5 -29.5t-41.5 -22.5q-22 -2 -59 5.5t-56 7.5q-46 6 -69.5 5.5t-68.5 -4t-70 -3.5 q-18 0 -27.5 -14.5t-10.5 -38t1 -45t6 -42.5q5 -35 -4 -94q-16 -53 24 -53q14 0 39.5 -1.5t49.5 -1.5t51 3q19 4 41.5 -14t21.5 -48q-3 -26 -15 -35.5t-40 -9.5h-99q-33 0 -56 -14.5t-23 -42.5q0 -29 -5 -95t-4 -104q19 -176 19 -358q0 -22 -2 -74.5t-1 -92t7 -77.5 q16 -104 0 -219q-14 -92 -4 -211q6 -88 6 -223q0 -40 -19.5 -72t-52.5 -32q-57 0 -67 34q-4 41 -3 59t8.5 67t8.5 63q4 45 4 141q-10 79 -10 184q0 164 6 244q4 39 4 73.5t-2 73t-2 62.5q0 41 2 138t2.5 161t-5 147.5t-19.5 143.5q-3 11 -5.5 15.5t-19 10t-49.5 5.5 q-30 0 -48 13.5t-18 35.5z" />
<glyph unicode="g" horiz-adv-x="1177" d="M215 532q11 137 60.5 223t152.5 126q29 10 74 28l8 1q7 2 8 2.5t8 2.5t8.5 3.5t7 4t7.5 5t5.5 6.5t5 8.5t2.5 10t1 12.5q0 15 -3 48t-3 48t2 25t9 21.5t23 17t40 5.5q22 0 34.5 -21t10.5 -48q-8 -67 -4 -100q3 -32 19.5 -47.5t53.5 -26.5q76 -21 127.5 -74.5t61.5 -101.5 q3 -17 11 -50t12.5 -54t6.5 -58.5t-8 -61.5q-13 -72 -61 -174q-30 -47 -59 -77t-66 -37q-1 0 -17.5 -3.5t-23 -5.5t-22 -6.5t-23.5 -9.5t-18 -12.5t-14.5 -16.5t-4.5 -20q0 -12 -4.5 -56.5t0.5 -54.5q6 -52 35 -55q107 -21 169 -109.5t62 -207.5q0 -50 -40 -100.5 t-117 -94.5q-64 -39 -136 -39q-127 0 -247 146q-45 57 -45 174q0 54 67.5 135.5t120.5 81.5q14 0 14 110q0 7 3 31.5t3 40t-9 32t-29 19.5q-26 2 -72 25q-42 15 -76.5 49t-77.5 90q-57 75 -53 190zM342 539q-11 -94 43 -167.5t147 -92.5q75 -13 129 -3.5t87 37.5 q54 43 76 80t22 80v32t-2 27.5t-2.5 20.5t-5 22t-5.5 20t-9 27.5t-11 32.5q-31 99 -133 111q-23 -11 -65.5 -3.5t-65.5 28.5q-187 -37 -205 -252zM446 -289q0 -74 52 -138.5t133 -64.5q87 0 129 60.5t31 169.5q-36 53 -125 69q-88 23 -109 50q-43 -5 -77 -48t-34 -98z" />
<glyph unicode="h" horiz-adv-x="1128" d="M317 1153q-3 46 -3 130.5t3 115.5q3 75 0 147q-3 56 13.5 88.5t52.5 32.5q17 0 28.5 -5t17.5 -11.5t9 -20t3.5 -22.5t0.5 -27t2.5 -64.5t1.5 -72.5q0 -5 -3 -28t-3.5 -31.5t1 -25t5.5 -30.5q12 -55 0 -155q-5 -39 -5 -85.5t2.5 -123.5t2.5 -140q0 -153 66 -153 q16 0 60 8.5t69 5.5q46 -6 86 -31t64 -57q25 -38 36.5 -66t18.5 -75q20 -140 20 -224v-48.5t-1 -43.5t-3.5 -41t-6.5 -34t-10 -30t-15 -21t-21 -14.5t-27 -4.5q-47 0 -47 78q-6 55 6 131q7 31 7 63q6 133 -58 248q-37 56 -186 51q-22 0 -34.5 -15t-12.5 -36q0 -47 -8 -117 q-3 -44 -3 -93.5t1.5 -114.5t1.5 -105q0 -17 -0.5 -56t-0.5 -61.5t2 -54.5t7 -59q15 -85 0 -117q-15 -41 -70 -41q-35 0 -55 42t-13 116q9 83 9 139q0 13 1 84.5t1 140.5q0 20 5 119.5t-1 120.5q0 62 -3 211.5t-3 249.5q0 37 -5.5 113.5t-5.5 119.5z" />
<glyph unicode="i" horiz-adv-x="733" d="M264 1368q0 34 19.5 70.5t66.5 48.5q29 5 73 -32t44 -66q0 -40 -17 -68.5t-47 -32.5q-61 -7 -100 20t-39 60zM295 829q-4 49 18 80t45 31q29 0 54 -25t16 -84q-8 -35 -8 -94q0 -30 5.5 -123t2.5 -145q-9 -104 -4 -195q9 -113 0 -188q0 -20 5 -61.5t5 -65.5 q0 -48 -23.5 -76t-52.5 -28q-22 0 -35.5 28.5t-13.5 75.5q0 53 6 176q7 84 0 137q-12 172 -12 334q0 164 -8 223z" />
<glyph unicode="j" horiz-adv-x="698" d="M31 -467q2 15 6.5 26.5t14.5 25.5t21 26t33 35q32 31 56.5 68.5t34.5 58t28 63.5q23 53 37.5 114.5t26.5 184.5q11 111 6 193q-3 41 -4 101t-0.5 107.5t-2 99.5t-9.5 85q-13 62 11.5 113t59.5 51q18 0 34.5 -14t26.5 -43.5t7 -67.5q0 -34 -5 -101t-5 -102q0 -46 4 -131.5 t4 -154.5t-8 -128q-21 -154 -60.5 -266t-122.5 -270q-30 -57 -77.5 -104t-81.5 -40q-18 6 -28 26t-7 44zM250 1421q0 28 25.5 62.5t48.5 34.5q61 0 105 -39t44 -70q0 -50 -33 -69t-86 -11q-104 19 -104 92z" />
<glyph unicode="k" horiz-adv-x="1138" d="M317 2054q-5 60 7 104t29.5 62t33.5 18q37 0 59 -32t11 -82q-11 -51 -10.5 -85t6 -95t4.5 -89q-5 -94 -4.5 -149.5t3.5 -159t3 -153.5q0 -100 -6.5 -303t-6.5 -308q0 -43 6.5 -116.5t6.5 -118.5q0 -27 11 -44.5t23.5 -19t22.5 3.5q15 16 37 58t35 61q22 30 90 121 q84 106 113 178q20 49 51 64q14 4 29.5 5.5t28.5 -9.5t15 -35q4 -44 -8 -71t-55 -68q-16 -21 -58 -92.5t-73 -102.5q-96 -96 -150 -207q-12 -17 -15.5 -26.5t-1.5 -24.5t18.5 -31.5t48.5 -38.5q135 -95 229 -149q24 -15 66.5 -45.5t64.5 -44.5q14 -11 17 -38t-9 -44 q-15 -13 -30.5 -15.5t-22 0t-25.5 9.5q-33 13 -74 37t-65 51q-83 95 -244 174q-14 9 -26.5 14t-26 6t-21.5 -10.5t-8 -34.5q0 -1 1.5 -90.5t1.5 -241.5q0 -28 4 -85t4 -85q0 -27 -18.5 -55.5t-39.5 -28.5q-26 0 -46 16.5t-23 39.5q-7 53 3.5 154t10.5 143q0 16 4 73 t2.5 102.5t-12.5 78.5q-20 132 0 200q14 60 14 109q-9 32 -12.5 71.5t-3.5 68t1 80t1 77.5q0 89 2 278.5t2 294.5q0 170 -12 254q-4 37 -3.5 57t4 63.5t3.5 74.5q0 1 -17 227z" />
<glyph unicode="l" horiz-adv-x="765" d="M317 31q-4 83 7 233q1 21 6 70t6 71.5t-2 75.5q-15 165 -15 578q-3 48 1 137t4 123q0 20 4 117.5t2 169t-13 104.5q-10 40 12.5 58t57.5 18t52 -42.5t10 -121.5q-3 -76 0 -154q8 -113 0 -165q-15 -90 -15 -199q0 -14 -4 -135t2 -138q6 -49 7 -110t-0.5 -101t-5.5 -118.5 t-5 -108.5q-2 -40 -2 -86t1 -105t1 -93q0 -55 8 -85t16 -36t21 -6q17 0 54 2t55 2q19 0 32 -2t28.5 -8.5t22.5 -23.5t3 -42q-4 -29 -24.5 -43t-45.5 -6q-63 24 -106 24h-25q-13 0 -28.5 -20t-30.5 -25q-39 -14 -64 3.5t-25 66.5q0 72 -2 121z" />
<glyph unicode="m" horiz-adv-x="1562" d="M299 616q-3 37 23.5 57.5t85.5 28.5q12 1 23 -2t25.5 -13.5t22.5 -17.5t29.5 -27.5t30.5 -29.5q4 -3 17.5 -16.5t18.5 -18t17 -15t19.5 -15.5t18.5 -12t22.5 -11.5t23.5 -7.5q75 -24 125 -12q14 5 57 2.5t47 -2.5q128 38 230 162q38 47 65 47q38 0 55.5 -25t4.5 -57 q-13 -38 -13 -148q0 -6 -1 -21t-2 -47.5t-1 -80.5q0 -13 -1.5 -38.5t-0.5 -42t6 -34.5q2 -9 8 -23.5t9.5 -32.5t3.5 -44q0 -47 -11 -91t-38 -48q-16 -2 -29 -1t-24.5 12t-20.5 34q-4 14 -7 30t-5.5 37t-4.5 33q-4 24 1.5 69t5.5 66q0 135 -11 193q-2 9 -18 9.5t-29.5 -3 t-21.5 -6.5q-66 -22 -98.5 -32t-77 -20t-82.5 -12q-77 -3 -131 10q-118 35 -197 117q-15 15 -26 6t-11 -28q0 -72 1 -162t1 -152q0 -14 2 -43t2 -43q0 -49 -23.5 -76.5t-52.5 -27.5q-16 0 -26 5t-15.5 11t-8 22t-3 27.5t-0.5 38.5q0 29 -1 58.5t-1 35.5q0 38 5 92t5 103 q0 23 -2 70t-2 65q0 38 -7 61.5t-7 36.5z" />
<glyph unicode="n" horiz-adv-x="1595" d="M307 573q-22 38 0.5 58t57.5 20q12 -1 25 -3.5t22.5 -5t23.5 -9t20.5 -9.5t21.5 -12.5t19.5 -12.5t21.5 -14.5t20 -13.5q63 -45 108 -63q38 -10 93.5 -38.5t105.5 -72.5q76 -49 223 -164q3 -2 10 -7.5t11 -8t11.5 -8.5t12 -8.5t12 -7.5t11 -6.5l10.5 -4.5t9 -2.5t7 0.5 q40 16 21 258q0 2 -19 84q-8 38 8 62t56 24q22 0 39 -14.5t20 -36.5q4 -4 2 -55t-2 -53q6 -37 6 -101v-55t0.5 -67.5t-1.5 -65.5t-5 -74q10 -20 10 -45q0 -51 -55 -51q-21 0 -77 38.5t-128 110.5q-16 15 -59.5 36.5t-63.5 39.5q-37 32 -76.5 58.5t-65.5 39.5t-68 33 q-9 4 -13 6q-101 38 -200 111q-9 7 -23 19q-27 23 -33 18q-3 -2 -4 -8q-4 -15 -4 -34.5t2 -44.5t2 -36q0 -27 7 -88.5t7 -104.5q-8 -58 -8 -75q0 -37 -21.5 -63t-58.5 -5q-45 30 -45 98q0 15 5.5 42t5.5 42q0 147 -7 185q-9 63 0 110q4 28 -10 55z" />
<glyph unicode="o" horiz-adv-x="1187" d="M223 377q-7 130 41 203t182 141q27 14 60.5 21.5t55 8.5t61.5 1q132 0 178 -84q34 -11 73 -49t62 -76q33 -58 33 -111q0 -86 -31 -172t-92 -149q-32 -53 -105 -85t-139 -32q-104 0 -196.5 64.5t-145.5 164.5q-33 68 -37 154zM330 469q-7 -13 -8 -31.5t3 -40t8 -36.5 t11 -36.5t8 -25.5q20 -68 76 -121t123 -53q11 0 37 -5.5t42.5 -8t37.5 3.5q90 44 131 111t41 171q0 82 -31.5 130t-97.5 94q-67 0 -98.5 5t-65.5 25q-54 -8 -116 -59t-101 -123z" />
<glyph unicode="p" horiz-adv-x="1003" d="M299 1096q-5 81 3 120.5t46 51.5q30 10 50 -7t20 -47q0 -13 -5 -31.5t-5 -33.5q0 -16 19.5 -36.5t47 -40t64 -54.5t63.5 -74q67 -98 98 -165t41 -138q4 -31 19.5 -107t19.5 -120q5 -63 -14 -205q-17 -83 -74 -248q-81 -200 -219 -338q-41 -41 -41 -139q0 -69 -1 -115 t-2 -65.5t-1 -24.5q-2 -67 1 -125t3 -78q0 -60 -59 -69q-31 -1 -43.5 16t-12.5 47q0 82 7 205q0 5 5 76t4 80.5t-3 85.5q-21 63 -6 110q-5 26 -7 57t-2 54t1 60t1 57q0 221 -4 278q-5 67 -2 201.5t-2 204.5q-2 53 -2 172v102.5v84t-0.5 56.5t-1 53.5t-2 40t-4.5 48.5z M414 846q0 -22 -3.5 -97t-1.5 -133.5t13 -107.5q7 -30 0 -105t-4 -108q10 -133 10 -266q0 -43 -3 -118t-3 -104q0 -109 139 119q65 119 86 244q3 16 12 65t12.5 74.5t3.5 66t-9 73.5q-25 98 -25 184q0 35 -17.5 74t-44 84t-36.5 69q-15 28 -62 66q-25 21 -39 26t-20 -10 t-7 -31t-1 -55v-10z" />
<glyph unicode="q" horiz-adv-x="1038" d="M219 303q0 188 76 383q64 182 276 344q15 20 17 39q8 34 0 76q-8 37 12.5 65.5t56.5 28.5q22 0 42.5 -30.5t17.5 -78.5q-1 -7 -3.5 -26t-3.5 -29t0.5 -26.5t6.5 -32.5q4 -14 6.5 -29.5t3 -43.5t1 -47t0 -69.5t-0.5 -81.5q0 -45 -1 -131t-1 -127q0 -63 -2 -125.5t-2 -90.5 t4 -52q4 -27 4.5 -58t0 -53.5t-2 -58.5t-2.5 -55q-4 -41 -4 -124.5t-4 -127.5q-9 -126 2.5 -238t11.5 -155q0 -22 -2 -60.5t-2 -71t4 -63.5q10 -63 10 -78q0 -112 -63 -120q-31 -5 -50.5 13t-19.5 52q0 27 4 85.5t4 98.5q0 32 -8 107.5t-6 116.5q1 9 0.5 16.5t-3 15.5 t-4.5 13.5t-7.5 14t-8.5 12.5t-11.5 13t-11.5 12l-14 14l-14 14q-38 40 -116 149q-56 81 -123 242q-70 203 -70 358zM344 317q0 -218 68 -337q20 -36 43 -107t46 -121t56 -65q15 -8 35 -6.5t20 12.5q-6 84 -6 227q0 26 3 93.5t3 101.5q0 45 0.5 99t0.5 76.5t-1 51t-4 55.5 q-2 37 -2 135q0 14 -2 46.5t-2 48.5q-2 30 2 92.5t4 97.5q0 40 -3.5 50.5t-22.5 17.5q-11 5 -35.5 -10t-55 -52.5t-49.5 -85.5q-53 -126 -75.5 -221t-22.5 -199z" />
<glyph unicode="r" horiz-adv-x="1054" d="M295 508q0 46 35 70q0 19 -3.5 47.5t-4 46t5.5 65.5q6 45 2 88q-4 41 17 57.5t50 16.5q26 0 42.5 -24.5t9.5 -53.5q-3 -8 -4.5 -16.5t-2 -24t-0.5 -27v-41v-50.5q0 -56 4 -76q0 -6 2 -10.5t6 -7t8.5 -4t11.5 -1.5t12 -0.5t13.5 0t12.5 0.5q42 0 70.5 2t29.5 2q53 7 95 0 q31 -5 83.5 -5t86.5 5q36 6 58.5 -3t29.5 -46q5 -22 -14 -38t-60 -13q-42 3 -100 -4q-18 -1 -79.5 0.5t-80.5 -4.5q-54 -6 -64 -6q-1 0 -16 1t-28 1t-29.5 -2t-29 -9.5t-18.5 -19.5q-16 -31 -8 -100v-129q0 -21 11 -91t8 -122q-3 -31 -17 -48.5t-47 -27.5q-20 -5 -34.5 2 t-22 19t-11.5 33t-5 37t-1 38q0 20 3.5 55.5t4.5 56.5t-3 58t-3.5 56.5t4 62.5t3.5 73q0 18 -16.5 54t-16.5 57z" />
<glyph unicode="s" horiz-adv-x="839" d="M225 498q0 122 56 184.5t200 62.5q65 5 101 -14q30 -19 30 -63q0 -37 -59 -37q-15 0 -46.5 8t-49.5 8q-14 0 -37.5 -17t-46.5 -52q-6 -7 -10 -14.5t-6.5 -12.5t-3.5 -12.5t-1 -10v-11v-9.5q0 -39 37 -90t103 -90q116 -69 116 -195q0 -90 -170 -147q-55 -18 -95 5t-40 54 q0 53 80 53q57 0 78.5 14.5t21.5 47.5q0 34 -84 94q-97 67 -135 139q-3 7 -12.5 26t-13.5 29t-8.5 24.5t-4.5 25.5z" />
<glyph unicode="t" horiz-adv-x="821" d="M41 899q0 26 29.5 40.5t62.5 6.5q53 -9 76 -6q12 2 48 0.5t50 3.5q11 2 18.5 5t18 21t10.5 50q0 14 -4.5 69.5t-1.5 79.5q8 69 0 129q-8 105 74 105q26 0 37 -16t14 -48q0 -15 -6 -75q-3 -14 -4 -31t-1 -30t0.5 -36t0.5 -37q0 -31 -2.5 -66t-1.5 -50q3 -25 22 -42.5 t56 -17.5q1 0 35 -1.5t36 1.5q30 5 61 5t59.5 -5t41.5 -20t2 -39q-7 -23 -23.5 -36t-35.5 -13q-32 0 -73 5t-44 5q-9 -1 -42 5.5t-56 2.5t-29 -28l-4 -29q-4 -29 -4 -38t2 -34q8 -38 9 -80t-2 -96t-3 -78q0 -33 -5.5 -134.5t-2.5 -151.5q4 -52 3.5 -172.5t4.5 -172.5 q1 -23 8 -71t6 -72q-3 -38 -24 -64t-54 -26q-18 0 -36 13.5t-25 41.5q-6 28 6.5 123.5t9.5 128.5q-4 39 -5 84.5t0 111.5t1 85q0 24 1.5 75.5t1 89.5t-4.5 68q-8 52 0 193v151q0 15 -3.5 25t-15 21t-39 16.5t-69.5 5.5q-14 0 -43 -3.5t-50 -5t-43.5 1t-35 16.5t-12.5 40z " />
<glyph unicode="u" horiz-adv-x="1103" d="M272 573q1 47 20 73t42 26q63 0 63 -49q0 -55 2 -84q7 -54 4 -205t9 -189q7 -28 30 -36.5t70 -8.5q14 0 55 5.5t74 5.5q31 0 43 17t12 50q0 36 -2 110.5t-2 110.5q0 84 -10 123q-11 67 16 103.5t58 36.5q35 0 50.5 -11t14 -29.5t-5.5 -43.5q-11 -33 0 -76q4 -41 0 -78 q-4 -27 -4 -117q0 -17 -2 -47.5t-2 -44.5q0 -13 -1 -39.5t-1 -42.5q31 -51 31 -78q0 -16 -4.5 -27.5t-16 -18.5t-21.5 -11t-31 -5.5t-32.5 -2t-38.5 -0.5q-17 0 -50.5 3t-53.5 3q-16 0 -46 -3t-55 -3t-49 6q-36 8 -54 13.5t-38 15t-30 24.5t-17 37q-11 32 -4 74 q4 19 -1 66.5t-5 72.5q0 12 0.5 36t0.5 36t-1.5 32t-5.5 39q-15 84 -11 131z" />
<glyph unicode="v" horiz-adv-x="1402" d="M139 627q0 15 14 30t42 15q55 0 77 -39q15 -25 56 -66q65 -65 96 -100q69 -82 119 -137q37 -35 119 -107q30 -27 52 -29t52 21q48 42 65 59q7 7 27 30t27 30q36 29 87 89t66 75q0 1 20 21.5t27 28.5t19.5 27t19.5 37q13 29 30 44.5t50 15.5q23 0 41.5 -13t18.5 -28 q0 -24 -9 -40.5t-30 -37.5q-77 -85 -90 -100q-11 -13 -36 -44.5t-46 -55t-43 -40.5q-28 -20 -75 -67t-61 -72q-3 -5 -31.5 -30.5t-51.5 -59.5q-32 -53 -74 -53q-64 0 -109 63q-41 51 -80 90q-65 65 -100 119q-12 18 -47.5 52.5t-38.5 37.5q-16 16 -45 40.5t-39 33.5 q-4 3 -15 12t-14.5 12t-12.5 11t-14 13.5t-12.5 14t-15.5 17.5q-35 47 -35 80z" />
<glyph unicode="w" horiz-adv-x="2082" d="M154 557q-23 41 -4 76t49 35q40 0 59 -27q6 -6 19 -19.5t25.5 -26t25.5 -24.5l24 -21q25 -20 33 -27.5t27 -25.5t32 -34.5t25 -34.5q19 -25 38 -44t38 -36t26 -24q2 -2 24.5 -23t46.5 -46t50 -56q1 -1 5 -6.5t6 -8t7 -8.5t8 -8.5t8.5 -8t8.5 -7t9 -5t9 -2.5t9 0 q30 10 143 150q4 5 12.5 16.5t13 18t7.5 14.5t2 14q-4 18 -19.5 36t-43 41.5t-37.5 33.5q-7 7 -22.5 25.5t-30 31t-31.5 21.5q-45 19 -61 49.5t-5 58.5q4 14 24.5 27.5t33.5 13.5q23 0 63.5 -30.5t83.5 -92.5q46 -62 121 -120q25 -18 53 4q9 5 49 41q34 27 66 75 q11 40 51.5 66.5t81.5 3.5q43 -29 0 -96q-6 -8 -16 -15t-30 -22t-42 -33q-14 -11 -40.5 -44.5t-35.5 -43.5q-10 -10 -5.5 -27t17.5 -28q21 -17 59.5 -54t59.5 -55q44 -35 68 -35q81 0 221 164q44 46 127 148q5 6 35 38t45 52q2 2 9 11t9.5 12t9 10.5t10 10t9.5 8t10.5 7.5 t10.5 4t12 2q47 0 69 -30q12 -19 11 -35t-7 -24.5t-22 -24.5q-60 -64 -96 -90q-20 -17 -56 -60.5t-63 -64.5q-48 -37 -102 -91.5t-58 -58.5q-12 -12 -34.5 -30t-33.5 -30.5t-12 -23.5q-6 -28 -39 -48t-65 -7q-34 14 -87.5 53.5t-95.5 77.5q-82 88 -131 88q-11 0 -18 -5 t-18 -18t-21 -22q-12 -12 -22.5 -24.5t-15.5 -19.5t-12.5 -18.5t-10.5 -15.5q-20 -30 -31.5 -45t-31.5 -36t-42.5 -30.5t-48.5 -9.5q-38 0 -76 35q-30 21 -63 62q-48 67 -109 112q-93 71 -190 189q-23 27 -73.5 61t-51.5 35q-20 9 -49 49z" />
<glyph unicode="x" horiz-adv-x="1249" d="M178 0q-5 41 76 86q26 15 125 117q8 8 26 24t31 28t27 26.5t21.5 26.5t7.5 20q0 13 -6.5 28t-12.5 24t-21 28t-20 26q-24 34 -63 78q-18 19 -45 49.5t-45 49.5t-29 26q-24 17 -39.5 43t-15.5 41q0 30 20.5 52t48.5 18q40 -7 61 -27.5t37 -56.5q8 -20 28 -45.5t38 -43 t48 -46t42 -40.5q5 -5 22 -29.5t34.5 -40.5t33.5 -16q17 0 51.5 30t65.5 67q2 2 26.5 29.5t45.5 48.5q51 47 73 81q19 25 32 40t33.5 29.5t39.5 14.5q38 0 53.5 -20.5t12 -42t-14.5 -33.5q-31 -41 -90 -69q-32 -16 -63 -47.5t-66.5 -76.5t-54.5 -65q-28 -29 -37 -47.5 t-0.5 -42t41.5 -57.5q20 -20 48 -47.5t45 -44.5t28 -29q36 -45 153 -125q30 -20 41 -55.5t-2 -49.5q-14 -27 -40 -32.5t-60 14.5q-14 9 -28.5 21.5t-23.5 21t-26.5 26.5t-24.5 25q-5 5 -30.5 38t-30.5 38q-16 16 -69.5 61t-78.5 72q-22 31 -55 31q-20 0 -40 -15.5t-54 -50.5 q-5 -5 -19.5 -21t-21.5 -23.5t-20 -19t-25 -20.5q-28 -16 -60.5 -44.5t-42.5 -49.5q-34 -66 -96 -61q-17 2 -30.5 15.5t-14.5 39.5z" />
<glyph unicode="y" horiz-adv-x="1259" d="M139 727q0 26 21 48t49 22q9 0 17.5 -1.5t15 -3.5t13.5 -6.5t11 -7.5t10 -10t9 -10t9 -11.5t9 -11.5q99 -133 209 -219q59 -52 104 -70q6 -3 19 -12t20 -12q34 13 72 51q21 16 46 39t42 40t44 44.5t36 36.5q14 14 46 57.5t58 61.5q17 14 25.5 19.5t18.5 8t26 2.5 q13 0 23 -4t16 -10.5t9 -14.5t3 -18q0 -48 -80 -104q-21 -16 -40.5 -34t-30.5 -30.5t-26.5 -31.5t-22.5 -27q-6 -6 -14 -14.5t-14 -15t-13.5 -14t-15.5 -14t-17 -12.5q-20 -17 -37.5 -38.5t-38 -51t-33.5 -45.5q-20 -29 -29 -62t-10.5 -58t-1.5 -83v-538q6 -58 6 -119 q0 -37 -13 -67.5t-42 -30.5q-99 0 -76 129q7 50 7 147q0 29 4 111.5t4 148.5q0 15 -2 58t-2 75q0 22 -2 67.5t-2 68.5t-1 50t-1 42.5t2 31.5q-8 0 -15.5 2.5t-14 7.5t-11.5 10t-11.5 14t-9.5 14t-9.5 15.5t-8.5 14.5q-11 12 -34 39.5t-38 44.5t-37 39t-41 37 q-24 18 -75 71.5t-83 73.5q-17 11 -26 18.5t-17 21.5t-8 30z" />
<glyph unicode="z" horiz-adv-x="1034" d="M76 678q0 29 25 49.5t59 20.5q18 0 50 -8.5t50 -8.5q48 0 84 -1t55 -2t25 -1q15 0 57.5 5t75.5 5q23 0 78.5 5.5t95.5 5.5q33 0 50 -26.5t16 -60.5t-17 -59q-24 -40 -84 -106t-84 -97q-59 -72 -73.5 -95.5t-10.5 -45.5q3 -11 23 -27.5t66 -62t96 -113.5q46 -59 64 -119.5 t18 -103.5q0 -16 -3 -32.5t-6.5 -26t-12.5 -34t-13 -36.5q-27 -83 -103 -141q-19 -15 -44.5 -19.5t-50 6.5t-36.5 39q-6 16 10 31.5t41.5 29.5t28.5 17q44 39 60 119q18 107 -29 186q-26 57 -76 106.5t-108 67.5q-46 20 -65 38t-19 46q0 13 2 22.5t7.5 18.5t8.5 12.5 t13.5 13.5t13.5 13q59 57 103 113.5t75 89.5q14 16 23 34t12 35.5t-7.5 31t-33.5 18.5q-32 3 -74 -4q-8 -3 -35.5 -1.5t-42 3t-47.5 6t-53 6.5q-3 0 -28.5 -2t-57.5 -2q-17 0 -55 -3t-58 -3q-17 0 -38 14t-21 33z" />
<glyph unicode="{" horiz-adv-x="806" d="M238 791q-3 5 0 35.5t1 35t2.5 35t4 35t5 34.5t5.5 34t6 34t7 34t7 34t7 33q14 92 79 237q45 95 154 164q62 37 121 41q27 0 48.5 -14t21.5 -41q0 -47 -105 -70q-31 -6 -56 -23.5t-37.5 -32.5t-27.5 -38q-82 -124 -88 -258q-1 -17 -14.5 -139.5t-13.5 -219.5 q0 -43 9 -139t9 -153q0 -1 -6 -130q-2 -24 -3.5 -49t-1 -54t1 -49.5t3 -54.5t3.5 -49.5t4.5 -54l4.5 -49.5q24 -248 94 -326q83 -87 154 -116q15 -5 20 -7t16 -9t15 -19t4 -29q0 -26 -12.5 -39.5t-33 -14t-38 2.5t-35.5 10q-23 9 -43 20t-37.5 25t-30.5 25t-27 30t-21.5 28 t-19 30t-15 27t-14 28t-11.5 23q-2 4 -11.5 23.5t-11.5 24.5t-10 22.5t-10.5 24.5t-8.5 22.5t-9 26t-7 25.5t-7 29.5t-5 30.5q-20 199 -20 604q0 49 -8 151.5t-8 158.5z" />
<glyph unicode="|" d="M389 926q0 12 1 47t3 136.5t4 254.5q0 202 -4 231q-12 71 60 97q38 12 55 -21.5t10 -73.5q-20 -120 -20 -303q0 -106 10 -229q14 -201 14 -598q0 -35 -1 -73t-2.5 -82.5t-2.5 -71.5q-12 -222 0 -449q2 -98 2 -254q0 -78 -10.5 -103.5t-44.5 -25.5q-13 0 -34.5 26.5 t-31.5 59.5q-9 37 -9 81t4.5 101.5t4.5 90.5q0 351 3 588t3 241q0 47 -7 155.5t-7 174.5z" />
<glyph unicode="}" horiz-adv-x="806" d="M100 -547q0 47 105 70q31 6 56 23.5t37.5 32.5t27.5 38q82 124 88 258q1 18 14.5 139.5t13.5 218.5q0 43 -9 139.5t-9 153.5l6 129q2 24 3.5 49t1 54.5t-1 49.5t-3 55t-3.5 49.5t-4.5 54t-4.5 49.5q-24 247 -94 325q-84 88 -154 117q-15 5 -20 7t-16 9t-15 19t-4 29 q0 26 12.5 39.5t32.5 14t37.5 -2.5t35.5 -10q20 -8 39 -18.5t34 -20.5t30 -24.5t25 -24t22 -27t18 -25.5t16.5 -27t13 -24l12 -24l10.5 -21q26 -54 35 -74.5t23 -65t21 -89.5q21 -209 21 -604q0 -49 8 -151.5t8 -158.5q3 -5 0 -35.5t-1 -35t-2.5 -35t-4 -35t-5 -34.5 t-5.5 -34t-6 -34t-7 -34t-7 -34t-7 -33q-13 -88 -80 -237q-45 -96 -153 -164q-62 -37 -121 -41q-27 0 -48.5 14t-21.5 41z" />
<glyph unicode="~" d="M119 752q0 41 24.5 78t89.5 75q55 35 129 35q62 0 107 -39q85 -80 137 -80t70 56q2 11 15.5 28t25.5 21q42 15 64.5 -21t-5.5 -84q-41 -63 -86 -96t-108 -33q-50 0 -115 70q-16 17 -36.5 27.5t-36.5 15t-50 12.5q-38 9 -67 -10.5t-44 -69.5q-1 -4 -4 -13.5t-5 -13 t-6.5 -10.5t-10 -10t-15 -5.5t-22.5 -2.5q-18 0 -34.5 25t-16.5 45z" />
<glyph unicode="&#xa1;" horiz-adv-x="817" d="M313 926q0 94 115 94q29 0 48 -21.5t24 -47.5t2 -50q-10 -55 -31.5 -72.5t-56.5 -17.5q-55 0 -78 24.5t-23 90.5zM334 -627q-12 64 4 168q0 3 5 43.5t4 44t-3 39.5q-15 98 -6 228q0 37 1 80t2.5 95.5t2.5 82.5q0 18 2 71.5t2 73.5q0 25 -3 74t-3 73q0 51 18 88t52 37 q36 0 49 -41t-2 -127q-10 -52 -2 -174q0 -24 1 -97t0.5 -126t-5.5 -106q-5 -49 4 -162q5 -43 5 -130t5 -130q2 -25 2 -90q3 -31 -8 -56t-33 -32q-28 -11 -56 8.5t-38 64.5z" />
<glyph unicode="&#xa2;" horiz-adv-x="946" d="M229 313q-4 70 33 188.5t80 176.5q27 39 61.5 72t59.5 49.5t44 33.5t21 31q4 18 4 42t-2 46.5t-2 26.5q0 28 16.5 43.5t47.5 15.5q18 0 39 -19t24 -48q0 -12 -3 -32t-4 -33t1.5 -26.5t15.5 -20.5t37 -7q31 0 50.5 -13.5t19.5 -31.5q0 -31 -16 -48.5t-64 -17.5 q-14 0 -20.5 -1t-16.5 -7.5t-14 -22.5t-4 -42q0 -12 -2 -57t-2 -48q-6 -233 -6 -274q0 -88 2 -169.5t2 -90.5q0 -21 4 -30t20 -9q32 0 51 -17t19 -39q0 -17 -16.5 -40t-40.5 -23q-16 0 -25 -5t-11 -16.5t-1.5 -20.5t3 -28.5t3.5 -29.5q4 -55 -15 -80t-51 -25q-39 0 -58 24.5 t-11 55.5q20 79 10 131q-14 49 -31 60q-1 1 -9.5 7t-11 7.5t-11 7.5t-12.5 9.5t-13 11t-15.5 13.5t-16.5 15.5t-19 19t-21 22t-24 26.5q-85 97 -99 237zM358 338q0 -56 28.5 -122t70.5 -116q26 -30 51 -26q14 2 14 16q-2 30 0.5 112.5t-0.5 114.5q-3 26 1.5 99.5t4.5 99.5 q0 86 -2 162q-2 19 -24 15t-33 -17q-86 -101 -86 -164q0 -22 -12.5 -85t-12.5 -89z" />
<glyph unicode="&#xa3;" horiz-adv-x="1005" d="M143 389q0 27 24.5 41.5t57.5 7.5q23 -6 60 -6q43 0 43 66q0 26 7 77.5t7 81.5q0 224 107 394q39 67 106 112t141 45q12 0 19 -0.5t19 -3.5t18.5 -8.5t12 -17.5t5.5 -29q0 -28 -22.5 -49.5t-65.5 -14.5q-32 4 -60.5 -10.5t-49 -40t-34 -50t-22.5 -48.5q-57 -162 -57 -315 q0 -109 -2 -138q0 -18 8.5 -24.5t28.5 -8t28 -4.5q11 -5 26.5 -5t42 2.5t46.5 2.5q37 0 74 3q50 5 70 -14.5t20 -45.5q0 -19 -12 -32t-29 -13q-18 0 -86 8t-101 2q-48 -6 -71 -6q-19 0 -27.5 -11t-9 -29.5t1.5 -43.5q1 -20 0 -35.5t-4 -36t-4 -36.5q-2 -19 10 -34t39 -18 q100 -5 192 0q11 0 51 3.5t80 3.5q39 0 69 -17.5t30 -44.5q0 -21 -25 -39.5t-41 -13.5q-28 11 -82 4q-33 -4 -52.5 -3.5t-55.5 4t-58 3.5q-15 0 -47.5 4.5t-57 3.5t-44.5 -12q-16 -10 -38 -16t-45 -2t-32 22q-16 0 -46 -7t-48 -7q-24 0 -38.5 19t-14.5 42q0 21 23.5 37 t64.5 16h8h8t7 1t9 3.5t9 6.5q27 20 10 139q-1 7 -2.5 25.5t-3.5 30t-10.5 22t-24.5 10.5q-5 0 -34.5 -2t-65.5 -2q-25 0 -42.5 14t-17.5 37z" />
<glyph unicode="&#xa4;" horiz-adv-x="1148" d="M170 700q0 66 49 66q42 0 84 -59q31 -45 60.5 -76.5t48.5 -38.5q2 -3 9.5 -1.5t11 3t11.5 6t13 6.5q56 21 94 25q17 1 41 -4t42 -10.5t39.5 -3.5t37.5 14q1 1 104 110q1 1 5 7.5t5.5 7.5t5.5 6.5t6 7t6.5 5t8.5 5t9.5 3.5t12 2.5t13.5 0.5q26 0 42.5 -19.5t16.5 -37.5 q0 -16 -9 -30t-15.5 -19.5t-26.5 -20.5q-14 -13 -26 -28t-27 -34.5t-25 -31.5q-16 -24 -16 -57q0 -16 8 -53.5t8 -61.5q0 -12 -2.5 -27t-8 -41t-9.5 -49q-1 -7 -5.5 -22.5t-3 -26t12.5 -20.5q32 -37 121 -88q71 -36 47 -90q-20 -33 -74 -19q-35 14 -99 69t-69 58 q-12 12 -34.5 12t-41.5 -12q-35 -17 -73 -22q-37 -4 -95 18q-36 14 -51 6q-12 -9 -29.5 -28t-23.5 -31q-21 -42 -37 -60q-46 -49 -98 -36q-15 2 -26 22.5t-3 42.5q1 3 4 11.5t5 13t6.5 11.5t11.5 14t16 14q52 43 72 79q24 27 -2 56q-25 34 -29.5 76.5t1 67.5t19.5 71 q1 2 3 8.5t3 8.5t2.5 8t1.5 9v8.5t-1 9.5t-3.5 9.5t-5.5 11.5q-30 54 -106 119q-3 2 -16.5 10t-19 16t-7.5 23zM408 342q4 -51 36.5 -78t112.5 -49q35 -12 69.5 8.5t55 57.5t20.5 73q0 67 -12 84q-33 20 -49 43q-13 17 -21 24.5t-29 13.5t-54 3q-17 -3 -25 -5t-26 -11 t-40 -25q-46 -33 -38 -139z" />
<glyph unicode="&#xa5;" horiz-adv-x="1005" d="M125 1085q0 21 13.5 39.5t35.5 18.5q34 0 50.5 -13t39.5 -51q31 -48 78 -75q19 -8 41.5 -42t34.5 -42q7 -5 23 -22t31 -29.5t26 -12.5q23 0 62.5 42t45.5 46q25 15 55.5 62t45.5 63q3 2 29 26t45.5 37t35.5 13q27 0 45.5 -13t18.5 -36q0 -7 -2.5 -14.5t-5.5 -12.5 t-9.5 -11.5t-10.5 -9t-12.5 -9.5t-11.5 -9q-66 -46 -161 -160q-58 -68 -76 -79q-3 -51 -10.5 -69.5t-34.5 -25.5q-10 -12 -4 -73v-15.5v-14.5t0.5 -11.5t2.5 -11t5 -8t7.5 -7.5t11.5 -4.5t16 -3.5q23 -4 48.5 -4t59 2t54.5 2q29 0 51 -15.5t22 -44.5q0 -28 -25 -41.5 t-65 -13.5q-18 0 -64.5 5t-78.5 5q-11 0 -18 -5.5t-9.5 -18.5t-3 -22t-0.5 -27q0 -39 59 -39q13 0 48 6t63 6q52 0 74 -63q10 -31 -9 -43.5t-51 -12.5q-18 0 -69 6.5t-84 3.5q-53 0 -41 -108q2 -29 -1 -88t-3 -78q0 -127 4 -162q2 -26 2 -58t-1 -69t-1 -53q0 -27 13.5 -106 t10.5 -103q-3 -21 -25 -37t-42 -16q-23 0 -43 21.5t-23 62.5q-1 13 3 70t5 130.5t-8 200.5q-2 26 1 70t3 59q-6 173 -8 191q-1 28 -7 39.5t-32.5 18.5t-85.5 7q-40 0 -58 17.5t-18 40.5q0 30 17 44.5t59 14.5q15 0 49 -6t60 -6q16 0 16 53q0 66 -37 66q-18 0 -51.5 -3.5 t-50.5 -3.5h-12h-14t-13 1t-13 2.5t-10.5 5.5t-9.5 9t-5.5 13.5t-2.5 18.5q0 26 12.5 39t24.5 14.5t35 1.5h6q79 0 106 -8q16 -5 26 8t12.5 39.5t3 49t-1 50.5t-1.5 31q0 17 -7.5 34.5t-26 38t-28 30.5t-36.5 34l-27 23q-16 15 -45.5 43.5t-54.5 51.5t-49 42q-13 9 -19 14 t-13 20t-7 37z" />
<glyph unicode="&#xa6;" d="M387 1268q0 3 2 18.5t2.5 20.5t2 19.5t1.5 21.5t0.5 19.5t-0.5 21t-3 19t-5 19.5q0 1 -3 15t-3.5 16.5t-2 14.5t-0.5 15.5t2 13t4.5 12.5t8.5 9.5t12 8.5t17.5 4t23.5 2q46 0 56.5 -37t-0.5 -108q-5 -21 2 -99q4 -29 4 -63t-2 -80.5t-2 -75.5q0 -23 -1 -66t-1 -65 q0 -34 3 -100t3 -99q0 -41 -16 -67.5t-46 -26.5q-19 0 -34 18.5t-19 47.5q-3 17 -3 40.5t1.5 52.5t1.5 42q0 17 1 68t0.5 87t-5.5 72q-12 113 -2 189zM393 195q-15 97 -2 144.5t66 47.5q26 0 39 -14t13 -33.5t-1 -40.5v-111q0 -137 8 -223q6 -159 6 -160q0 -77 -4 -114 q-1 -39 4.5 -98t5.5 -91q1 -23 1.5 -44.5t-16 -37.5t-50.5 -16q-28 0 -46 26.5t-18 61.5q0 30 2 107t2 127q0 94 -4 145q-2 39 0 160.5t-6 163.5z" />
<glyph unicode="&#xa7;" horiz-adv-x="1079" d="M293 494q-19 174 106 337q16 23 15 49.5t-17 49.5q-36 51 -63 121t-27 108q0 68 13.5 114t58.5 89q13 13 38.5 40.5t41 43.5t43.5 37t59 35q63 20 84 15q11 -4 17 -11q12 -15 15 -29.5t-6 -30.5t-15.5 -24t-22.5 -25q-18 -18 -63.5 -27t-65.5 -24q-22 -17 -40 -46.5 t-18 -41.5q0 -79 9.5 -133t21 -79.5t35.5 -66.5q39 -55 166 -209q108 -129 108 -288q0 -33 -4 -61.5t-8 -46.5t-17.5 -46t-19 -38.5t-27 -45.5t-28.5 -47q-23 -41 -31 -69.5t-5.5 -41t11.5 -26.5q31 -44 51.5 -111t16.5 -123q-22 -138 -94 -219q-12 -11 -53 -59t-74 -72 q-22 -19 -48 -24t-44.5 7t-18.5 38q0 48 56 75q63 32 98 93q42 68 51 149q10 71 -29.5 149.5t-101.5 145.5q-56 60 -92 115.5t-47 121.5q-29 85 -35 132zM414 504q0 -19 19.5 -57t23.5 -54q42 -152 90 -155q16 -3 35 12t34 43q41 77 41 205q0 43 -27.5 109.5t-76.5 137.5 q-8 15 -22 25t-29 10q-24 0 -47 -36t-37 -107q-4 -29 -4 -133z" />
<glyph unicode="&#xa8;" horiz-adv-x="1044" d="M219 1038q0 40 40 84.5t95 44.5q27 0 65 -40.5t38 -79.5q0 -98 -150 -101q-29 0 -58.5 25t-29.5 67zM598 1038q0 42 41 85.5t74 43.5q113 0 108 -114q-3 -49 -41.5 -75t-87.5 -26q-34 0 -64 26.5t-30 59.5z" />
<glyph unicode="&#xa9;" horiz-adv-x="1277" d="M233 285q0 153 42.5 256.5t142.5 160.5q64 39 88.5 51.5t60.5 20t84 2.5q55 -6 109.5 -22.5t107 -44t93.5 -72.5t59 -100q26 -73 23 -160.5t-37 -173.5q-26 -76 -57 -119.5t-79 -73.5q-106 -65 -272 -65q-44 0 -106 24t-119 66q-140 100 -140 250zM334 362 q0 -178 88 -247q45 -42 89 -56t167 -24q75 -9 138.5 37t96.5 119.5t33 150.5q4 94 -22.5 165.5t-94 118.5t-172.5 52q-43 2 -89 -3.5t-96.5 -28t-72.5 -60.5q-65 -118 -65 -224zM467 319q-4 66 8 111.5t57 87.5q27 27 61 40.5t99 12.5q23 0 38 -11t15 -23q0 -21 -16.5 -38.5 t-32.5 -17.5q-8 0 -21 1.5t-21 2t-19.5 -3t-22.5 -12.5q-11 -8 -23.5 -23t-15.5 -24q-4 -17 -4.5 -34.5t1 -41.5t1.5 -39q0 -33 30 -46t91 -13q48 0 56 -39q6 -30 -24 -52.5t-67 -17.5q-73 8 -131 62t-59 118z" />
<glyph unicode="&#xaa;" horiz-adv-x="870" d="M203 250q0 82 141 63q49 -6 113 -6q70 0 100 6q57 9 84 -8.5t27 -44.5q0 -33 -26 -55t-64 -15q-74 15 -160 15q-75 0 -119 -10q-40 -7 -68 9.5t-28 45.5zM209 662q0 109 100 180q38 27 61.5 36t61.5 9q29 0 66 -21q3 24 18.5 40t36.5 16q18 0 28.5 -4t14.5 -14.5t5 -18.5 t1 -25q-2 -39 -2 -80.5t1 -86.5t1 -66q0 -15 -3 -46.5t-1.5 -61.5t10.5 -70q3 -17 -14 -39t-41 -21q-28 4 -46.5 33t-8.5 86q1 10 -2 10q-1 0 -26 -16q-17 -11 -32 -15q-59 -16 -145 31q-35 22 -59.5 63t-24.5 81zM324 692q-13 -71 20 -94q16 -10 35 -17.5t43.5 -10.5 t36.5 12q46 22 39 110q0 56 -4 64q-8 11 -25.5 20.5t-30.5 9.5q-100 0 -114 -94z" />
<glyph unicode="&#xab;" horiz-adv-x="1155" d="M213 362q3 24 15 42.5t23.5 27t37.5 25.5q35 37 102 101t92 89q5 4 19 16.5t25.5 21t19.5 11.5q25 8 55 -9t31 -46q2 -20 -9 -32t-33 -22t-28 -14q-40 -32 -65 -57q-89 -76 -125 -119q-16 -18 -13.5 -37t27.5 -47q4 -4 23.5 -25t27.5 -28.5t26 -25.5t29.5 -27.5t27.5 -22 t30 -20.5q57 -35 57 -80q0 -17 -18.5 -35t-50.5 -18q-17 0 -29.5 6.5t-19 14t-18 22.5t-19.5 24q-14 16 -29 30t-38.5 33t-27.5 23q-16 13 -47 46t-57 55q-2 2 -12 13t-13 15t-8.5 13.5t-7 18t-0.5 17.5zM557 358q0 44 51 70q20 8 32.5 20.5t27 33t28.5 34.5 q126 160 164 162q46 11 70 -6q21 -20 16 -49t-24 -37q-39 -20 -111 -92q-73 -76 -84 -111q-5 -41 21 -76q4 -4 22.5 -27.5t39 -43.5t46.5 -37q24 -14 37.5 -23t29.5 -27t21 -38q8 -36 -9 -57.5t-58 -14.5q-16 3 -35 17.5t-40.5 35.5t-31.5 29l-33.5 33.5t-34.5 33.5 q-71 71 -96 107q-29 15 -39 26.5t-10 36.5z" />
<glyph unicode="&#xac;" d="M154 408q0 26 34 49t97 16q70 -10 127 -10q82 0 127 4q122 5 157 2q60 -6 60 -55q0 -42 -21 -52q-2 -4 -4 -12.5t-4 -11.5q-16 -50 -16 -78q0 -17 5 -52t5 -54q3 -32 -17 -56t-47 -24t-43 20.5t-16 48.5q0 53 2 95.5t2 46.5q0 12 -0.5 21t-3 15.5t-3 11t-5.5 7.5 t-6.5 4.5t-9 2.5t-10 1h-12.5h-13q-20 0 -65.5 -4t-49.5 0q-114 23 -199 8q-28 -6 -49.5 9t-21.5 47z" />
<glyph unicode="&#xad;" horiz-adv-x="1079" d="M219 324q-5 27 14 48t50 21q29 0 78.5 -7t72.5 -7q20 0 60 8q6 0 30 3t32 2.5t36 -3.5q74 -15 178 -2q85 4 90 -53q4 -36 -7.5 -51t-41.5 -15q-11 0 -37 3t-47 3q-26 0 -84.5 4.5t-95.5 4.5q-21 0 -75 -5.5t-95 -5.5q-8 0 -22 0.5t-26 0.5t-22 -1q-33 -3 -58 14t-30 38z " />
<glyph unicode="&#xae;" horiz-adv-x="1200" d="M238 274q-9 128 35 231.5t141 166.5q50 35 113.5 54.5t119.5 8.5q84 -17 146.5 -51.5t107.5 -110.5q34 -56 52.5 -126t11.5 -134q-8 -84 -44 -163.5t-92 -110.5q-90 -48 -131 -61t-112 -13q-81 0 -151 31t-116 80q-75 84 -81 198zM334 344q9 -76 20.5 -118.5t38.5 -69.5 q38 -39 94 -70t105 -31q62 0 103.5 8t79 30t59.5 67t30 114q9 113 -24 199q-39 83 -58 100q-42 43 -81.5 58.5t-112.5 15.5q-107 0 -180 -90q-87 -100 -74 -213zM449 487q0 26 17 44t50 12q31 -4 127 -4q58 0 85.5 -24.5t27.5 -82.5q0 -42 -19.5 -71t-19.5 -42 q0 -23 17.5 -67.5t17.5 -71.5q0 -55 -50 -55q-9 0 -21 12.5t-19 36.5q-1 5 -5.5 22t-6.5 24t-7 20.5t-11 20t-14 14.5t-19.5 11t-25.5 3q-24 0 -30 -14t0 -37q0 -6 2 -30t2 -30q0 -57 -43 -57q-47 0 -47 67q0 11 1 35.5t1 30.5q-2 31 -2 108q1 28 -8 125zM537 403 q0 -39 10 -41q28 -9 84 0q7 1 12 2.5t9 4.5t7 5.5t4.5 7t2.5 7t1.5 8t0.5 7v7.5v7q0 22 -18 30.5t-58 8.5q-45 0 -52 -14q-3 -5 -3 -11v-29z" />
<glyph unicode="&#xaf;" horiz-adv-x="974" d="M223 1026q1 35 32 47.5t69 3.5q113 -13 188 0q10 4 45 4q2 0 15.5 -1t39.5 -1t66 2q27 0 52.5 -20t25.5 -45q0 -41 -29 -54.5t-61 -3.5q-61 19 -140 19q-25 -2 -52.5 -6t-48.5 -6t-48 -2q-23 -2 -46.5 -2.5t-35.5 -2.5q-30 -7 -54 15.5t-18 52.5z" />
<glyph unicode="&#xb0;" horiz-adv-x="755" d="M203 700q0 21 8.5 51t26.5 65.5t55.5 60t85.5 24.5t90 -37t63 -82.5t21 -79.5q0 -47 -16.5 -82t-43 -51.5t-50.5 -24t-46 -7.5q-44 0 -86.5 16t-75 54.5t-32.5 92.5zM299 713q0 -30 30.5 -58t49.5 -28q41 7 57.5 22t16.5 43q0 39 -22.5 77t-57.5 38q-38 0 -56 -22 t-18 -72z" />
<glyph unicode="&#xb1;" d="M150 481q0 24 29 41t79 17q41 0 76 -7q5 -1 17 -3t17 -3t13.5 -0.5t15.5 2.5q4 1 6.5 4.5t4.5 7t3 8.5t2 9.5t1 10.5v9.5v8.5v6q0 17 -1 53.5t-1 54.5q-3 30 14.5 55t46.5 25q15 0 28.5 -8.5t22 -24.5t8.5 -36l-5 -36q-5 -35 -5 -89v-7.5v-9v-9.5t1 -10.5t2 -9.5t3 -8.5 t4.5 -7t6 -5t8.5 -1.5q14 0 46 5t54 5q13 0 24.5 -1.5t31.5 -5.5t28 -5q31 -8 31 -53q0 -47 -51 -55q-18 0 -57.5 5t-65.5 5q-4 0 -12 0.5t-12.5 0.5t-9.5 -1t-7 -4q-6 -3 -9.5 -8.5t-7 -17.5t-4.5 -15q-3 -16 -1 -30t5.5 -49.5t1.5 -68.5q0 -26 -17 -40.5t-48 -14.5 q-14 0 -25.5 7t-18.5 19t-11 27.5t-4 34.5q0 8 4 53.5t1.5 73.5t-16.5 33q-7 2 -31.5 0.5t-31.5 3.5q-14 4 -29 4.5t-43 -1t-49 -1.5q-27 0 -45 15.5t-18 41.5zM160 49q0 29 32 51t101 15q108 -19 246 -6q10 0 45 3t60 2.5t52 -5.5q52 -17 52 -54q2 -17 -9 -31t-30 -22 t-41 -8q-28 0 -79 -2t-73 -2q-13 0 -28.5 -0.5t-22 -0.5t-15 1t-18.5 4q-30 4 -66 4.5t-78 -1t-55 -1.5q-26 0 -49.5 14.5t-23.5 38.5z" />
<glyph unicode="&#xb2;" horiz-adv-x="835" d="M168 508q-3 22 12 43.5t35 21.5q36 0 88 93q41 76 49 125q7 50 0 77t-43 93q-27 51 -96 90q-22 11 -26.5 36t13 45.5t50.5 20.5q6 0 11.5 -1t10.5 -3t8.5 -3.5t9 -5.5t8.5 -6.5l9 -7.5t10 -8q21 -19 42 -48t44 -66.5t31 -49.5q26 -40 36 -80t7 -94q-3 -29 -26 -83.5 t-43 -80.5q-17 -26 -8 -34.5t46 -8.5q15 0 42 -1.5t50.5 -1.5t47.5 3q32 6 59 -14t27 -55q0 -22 -13.5 -33t-33.5 -10.5t-43 2.5q-24 2 -50 2t-43.5 2t-42.5 10q-18 6 -47.5 5t-48 -4t-50 -8t-52.5 -7q-16 0 -25 1t-23 4.5t-22 13.5t-10 26z" />
<glyph unicode="&#xb3;" horiz-adv-x="835" d="M233 1110q0 20 15.5 32t28 14.5t22.5 2.5q17 0 49 -8t51 -8q23 -2 66.5 4t66.5 6q22 1 34.5 -0.5t24 -14t11.5 -38.5q0 -12 -31 -51q-48 -55 -69 -95q-1 -3 -23 -35t-22 -53q0 -26 33 -68.5t38 -66.5q35 -96 35 -168q0 -14 -4 -30t-15 -38t-18 -36.5t-25 -42.5t-24 -37 t-27 -40t-22 -32q-12 -19 -40 -39t-50 -20q-28 0 -55 21t-15 61q3 15 45 47q7 6 23.5 19.5t25 21t21 20.5t22 27.5t17.5 32.5q16 39 16 129q0 59 -41 133l-43 35q-9 5 -17.5 20.5t-8.5 30.5q0 4 0.5 7t1.5 5.5t3.5 7t4.5 8t7 11.5t9 14q24 33 41 67t17 48q0 27 -18.5 32.5 t-42.5 -0.5t-48 3q-6 2 -20 5t-20 5.5t-14.5 8t-12 16t-3.5 26.5z" />
<glyph unicode="&#xb4;" horiz-adv-x="686" d="M260 903q0 7 4 16.5t7.5 15t12.5 18t11 14.5q59 97 76 170q5 20 27 34.5t42 18.5q34 1 51 -15t17 -45q0 -7 -2 -15t-4.5 -13.5t-8.5 -15.5t-9.5 -15t-12.5 -16.5t-12 -16.5q-39 -47 -90 -139q-25 -41 -70 -41q-18 0 -28.5 12t-10.5 33z" />
<glyph unicode="&#xb6;" horiz-adv-x="1079" d="M121 1212q0 13 -1 48.5t-1 54t5 43t15 41.5q44 80 80.5 124t104.5 85q58 36 202 32q17 0 76.5 -2t103 0t89.5 9q39 5 67.5 -16.5t28.5 -57.5q0 -14 -4 -23t-9 -14t-18 -7t-23 -2.5t-32 -0.5q-20 0 -30.5 -12.5t-13 -24t-4.5 -42.5q-1 -6 -1 -9q-6 -59 -6 -124.5t3 -150.5 t3 -137q0 -46 -5.5 -138.5t-5.5 -139.5q0 -118 7 -275q-4 -100 -4 -295q0 -148 -3 -301q-7 -178 3 -289q1 -25 2.5 -52t-15 -47.5t-53.5 -20.5q-11 0 -19.5 2t-14.5 6.5t-10.5 8.5t-7 12.5t-4.5 13t-2.5 16t-0.5 16v17.5v16q0 30 5 98.5t5 102.5q0 56 2 160t2 153 q-2 93 -12.5 278.5t-12.5 282.5q-2 78 12.5 216t12.5 218q-4 133 -4 398q0 19 -21.5 31t-40.5 12q-84 5 -84 -68q0 -56 -2 -170t-2 -170q0 -31 2 -103.5t2 -132t-4 -102.5q-8 -86 1.5 -217t2.5 -211q-10 -111 3.5 -279.5t13.5 -240.5v-254v-8q0 -23 -0.5 -34t-4.5 -27 t-11.5 -22.5t-22.5 -11t-37 -1.5q-32 5 -45.5 28.5t-11.5 55t5 67.5q1 4 1 6q5 26 0.5 119t-4.5 117q0 1 6 289q0 77 -14 278q-19 296 -13 416q0 24 -17 46.5t-39 38t-48 38t-39 43.5q-4 6 -28.5 41t-32 48.5t-17.5 44.5t-10 62z" />
<glyph unicode="&#xb7;" horiz-adv-x="737" d="M238 457q5 47 50.5 94t98.5 47q33 0 75 -40t42 -71q0 -48 -39.5 -96.5t-91.5 -48.5q-26 0 -39.5 1.5t-34.5 10t-39 25.5q-26 43 -22 78z" />
<glyph unicode="&#xb8;" horiz-adv-x="901" d="M223 -219q1 8 4 14t7 9.5t7.5 6t9.5 3t9 0.5h9h7q10 0 17.5 -1.5t14 -6.5t9.5 -7t8.5 -9.5t6.5 -8.5q38 -30 84 -35t78 6q31 8 51 29.5t20 48.5q0 54 -78 68q-13 2 -48 -6.5t-64 -6.5q-20 2 -39 25t-12 41q21 47 30.5 96t10.5 51q21 72 57 72q20 0 39 -24.5t2 -51.5 q-14 -28 -14 -94q0 -33 55 -25q67 8 127.5 -37t46.5 -116q-13 -80 -84.5 -120t-161.5 -40q-22 0 -40.5 2.5t-28.5 4.5t-30.5 8.5t-33.5 9.5q-38 11 -60 37t-16 57z" />
<glyph unicode="&#xb9;" horiz-adv-x="835" d="M125 508q-7 39 14.5 53.5t75.5 9.5q0 -3 52 -1l52 1q3 0 13 -0.5t14 0t10.5 3t10.5 8.5t6 16q27 120 14 203q-4 22 1.5 76.5t-1.5 78.5q-5 15 -14.5 24t-23 11t-22.5 2.5t-25 -2t-19 -2.5q-14 -4 -54 -4q-20 0 -42.5 12t-22.5 33q0 37 20 48.5t66 11.5q19 0 44 -0.5 t36.5 -0.5t26 1t26.5 4q8 1 24.5 4.5t24.5 4t25 -2.5q51 -15 51 -62q0 -25 -7 -82t-7 -92q0 -34 2 -130.5t2 -137.5q0 -13 13 -21t32 -8q84 0 125 6q28 3 52 -9t21 -36q-3 -34 -15.5 -46.5t-39.5 -12.5q-16 0 -46.5 4t-55.5 4t-47 -8q-93 -11 -144 0q-10 4 -22 6t-27.5 1.5 t-25.5 -0.5t-30 -3t-26.5 -4t-28.5 -5.5t-24 -4.5q-37 -4 -58.5 12.5t-25.5 36.5z" />
<glyph unicode="&#xba;" horiz-adv-x="899" d="M205 631q-5 63 41.5 147t97.5 99q26 43 105 43q62 0 134 -75.5t79 -172.5q6 -64 -60 -133q-30 -31 -86 -58.5t-92 -27.5q-89 0 -151 55t-68 123zM213 248q0 37 45.5 55t120.5 4q15 -4 30.5 -5t43 0t34.5 1q33 0 67 8t44 8q47 0 68.5 -15.5t25.5 -63.5q3 -37 -27 -49.5 t-67 -6.5q-108 11 -160 11q-17 0 -63.5 -5.5t-85.5 -5.5q-27 0 -51.5 14.5t-24.5 49.5zM317 647q5 -46 30 -68t77 -22q49 0 80 45q22 24 38 56.5t9 58.5q-8 57 -53 39q-20 -15 -34.5 -20.5t-35 0t-41.5 26.5q-14 14 -25 14q-22 0 -36.5 -39t-8.5 -90z" />
<glyph unicode="&#xbb;" horiz-adv-x="1169" d="M209 63q0 25 11 35.5t29 15t25 11.5q29 18 70 59q20 20 62.5 59.5t62.5 59.5q18 18 20.5 31t-3 20t-27.5 27l-6 6q-31 30 -85 77.5t-79 72.5q-17 11 -26.5 18.5t-19.5 24t-10 36.5q0 18 17.5 35t48.5 17q25 0 38 -8.5t26.5 -28.5t23.5 -29q38 -43 96 -86 q19 -13 50.5 -46.5t52.5 -51.5q48 -41 45 -76q-5 -28 -18 -47.5t-24.5 -28t-31.5 -18.5q-28 -28 -94 -91t-105 -102q-43 -43 -65 -51q-27 -8 -55.5 9t-28.5 50zM578 596q-8 36 9 57.5t56 14.5q10 -1 18 -5.5t20.5 -17l14.5 -14.5q13 -13 55 -50t64 -63q22 -20 42.5 -41 t41.5 -42.5t31 -31.5q12 -6 17.5 -10t9.5 -14t4 -27q0 -26 -11 -40.5t-35.5 -29.5t-37.5 -28q-48 -56 -56 -64q-44 -61 -91 -110.5t-68 -50.5q-1 0 -9.5 -2t-11.5 -2.5t-10.5 -1t-12.5 1t-12 4t-14 6.5q-18 12 -20 31t6.5 34.5t19.5 20.5q8 3 17 9t15.5 11t17.5 15.5 t17.5 16.5t20.5 20.5t21 21.5q75 70 88 109q5 42 -23 75q-77 95 -129 123q-26 13 -42 29t-23 45z" />
<glyph unicode="&#xbc;" horiz-adv-x="1832" d="M125 508q-7 39 14.5 53.5t75.5 9.5q0 -3 52 -1l52 1q3 0 13 -0.5t14 0t10.5 3t10.5 8.5t6 16q27 120 14 203q-4 22 1.5 76.5t-1.5 78.5q-5 15 -14.5 24t-23 11t-22.5 2.5t-25 -2t-19 -2.5q-14 -4 -54 -4q-20 0 -42.5 12t-22.5 33q0 37 20 48.5t66 11.5q19 0 44 -0.5 t36.5 -0.5t26 1t26.5 4q8 1 24.5 4.5t24.5 4t25 -2.5q51 -15 51 -62q0 -25 -7 -82t-7 -92q0 -34 2 -130.5t2 -137.5q0 -13 13 -21t32 -8q84 0 125 6q28 3 52 -9t21 -36q-3 -34 -15.5 -46.5t-39.5 -12.5q-16 0 -46.5 4t-55.5 4t-47 -8q-93 -11 -144 0q-10 4 -22 6t-27.5 1.5 t-25.5 -0.5t-30 -3t-26.5 -4t-28.5 -5.5t-24 -4.5q-37 -4 -58.5 12.5t-25.5 36.5zM612 10q7 28 18 48.5t28.5 43.5t25.5 37q8 10 32.5 41.5t35.5 46t28 41t29 51.5q34 64 82 127q83 115 156 250q5 9 53 101q14 33 40.5 63.5t49.5 30.5q22 0 36 -6t19.5 -18.5t7.5 -23.5 t2 -28q0 -16 -8 -31.5t-17 -26t-34 -36.5q-60 -60 -104 -150q-43 -93 -109 -178q-12 -14 -21.5 -28t-13.5 -21.5t-10.5 -21t-9.5 -19.5q-24 -59 -94 -153q-58 -77 -72 -144q-7 -29 -15 -46t-22 -24t-25 -8.5t-36 -1.5q-28 0 -44.5 28.5t-7.5 55.5zM995 59q0 15 18.5 39 t47.5 47q27 31 74 78q4 4 16.5 19.5t27 32t29.5 32.5q1 1 8.5 7.5t19.5 18.5t30 29.5t44.5 45.5t57.5 61q4 6 13 25t14 24q4 4 12 14t12 14.5t11.5 12t13 11t13.5 6t16 2.5q12 0 20.5 -3t14 -11t8.5 -15.5t4.5 -24.5t1.5 -28.5v-36.5q0 -78 -0.5 -137.5t-1 -89.5t-1 -48.5 t-1 -26.5t-0.5 -12q0 -17 8 -26t23 -9.5t30 1.5t35.5 5t32.5 3q13 0 19.5 -1t16 -5.5t15.5 -16t10 -30.5q3 -19 -3.5 -31.5t-22.5 -17.5t-28 -6t-32 -1q-14 0 -30.5 0.5t-23 0.5t-15 -1t-15.5 -4q-3 -1 -5.5 -3.5t-4.5 -7t-3.5 -8t-2.5 -10.5t-1.5 -12t-1 -14t-1.5 -14 q-4 -31 1 -93t5 -92q0 -67 -41 -80q-34 -10 -52.5 13.5t-25.5 66.5q-5 27 0 133q0 7 2 29t2 33q-6 51 -41 57q-88 10 -149 10q-80 0 -148 -18q-36 -9 -56 3t-20 60zM1194 119q9 -6 41.5 -7t84 1t64.5 2q4 0 8 2t6.5 4.5t5.5 7.5t4 7.5l3 7.5l2 6q6 30 7 58t-1 61t-2 44 q0 35 -7 46.5t-17 6t-25 -23.5q-15 -16 -35.5 -39t-31.5 -34.5t-26.5 -27t-31.5 -28.5q-30 -26 -49 -54.5t0 -39.5z" />
<glyph unicode="&#xbd;" horiz-adv-x="1998" d="M125 508q-7 39 14.5 53.5t75.5 9.5q0 -3 52 -1l52 1q3 0 13 -0.5t14 0t10.5 3t10.5 8.5t6 16q27 120 14 203q-4 22 1.5 76.5t-1.5 78.5q-5 15 -14.5 24t-23 11t-22.5 2.5t-25 -2t-19 -2.5q-14 -4 -54 -4q-20 0 -42.5 12t-22.5 33q0 37 20 48.5t66 11.5q19 0 44 -0.5 t36.5 -0.5t26 1t26.5 4q8 1 24.5 4.5t24.5 4t25 -2.5q51 -15 51 -62q0 -25 -7 -82t-7 -92q0 -34 2 -130.5t2 -137.5q0 -13 13 -21t32 -8q84 0 125 6q28 3 52 -9t21 -36q-3 -34 -15.5 -46.5t-39.5 -12.5q-16 0 -46.5 4t-55.5 4t-47 -8q-93 -11 -144 0q-10 4 -22 6t-27.5 1.5 t-25.5 -0.5t-30 -3t-26.5 -4t-28.5 -5.5t-24 -4.5q-37 -4 -58.5 12.5t-25.5 36.5zM612 10q7 28 18 48.5t28.5 43.5t25.5 37q8 10 32.5 41.5t35.5 46t28 41t29 51.5q34 64 82 127q83 115 156 250q5 9 53 101q14 33 40.5 63.5t49.5 30.5q22 0 36 -6t19.5 -18.5t7.5 -23.5 t2 -28q0 -16 -8 -31.5t-17 -26t-34 -36.5q-60 -60 -104 -150q-43 -93 -109 -178q-12 -14 -21.5 -28t-13.5 -21.5t-10.5 -21t-9.5 -19.5q-24 -59 -94 -153q-58 -77 -72 -144q-7 -29 -15 -46t-22 -24t-25 -8.5t-36 -1.5q-28 0 -44.5 28.5t-7.5 55.5zM1331 14q-3 22 12 44 t35 22q15 0 34.5 19t31.5 37t22 36q15 27 21 39.5t15.5 37.5t13.5 48q7 50 0 77t-43 93q-26 51 -97 90q-22 11 -26.5 36t13 45.5t50.5 20.5q5 0 9 -0.5t8.5 -1.5t7.5 -2t7 -3.5t6.5 -4t7 -5t7 -5t8 -6t7.5 -6.5q21 -19 41.5 -48t43 -66.5t31.5 -49.5q26 -40 36 -80t7 -94 q-2 -19 -13.5 -51.5t-27 -64t-28.5 -48.5q-17 -26 -7.5 -34.5t46.5 -8.5q13 0 32.5 -1t34 -1.5t34.5 0t38 2.5q32 6 59 -14.5t27 -55.5q0 -17 -7.5 -27t-21 -13.5t-28 -3.5t-33.5 3q-23 2 -49.5 2.5t-43.5 2.5t-42 10q-18 6 -47.5 5t-48.5 -4.5t-50 -8.5t-53 -7 q-15 0 -24.5 1t-23.5 4.5t-22 13.5t-10 26z" />
<glyph unicode="&#xbe;" horiz-adv-x="1728" d="M233 1110q0 20 15.5 32t28 14.5t22.5 2.5q17 0 49 -8t51 -8q23 -2 66.5 4t66.5 6q22 1 34.5 -0.5t24 -14t11.5 -38.5q0 -12 -31 -51q-48 -55 -69 -95q-1 -3 -23 -35t-22 -53q0 -26 33 -68.5t38 -66.5q35 -96 35 -168q0 -14 -4 -30t-15 -38t-18 -36.5t-25 -42.5t-24 -37 t-27 -40t-22 -32q-12 -19 -40 -39t-50 -20q-28 0 -55 21t-15 61q3 15 45 47q7 6 23.5 19.5t25 21t21 20.5t22 27.5t17.5 32.5q16 39 16 129q0 59 -41 133l-43 35q-9 5 -17.5 20.5t-8.5 30.5q0 4 0.5 7t1.5 5.5t3.5 7t4.5 8t7 11.5t9 14q24 33 41 67t17 48q0 27 -18.5 32.5 t-42.5 -0.5t-48 3q-6 2 -20 5t-20 5.5t-14.5 8t-12 16t-3.5 26.5zM508 10q7 28 18 48.5t28.5 43.5t25.5 37q8 10 32.5 41.5t35.5 46t28 41t29 51.5q37 68 81 127q83 115 156 250q5 9 53 101q14 33 40.5 63.5t49.5 30.5q41 0 53.5 -20.5t12.5 -55.5q0 -16 -8 -31.5t-17 -26 t-34 -36.5q-62 -62 -105 -150q-44 -96 -108 -178q-12 -14 -22 -28t-13.5 -21l-11 -22l-9.5 -19q-24 -59 -94 -153q-58 -77 -72 -144q-7 -29 -15 -46t-22 -24t-25 -8.5t-36 -1.5q-28 0 -44 28.5t-7 55.5zM891 59q0 34 65 86q27 31 74 78q67 77 74 84q1 1 8.5 7.5t19.5 18.5 t30 29.5t44.5 45.5t57.5 61q4 6 12.5 25t13.5 24q4 4 12 14t12 14.5t11.5 12t13 11t13.5 6t16 2.5q12 0 20.5 -3t14 -11t8.5 -15.5t4.5 -24.5t1.5 -28.5v-36.5q0 -78 -0.5 -137.5t-1 -89.5t-1 -48.5t-1 -26.5t-0.5 -12q0 -17 8 -25.5t23 -9.5t30 1t35.5 5t32.5 3 q17 0 26 -1.5t20 -14t16 -37.5q3 -19 -3.5 -31.5t-22.5 -17.5t-28 -6t-32 -1q-14 0 -30.5 0.5t-23 0.5t-15 -1t-15.5 -4q-3 -1 -5 -2.5t-3.5 -4.5t-3 -5.5t-2.5 -7t-2 -8t-1.5 -9.5t-1 -9.5t-1.5 -11t-1 -11.5q-4 -31 1 -93t5 -92q0 -67 -41 -80q-34 -10 -52.5 13.5 t-25.5 66.5q-5 27 0 133q0 7 2.5 29.5t2.5 32.5q-6 51 -41 57q-88 10 -150 10q-79 0 -147 -18q-36 -9 -56 3t-20 60zM1090 119q9 -6 41.5 -7t84 1t64.5 2q4 0 8 2t6.5 4.5t5.5 7.5t4 7.5l3 7.5l2 6q6 30 7 58t-1 61t-2 44q0 35 -7 46.5t-17 6t-25 -23.5q-15 -16 -35.5 -39 t-31.5 -34.5t-26.5 -27t-31.5 -28.5q-30 -26 -49 -54.5t0 -39.5z" />
<glyph unicode="&#xbf;" horiz-adv-x="901" d="M244 -393q1 8 12 115t29 163q40 114 174 289q45 48 45 150q0 27 0.5 57.5t1 45.5t-0.5 33t-3 34q-6 47 18 86t58 36q17 -3 27.5 -16.5t13 -33t3.5 -43t-1 -46.5q-3 -21 -5.5 -63.5t0.5 -55.5q7 -74 7 -94q0 -41 -23 -83.5t-57 -69.5q-68 -49 -112.5 -169.5t-65.5 -258.5 q-17 -176 43 -375q14 -48 43 -83.5t100 -101.5q8 -9 54.5 -31t56.5 -50q12 -37 -2.5 -67t-63.5 -30q-37 0 -88 51q-10 11 -40 40.5t-40.5 41t-34.5 38.5t-37.5 48t-33 53t-37.5 68q-34 66 -45 156.5t4 165.5zM457 895q15 64 45 91.5t86 27.5q42 0 60.5 -46.5t2.5 -86.5 q-10 -24 -37.5 -49t-70.5 -25q-39 0 -66 27.5t-20 60.5z" />
<glyph unicode="&#xc0;" horiz-adv-x="1978" d="M150 6q10 25 33.5 57t45.5 52q39 39 39 45q-6 37 27 73t74 39q96 143 149 209q154 191 283 334q27 32 180 229q28 40 59 29q24 -11 50 -74q49 -42 83 -85.5t46 -66t41 -81.5q46 -90 102 -170q49 -74 131 -164q34 -34 88 -94q114 -152 170 -244q88 -28 88 -90 q0 -18 -19 -44t-55 -26q-52 0 -79.5 29t-59.5 103q-11 27 -35.5 45t-54.5 18t-83.5 -7t-90.5 -7q-27 0 -83 2t-81 2q-30 0 -89 1t-89 1q-58 0 -170 -6t-168 -6q-17 0 -84.5 5t-118 3t-80.5 -17q-28 -12 -57 -45q-52 -57 -63 -75q-27 -42 -39 -51q-14 -9 -35 -9 q-29 0 -51.5 21t-3.5 65zM498 250q1 -12 13 -20t34.5 -11t37 -3.5t41.5 -0.5h7q82 0 117 -6q216 29 370 29q34 0 122 -6.5t138 -2.5q5 0 17.5 -2t17.5 -2q37 0 44.5 29.5t-9.5 44.5q-22 26 -67 94.5t-68 98.5q-172 224 -223 333q-31 60 -74 62q-19 0 -45 -29t-78 -99 q-11 -15 -16 -22q-97 -140 -254 -325q-28 -36 -57 -67t-41.5 -44t-20 -26t-6.5 -25zM823 1477q-11 59 56 69q22 3 44.5 -14.5t30.5 -40.5q3 -8 26 -50.5t28 -68.5q7 -30 39 -65q34 -49 34 -74t-10 -35t-39 -10q-41 0 -63 53q-6 14 -16 31t-18.5 28.5t-24 31t-21.5 28.5 q-64 75 -66 117z" />
<glyph unicode="&#xc1;" horiz-adv-x="1978" d="M150 6q10 25 33.5 57t45.5 52q39 39 39 45q-6 37 27 73t74 39q96 143 149 209q154 191 283 334q27 32 180 229q28 40 59 29q24 -11 50 -74q49 -42 83 -85.5t46 -66t41 -81.5q46 -90 102 -170q49 -74 131 -164q34 -34 88 -94q114 -152 170 -244q88 -28 88 -90 q0 -18 -19 -44t-55 -26q-52 0 -79.5 29t-59.5 103q-11 27 -35.5 45t-54.5 18t-83.5 -7t-90.5 -7q-27 0 -83 2t-81 2q-30 0 -89 1t-89 1q-58 0 -170 -6t-168 -6q-17 0 -84.5 5t-118 3t-80.5 -17q-28 -12 -57 -45q-52 -57 -63 -75q-27 -42 -39 -51q-14 -9 -35 -9 q-29 0 -51.5 21t-3.5 65zM498 250q1 -12 13 -20t34.5 -11t37 -3.5t41.5 -0.5h7q82 0 117 -6q216 29 370 29q34 0 122 -6.5t138 -2.5q5 0 17.5 -2t17.5 -2q37 0 44.5 29.5t-9.5 44.5q-22 26 -67 94.5t-68 98.5q-172 224 -223 333q-31 60 -74 62q-19 0 -45 -29t-78 -99 q-11 -15 -16 -22q-97 -140 -254 -325q-28 -36 -57 -67t-41.5 -44t-20 -26t-6.5 -25zM905 1212q0 7 4 16.5t7.5 15t12.5 18t11 14.5q59 97 76 170q5 20 27 34.5t42 18.5q68 3 68 -59q0 -7 -2 -15t-4.5 -13.5t-8.5 -15.5t-9.5 -15t-12.5 -16.5t-12 -16.5q-38 -45 -90 -140 q-25 -41 -70 -41q-18 0 -28.5 12t-10.5 33z" />
<glyph unicode="&#xc2;" horiz-adv-x="1978" d="M150 6q10 25 33.5 57t45.5 52q39 39 39 45q-6 37 27 73t74 39q96 143 149 209q154 191 283 334q27 32 180 229q28 40 59 29q24 -11 50 -74q49 -42 83 -85.5t46 -66t41 -81.5q46 -90 102 -170q49 -74 131 -164q34 -34 88 -94q114 -152 170 -244q88 -28 88 -90 q0 -18 -19 -44t-55 -26q-52 0 -79.5 29t-59.5 103q-11 27 -35.5 45t-54.5 18t-83.5 -7t-90.5 -7q-27 0 -83 2t-81 2q-30 0 -89 1t-89 1q-58 0 -170 -6t-168 -6q-17 0 -84.5 5t-118 3t-80.5 -17q-28 -12 -57 -45q-52 -57 -63 -75q-27 -42 -39 -51q-14 -9 -35 -9 q-29 0 -51.5 21t-3.5 65zM498 250q1 -12 13 -20t34.5 -11t37 -3.5t41.5 -0.5h7q82 0 117 -6q216 29 370 29q34 0 122 -6.5t138 -2.5q5 0 17.5 -2t17.5 -2q37 0 44.5 29.5t-9.5 44.5q-22 26 -67 94.5t-68 98.5q-172 224 -223 333q-31 60 -74 62q-19 0 -45 -29t-78 -99 q-11 -15 -16 -22q-97 -140 -254 -325q-28 -36 -57 -67t-41.5 -44t-20 -26t-6.5 -25zM723 1272q1 6 3.5 11.5t8 12.5t8.5 10.5t11 11t10 9.5q30 27 35 35q19 22 68.5 67.5t70.5 71.5q20 26 45 35q31 16 60 -26q4 -6 12 -20l2 -3q13 -20 30.5 -38t45 -42.5t38.5 -34.5 q7 -6 24.5 -19.5t28 -22t21.5 -22.5t13 -25.5t-5.5 -26.5t-27.5 -29q-27 -13 -51 -8.5t-33 18.5q-54 82 -133 133q-12 7 -24 7.5t-18 -2t-20 -9.5q-50 -27 -84 -94q-26 -54 -69 -66q-38 -8 -57.5 9t-12.5 57z" />
<glyph unicode="&#xc3;" horiz-adv-x="1978" d="M150 6q10 25 33.5 57t45.5 52q39 39 39 45q-6 37 27 73t74 39q96 143 149 209q154 191 283 334q27 32 180 229q28 40 59 29q24 -11 50 -74q49 -42 83 -85.5t46 -66t41 -81.5q46 -90 102 -170q49 -74 131 -164q34 -34 88 -94q114 -152 170 -244q88 -28 88 -90 q0 -18 -19 -44t-55 -26q-52 0 -79.5 29t-59.5 103q-11 27 -35.5 45t-54.5 18t-83.5 -7t-90.5 -7q-27 0 -83 2t-81 2q-30 0 -89 1t-89 1q-58 0 -170 -6t-168 -6q-17 0 -84.5 5t-118 3t-80.5 -17q-28 -12 -57 -45q-52 -57 -63 -75q-27 -42 -39 -51q-14 -9 -35 -9 q-29 0 -51.5 21t-3.5 65zM498 250q1 -12 13 -20t34.5 -11t37 -3.5t41.5 -0.5h7q82 0 117 -6q216 29 370 29q34 0 122 -6.5t138 -2.5q5 0 17.5 -2t17.5 -2q37 0 44.5 29.5t-9.5 44.5q-22 26 -67 94.5t-68 98.5q-172 224 -223 333q-31 60 -74 62q-19 0 -45 -29t-78 -99 q-11 -15 -16 -22q-97 -140 -254 -325q-28 -36 -57 -67t-41.5 -44t-20 -26t-6.5 -25zM690 1296q-8 26 21 66q42 65 80.5 94t97.5 29q14 0 49 -24.5t66 -59.5q21 -24 30 -32.5t26.5 -18t37.5 -9.5q13 0 22.5 2.5t18.5 10.5t14 14t15 20.5t16 22.5q3 4 9.5 17.5t11.5 21 t16.5 12.5t27.5 2q18 -6 30 -28.5t9 -40.5q-5 -38 -24.5 -61.5t-83.5 -65.5q-55 -35 -111 -35q-29 0 -52.5 11t-37.5 24.5t-33 33t-33 29.5q-7 5 -16.5 12t-15 11.5t-12 8t-9.5 3.5q-8 0 -17 -3t-21 -16t-17 -34q-4 -12 -14 -27.5t-21 -19.5q-18 -10 -47 -2t-33 32z" />
<glyph unicode="&#xc4;" horiz-adv-x="1978" d="M150 6q10 25 33.5 57t45.5 52q39 39 39 45q-6 37 27 73t74 39q96 143 149 209q154 191 283 334q27 32 180 229q28 40 59 29q24 -11 50 -74q49 -42 83 -85.5t46 -66t41 -81.5q46 -90 102 -170q49 -74 131 -164q34 -34 88 -94q114 -152 170 -244q88 -28 88 -90 q0 -18 -19 -44t-55 -26q-52 0 -79.5 29t-59.5 103q-11 27 -35.5 45t-54.5 18t-83.5 -7t-90.5 -7q-27 0 -83 2t-81 2q-30 0 -89 1t-89 1q-58 0 -170 -6t-168 -6q-17 0 -84.5 5t-118 3t-80.5 -17q-28 -12 -57 -45q-52 -57 -63 -75q-27 -42 -39 -51q-14 -9 -35 -9 q-29 0 -51.5 21t-3.5 65zM498 250q1 -12 13 -20t34.5 -11t37 -3.5t41.5 -0.5h7q82 0 117 -6q216 29 370 29q34 0 122 -6.5t138 -2.5q5 0 17.5 -2t17.5 -2q37 0 44.5 29.5t-9.5 44.5q-22 26 -67 94.5t-68 98.5q-172 224 -223 333q-31 60 -74 62q-19 0 -45 -29t-78 -99 q-11 -15 -16 -22q-97 -140 -254 -325q-28 -36 -57 -67t-41.5 -44t-20 -26t-6.5 -25zM686 1348q0 40 40 84.5t95 44.5q27 0 65 -41t38 -80q0 -98 -150 -101q-29 0 -58.5 25.5t-29.5 67.5zM1065 1348q0 42 41 85.5t74 43.5q113 0 108 -115q-3 -49 -41.5 -74.5t-87.5 -25.5 q-34 0 -64 26.5t-30 59.5z" />
<glyph unicode="&#xc5;" horiz-adv-x="1978" d="M150 6q10 25 33.5 57t45.5 52q39 39 39 45q-6 37 27 73t74 39q96 143 149 209q154 191 283 334q27 32 180 229q28 40 59 29q24 -11 50 -74q49 -42 83 -85.5t46 -66t41 -81.5q46 -90 102 -170q49 -74 131 -164q34 -34 88 -94q114 -152 170 -244q88 -28 88 -90 q0 -18 -19 -44t-55 -26q-52 0 -79.5 29t-59.5 103q-11 27 -35.5 45t-54.5 18t-83.5 -7t-90.5 -7q-27 0 -83 2t-81 2q-30 0 -89 1t-89 1q-58 0 -170 -6t-168 -6q-17 0 -84.5 5t-118 3t-80.5 -17q-28 -12 -57 -45q-52 -57 -63 -75q-27 -42 -39 -51q-14 -9 -35 -9 q-29 0 -51.5 21t-3.5 65zM498 250q1 -12 13 -20t34.5 -11t37 -3.5t41.5 -0.5h7q82 0 117 -6q216 29 370 29q34 0 122 -6.5t138 -2.5q5 0 17.5 -2t17.5 -2q37 0 44.5 29.5t-9.5 44.5q-22 26 -67 94.5t-68 98.5q-172 224 -223 333q-31 60 -74 62q-19 0 -45 -29t-78 -99 q-11 -15 -16 -22q-97 -140 -254 -325q-28 -36 -57 -67t-41.5 -44t-20 -26t-6.5 -25zM842 1292q-12 107 86 150q44 22 63 22q77 0 115.5 -37.5t38.5 -91.5q0 -59 -50 -110t-104 -51q-55 0 -100 29.5t-49 88.5zM928 1325q0 -35 17 -54.5t46 -19.5q16 0 25 2t21 10t18 29.5 t6 55.5q0 12 -21 12q-35 0 -73 26q-39 -18 -39 -61z" />
<glyph unicode="&#xc6;" horiz-adv-x="1511" d="M121 51q0 10 1.5 18t6.5 17.5t8 14t11.5 16.5t11.5 16q25 25 62 81t52 75q13 18 34.5 47t43 58.5t41.5 58.5q9 16 21 33t24.5 32.5t14.5 18.5q10 14 21 29.5t19 27.5l20 30t18 27.5t19.5 31t18 28.5t19.5 32.5t18 30.5t20.5 34.5t20.5 33.5q46 80 144 172q26 26 47 36.5 t61 10.5q21 0 52 -3t54.5 -5.5t53 -1.5t55.5 8q14 2 66 2q12 0 22.5 -6t17.5 -15t11.5 -17.5t7.5 -16.5q18 -35 -5.5 -53t-68.5 -13q-11 0 -55 5t-59 5q-7 -2 -24 -2t-45 1t-46 1q-30 0 -45.5 -19.5t-13.5 -53.5q3 -34 3.5 -68.5t0 -54t-0.5 -39t1 -23.5q1 -13 0.5 -67 t3.5 -107q1 -35 14.5 -52t30.5 -17q25 0 81 5t83 5q18 0 43 2.5t44 4t41.5 2.5t39 -2.5t31.5 -11.5t25 -24.5t15 -40.5q4 -28 -17 -41.5t-52 -13.5q-15 0 -80 5.5t-108 7.5t-85 -5q-25 -6 -39 -12t-27.5 -18.5t-19.5 -34t-6 -54.5q0 -13 1 -36.5t1 -32.5q0 -42 -8 -123.5 t-8 -124.5q0 -14 5.5 -24t16.5 -14t22.5 -6t28 0t28 3.5t29 5t23.5 4.5l76 2q87 -7 94 -65q4 -33 -18.5 -44.5t-59.5 -11.5q-68 0 -134 4.5t-96 4.5t-58 -9q-25 -7 -48.5 25.5t-31.5 79.5q-8 45 8 114q4 20 6 44t2.5 41.5t-0.5 48t-1.5 43t-3 48.5t-3.5 44q-12 72 -45 75 q-56 13 -123 0q-21 -1 -60 4t-59 5q-19 0 -39.5 -12.5t-41.5 -38.5t-30.5 -40.5t-27.5 -41.5q-38 -85 -86 -136q-11 -22 -19 -33.5t-23.5 -21.5t-35.5 -10t-39.5 18.5t-19.5 38.5zM551 449q25 -11 96 -11q24 0 43 1t31 3t21 4.5t13.5 5t7 6t3 6t0.5 5.5q0 40 2 69.5t2 32.5 q0 26 -8 76q-2 35 -2 119v6q0 16 -1 21t-6.5 3.5t-17.5 -14.5q-4 -3 -10.5 -17.5t-13.5 -23.5q-10 -15 -30 -42.5t-30 -41.5q-51 -59 -88 -131q-2 -5 -9 -14.5t-12 -17t-8 -16t1 -16t16 -13.5z" />
<glyph unicode="&#xc7;" horiz-adv-x="1013" d="M223 532q14 153 135 293q191 224 355 224q49 0 49 -58q0 -34 -33 -50t-98 -21q-191 -113 -252 -273q-25 -87 -25 -125q0 -117 19 -160q9 -26 24.5 -50.5t16.5 -26.5q2 -4 11.5 -21t12 -22t11 -20.5t12.5 -21t12 -19t13 -20t13.5 -17.5t15 -18.5t15 -16t17.5 -15.5 q36 -29 110 -55q3 -6 35 -2t43 4q28 0 54 -26t26 -56q0 -29 -32.5 -38t-110.5 -11q-8 -31 -8 -82q0 -33 55 -25q67 8 127.5 -37t46.5 -116q-13 -80 -84.5 -120t-161.5 -40q-22 0 -40.5 2.5t-28.5 4.5t-30.5 8.5t-33.5 9.5q-38 11 -60 37t-16 57q1 8 4 14t7 9.5t8 6t10 3 t9 0.5h9h7q10 0 17.5 -2t13.5 -6t9 -7t8 -9.5t7 -8.5q38 -30 84 -35t78 6q31 8 51 29.5t20 48.5q0 54 -78 68q-13 2 -48 -6.5t-64 -6.5q-20 2 -39 25t-12 41q15 35 22 61.5t10.5 49.5t6.5 34q-121 44 -220 176q-54 72 -99.5 208t-35.5 224z" />
<glyph unicode="&#xc8;" horiz-adv-x="1118" d="M100 492q0 21 13 35t31.5 18.5t38 5.5t32.5 -4q10 -3 22 -3.5t23 1.5t27.5 4t31.5 2q28 0 33 106q1 41 16.5 88t39.5 84q10 15 32.5 48.5t32.5 48.5q8 12 26 40.5t29 45.5t26.5 36.5t27.5 30.5q8 7 28.5 27.5t35 33t34.5 28t40.5 23t39.5 7.5q22 3 41.5 -8.5t27.5 -28.5 t0.5 -36t-32.5 -31q-35 -20 -62 -36.5t-47.5 -33.5t-32 -27t-25.5 -29.5t-18.5 -26t-19.5 -30.5q-25 -50 -39 -71q-46 -71 -72 -252q-1 -5 -3 -14.5t-3 -14t0 -10t5.5 -8t13.5 -2.5q49 -2 152 3t136 5q27 0 57.5 2t37.5 2q33 -3 65.5 -26t32.5 -42q0 -9 -8.5 -21.5t-24 -23 t-31.5 -10.5q-36 0 -102.5 7t-106.5 7q-91 3 -153 -3.5t-62 -24.5q0 -96 26.5 -210.5t57.5 -144.5q31 -40 84 -114q72 -96 97 -105q65 -29 65 -78q0 -22 -17 -40.5t-48 -18.5q-27 0 -67.5 35.5t-102.5 107.5q-156 178 -203 359q-29 114 -37 217q0 9 -25 24q-24 4 -36 3 t-38 -7.5t-40 -7.5q-103 0 -103 58zM506 1567q-11 59 55 69q22 3 45 -14.5t31 -40.5q3 -7 25.5 -50t27.5 -69q7 -30 39 -65q13 -18 19 -27.5t11 -22.5t5 -24q0 -25 -10 -35t-39 -10q-42 0 -64 53q-6 14 -16 31t-18.5 28.5t-24 31t-21.5 28.5q-63 73 -65 117z" />
<glyph unicode="&#xc9;" horiz-adv-x="1118" d="M100 492q0 21 13 35t31.5 18.5t38 5.5t32.5 -4q10 -3 22 -3.5t23 1.5t27.5 4t31.5 2q28 0 33 106q1 41 16.5 88t39.5 84q10 15 32.5 48.5t32.5 48.5q8 12 26 40.5t29 45.5t26.5 36.5t27.5 30.5q8 7 28.5 27.5t35 33t34.5 28t40.5 23t39.5 7.5q22 3 41.5 -8.5t27.5 -28.5 t0.5 -36t-32.5 -31q-35 -20 -62 -36.5t-47.5 -33.5t-32 -27t-25.5 -29.5t-18.5 -26t-19.5 -30.5q-25 -50 -39 -71q-46 -71 -72 -252q-1 -5 -3 -14.5t-3 -14t0 -10t5.5 -8t13.5 -2.5q49 -2 152 3t136 5q27 0 57.5 2t37.5 2q33 -3 65.5 -26t32.5 -42q0 -9 -8.5 -21.5t-24 -23 t-31.5 -10.5q-36 0 -102.5 7t-106.5 7q-91 3 -153 -3.5t-62 -24.5q0 -96 26.5 -210.5t57.5 -144.5q31 -40 84 -114q72 -96 97 -105q65 -29 65 -78q0 -22 -17 -40.5t-48 -18.5q-27 0 -67.5 35.5t-102.5 107.5q-156 178 -203 359q-29 114 -37 217q0 9 -25 24q-24 4 -36 3 t-38 -7.5t-40 -7.5q-103 0 -103 58zM594 1303q0 7 4 16t8 15t12.5 17.5t10.5 14.5q59 97 76 170q4 14 16.5 25.5t26.5 18.5t26 9q23 1 38.5 -6t22.5 -20.5t7 -32.5q0 -7 -2 -15t-4.5 -13.5t-8.5 -15.5t-9.5 -15t-12.5 -16.5t-12 -16.5q-40 -48 -91 -140q-25 -41 -69 -41 q-18 0 -28.5 12.5t-10.5 33.5z" />
<glyph unicode="&#xca;" horiz-adv-x="1118" d="M100 492q0 21 13 35t31.5 18.5t38 5.5t32.5 -4q10 -3 22 -3.5t23 1.5t27.5 4t31.5 2q28 0 33 106q1 41 16.5 88t39.5 84q10 15 32.5 48.5t32.5 48.5q8 12 26 40.5t29 45.5t26.5 36.5t27.5 30.5q8 7 28.5 27.5t35 33t34.5 28t40.5 23t39.5 7.5q22 3 41.5 -8.5t27.5 -28.5 t0.5 -36t-32.5 -31q-35 -20 -62 -36.5t-47.5 -33.5t-32 -27t-25.5 -29.5t-18.5 -26t-19.5 -30.5q-25 -50 -39 -71q-46 -71 -72 -252q-1 -5 -3 -14.5t-3 -14t0 -10t5.5 -8t13.5 -2.5q49 -2 152 3t136 5q27 0 57.5 2t37.5 2q33 -3 65.5 -26t32.5 -42q0 -9 -8.5 -21.5t-24 -23 t-31.5 -10.5q-36 0 -102.5 7t-106.5 7q-91 3 -153 -3.5t-62 -24.5q0 -96 26.5 -210.5t57.5 -144.5q31 -40 84 -114q72 -96 97 -105q65 -29 65 -78q0 -22 -17 -40.5t-48 -18.5q-27 0 -67.5 35.5t-102.5 107.5q-156 178 -203 359q-29 114 -37 217q0 9 -25 24q-24 4 -36 3 t-38 -7.5t-40 -7.5q-103 0 -103 58zM408 1362q1 6 3.5 11.5t8 12.5t8.5 10.5t11 11t10 9.5q28 25 34 35q17 20 44.5 45t53 49t42.5 45q20 26 45 35q10 5 18.5 4.5t14.5 -3.5t13.5 -11.5t11.5 -14.5t12 -19q2 -3 3 -5q13 -20 31 -38.5t45.5 -42t38.5 -34.5q7 -6 24.5 -19.5 t28 -22t21.5 -22.5t12.5 -25.5t-6 -26.5t-27.5 -29q-27 -13 -51 -8.5t-33 18.5q-17 26 -40 51.5t-46.5 46t-46.5 35.5q-12 7 -23.5 7.5t-17 -2t-20.5 -9.5q-50 -27 -84 -94q-26 -54 -70 -66q-38 -8 -57 9t-12 57z" />
<glyph unicode="&#xcb;" horiz-adv-x="1118" d="M100 492q0 21 13 35t31.5 18.5t38 5.5t32.5 -4q10 -3 22 -3.5t23 1.5t27.5 4t31.5 2q28 0 33 106q1 41 16.5 88t39.5 84q10 15 32.5 48.5t32.5 48.5q8 12 26 40.5t29 45.5t26.5 36.5t27.5 30.5q8 7 28.5 27.5t35 33t34.5 28t40.5 23t39.5 7.5q22 3 41.5 -8.5t27.5 -28.5 t0.5 -36t-32.5 -31q-35 -20 -62 -36.5t-47.5 -33.5t-32 -27t-25.5 -29.5t-18.5 -26t-19.5 -30.5q-25 -50 -39 -71q-46 -71 -72 -252q-1 -5 -3 -14.5t-3 -14t0 -10t5.5 -8t13.5 -2.5q49 -2 152 3t136 5q27 0 57.5 2t37.5 2q33 -3 65.5 -26t32.5 -42q0 -9 -8.5 -21.5t-24 -23 t-31.5 -10.5q-36 0 -102.5 7t-106.5 7q-91 3 -153 -3.5t-62 -24.5q0 -96 26.5 -210.5t57.5 -144.5q31 -40 84 -114q72 -96 97 -105q65 -29 65 -78q0 -22 -17 -40.5t-48 -18.5q-27 0 -67.5 35.5t-102.5 107.5q-156 178 -203 359q-29 114 -37 217q0 9 -25 24q-24 4 -36 3 t-38 -7.5t-40 -7.5q-103 0 -103 58zM375 1438q0 40 40 84.5t95 44.5q27 0 64.5 -41t37.5 -80q0 -97 -149 -100q-29 0 -58.5 25t-29.5 67zM754 1438q0 42 40.5 85.5t73.5 43.5q114 0 109 -115q-3 -49 -41.5 -74.5t-87.5 -25.5q-34 0 -64 26.5t-30 59.5z" />
<glyph unicode="&#xcc;" horiz-adv-x="1308" d="M225 -35q0 49 68 49q1 0 46.5 -2.5t87.5 -3.5t95 2q51 7 56 70q4 49 4 205q0 14 0.5 41t0.5 43.5t-1 39.5t-4 44q-2 31 -6.5 87.5t-6.5 96.5t-2 76q0 54 8 172q3 64 -14 71q-16 5 -22.5 5.5t-25.5 -3t-26 -4.5q-49 -3 -102 -3.5t-91 19.5t-32 60q3 43 107 43q9 0 31 -0.5 t34 -0.5t31.5 1.5t36.5 5.5q68 12 188 -4q35 -2 309 -2q18 0 27.5 -1t23 -5t21.5 -14t12 -27q7 -36 -15.5 -56t-57.5 -20q-24 0 -67.5 10.5t-64.5 10.5q-49 -2 -153 -2q-38 0 -25 -82q9 -52 0 -185q-7 -87 -4 -155q8 -110 8 -168q0 -12 -4 -100.5t-4 -192.5q0 -57 43 -57 q47 0 117 -9q35 -4 113 -4q44 0 74 -15t30 -42q0 -30 -36 -50.5t-97 -8.5q-92 24 -141 24q-35 0 -141 -12.5t-167 -5.5q-18 0 -51 1t-60.5 1t-51.5 -2q-48 -4 -73.5 11.5t-25.5 47.5zM492 1487q-11 59 55 69q22 3 45 -14.5t31 -40.5q3 -7 25.5 -50t27.5 -69q7 -30 39 -65 q35 -51 35 -74q0 -25 -10 -35t-40 -10q-41 0 -63 53q-6 14 -16 31t-18.5 28.5t-24 31t-21.5 28.5q-63 73 -65 117z" />
<glyph unicode="&#xcd;" horiz-adv-x="1308" d="M225 -35q0 49 68 49q1 0 46.5 -2.5t87.5 -3.5t95 2q51 7 56 70q4 49 4 205q0 14 0.5 41t0.5 43.5t-1 39.5t-4 44q-2 31 -6.5 87.5t-6.5 96.5t-2 76q0 54 8 172q3 64 -14 71q-16 5 -22.5 5.5t-25.5 -3t-26 -4.5q-49 -3 -102 -3.5t-91 19.5t-32 60q3 43 107 43q9 0 31 -0.5 t34 -0.5t31.5 1.5t36.5 5.5q68 12 188 -4q35 -2 309 -2q18 0 27.5 -1t23 -5t21.5 -14t12 -27q7 -36 -15.5 -56t-57.5 -20q-24 0 -67.5 10.5t-64.5 10.5q-49 -2 -153 -2q-38 0 -25 -82q9 -52 0 -185q-7 -87 -4 -155q8 -110 8 -168q0 -12 -4 -100.5t-4 -192.5q0 -57 43 -57 q47 0 117 -9q35 -4 113 -4q44 0 74 -15t30 -42q0 -30 -36 -50.5t-97 -8.5q-92 24 -141 24q-35 0 -141 -12.5t-167 -5.5q-18 0 -51 1t-60.5 1t-51.5 -2q-48 -4 -73.5 11.5t-25.5 47.5zM575 1223q0 7 4 16t8 15t12.5 17.5t10.5 14.5q59 97 76 170q5 20 27.5 34.5t42.5 18.5 q67 3 67 -59q0 -7 -2 -15t-4.5 -13.5t-8.5 -15.5t-9.5 -15t-12.5 -16.5t-12 -16.5q-39 -47 -90 -139q-25 -41 -70 -41q-18 0 -28.5 12t-10.5 33z" />
<glyph unicode="&#xce;" horiz-adv-x="1308" d="M225 -35q0 49 68 49q1 0 46.5 -2.5t87.5 -3.5t95 2q51 7 56 70q4 49 4 205q0 14 0.5 41t0.5 43.5t-1 39.5t-4 44q-2 31 -6.5 87.5t-6.5 96.5t-2 76q0 54 8 172q3 64 -14 71q-16 5 -22.5 5.5t-25.5 -3t-26 -4.5q-49 -3 -102 -3.5t-91 19.5t-32 60q3 43 107 43q9 0 31 -0.5 t34 -0.5t31.5 1.5t36.5 5.5q68 12 188 -4q35 -2 309 -2q18 0 27.5 -1t23 -5t21.5 -14t12 -27q7 -36 -15.5 -56t-57.5 -20q-24 0 -67.5 10.5t-64.5 10.5q-49 -2 -153 -2q-38 0 -25 -82q9 -52 0 -185q-7 -87 -4 -155q8 -110 8 -168q0 -12 -4 -100.5t-4 -192.5q0 -57 43 -57 q47 0 117 -9q35 -4 113 -4q44 0 74 -15t30 -42q0 -30 -36 -50.5t-97 -8.5q-92 24 -141 24q-35 0 -141 -12.5t-167 -5.5q-18 0 -51 1t-60.5 1t-51.5 -2q-48 -4 -73.5 11.5t-25.5 47.5zM391 1282q1 6 3.5 11.5t8 12.5t8.5 10.5t11 11t10 9.5q30 27 35 35q19 22 68.5 67.5 t70.5 71.5q20 26 45 35q8 4 15.5 5t15 -3t12 -7t11.5 -13t9.5 -14t10.5 -17q13 -20 31 -38.5t45.5 -42t38.5 -34.5q7 -6 24.5 -19.5t27.5 -22t21.5 -23t13 -26t-6 -26t-27.5 -28.5q-27 -13 -51 -8.5t-33 18.5q-54 82 -133 133q-12 7 -24 7.5t-18 -2t-20 -9.5 q-50 -27 -84 -94q-26 -53 -69 -65q-38 -8 -57.5 8.5t-12.5 56.5z" />
<glyph unicode="&#xcf;" horiz-adv-x="1308" d="M225 -35q0 49 68 49q1 0 46.5 -2.5t87.5 -3.5t95 2q51 7 56 70q4 49 4 205q0 14 0.5 41t0.5 43.5t-1 39.5t-4 44q-2 31 -6.5 87.5t-6.5 96.5t-2 76q0 54 8 172q3 64 -14 71q-16 5 -22.5 5.5t-25.5 -3t-26 -4.5q-49 -3 -102 -3.5t-91 19.5t-32 60q3 43 107 43q9 0 31 -0.5 t34 -0.5t31.5 1.5t36.5 5.5q68 12 188 -4q35 -2 309 -2q18 0 27.5 -1t23 -5t21.5 -14t12 -27q7 -36 -15.5 -56t-57.5 -20q-24 0 -67.5 10.5t-64.5 10.5q-49 -2 -153 -2q-38 0 -25 -82q9 -52 0 -185q-7 -87 -4 -155q8 -110 8 -168q0 -12 -4 -100.5t-4 -192.5q0 -57 43 -57 q47 0 117 -9q35 -4 113 -4q44 0 74 -15t30 -42q0 -30 -36 -50.5t-97 -8.5q-92 24 -141 24q-35 0 -141 -12.5t-167 -5.5q-18 0 -51 1t-60.5 1t-51.5 -2q-48 -4 -73.5 11.5t-25.5 47.5zM352 1358q0 40 40 84.5t95 44.5q27 0 65 -41t38 -80q0 -97 -150 -100q-29 0 -58.5 25 t-29.5 67zM731 1358q0 42 41 85.5t74 43.5q113 0 108 -115q-3 -49 -41.5 -74.5t-87.5 -25.5q-34 0 -64 26.5t-30 59.5z" />
<glyph unicode="&#xd0;" horiz-adv-x="1148" d="M41 406q-5 27 13.5 48t49.5 21q30 0 79.5 -7t72.5 -7q8 0 70 8q-3 48 -4.5 146.5t-4.5 150.5q-10 137 -10 203q0 28 3 95.5t3 109.5q0 56 31 75q58 34 102 -10q2 -2 9 -13t12 -14q89 -47 184 -139q91 -43 166 -199q30 -62 71.5 -200.5t41.5 -181.5q0 -108 -29.5 -244.5 t-69.5 -208.5q-38 -85 -104.5 -168.5t-173.5 -194.5q-40 -40 -60 -59t-51 -41t-49 -22q-19 0 -39 4.5t-40 23.5t-15 51q10 70 10 224q0 128 10 288q2 17 4.5 54t4.5 55q2 47 2 108q-3 0 -50.5 -4t-80.5 -4q-8 0 -22 0.5t-26 0.5t-22 -1q-33 -3 -58 14t-30 38zM428 70 q0 -139 14 -265q2 -16 2 -38.5t2 -30.5q9 -49 137 114q55 70 117 160q45 67 73 184.5t28 243.5q0 64 -34.5 198.5t-59.5 178.5q-11 21 -26 41t-28.5 35t-36.5 36t-38 33.5t-46 38.5q-17 17 -40.5 28.5t-42.5 2.5q-3 -2 -5.5 -5t-4.5 -8t-3 -9t-1.5 -11.5t-1 -12t-1 -14 t-0.5 -14.5q-4 -67 6 -159q8 -55 6.5 -156t1.5 -176q54 -7 146 4q85 4 90 -53q4 -36 -7.5 -51t-41.5 -15q-11 0 -37 3t-47 3q-33 0 -103 4q-18 -162 -18 -290z" />
<glyph unicode="&#xd1;" horiz-adv-x="1998" d="M299 66q3 27 9.5 77.5t11 92t4.5 77.5q0 61 -5.5 172t-5.5 183q0 36 -3 112t-3 121q0 104 7 135q16 59 59 60q21 0 43.5 -16t66.5 -56v2q5 -5 30 -26t39 -32t37.5 -29.5t45 -33.5t43.5 -28q218 -146 397 -314v4q13 -10 75.5 -64.5t98.5 -80.5q19 -16 58.5 -47.5t71 -57.5 t55.5 -49q69 -60 86 -69q30 -16 36 16q1 4 4 15.5t4.5 18t3 21t-0.5 23.5q-6 61 -6 201q0 89 -9 168q-14 116 -6 163q4 36 0 150q-5 52 22.5 76t49.5 24q55 0 59 -94q4 -22 -1 -68t-1 -71q11 -95 11 -260q0 -143 -9 -209q-2 -49 -2 -240q0 -24 13 -67.5t14 -69.5 q0 -59 -55 -59q-29 0 -99.5 57t-218.5 196v-2q-14 12 -59.5 55.5t-75.5 63.5q-29 20 -120.5 107t-117.5 98q-19 12 -108.5 78t-130.5 102q-74 66 -139 114.5t-90.5 63.5t-38.5 21q-6 3 -10.5 3t-8.5 -3t-6 -12t-2 -23q0 -30 9 -80.5t7 -85.5q-4 -35 -4 -174q0 -34 8 -84 q4 -52 4 -237q0 -21 3.5 -68t3.5 -78q0 -38 -30.5 -65t-60.5 -9q-69 38 -63 91zM709 1270q-8 27 20 65q17 25 30.5 43t30 34t33.5 25.5t38 15t46 5.5q14 0 49 -24.5t66 -59.5q20 -23 29.5 -32t27 -18t37.5 -9q11 0 20 2.5t15 6t13.5 11t11.5 13t12.5 17.5t13.5 19 q3 4 9.5 17.5t12 21.5t17 13t27.5 2q12 -4 22 -16.5t14.5 -27.5t2.5 -26q-3 -26 -12 -43t-30.5 -36t-66.5 -48q-55 -35 -111 -35q-29 0 -53 11t-37 25t-31.5 33.5t-33.5 29.5q-6 4 -20 15t-21 15t-12 4q-8 0 -17 -3t-21.5 -16t-17.5 -34q-4 -12 -14 -27.5t-21 -19.5 q-18 -10 -46.5 -1.5t-32.5 32.5z" />
<glyph unicode="&#xd2;" horiz-adv-x="1511" d="M223 526q8 106 67.5 219t162.5 199q137 111 278 111q16 2 32.5 2.5t29.5 0.5t30 -3.5t27 -5t28 -7.5t26 -8.5t28 -11t26 -11t29 -13t29 -13.5q30 -13 53 -30t40 -38.5t27 -37t24 -42t20 -36.5q18 -31 38.5 -74t47 -133t26.5 -166q0 -102 -38.5 -194.5t-110.5 -159.5 q-75 -79 -207.5 -112.5t-288.5 -20.5q-186 20 -305 194q-78 82 -102 177t-17 214zM358 483q0 -93 28.5 -169.5t86.5 -153.5q78 -105 252 -105q221 0 325.5 97t102.5 301q-3 151 -51.5 262t-95.5 141q-61 0 -136.5 25t-134.5 63q-124 -3 -229 -103t-133 -220 q-15 -79 -15 -138zM592 1434q-11 59 55 69q22 3 45 -14.5t31 -40.5q3 -7 25.5 -50t27.5 -69q7 -30 39 -65q35 -51 35 -74q0 -25 -10 -35t-39 -10q-42 0 -64 53q-6 14 -16 31t-18.5 28.5t-24 31t-21.5 28.5q-63 73 -65 117z" />
<glyph unicode="&#xd3;" horiz-adv-x="1511" d="M223 526q8 106 67.5 219t162.5 199q137 111 278 111q16 2 32.5 2.5t29.5 0.5t30 -3.5t27 -5t28 -7.5t26 -8.5t28 -11t26 -11t29 -13t29 -13.5q30 -13 53 -30t40 -38.5t27 -37t24 -42t20 -36.5q18 -31 38.5 -74t47 -133t26.5 -166q0 -102 -38.5 -194.5t-110.5 -159.5 q-75 -79 -207.5 -112.5t-288.5 -20.5q-186 20 -305 194q-78 82 -102 177t-17 214zM358 483q0 -93 28.5 -169.5t86.5 -153.5q78 -105 252 -105q221 0 325.5 97t102.5 301q-3 151 -51.5 262t-95.5 141q-61 0 -136.5 25t-134.5 63q-124 -3 -229 -103t-133 -220 q-15 -79 -15 -138zM678 1169q0 7 4 16.5t7.5 15t12.5 18t11 14.5q58 95 75 170q5 20 27.5 34.5t42.5 18.5q68 3 68 -59q0 -7 -2 -15t-4.5 -13.5t-8.5 -15.5t-9.5 -15t-12.5 -16.5t-12 -16.5q-40 -48 -91 -140q-25 -41 -69 -41q-18 0 -28.5 12t-10.5 33z" />
<glyph unicode="&#xd4;" horiz-adv-x="1511" d="M223 526q8 106 67.5 219t162.5 199q137 111 278 111q16 2 32.5 2.5t29.5 0.5t30 -3.5t27 -5t28 -7.5t26 -8.5t28 -11t26 -11t29 -13t29 -13.5q30 -13 53 -30t40 -38.5t27 -37t24 -42t20 -36.5q18 -31 38.5 -74t47 -133t26.5 -166q0 -102 -38.5 -194.5t-110.5 -159.5 q-75 -79 -207.5 -112.5t-288.5 -20.5q-186 20 -305 194q-78 82 -102 177t-17 214zM358 483q0 -93 28.5 -169.5t86.5 -153.5q78 -105 252 -105q221 0 325.5 97t102.5 301q-3 151 -51.5 262t-95.5 141q-61 0 -136.5 25t-134.5 63q-124 -3 -229 -103t-133 -220 q-15 -79 -15 -138zM494 1229q1 6 3.5 11.5t8 12.5t8.5 10.5t11 11t10 9.5q28 25 34 35q20 22 69.5 67.5t70.5 71.5q20 26 45 35q10 5 18.5 4.5t14.5 -3.5t13.5 -11.5t11.5 -14.5t12 -19q2 -3 3 -5q13 -20 31 -38.5t45.5 -42t38.5 -34.5q7 -6 24.5 -19.5t28 -22t21.5 -22.5 t12.5 -25.5t-6 -26.5t-27.5 -29q-27 -13 -51 -8.5t-33 18.5q-54 82 -133 133q-12 7 -23.5 7.5t-17 -2t-20.5 -9.5q-50 -27 -84 -94q-26 -54 -70 -66q-38 -8 -57 9t-12 57z" />
<glyph unicode="&#xd5;" horiz-adv-x="1511" d="M223 526q8 106 67.5 219t162.5 199q137 111 278 111q16 2 32.5 2.5t29.5 0.5t30 -3.5t27 -5t28 -7.5t26 -8.5t28 -11t26 -11t29 -13t29 -13.5q30 -13 53 -30t40 -38.5t27 -37t24 -42t20 -36.5q18 -31 38.5 -74t47 -133t26.5 -166q0 -102 -38.5 -194.5t-110.5 -159.5 q-75 -79 -207.5 -112.5t-288.5 -20.5q-186 20 -305 194q-78 82 -102 177t-17 214zM358 483q0 -93 28.5 -169.5t86.5 -153.5q78 -105 252 -105q221 0 325.5 97t102.5 301q-3 151 -51.5 262t-95.5 141q-61 0 -136.5 25t-134.5 63q-124 -3 -229 -103t-133 -220 q-15 -79 -15 -138zM461 1253q-8 27 20 66q42 65 80.5 94t97.5 29q14 0 49 -24.5t66 -59.5q21 -24 30 -32.5t26.5 -18t37.5 -9.5q13 0 22.5 2.5t18.5 10.5t14 14t15 20.5t16 22.5q3 4 9.5 17.5t12 21t17 12.5t27.5 2q18 -6 30 -28.5t9 -40.5q-5 -38 -24.5 -61.5t-84.5 -65.5 q-55 -35 -110 -35q-37 0 -63 15.5t-52 43.5t-41 39q-7 5 -16.5 12t-15 11.5t-12 8t-9.5 3.5q-8 0 -17 -3t-21.5 -16t-17.5 -34q-13 -39 -34 -47q-18 -10 -47 -2t-33 32z" />
<glyph unicode="&#xd6;" horiz-adv-x="1511" d="M223 526q8 106 67.5 219t162.5 199q137 111 278 111q16 2 32.5 2.5t29.5 0.5t30 -3.5t27 -5t28 -7.5t26 -8.5t28 -11t26 -11t29 -13t29 -13.5q30 -13 53 -30t40 -38.5t27 -37t24 -42t20 -36.5q18 -31 38.5 -74t47 -133t26.5 -166q0 -102 -38.5 -194.5t-110.5 -159.5 q-75 -79 -207.5 -112.5t-288.5 -20.5q-186 20 -305 194q-78 82 -102 177t-17 214zM358 483q0 -93 28.5 -169.5t86.5 -153.5q78 -105 252 -105q221 0 325.5 97t102.5 301q-3 151 -51.5 262t-95.5 141q-61 0 -136.5 25t-134.5 63q-124 -3 -229 -103t-133 -220 q-15 -79 -15 -138zM455 1305q0 40 40 84.5t95 44.5q27 0 64.5 -41t37.5 -80q0 -98 -149 -101q-29 0 -58.5 25.5t-29.5 67.5zM834 1305q0 42 40.5 85.5t73.5 43.5q114 0 109 -115q-3 -49 -41 -74.5t-88 -25.5q-34 0 -64 26.5t-30 59.5z" />
<glyph unicode="&#xd7;" d="M174 174q4 24 21.5 41.5t72.5 58.5q53 39 84 84q11 9 3.5 30.5t-31.5 35.5q-9 6 -29.5 33t-34.5 35q-25 13 -43 37t-18 49q0 19 17 36t38 17t38.5 -12t23 -19.5t18.5 -28.5q15 -18 48.5 -45t49.5 -45q9 -12 21.5 -17.5t27.5 3.5q40 26 65 55t50 80q8 19 29 25t37 4 q22 -6 36 -28t9 -40q-8 -21 -36.5 -55t-62.5 -59q-26 -18 -51 -60q-22 -32 10 -55q28 -20 49 -49l14 -17q13 -17 25.5 -29.5t30.5 -23.5q52 -33 49 -70q-3 -23 -26.5 -40t-42.5 -11q-26 4 -69 37.5t-75 93.5q-13 29 -37 43.5t-43 14.5q-7 0 -15.5 -3.5t-17.5 -10.5 t-17 -13.5t-18.5 -18.5t-17 -19.5t-16.5 -21.5t-14 -19.5t-13 -18t-10 -13.5q-41 -51 -74 -51q-31 3 -44.5 26.5t-10.5 53.5z" />
<glyph unicode="&#xd8;" horiz-adv-x="1511" d="M223 526q8 106 67.5 219t162.5 199q137 111 278 111q64 8 117.5 -5t126.5 -46q13 28 29 60.5t26.5 55.5t18.5 43q11 27 23 49t24 36.5t24 25t23 16t21.5 7.5t18.5 1t15 -4q34 -15 43 -51.5t-14 -62.5q-13 -15 -27 -30t-19.5 -21t-11 -13.5t-7.5 -14t-3 -16.5 q-2 -14 -10.5 -33.5t-16 -32.5t-24.5 -41t-23 -38q22 -19 38 -42t33 -55t24 -42q12 -20 26 -49.5t36 -82.5t36 -117.5t14 -123.5q0 -102 -38.5 -194.5t-110.5 -159.5q-75 -79 -207.5 -112.5t-288.5 -20.5q-57 6 -110 28q-11 -29 -37.5 -74t-36.5 -65q-3 -5 -68 -139 q-10 -27 -42 -48t-54 -8q-22 12 -31 34t0 46q23 64 86 150q56 81 95 153q-63 50 -107 117q-78 82 -102 177t-17 214zM358 483q0 -93 28.5 -169.5t86.5 -153.5q11 -16 31 -33q31 47 78.5 147.5t70.5 139.5q29 47 63 112.5t71.5 136t72.5 128.5q6 10 21 36.5t24 42.5 q-90 21 -170 74q-62 -1 -123.5 -30.5t-109 -75.5t-82 -103t-47.5 -114q-15 -79 -15 -138zM596 74q53 -19 129 -19q221 0 325.5 97t102.5 301q-2 93 -24.5 176.5t-49 132.5t-55.5 78q-76 -135 -143 -252q-163 -270 -244 -438q-4 -7 -18.5 -33t-22.5 -43z" />
<glyph unicode="&#xd9;" horiz-adv-x="968" d="M260 428q0 29 4 91.5t4 96.5q11 107 11 154q0 12 2 48.5t2 58.5q0 11 -9 112q0 15 -2 25q-19 64 47 90q33 12 56.5 -22.5t21.5 -92.5q-3 -1 -1.5 -118.5t1.5 -118.5q0 -23 -5.5 -92t-2.5 -109q0 -29 -5 -95t-5 -108q0 -116 33 -227q11 -33 32.5 -49.5t42.5 -16.5 q48 -3 67 40t19 134q0 54 9 164q0 5 1 22t2 54.5t1 91.5q0 17 1 54t1 57q8 106 8 164q0 47 -8 133q0 21 -1.5 45.5t11 46t39.5 24.5h4q42 0 53 -38t8 -132v-292q0 -55 -8 -137.5t-8 -147.5q0 -66 4 -109q2 -99 -35 -198q-21 -52 -62.5 -78.5t-90.5 -26.5q-103 0 -153 55 t-70 173q-19 122 -19 274zM322 1487q-11 59 55 69q22 3 45 -14.5t31 -40.5q3 -7 25.5 -50t27.5 -69q7 -30 39 -65q35 -51 35 -74q0 -25 -10 -35t-40 -10q-41 0 -63 53q-6 14 -16 31t-18.5 28.5t-24 31t-21.5 28.5q-63 73 -65 117z" />
<glyph unicode="&#xda;" horiz-adv-x="968" d="M260 428q0 29 4 91.5t4 96.5q11 107 11 154q0 12 2 48.5t2 58.5q0 11 -9 112q0 15 -2 25q-19 64 47 90q33 12 56.5 -22.5t21.5 -92.5q-3 -1 -1.5 -118.5t1.5 -118.5q0 -23 -5.5 -92t-2.5 -109q0 -29 -5 -95t-5 -108q0 -116 33 -227q11 -33 32.5 -49.5t42.5 -16.5 q48 -3 67 40t19 134q0 54 9 164q0 5 1 22t2 54.5t1 91.5q0 17 1 54t1 57q8 106 8 164q0 47 -8 133q0 21 -1.5 45.5t11 46t39.5 24.5h4q42 0 53 -38t8 -132v-292q0 -55 -8 -137.5t-8 -147.5q0 -66 4 -109q2 -99 -35 -198q-21 -52 -62.5 -78.5t-90.5 -26.5q-103 0 -153 55 t-70 173q-19 122 -19 274zM406 1223q0 6 2 12t6 13.5t7.5 12t10 13.5t8.5 12q59 97 76 170q5 20 27.5 34.5t42.5 18.5q67 3 67 -59q0 -7 -2 -15t-4.5 -13.5t-8.5 -15.5t-9.5 -15t-12.5 -16.5t-12 -16.5q-39 -47 -90 -139q-25 -41 -70 -41q-38 0 -38 45z" />
<glyph unicode="&#xdb;" horiz-adv-x="968" d="M223 1282q1 6 3.5 11.5t8 12.5t8.5 10.5t11 11t10 9.5q30 27 35 35q19 22 68.5 67.5t70.5 71.5q20 26 45 35q8 4 15.5 5t15 -3t12 -7t11.5 -13t9.5 -14t10.5 -17q13 -20 31 -38.5t45.5 -42t38.5 -34.5q7 -6 24.5 -19.5t27.5 -22t21.5 -23t13 -26t-6 -26t-27.5 -28.5 q-27 -13 -51 -8.5t-33 18.5q-54 82 -133 133q-12 7 -24 7.5t-18 -2t-20 -9.5q-50 -27 -84 -94q-26 -53 -69 -65q-38 -8 -57.5 8.5t-12.5 56.5zM260 428q0 29 4 91.5t4 96.5q11 107 11 154q0 12 2 48.5t2 58.5q0 11 -9 112q0 15 -2 25q-19 64 47 90q33 12 56.5 -22.5 t21.5 -92.5q-3 -1 -1.5 -118.5t1.5 -118.5q0 -23 -5.5 -92t-2.5 -109q0 -29 -5 -95t-5 -108q0 -116 33 -227q11 -33 32.5 -49.5t42.5 -16.5q48 -3 67 40t19 134q0 54 9 164q0 5 1 22t2 54.5t1 91.5q0 17 1 54t1 57q8 106 8 164q0 47 -8 133q0 21 -1.5 45.5t11 46t39.5 24.5 h4q42 0 53 -38t8 -132v-292q0 -55 -8 -137.5t-8 -147.5q0 -66 4 -109q2 -99 -35 -198q-21 -52 -62.5 -78.5t-90.5 -26.5q-103 0 -153 55t-70 173q-19 122 -19 274z" />
<glyph unicode="&#xdc;" horiz-adv-x="968" d="M184 1358q0 40 40 84.5t95 44.5q27 0 65 -41t38 -80q0 -97 -150 -100q-29 0 -58.5 25t-29.5 67zM260 428q0 29 4 91.5t4 96.5q11 107 11 154q0 12 2 48.5t2 58.5q0 11 -9 112q0 15 -2 25q-19 64 47 90q33 12 56.5 -22.5t21.5 -92.5q-3 -1 -1.5 -118.5t1.5 -118.5 q0 -23 -5.5 -92t-2.5 -109q0 -29 -5 -95t-5 -108q0 -116 33 -227q11 -33 32.5 -49.5t42.5 -16.5q48 -3 67 40t19 134q0 54 9 164q0 5 1 22t2 54.5t1 91.5q0 17 1 54t1 57q8 106 8 164q0 47 -8 133q0 21 -1.5 45.5t11 46t39.5 24.5h4q42 0 53 -38t8 -132v-292 q0 -55 -8 -137.5t-8 -147.5q0 -66 4 -109q2 -99 -35 -198q-21 -52 -62.5 -78.5t-90.5 -26.5q-103 0 -153 55t-70 173q-19 122 -19 274zM563 1358q0 42 41 85.5t74 43.5q113 0 108 -115q-3 -49 -41.5 -74.5t-87.5 -25.5q-34 0 -64 26.5t-30 59.5z" />
<glyph unicode="&#xdd;" horiz-adv-x="1337" d="M16 1313q0 29 21 44t53 15q41 0 66 -53q10 -21 132 -134.5t165 -146.5q37 -27 94 -72.5t69 -54.5q25 -20 52 -47q7 -5 13.5 -7t15 1.5t12 5.5t15 10.5t13.5 10.5q101 82 183 166q19 19 72.5 70t80.5 79q35 44 96 105q13 16 20.5 23t23 13.5t36.5 6.5q45 0 61 -28.5 t-12 -66.5q-11 -16 -21 -25t-27.5 -20t-20.5 -14q-14 -8 -30 -19.5t-26 -19t-29.5 -24.5t-24.5 -21.5t-28.5 -26.5t-25.5 -24l-139 -139q-5 -6 -21.5 -24t-29.5 -32t-38.5 -39.5t-54.5 -52.5q-2 -8 -2 -30.5t-5 -44t-19 -40.5q-11 -19 -11 -135q0 -50 3 -140.5t3.5 -141 t-3.5 -140.5q-6 -62 4 -175.5t10 -157.5q0 -42 -10.5 -66.5t-44.5 -38.5q-38 -16 -62 4t-24 72q0 14 3 65.5t3 96.5q0 20 -0.5 58.5t-0.5 61t1 49t4 42.5q4 37 4 79.5t-2 97.5t-2 89q0 96 -19 229q-2 9 -7 39.5t-8 42.5t-10.5 35t-18 41t-25.5 37q-40 42 -107.5 98.5 t-126.5 95.5q-20 13 -40.5 29t-47.5 42t-43 42t-54 55.5t-54 55.5q-2 2 -8.5 9.5t-8.5 10t-8 9.5t-8 10.5t-6.5 10t-6.5 11t-4 10.5t-3 11.5t-1 11.5zM592 1423q0 7 4 16.5t7.5 15t12.5 18t11 14.5q58 95 75 170q5 20 27.5 34.5t42.5 18.5q68 3 68 -59q0 -7 -2 -15 t-4.5 -13.5t-8.5 -15.5t-9.5 -15t-12.5 -16.5t-12 -16.5q-40 -48 -91 -140q-25 -41 -69 -41q-18 0 -28.5 12t-10.5 33z" />
<glyph unicode="&#xde;" horiz-adv-x="915" d="M307 1083q0 106 58 111q42 3 61 -31.5t16 -93.5q0 -17 -9 -73.5t-9 -59.5q0 -166 14 -209q6 -18 30 -26.5t60 -16.5t58 -22q106 -68 131 -154q13 -42 0.5 -104.5t-39.5 -100.5q-8 -12 -26 -41.5t-27.5 -44t-28.5 -36.5t-36.5 -32.5t-43.5 -19t-57 -8.5q-7 0 -13 -3.5 t-11 -15.5t3 -36q6 -22 6 -82t-1.5 -134t-0.5 -108q0 -20 -4 -57t-4 -54q0 -9 -1 -89t-1 -183q0 -31 5 -101t5 -114q0 -25 -0.5 -36t-3.5 -30.5t-9.5 -28.5t-19.5 -16.5t-32 -7.5q-23 0 -41.5 29t-18.5 72q0 33 6.5 107t6.5 120q0 37 -5.5 124t-5.5 140q0 69 9 258 q1 98 1.5 118.5t-5 86.5t-5.5 70q-1 27 -4.5 86t-3.5 83t6 84q12 87 -4 119q-36 74 4 170q-4 25 -4 182q0 28 -3 96t-3 113zM422 285q0 -47 41 -47q71 0 94 34q23 29 40.5 83.5t8.5 101.5q-10 58 -44 89.5t-75 31.5q-37 0 -48 -13.5t-11 -62.5q0 -6 1 -20t1 -26t-2 -22 q-6 -35 -6 -149z" />
<glyph unicode="&#xdf;" horiz-adv-x="1089" d="M295 -666q0 28 2 51t5.5 47.5t4.5 35.5q12 96 12 294q0 101 -8 286.5t-8 293.5q0 41 6 152q6 81 4.5 123.5t-6 120.5t-4.5 128q0 42 7 114.5t9.5 114.5t-6.5 117q-17 75 -2.5 120.5t68.5 45.5q23 0 74 -8t84 -8q23 0 78.5 5t95.5 5q33 0 51.5 -7t25 -20.5t8 -32 t-0.5 -42.5q0 -1 -1 -8t-2 -26t-1 -48q0 -132 -70 -254q-3 -7 -3.5 -14.5t2.5 -15.5t6.5 -14.5t11.5 -16t13 -15l15 -16.5q41 -50 66 -133.5t32 -165.5q8 -63 2 -145.5t-35 -159.5q-10 -19 -25.5 -60t-31.5 -71.5t-39 -55.5q-20 -19 -46.5 -55.5t-53 -63.5t-62.5 -43 q-39 -20 -60.5 12.5t-8.5 69.5q10 31 69 74t68 53q28 28 68 142t47 168q12 113 -17.5 195.5t-105.5 172.5q-9 11 -32 27t-38.5 32.5t-15.5 38.5q0 26 6 39.5t25 30.5q88 77 94 184q8 76 -15 105q-5 5 -24 10.5t-37 5.5q-8 0 -31 3.5t-42.5 5t-39.5 -0.5t-30 -14t-7 -35 q3 -76 -4 -164q-14 -112 -14 -268q0 -25 2.5 -87.5t1.5 -100.5q-3 -67 -2 -122.5t3 -70.5t-1 -43q-11 -90 -9.5 -138t8.5 -141.5t7 -148.5q0 -11 -1 -45t-2 -114t-1 -203q3 -20 0.5 -124.5t-2.5 -129.5v-28t-1.5 -25.5t-5 -26.5t-9 -19t-15.5 -15.5t-24 -4.5q-43 0 -62.5 34 t-19.5 111z" />
<glyph unicode="&#xe0;" horiz-adv-x="1212" d="M219 354q0 219 158 308q8 5 41.5 25.5t45.5 26.5t39.5 18t51.5 16t53 4q36 0 82 -16.5t76 -33.5q4 -4 12 1.5t8 13.5q0 32 17 65t53 33q17 0 26 -3t13.5 -12t5 -17t0.5 -27q0 -11 4.5 -59.5t-0.5 -59.5q-9 -53 0 -86q10 -65 10 -127q0 -63 -10 -131q-6 -35 -7.5 -72.5 t0 -91.5t1.5 -70q0 -14 5.5 -41.5t6.5 -37.5q3 -21 -17 -42.5t-42 -21.5q-33 0 -54.5 25t-21.5 75q0 79 -65 47q-66 -28 -88 -28q-70 0 -149.5 23t-121.5 51q-58 28 -95.5 96.5t-37.5 148.5zM352 418q-19 -172 66 -219q32 -20 51.5 -29.5t55 -18t77.5 -8.5q51 0 109 37 q35 27 53 89.5t18 129.5q0 113 -20 152q-15 31 -59 58.5t-82 27.5q-65 4 -107 -5.5t-72 -49.5q-83 -96 -90 -164zM444 1167q-11 60 56 70q22 3 44.5 -14.5t30.5 -40.5q3 -8 26 -50.5t28 -68.5q7 -31 39 -66q34 -49 34 -73q0 -25 -10 -35t-39 -10q-41 0 -63 53q-6 14 -16 31 t-18.5 28.5t-24 31t-21.5 28.5q-64 75 -66 116z" />
<glyph unicode="&#xe1;" horiz-adv-x="1212" d="M219 354q0 219 158 308q8 5 41.5 25.5t45.5 26.5t39.5 18t51.5 16t53 4q36 0 82 -16.5t76 -33.5q4 -4 12 1.5t8 13.5q0 32 17 65t53 33q17 0 26 -3t13.5 -12t5 -17t0.5 -27q0 -11 4.5 -59.5t-0.5 -59.5q-9 -53 0 -86q10 -65 10 -127q0 -63 -10 -131q-6 -35 -7.5 -72.5 t0 -91.5t1.5 -70q0 -14 5.5 -41.5t6.5 -37.5q3 -21 -17 -42.5t-42 -21.5q-33 0 -54.5 25t-21.5 75q0 79 -65 47q-66 -28 -88 -28q-70 0 -149.5 23t-121.5 51q-58 28 -95.5 96.5t-37.5 148.5zM352 418q-19 -172 66 -219q32 -20 51.5 -29.5t55 -18t77.5 -8.5q51 0 109 37 q35 27 53 89.5t18 129.5q0 113 -20 152q-15 31 -59 58.5t-82 27.5q-65 4 -107 -5.5t-72 -49.5q-83 -96 -90 -164zM530 903q0 7 4 16.5t7.5 15t12.5 18t11 14.5q59 97 76 170q5 20 27.5 34.5t42.5 18.5q67 3 67 -60q0 -7 -2 -15t-4.5 -13.5t-8.5 -15.5t-9.5 -15t-12.5 -16.5 t-12 -16.5q-39 -47 -90 -139q-25 -41 -70 -41q-18 0 -28.5 12t-10.5 33z" />
<glyph unicode="&#xe2;" horiz-adv-x="1212" d="M219 354q0 219 158 308q8 5 41.5 25.5t45.5 26.5t39.5 18t51.5 16t53 4q36 0 82 -16.5t76 -33.5q4 -4 12 1.5t8 13.5q0 32 17 65t53 33q17 0 26 -3t13.5 -12t5 -17t0.5 -27q0 -11 4.5 -59.5t-0.5 -59.5q-9 -53 0 -86q10 -65 10 -127q0 -63 -10 -131q-6 -35 -7.5 -72.5 t0 -91.5t1.5 -70q0 -14 5.5 -41.5t6.5 -37.5q3 -21 -17 -42.5t-42 -21.5q-33 0 -54.5 25t-21.5 75q0 79 -65 47q-66 -28 -88 -28q-70 0 -149.5 23t-121.5 51q-58 28 -95.5 96.5t-37.5 148.5zM346 963q1 6 3.5 11.5t8 12.5t8.5 10.5t11 11t10 9.5q30 27 35 35 q19 22 68.5 67.5t70.5 71.5q20 26 45 35q8 4 15.5 5t15 -3t12 -7t11.5 -13t9.5 -14t10.5 -17q13 -20 31 -38.5t45.5 -42t38.5 -34.5q7 -6 24.5 -19.5t27.5 -22t21.5 -23t13 -26t-6 -26t-27.5 -28.5q-27 -13 -51 -8.5t-33 18.5q-54 82 -133 133q-12 7 -24 7.5t-18 -2 t-20 -9.5q-50 -27 -84 -94q-26 -54 -69 -66q-38 -8 -57.5 9t-12.5 57zM352 418q-19 -172 66 -219q32 -20 51.5 -29.5t55 -18t77.5 -8.5q51 0 109 37q35 27 53 89.5t18 129.5q0 113 -20 152q-15 31 -59 58.5t-82 27.5q-65 4 -107 -5.5t-72 -49.5q-83 -96 -90 -164z" />
<glyph unicode="&#xe3;" horiz-adv-x="1212" d="M219 354q0 219 158 308q8 5 41.5 25.5t45.5 26.5t39.5 18t51.5 16t53 4q36 0 82 -16.5t76 -33.5q4 -4 12 1.5t8 13.5q0 32 17 65t53 33q17 0 26 -3t13.5 -12t5 -17t0.5 -27q0 -11 4.5 -59.5t-0.5 -59.5q-9 -53 0 -86q10 -65 10 -127q0 -63 -10 -131q-6 -35 -7.5 -72.5 t0 -91.5t1.5 -70q0 -14 5.5 -41.5t6.5 -37.5q3 -21 -17 -42.5t-42 -21.5q-33 0 -54.5 25t-21.5 75q0 79 -65 47q-66 -28 -88 -28q-70 0 -149.5 23t-121.5 51q-58 28 -95.5 96.5t-37.5 148.5zM313 987q-2 8 -0.5 18t7 23t14.5 25q42 65 80.5 94t97.5 29q14 0 49 -24.5 t66 -59.5q17 -19 23 -25t18.5 -17t24.5 -14.5t28 -3.5q11 0 20 2.5t15 6t13 11.5t11.5 13.5t12.5 17.5t14 19q3 4 9.5 17.5t11.5 21t16.5 12.5t27.5 2q18 -6 30 -29t9 -41q-5 -38 -24.5 -61.5t-83.5 -65.5q-53 -34 -111 -34q-23 0 -42.5 6.5t-34 18t-26 23.5t-25.5 26.5 t-27 23.5q-7 5 -21 15.5t-21 15t-12 4.5q-8 0 -17 -3t-21 -16t-17 -34q-4 -12 -14 -28t-21 -20q-18 -10 -47 -1.5t-33 32.5zM352 418q-10 -90 9.5 -144t56.5 -75q32 -20 51.5 -29.5t55 -18t77.5 -8.5q24 0 47 7t33 12.5t29 17.5q35 27 53 89.5t18 129.5q0 38 -0.5 58 t-5.5 48t-14 46q-10 20 -33.5 40t-53 33t-54.5 13q-65 4 -107 -5.5t-72 -49.5q-83 -96 -90 -164z" />
<glyph unicode="&#xe4;" horiz-adv-x="1212" d="M219 354q0 219 158 308q8 5 41.5 25.5t45.5 26.5t39.5 18t51.5 16t53 4q36 0 82 -16.5t76 -33.5q4 -4 12 1.5t8 13.5q0 32 17 65t53 33q17 0 26 -3t13.5 -12t5 -17t0.5 -27q0 -11 4.5 -59.5t-0.5 -59.5q-9 -53 0 -86q10 -65 10 -127q0 -63 -10 -131q-6 -35 -7.5 -72.5 t0 -91.5t1.5 -70q0 -14 5.5 -41.5t6.5 -37.5q3 -21 -17 -42.5t-42 -21.5q-33 0 -54.5 25t-21.5 75q0 79 -65 47q-66 -28 -88 -28q-70 0 -149.5 23t-121.5 51q-58 28 -95.5 96.5t-37.5 148.5zM307 1038q0 40 40 84.5t95 44.5q27 0 65 -40.5t38 -79.5q0 -98 -150 -101 q-29 0 -58.5 25t-29.5 67zM352 418q-19 -172 66 -219q32 -20 51.5 -29.5t55 -18t77.5 -8.5q51 0 109 37q35 27 53 89.5t18 129.5q0 113 -20 152q-15 31 -59 58.5t-82 27.5q-65 4 -107 -5.5t-72 -49.5q-83 -96 -90 -164zM686 1038q0 42 41 85.5t74 43.5q113 0 108 -114 q-3 -49 -41.5 -75t-87.5 -26q-34 0 -64 26.5t-30 59.5z" />
<glyph unicode="&#xe5;" horiz-adv-x="1212" d="M219 354q0 219 158 308q8 5 41.5 25.5t45.5 26.5t39.5 18t51.5 16t53 4q36 0 82 -16.5t76 -33.5q4 -4 12 1.5t8 13.5q0 32 17 65t53 33q17 0 26 -3t13.5 -12t5 -17t0.5 -27q0 -11 4.5 -59.5t-0.5 -59.5q-9 -53 0 -86q10 -65 10 -127q0 -63 -10 -131q-6 -35 -7.5 -72.5 t0 -91.5t1.5 -70q0 -14 5.5 -41.5t6.5 -37.5q3 -21 -17 -42.5t-42 -21.5q-33 0 -54.5 25t-21.5 75q0 79 -65 47q-66 -28 -88 -28q-70 0 -149.5 23t-121.5 51q-58 28 -95.5 96.5t-37.5 148.5zM352 418q-19 -172 66 -219q32 -20 51.5 -29.5t55 -18t77.5 -8.5q51 0 109 37 q35 27 53 89.5t18 129.5q0 113 -20 152q-15 31 -59 58.5t-82 27.5q-65 4 -107 -5.5t-72 -49.5q-83 -96 -90 -164zM479 983q-12 107 86 150q44 22 64 22q77 0 115 -37t38 -92q0 -59 -50 -110.5t-103 -51.5q-55 0 -100.5 30t-49.5 89zM565 1016q0 -35 17 -54.5t47 -19.5 q16 0 24.5 2t21 10t18 29t5.5 55q0 13 -20 13q-36 0 -74 26q-39 -18 -39 -61z" />
<glyph unicode="&#xe6;" horiz-adv-x="1433" d="M219 352q0 121 92.5 200t225.5 79q18 0 74.5 -11t70.5 -8q14 4 14 22.5t-7 44t-7 32.5q-8 80 -63 132t-136 52q-77 0 -114 -18q-37 -15 -71 4.5t-34 58.5q0 18 26.5 46t57.5 28q176 0 307 -68q103 -54 140 -174q6 -21 10.5 -32.5t14.5 -27t26.5 -23t38.5 -7.5 q8 0 41 -0.5t49 0t41.5 2.5t44.5 6q47 9 88 -8.5t41 -65.5q0 -82 -100 -53q-41 15 -84 15t-70 -5q-68 -4 -80 -2q-25 3 -41 -59q-10 -29 -14.5 -76.5t0.5 -73.5q7 -42 27 -50.5t86 -8.5h16q31 0 92.5 2.5t87.5 3.5q30 1 54 1.5t43.5 -11.5t31.5 -39q11 -27 -4.5 -44.5 t-44 -22.5t-59 -7t-48.5 4q-29 8 -114 3t-117 -3q-3 0 -12 1t-14 0.5t-12 -3t-11.5 -11t-7.5 -21.5q-6 -42 -5.5 -65t4 -71t3.5 -75q0 -21 13.5 -32t36.5 -12t45.5 1t50.5 6t42 4q58 0 66 -45q8 -35 -11.5 -53.5t-74.5 -22.5q-19 -3 -100 3.5t-120 2.5q-69 -3 -69 178 q0 14 -15 27t-45 12q-110 -8 -190.5 20t-136.5 111q-70 102 -70 207zM338 369q-7 -50 8 -102.5t53 -78.5q79 -59 168 -59q4 0 27.5 -2t37.5 -2t29 8.5t17 26.5t2 66t2 69q4 74 4 151q0 16 -28 37t-76 39q-35 10 -79.5 3.5t-70.5 -21.5q-31 -16 -61 -56.5t-33 -78.5z" />
<glyph unicode="&#xe7;" horiz-adv-x="825" d="M219 330q0 53 35 182q29 95 119 180q63 63 84 78q64 41 96 41q14 0 22 -1t19.5 -9.5t17.5 -24.5q19 -42 -41 -76q-12 -7 -47.5 -25.5t-46.5 -26t-33.5 -25.5t-35.5 -39.5t-25 -51.5q-5 -15 -10.5 -43t-10.5 -43q-3 -9 -4 -23.5t-1 -26.5t0.5 -28t0.5 -20q0 -107 41 -182 t140 -117q89 -37 84 -80q-2 -65 -82 -53q-6 -34 -6 -72q0 -32 55 -24q67 8 127.5 -37.5t46.5 -116.5q-13 -80 -84.5 -120t-161.5 -40q-22 0 -40.5 2.5t-28.5 4.5t-30.5 8.5t-33.5 9.5q-38 11 -60 37t-16 57q1 8 4 14t7 9.5t7.5 6t9.5 3t9 0.5h9h7q10 0 17.5 -1.5t14 -6.5 t9.5 -7t8.5 -9.5t6.5 -8.5q61 -49 162 -28q31 8 51 29t20 48q0 54 -78 68q-13 2 -48 -6t-64 -6q-20 2 -39 24.5t-12 40.5q20 44 28 93t15 65q-24 14 -95 78q-63 59 -101 140t-38 159z" />
<glyph unicode="&#xe8;" horiz-adv-x="1234" d="M133 373q0 32 21.5 48.5t54.5 16.5q7 0 36 -3t38 -3q47 0 61.5 10t32.5 56q14 50 51 110q41 63 98 109q30 29 83 61.5t91 46.5q32 13 56 -1t24 -52q0 -50 -45 -80q-17 -8 -65 -19.5t-58 -17.5q-26 -20 -40.5 -33t-35 -36.5t-31 -52.5t-11.5 -64q0 -37 63 -31q43 2 82.5 0 t50.5 0q26 2 79 -4t62 -6q33 0 92 5t91 5q41 0 61.5 -11t20.5 -40q0 -22 -8.5 -35.5t-26 -19t-33 -7.5t-40.5 -3t-38 -3q-29 -2 -41 -1.5t-42 5t-46 5.5q-38 4 -80 4.5t-98.5 -1t-85.5 -1.5q-70 0 -70 -37q0 -60 32 -127t97 -117q15 -12 31 -20t26 -11t41.5 -11t51.5 -13 q21 -8 30 -26t9 -34q0 -15 -14 -26.5t-39 -11.5q-134 0 -265 143q-47 43 -75.5 90t-53.5 115q-4 9 -8.5 30t-9.5 36.5t-12 19.5q-16 10 -33 10t-39.5 -5t-36.5 -5q-47 0 -66.5 9t-19.5 34zM510 1219q-11 59 55 69q22 3 45 -14.5t31 -40.5q3 -7 25.5 -50t27.5 -69 q7 -30 39 -65q35 -51 35 -74q0 -25 -10 -35t-39 -10q-42 0 -64 53q-6 14 -16 31t-18.5 28.5t-24 31t-21.5 28.5q-63 73 -65 117z" />
<glyph unicode="&#xe9;" horiz-adv-x="1234" d="M133 373q0 32 21.5 48.5t54.5 16.5q7 0 36 -3t38 -3q47 0 61.5 10t32.5 56q14 50 51 110q41 63 98 109q30 29 83 61.5t91 46.5q32 13 56 -1t24 -52q0 -50 -45 -80q-17 -8 -65 -19.5t-58 -17.5q-26 -20 -40.5 -33t-35 -36.5t-31 -52.5t-11.5 -64q0 -37 63 -31q43 2 82.5 0 t50.5 0q26 2 79 -4t62 -6q33 0 92 5t91 5q41 0 61.5 -11t20.5 -40q0 -22 -8.5 -35.5t-26 -19t-33 -7.5t-40.5 -3t-38 -3q-29 -2 -41 -1.5t-42 5t-46 5.5q-38 4 -80 4.5t-98.5 -1t-85.5 -1.5q-70 0 -70 -37q0 -60 32 -127t97 -117q15 -12 31 -20t26 -11t41.5 -11t51.5 -13 q21 -8 30 -26t9 -34q0 -15 -14 -26.5t-39 -11.5q-134 0 -265 143q-47 43 -75.5 90t-53.5 115q-4 9 -8.5 30t-9.5 36.5t-12 19.5q-16 10 -33 10t-39.5 -5t-36.5 -5q-47 0 -66.5 9t-19.5 34zM594 954q0 7 4 16.5t7.5 15t12.5 18t11 14.5q59 97 76 170q5 20 27 34.5t42 18.5 q68 3 68 -59q0 -7 -2 -15t-4.5 -13.5t-8.5 -15.5t-9.5 -15t-12.5 -16.5t-12 -16.5q-40 -48 -91 -140q-25 -41 -69 -41q-18 0 -28.5 12t-10.5 33z" />
<glyph unicode="&#xea;" horiz-adv-x="1234" d="M133 373q0 32 21.5 48.5t54.5 16.5q7 0 36 -3t38 -3q47 0 61.5 10t32.5 56q14 50 51 110q41 63 98 109q30 29 83 61.5t91 46.5q32 13 56 -1t24 -52q0 -50 -45 -80q-17 -8 -65 -19.5t-58 -17.5q-26 -20 -40.5 -33t-35 -36.5t-31 -52.5t-11.5 -64q0 -37 63 -31q43 2 82.5 0 t50.5 0q26 2 79 -4t62 -6q33 0 92 5t91 5q41 0 61.5 -11t20.5 -40q0 -22 -8.5 -35.5t-26 -19t-33 -7.5t-40.5 -3t-38 -3q-29 -2 -41 -1.5t-42 5t-46 5.5q-38 4 -80 4.5t-98.5 -1t-85.5 -1.5q-70 0 -70 -37q0 -60 32 -127t97 -117q15 -12 31 -20t26 -11t41.5 -11t51.5 -13 q21 -8 30 -26t9 -34q0 -15 -14 -26.5t-39 -11.5q-134 0 -265 143q-47 43 -75.5 90t-53.5 115q-4 9 -8.5 30t-9.5 36.5t-12 19.5q-16 10 -33 10t-39.5 -5t-36.5 -5q-47 0 -66.5 9t-19.5 34zM410 1014q0 5 2.5 10t5.5 9.5t7.5 10t8 8.5t9.5 9l8 8q28 25 34 35q17 20 44.5 45 t53 49t42.5 45q20 26 45 35q10 5 18.5 4.5t14.5 -3.5t13.5 -11.5t11.5 -14.5t12 -19q2 -3 3 -5q13 -20 31 -38.5t45.5 -42t38.5 -34.5q7 -6 24.5 -19.5t28 -22t21.5 -22.5t12.5 -25.5t-6 -26.5t-27.5 -29q-27 -13 -51 -8.5t-33 18.5q-54 82 -133 133q-12 7 -23.5 7.5t-17 -2 t-20.5 -9.5q-50 -27 -84 -94q-26 -54 -70 -66q-38 -8 -57 9t-12 57z" />
<glyph unicode="&#xeb;" horiz-adv-x="1234" d="M133 373q0 32 21.5 48.5t54.5 16.5q7 0 36 -3t38 -3q47 0 61.5 10t32.5 56q14 50 51 110q41 63 98 109q30 29 83 61.5t91 46.5q32 13 56 -1t24 -52q0 -50 -45 -80q-17 -8 -65 -19.5t-58 -17.5q-26 -20 -40.5 -33t-35 -36.5t-31 -52.5t-11.5 -64q0 -37 63 -31q43 2 82.5 0 t50.5 0q26 2 79 -4t62 -6q33 0 92 5t91 5q41 0 61.5 -11t20.5 -40q0 -22 -8.5 -35.5t-26 -19t-33 -7.5t-40.5 -3t-38 -3q-29 -2 -41 -1.5t-42 5t-46 5.5q-38 4 -80 4.5t-98.5 -1t-85.5 -1.5q-70 0 -70 -37q0 -60 32 -127t97 -117q15 -12 31 -20t26 -11t41.5 -11t51.5 -13 q21 -8 30 -26t9 -34q0 -15 -14 -26.5t-39 -11.5q-134 0 -265 143q-47 43 -75.5 90t-53.5 115q-4 9 -8.5 30t-9.5 36.5t-12 19.5q-16 10 -33 10t-39.5 -5t-36.5 -5q-47 0 -66.5 9t-19.5 34zM367 1090q0 40 40 84.5t95 44.5q27 0 64.5 -41t37.5 -80q0 -98 -149 -101 q-29 0 -58.5 25.5t-29.5 67.5zM745 1090q0 42 41 85.5t74 43.5q114 0 109 -115q-3 -49 -41 -74.5t-88 -25.5q-35 0 -65 26.5t-30 59.5z" />
<glyph unicode="&#xec;" horiz-adv-x="733" d="M193 1485q-11 59 55 69q22 3 45 -14.5t31 -40.5q3 -7 25.5 -50t27.5 -69q7 -30 39 -65q35 -51 35 -74q0 -25 -10.5 -35t-39.5 -10q-41 0 -63 53q-6 14 -16 31t-18.5 28.5t-24 31t-21.5 28.5q-63 73 -65 117zM295 829q-4 49 18 80t45 31q29 0 54 -25t16 -84q-8 -35 -8 -94 q0 -30 5.5 -123t2.5 -145q-9 -104 -4 -195q9 -113 0 -188q0 -20 5 -61.5t5 -65.5q0 -48 -23.5 -76t-52.5 -28q-22 0 -35.5 28.5t-13.5 75.5q0 53 6 176q7 84 0 137q-12 172 -12 334q0 164 -8 223z" />
<glyph unicode="&#xed;" horiz-adv-x="733" d="M276 1221q0 7 4 16t8 15t12.5 17.5t10.5 14.5q59 97 76 170q5 20 27.5 34.5t42.5 18.5q67 3 67 -59q0 -7 -2 -15t-4.5 -13.5t-8.5 -15.5t-9.5 -15t-12.5 -16.5t-12 -16.5q-39 -47 -90 -139q-25 -41 -70 -41q-18 0 -28.5 12t-10.5 33zM295 829q-4 49 18 80t45 31 q29 0 54 -25t16 -84q-8 -35 -8 -94q0 -30 5.5 -123t2.5 -145q-9 -104 -4 -195q9 -113 0 -188q0 -20 5 -61.5t5 -65.5q0 -48 -23.5 -76t-52.5 -28q-22 0 -35.5 28.5t-13.5 75.5q0 53 6 176q7 84 0 137q-12 172 -12 334q0 164 -8 223z" />
<glyph unicode="&#xee;" horiz-adv-x="733" d="M94 1280q1 6 3.5 11.5t8 12.5t8.5 10.5t11 11t10 9.5q30 27 35 35q19 22 68.5 67.5t70.5 71.5q20 26 45 35q8 4 15.5 5t15 -3t12 -7t11.5 -13t9.5 -14t10.5 -17q13 -20 31 -38.5t45.5 -42t38.5 -34.5q7 -6 24.5 -19.5t27.5 -22t21.5 -23t13 -26t-6 -26t-27.5 -28.5 q-27 -13 -51 -8.5t-33 18.5q-54 82 -133 133q-12 7 -24 7.5t-18 -2t-20 -9.5q-50 -27 -84 -94q-26 -54 -69 -66q-38 -8 -57.5 9t-12.5 57zM295 829q-4 49 18 80t45 31q29 0 54 -25t16 -84q-8 -35 -8 -94q0 -30 5.5 -123t2.5 -145q-9 -104 -4 -195q9 -113 0 -188 q0 -20 5 -61.5t5 -65.5q0 -48 -23.5 -76t-52.5 -28q-22 0 -35.5 28.5t-13.5 75.5q0 53 6 176q7 84 0 137q-12 172 -12 334q0 164 -8 223z" />
<glyph unicode="&#xef;" horiz-adv-x="733" d="M55 1356q0 40 40 84.5t95 44.5q27 0 65 -41t38 -80q0 -97 -150 -100q-29 0 -58.5 25t-29.5 67zM295 829q-4 49 18 80t45 31q29 0 54 -25t16 -84q-8 -35 -8 -94q0 -30 5.5 -123t2.5 -145q-9 -104 -4 -195q9 -113 0 -188q0 -20 5 -61.5t5 -65.5q0 -48 -23.5 -76t-52.5 -28 q-22 0 -35.5 28.5t-13.5 75.5q0 53 6 176q7 84 0 137q-12 172 -12 334q0 164 -8 223zM434 1356q0 42 41 85.5t74 43.5q113 0 108 -115q-3 -49 -41 -74.5t-88 -25.5q-34 0 -64 26.5t-30 59.5z" />
<glyph unicode="&#xf0;" horiz-adv-x="1073" d="M188 1487q2 16 19 32.5t37 16.5q22 0 41.5 -7.5t47.5 -26.5t36 -23q50 -32 110.5 -85.5t91.5 -101.5q35 -64 84 -10q6 7 28 31.5t33.5 38.5t14.5 20q1 1 7 8t10 9.5t14 6t24 3.5q24 0 44 -17.5t20 -38.5q0 -28 -43 -65q-132 -115 -125 -143q4 -18 10.5 -32t18 -31 t14.5 -23q26 -44 47.5 -104.5t31 -97.5t27.5 -112q9 -48 9 -147q0 -86 6 -129q9 -49 -1 -136t-42 -173t-76 -115q-42 -29 -64.5 -42.5t-55.5 -25.5t-64 -12q-80 0 -148.5 34.5t-111.5 100.5q-56 79 -64 160q-6 132 98 254q33 39 88 61.5t113 22.5q87 0 129 -35 q40 -33 49.5 2.5t5.5 122.5q0 144 -86 313q-13 26 -24.5 34.5t-26 -1.5t-33.5 -43q-11 -16 -37 -57.5t-48 -71.5t-48 -55q-2 -2 -7 -6q-19 -17 -30 -24.5t-28 -14.5t-32 -1t-30 25q-14 21 -8.5 42.5t19.5 33.5q20 24 53.5 53t42.5 39q23 22 58 71t55 70q40 46 34 84 q-8 19 -19 37.5t-20.5 31t-24.5 28t-22 22t-23 20t-18 15.5q-1 1 -11.5 9.5t-13 11t-13 10.5t-14.5 11.5t-14 10.5t-16 10t-15 8.5t-16 8.5t-15.5 6t-16.5 4q-28 4 -49.5 22.5t-16.5 51.5zM344 279q0 -79 53.5 -137t118.5 -58q99 0 153 70t48 180q-5 69 -74 108 q-41 21 -135 21q-68 3 -116 -50t-48 -134z" />
<glyph unicode="&#xf1;" horiz-adv-x="1595" d="M307 573q-22 38 0.5 58t57.5 20q12 -1 25 -3.5t22.5 -5t23.5 -9t20.5 -9.5t21.5 -12.5t19.5 -12.5t21.5 -14.5t20 -13.5q63 -45 108 -63q38 -10 93.5 -38.5t105.5 -72.5q76 -49 223 -164q3 -2 10 -7.5t11 -8t11.5 -8.5t12 -8.5t12 -7.5t11 -6.5l10.5 -4.5t9 -2.5t7 0.5 q40 16 21 258q0 2 -19 84q-8 38 8 62t56 24q22 0 39 -14.5t20 -36.5q4 -4 2 -55t-2 -53q6 -37 6 -101q0 -13 0.5 -55t0.5 -67.5t-2 -65.5t-5 -74q10 -20 10 -45q0 -51 -55 -51q-21 0 -77 38.5t-128 110.5q-16 15 -59.5 36.5t-63.5 39.5q-37 32 -76.5 58.5t-65.5 39.5t-68 33 q-9 4 -13 6q-101 38 -200 111q-9 7 -23 19q-27 23 -33 18q-3 -2 -4 -8q-4 -15 -4 -34.5t2 -44.5t2 -36q0 -27 7 -88.5t7 -104.5q-8 -58 -8 -75q0 -37 -21.5 -63t-58.5 -5q-45 30 -45 98q0 15 5.5 42t5.5 42q0 147 -7 185q-9 63 0 110q4 28 -10 55zM506 864q-8 27 20 66 q42 64 81 93.5t98 29.5q13 0 48 -24t66 -60q21 -24 30 -32.5t26.5 -18t37.5 -9.5q13 0 22.5 2.5t18.5 10.5t14 14t15 20.5t16 22.5q3 4 9.5 17.5t12 21t17 12.5t27.5 2q18 -6 30 -28.5t9 -40.5q-5 -38 -24.5 -61.5t-84.5 -65.5q-55 -35 -110 -35q-37 0 -63 15.5t-52 43.5 t-41 39q-7 5 -16.5 12t-15 11.5t-12 8t-9.5 3.5q-8 0 -17 -3t-21 -16t-17 -34q-4 -12 -14 -27.5t-21 -19.5q-18 -10 -47 -2t-33 32z" />
<glyph unicode="&#xf2;" horiz-adv-x="1187" d="M223 377q-7 130 41 203t182 141q27 14 60.5 21.5t55 8.5t61.5 1q132 0 178 -84q34 -11 73 -49t62 -76q33 -58 33 -111q0 -86 -31 -172t-92 -149q-32 -53 -105 -85t-139 -32q-104 0 -196.5 64.5t-145.5 164.5q-33 68 -37 154zM330 469q-7 -13 -8 -31.5t3 -40t8 -36.5 t11 -36.5t8 -25.5q20 -68 76 -121t123 -53q11 0 37 -5.5t42.5 -8t37.5 3.5q90 44 131 111t41 171q0 82 -31.5 130t-97.5 94q-67 0 -98.5 5t-65.5 25q-54 -8 -116 -59t-101 -123zM434 1167q-11 60 55 70q22 3 45 -14.5t31 -40.5q3 -7 25.5 -50t27.5 -69q7 -31 39 -66 q35 -51 35 -73q0 -25 -10 -35t-39 -10q-41 0 -63 53q-6 14 -16 31t-18.5 28.5t-24 31t-21.5 28.5q-64 75 -66 116z" />
<glyph unicode="&#xf3;" horiz-adv-x="1187" d="M223 377q-7 130 41 203t182 141q27 14 60.5 21.5t55 8.5t61.5 1q132 0 178 -84q34 -11 73 -49t62 -76q33 -58 33 -111q0 -86 -31 -172t-92 -149q-32 -53 -105 -85t-139 -32q-104 0 -196.5 64.5t-145.5 164.5q-33 68 -37 154zM330 469q-7 -13 -8 -31.5t3 -40t8 -36.5 t11 -36.5t8 -25.5q20 -68 76 -121t123 -53q11 0 37 -5.5t42.5 -8t37.5 3.5q90 44 131 111t41 171q0 82 -31.5 130t-97.5 94q-67 0 -98.5 5t-65.5 25q-54 -8 -116 -59t-101 -123zM518 903q0 7 4 16.5t7.5 15t12.5 18t11 14.5q59 97 76 170q5 20 27 34.5t42 18.5q34 1 51 -15 t17 -45q0 -7 -2 -15t-4.5 -13.5t-8.5 -15.5t-9.5 -15t-12.5 -16.5t-12 -16.5q-39 -47 -90 -139q-25 -41 -70 -41q-18 0 -28.5 12t-10.5 33z" />
<glyph unicode="&#xf4;" horiz-adv-x="1187" d="M223 377q-7 130 41 203t182 141q27 14 60.5 21.5t55 8.5t61.5 1q132 0 178 -84q34 -11 73 -49t62 -76q33 -58 33 -111q0 -86 -31 -172t-92 -149q-32 -53 -105 -85t-139 -32q-104 0 -196.5 64.5t-145.5 164.5q-33 68 -37 154zM330 469q-7 -13 -8 -31.5t3 -40t8 -36.5 t11 -36.5t8 -25.5q20 -68 76 -121t123 -53q11 0 37 -5.5t42.5 -8t37.5 3.5q90 44 131 111t41 171q0 82 -31.5 130t-97.5 94q-67 0 -98.5 5t-65.5 25q-54 -8 -116 -59t-101 -123zM334 963q1 6 3.5 11.5t8 12.5t8.5 10.5t11 11t10 9.5q30 27 35 35q17 20 44.5 45t52.5 49 t42 45q20 26 45 35q8 4 15.5 5t15 -3t12 -7t11.5 -13t9.5 -14t10.5 -17q13 -20 30.5 -38t45 -42.5t38.5 -34.5q7 -6 24.5 -19.5t28 -22t21.5 -22.5t13 -25.5t-5.5 -26.5t-27.5 -29q-27 -13 -51 -8.5t-33 18.5q-54 81 -134 133q-12 7 -23.5 7.5t-17 -2t-20.5 -9.5 q-50 -27 -84 -94q-26 -54 -70 -66q-38 -8 -57 9t-12 57z" />
<glyph unicode="&#xf5;" horiz-adv-x="1187" d="M223 377q-7 130 41 203t182 141q27 14 60.5 21.5t55 8.5t61.5 1q132 0 178 -84q34 -11 73 -49t62 -76q33 -58 33 -111q0 -86 -31 -172t-92 -149q-32 -53 -105 -85t-139 -32q-104 0 -196.5 64.5t-145.5 164.5q-33 68 -37 154zM303 987q-8 26 21 66q42 65 80.5 94t97.5 29 q13 0 48 -24t66 -60q20 -23 29.5 -32.5t27.5 -18.5t38 -9q13 0 22.5 2.5t18.5 10.5t14 14t15 20.5t16 22.5q3 4 9.5 17.5t11.5 21t16.5 12.5t27.5 2q18 -6 30 -29t9 -41q-5 -38 -24.5 -61.5t-83.5 -65.5q-53 -34 -111 -34q-29 0 -52.5 11t-37.5 24.5t-33 33t-33 29.5 q-7 5 -16.5 12t-15 11.5t-12 8t-9.5 3.5q-8 0 -17 -3t-21 -16t-17 -34q-4 -12 -14 -28t-21 -20q-18 -10 -47 -1.5t-33 32.5zM330 469q-7 -13 -8 -31.5t3 -40t8 -36.5t11 -36.5t8 -25.5q20 -68 76 -121t123 -53q11 0 37 -5.5t42.5 -8t37.5 3.5q90 44 131 111t41 171 q0 82 -31.5 130t-97.5 94q-67 0 -98.5 5t-65.5 25q-54 -8 -116 -59t-101 -123z" />
<glyph unicode="&#xf6;" horiz-adv-x="1187" d="M223 377q-7 130 41 203t182 141q27 14 60.5 21.5t55 8.5t61.5 1q132 0 178 -84q34 -11 73 -49t62 -76q33 -58 33 -111q0 -86 -31 -172t-92 -149q-32 -53 -105 -85t-139 -32q-104 0 -196.5 64.5t-145.5 164.5q-33 68 -37 154zM295 1038q0 40 40 84.5t95 44.5 q27 0 64.5 -40.5t37.5 -79.5q0 -98 -149 -101q-29 0 -58.5 25t-29.5 67zM330 469q-7 -13 -8 -31.5t3 -40t8 -36.5t11 -36.5t8 -25.5q20 -68 76 -121t123 -53q11 0 37 -5.5t42.5 -8t37.5 3.5q90 44 131 111t41 171q0 82 -31.5 130t-97.5 94q-67 0 -98.5 5t-65.5 25 q-54 -8 -116 -59t-101 -123zM674 1038q0 42 40.5 85.5t73.5 43.5q114 0 109 -114q-3 -49 -41.5 -75t-87.5 -26q-34 0 -64 26.5t-30 59.5z" />
<glyph unicode="&#xf7;" d="M139 352q0 30 26 48.5t50 7.5q20 -10 66.5 -10t72.5 5q50 13 113 5q15 0 49 -4.5t55 -4.5q60 -3 129 9q32 4 52 -19.5t18 -50.5q-3 -23 -25 -38t-49 -15q-45 0 -141.5 7t-140.5 7q-49 0 -131 -10q-74 -9 -109 11.5t-35 51.5zM369 586q8 37 38 68.5t62 31.5q31 0 61.5 -28 t30.5 -52q0 -33 -27.5 -68.5t-56.5 -35.5q-27 0 -51 5.5t-43 26t-14 52.5zM373 109q0 52 32.5 76t63.5 24q35 0 58.5 -18.5t23.5 -57.5q0 -35 -21.5 -64.5t-72.5 -29.5q-32 0 -58 23.5t-26 46.5z" />
<glyph unicode="&#xf8;" horiz-adv-x="1187" d="M211 -203q23 64 86 150q31 46 82 131q-73 58 -119 145q-33 68 -37 154q-7 130 41 203t182 141q27 14 60.5 21.5t55 8.5t61.5 1q53 0 94 -15q13 28 40.5 83.5t37.5 82.5q18 46 40.5 77.5t42 42.5t38 15t28.5 -4q34 -15 43 -51.5t-14 -62.5q-14 -16 -31.5 -34.5t-22 -24.5 t-9 -15t-5.5 -21q-6 -40 -86 -166q66 -37 117 -116q33 -58 33 -111q0 -86 -31 -172t-92 -149q-32 -53 -105 -85t-139 -32t-135 29q-9 -21 -30.5 -57t-30.5 -54q-3 -5 -68 -139q-10 -27 -42 -48t-54 -8q-22 12 -31 34t0 46zM330 469q-7 -13 -8 -31.5t3 -40t8 -36.5t11 -36.5 t8 -25.5q19 -70 78 -123q16 29 54.5 111.5t64.5 126.5q36 61 113 207q-72 3 -115 30q-54 -8 -116 -59t-101 -123zM520 127q121 -25 148 -12q90 44 131 111t41 171q0 107 -72 176q-148 -244 -248 -446z" />
<glyph unicode="&#xf9;" horiz-adv-x="1103" d="M272 573q1 47 20 73t42 26q63 0 63 -49q0 -55 2 -84q7 -54 4 -205t9 -189q7 -28 30 -36.5t70 -8.5q14 0 55 5.5t74 5.5q31 0 43 17t12 50q0 36 -2 110.5t-2 110.5q0 84 -10 123q-11 67 16 103.5t58 36.5q35 0 50.5 -11t14 -29.5t-5.5 -43.5q-11 -33 0 -76q4 -41 0 -78 q-4 -27 -4 -117q0 -17 -2 -47.5t-2 -44.5q0 -13 -1 -39.5t-1 -42.5q31 -51 31 -78q0 -16 -4.5 -27.5t-16 -18.5t-21.5 -11t-31 -5.5t-32.5 -2t-38.5 -0.5q-17 0 -50.5 3t-53.5 3q-16 0 -46 -3t-55 -3t-49 6q-36 8 -54 13.5t-38 15t-30 24.5t-17 37q-11 32 -4 74 q4 19 -1 66.5t-5 72.5q0 12 0.5 36t0.5 36t-1.5 32t-5.5 39q-15 84 -11 131zM387 1106q-11 60 55 70q22 3 45 -15t31 -41q3 -7 25.5 -50t27.5 -69q7 -30 39 -65q35 -51 35 -74q0 -25 -10 -35t-39 -10q-42 0 -64 53q-6 14 -16 31.5t-17.5 28t-24 31.5t-21.5 28 q-64 75 -66 117z" />
<glyph unicode="&#xfa;" horiz-adv-x="1103" d="M272 573q1 47 20 73t42 26q63 0 63 -49q0 -55 2 -84q7 -54 4 -205t9 -189q7 -28 30 -36.5t70 -8.5q14 0 55 5.5t74 5.5q31 0 43 17t12 50q0 36 -2 110.5t-2 110.5q0 84 -10 123q-11 67 16 103.5t58 36.5q35 0 50.5 -11t14 -29.5t-5.5 -43.5q-11 -33 0 -76q4 -41 0 -78 q-4 -27 -4 -117q0 -17 -2 -47.5t-2 -44.5q0 -13 -1 -39.5t-1 -42.5q31 -51 31 -78q0 -16 -4.5 -27.5t-16 -18.5t-21.5 -11t-31 -5.5t-32.5 -2t-38.5 -0.5q-17 0 -50.5 3t-53.5 3q-16 0 -46 -3t-55 -3t-49 6q-36 8 -54 13.5t-38 15t-30 24.5t-17 37q-11 32 -4 74 q4 19 -1 66.5t-5 72.5q0 12 0.5 36t0.5 36t-1.5 32t-5.5 39q-15 84 -11 131zM471 842q0 7 4 16t8 15t12.5 17.5t10.5 14.5q59 97 76 170q5 20 27 34.5t42 18.5q68 3 68 -59q0 -7 -2 -15t-4.5 -13.5t-8.5 -15.5t-9.5 -15t-12.5 -16.5t-12 -16.5q-39 -47 -90 -139 q-25 -41 -70 -41q-18 0 -28.5 12t-10.5 33z" />
<glyph unicode="&#xfb;" horiz-adv-x="1103" d="M272 573q1 47 20 73t42 26q63 0 63 -49q0 -55 2 -84q7 -54 4 -205t9 -189q7 -28 30 -36.5t70 -8.5q14 0 55 5.5t74 5.5q31 0 43 17t12 50q0 36 -2 110.5t-2 110.5q0 84 -10 123q-11 67 16 103.5t58 36.5q35 0 50.5 -11t14 -29.5t-5.5 -43.5q-11 -33 0 -76q4 -41 0 -78 q-4 -27 -4 -117q0 -17 -2 -47.5t-2 -44.5q0 -13 -1 -39.5t-1 -42.5q31 -51 31 -78q0 -16 -4.5 -27.5t-16 -18.5t-21.5 -11t-31 -5.5t-32.5 -2t-38.5 -0.5q-17 0 -50.5 3t-53.5 3q-16 0 -46 -3t-55 -3t-49 6q-36 8 -54 13.5t-38 15t-30 24.5t-17 37q-11 32 -4 74 q4 19 -1 66.5t-5 72.5q0 12 0.5 36t0.5 36t-1.5 32t-5.5 39q-15 84 -11 131zM287 901q1 6 3.5 11.5t8 12.5t8.5 10.5t11 11t10 9.5q28 25 34 35q20 22 69.5 67.5t70.5 71.5q20 26 45 35q31 16 59 -26q4 -6 15 -23q13 -20 30.5 -38t45 -42.5t38.5 -34.5q7 -6 24.5 -19.5 t28 -22t21.5 -22.5t12.5 -25.5t-6 -26.5t-27.5 -29q-27 -13 -50.5 -8.5t-32.5 18.5q-54 81 -134 133q-12 7 -23.5 7.5t-17 -2t-20.5 -9.5q-50 -27 -84 -94q-26 -53 -70 -65q-38 -8 -57 8.5t-12 56.5z" />
<glyph unicode="&#xfc;" horiz-adv-x="1103" d="M248 977q0 40 40 84.5t95 44.5q27 0 64.5 -41t37.5 -80q0 -97 -149 -100q-29 0 -58.5 25t-29.5 67zM272 573q1 47 20 73t42 26q63 0 63 -49q0 -55 2 -84q7 -54 4 -205t9 -189q7 -28 30 -36.5t70 -8.5q14 0 55 5.5t74 5.5q31 0 43 17t12 50q0 36 -2 110.5t-2 110.5 q0 84 -10 123q-11 67 16 103.5t58 36.5q35 0 50.5 -11t14 -29.5t-5.5 -43.5q-11 -33 0 -76q4 -41 0 -78q-4 -27 -4 -117q0 -17 -2 -47.5t-2 -44.5q0 -13 -1 -39.5t-1 -42.5q31 -51 31 -78q0 -16 -4.5 -27.5t-16 -18.5t-21.5 -11t-31 -5.5t-32.5 -2t-38.5 -0.5q-17 0 -50.5 3 t-53.5 3q-16 0 -46 -3t-55 -3t-49 6q-36 8 -54 13.5t-38 15t-30 24.5t-17 37q-11 32 -4 74q4 19 -1 66.5t-5 72.5q0 12 0.5 36t0.5 36t-1.5 32t-5.5 39q-15 84 -11 131zM627 977q0 42 40.5 85.5t73.5 43.5q114 0 109 -115q-3 -49 -41.5 -74.5t-87.5 -25.5q-34 0 -64 26.5 t-30 59.5z" />
<glyph unicode="&#xfd;" horiz-adv-x="1259" d="M139 727q0 26 21 48t49 22q9 0 17.5 -1.5t15 -3.5t13.5 -6.5t11 -7.5t10 -10t9 -10t9 -11.5t9 -11.5q99 -133 209 -219q59 -52 104 -70q6 -3 19 -12t20 -12q34 13 72 51q21 16 46 39t42 40t44 44.5t36 36.5q14 14 46 57.5t58 61.5q17 14 25.5 19.5t18.5 8t26 2.5 q13 0 23 -4t16 -10.5t9 -14.5t3 -18q0 -48 -80 -104q-21 -16 -40.5 -34t-30.5 -30.5t-26.5 -31.5t-22.5 -27q-6 -6 -14 -14.5t-14 -15t-13.5 -14t-15.5 -14t-17 -12.5q-20 -17 -37.5 -38.5t-38 -51t-33.5 -45.5q-20 -29 -29 -62t-10.5 -58t-1.5 -83v-538q6 -58 6 -119 q0 -37 -13 -67.5t-42 -30.5q-99 0 -76 129q7 50 7 147q0 29 4 111.5t4 148.5q0 15 -2 58t-2 75q0 22 -2 67.5t-2 68.5t-1 50t-1 42.5t2 31.5q-8 0 -15.5 2.5t-14 7.5t-11.5 10t-11.5 14t-9.5 14t-9.5 15.5t-8.5 14.5q-11 12 -34 39.5t-38 44.5t-37 39t-41 37 q-24 18 -75 71.5t-83 73.5q-17 11 -26 18.5t-17 21.5t-8 30zM553 893q0 6 2 12t6.5 13t8 12.5t9.5 13.5l9 12q59 97 76 170q6 20 27.5 35.5t41.5 18.5q34 1 51 -15t17 -45q0 -6 -1.5 -12t-4 -13t-5.5 -12.5t-8.5 -13t-9 -12.5t-10 -14.5t-10.5 -14.5q-39 -47 -90 -139 q-25 -41 -70 -41q-18 0 -28.5 12t-10.5 33z" />
<glyph unicode="&#xfe;" horiz-adv-x="1003" d="M299 1364q0 32 22.5 56t51.5 24q51 0 67.5 -26t-8.5 -75q-10 -21 -12 -52.5t2 -59.5t8 -65.5t4 -61.5q0 -18 1 -47t1 -44t-3 -37t-9 -42q-6 -22 1.5 -40.5t15 -25.5t26.5 -22q9 -8 35 -29t38 -31.5t32 -29t35.5 -36.5t29.5 -38q103 -161 135 -274q38 -137 19 -252 q-4 -26 -13 -53.5t-23.5 -66t-19.5 -54.5q-108 -224 -147 -246q-24 -13 -58 -53t-53 -52q-22 -16 -28 -47t-1 -87t5 -64q0 -29 -3.5 -105.5t-3.5 -118.5q0 -22 -1 -31t-5.5 -25t-17 -23t-33.5 -7q-23 0 -42 14.5t-23 47.5q-5 51 7 159t7 169q-16 136 -8 254q8 104 8 448 q0 52 -4.5 147t-5.5 136q-7 61 -15 229q-26 51 -10 168q7 52 8 115t-1 112t-6 122.5t-5 119.5zM446 621q0 -20 -2 -105t-0.5 -150.5t9.5 -125.5q19 -96 0 -254q-4 -34 -4 -150q-1 -49 26 -44q35 6 89 88q30 45 52 95q57 140 50 240q-18 157 -54 252t-118 180q-1 6 -13 12.5 t-23.5 -1t-11.5 -37.5z" />
<glyph unicode="&#xff;" horiz-adv-x="1259" d="M139 727q0 26 21 48t49 22q9 0 17.5 -1.5t15 -3.5t13.5 -6.5t11 -7.5t10 -10t9 -10t9 -11.5t9 -11.5q99 -133 209 -219q59 -52 104 -70q6 -3 19 -12t20 -12q34 13 72 51q21 16 46 39t42 40t44 44.5t36 36.5q14 14 46 57.5t58 61.5q17 14 25.5 19.5t18.5 8t26 2.5 q13 0 23 -4t16 -10.5t9 -14.5t3 -18q0 -48 -80 -104q-21 -16 -40.5 -34t-30.5 -30.5t-26.5 -31.5t-22.5 -27q-6 -6 -14 -14.5t-14 -15t-13.5 -14t-15.5 -14t-17 -12.5q-20 -17 -37.5 -38.5t-38 -51t-33.5 -45.5q-20 -29 -29 -62t-10.5 -58t-1.5 -83v-538q6 -58 6 -119 q0 -37 -13 -67.5t-42 -30.5q-99 0 -76 129q7 50 7 147q0 29 4 111.5t4 148.5q0 15 -2 58t-2 75q0 22 -2 67.5t-2 68.5t-1 50t-1 42.5t2 31.5q-8 0 -15.5 2.5t-14 7.5t-11.5 10t-11.5 14t-9.5 14t-9.5 15.5t-8.5 14.5q-11 12 -34 39.5t-38 44.5t-37 39t-41 37 q-24 18 -75 71.5t-83 73.5q-17 11 -26 18.5t-17 21.5t-8 30zM330 1028q0 40 40 84.5t95 44.5q27 0 64.5 -41t37.5 -80q0 -97 -149 -100q-29 0 -58.5 25t-29.5 67zM709 1028q0 42 40.5 85.5t73.5 43.5q114 0 109 -115q-3 -49 -41.5 -74.5t-87.5 -25.5q-34 0 -64 26.5 t-30 59.5z" />
<glyph unicode="&#x152;" horiz-adv-x="1875" d="M219 487q0 102 39 191q25 59 54 95t71 67q81 62 148.5 91.5t160.5 29.5q51 0 103 -16t86 -34.5t84 -50.5q63 -40 118 -123q40 -62 66 4q46 101 111 164q47 43 82.5 78t50 49t20.5 19q36 27 88 24.5t60 -41.5q4 -28 -15 -46t-48.5 -30t-35.5 -18q-9 -6 -42.5 -21 t-47.5 -32q-186 -181 -174 -320q1 -18 12.5 -28t22.5 -7q23 6 46 7.5t60.5 -0.5t57.5 -2q13 0 36.5 3t37 3.5t40.5 -4.5q26 -9 38 -25.5t7 -32.5q-7 -29 -50 -44t-107 -13q-18 0 -53 4t-64 4t-53 -8q-18 -4 -28.5 -14.5t-10.5 -22.5q-1 -12 1 -25t4 -20t7 -21t6 -18 q23 -73 60 -124.5t104 -104.5q133 -113 215 -113q83 0 88 -45q1 -30 -31 -52.5t-67 -17.5q-31 4 -63.5 15.5t-54 22.5t-66.5 36q-118 66 -189 156q-54 78 -94 137q-6 7 -11 10.5t-9 5t-8 0.5t-6.5 -2.5t-5.5 -5t-4.5 -5.5t-4 -6t-2.5 -5q-40 -62 -109 -121 q-51 -47 -128 -72.5t-140 -25.5q-79 0 -143.5 27.5t-139.5 84.5q-82 59 -125 170q-20 49 -29 74.5t-17.5 65t-8.5 79.5zM344 483q-4 -59 18 -123.5t64 -120t111.5 -92t152.5 -36.5q86 0 161 46.5t118 114.5q25 39 41 78t16 53q0 15 -35 15q-77 -15 -104 -15q-53 -3 -80.5 24 t-15.5 56q11 34 40 44t56 1q33 -6 88 -6q28 0 37 5.5t14 23.5q26 69 -65 174q-28 31 -77.5 54t-92.5 32q-115 0 -154 31q-75 0 -141.5 -44.5t-98.5 -97.5q-29 -47 -39 -94.5t-14 -122.5z" />
<glyph unicode="&#x153;" horiz-adv-x="1478" d="M223 338q5 48 30 110.5t60 102.5q127 146 285 131q67 -7 127 -48.5t104 -96.5q16 -28 32 -21.5t44 62.5q13 26 38 51.5t43 39.5t52 38q39 27 64 36t63 9q20 0 45.5 -18.5t28.5 -43.5q4 -25 -9.5 -37.5t-27 -14t-39.5 -1.5q-35 0 -71 -16t-52 -35q-54 -39 -83.5 -105 t-16.5 -84q0 -1 1.5 -4l2 -4t3 -3t5.5 -2t7.5 0.5t11.5 2.5q55 10 139 10q45 0 81.5 -13.5t47.5 -41.5q4 -11 4.5 -20t-1.5 -15.5t-9.5 -11t-14 -8t-19.5 -6t-23 -4t-27 -3.5q-14 0 -46 4t-58.5 6t-54.5 0.5t-44 -14.5t-16 -37q1 -12 5.5 -25t13.5 -29.5t15.5 -26.5 t21.5 -32t20 -30q5 -4 21 -22t17 -19q18 -20 41.5 -31t59 -19t49.5 -13q45 -22 57.5 -39t12.5 -45q0 -25 -23.5 -40.5t-42.5 -15.5q-16 0 -41.5 9.5t-45.5 19.5t-52 27.5t-43 23.5q-60 33 -135 123q-2 2 -9.5 11t-12.5 12.5t-12.5 8t-16.5 2.5t-19 -9q-59 -47 -121.5 -65 t-150.5 -5q-113 17 -215 105q-36 34 -71 104.5t-30 124.5zM348 389q-3 -17 14 -61q3 -7 16 -54.5t30 -68.5q30 -48 82 -74.5t108 -26.5q26 0 55 6t57.5 19t50 31.5t33.5 46.5t7 61q-2 9 -23.5 10t-52 -2.5t-33.5 -3.5q-17 0 -58 5.5t-61 5.5q-18 0 -34.5 15.5t-16.5 35.5 q0 25 21.5 45t52.5 10q25 -10 98 -15t82 5q20 28 -10.5 68.5t-69.5 68.5q-66 52 -110 62q-20 5 -45.5 -1.5t-38.5 -12.5t-43 -21q-47 -27 -77 -67.5t-34 -86.5z" />
<glyph unicode="&#x178;" horiz-adv-x="1337" d="M16 1313q0 29 21 44t53 15q41 0 66 -53q10 -21 132 -134.5t165 -146.5q37 -27 94 -72.5t69 -54.5q25 -20 52 -47q7 -5 13.5 -7t15 1.5t12 5.5t15 10.5t13.5 10.5q101 82 183 166q19 19 72.5 70t80.5 79q35 44 96 105q13 16 20.5 23t23 13.5t36.5 6.5q45 0 61 -28.5 t-12 -66.5q-11 -16 -21 -25t-27.5 -20t-20.5 -14q-14 -8 -30 -19.5t-26 -19t-29.5 -24.5t-24.5 -21.5t-28.5 -26.5t-25.5 -24l-139 -139q-5 -6 -21.5 -24t-29.5 -32t-38.5 -39.5t-54.5 -52.5q-2 -8 -2 -30.5t-5 -44t-19 -40.5q-11 -19 -11 -135q0 -50 3 -140.5t3.5 -141 t-3.5 -140.5q-6 -62 4 -175.5t10 -157.5q0 -42 -10.5 -66.5t-44.5 -38.5q-38 -16 -62 4t-24 72q0 14 3 65.5t3 96.5q0 20 -0.5 58.5t-0.5 61t1 49t4 42.5q4 37 4 79.5t-2 97.5t-2 89q0 96 -19 229q-2 9 -7 39.5t-8 42.5t-10.5 35t-18 41t-25.5 37q-40 42 -107.5 98.5 t-126.5 95.5q-20 13 -40.5 29t-47.5 42t-43 42t-54 55.5t-54 55.5q-2 2 -8.5 9.5t-8.5 10t-8 9.5t-8 10.5t-6.5 10t-6.5 11t-4 10.5t-3 11.5t-1 11.5zM365 1526q0 40 40 84.5t95 44.5q27 0 64.5 -41t37.5 -80q0 -97 -149 -100q-29 0 -58.5 25t-29.5 67zM743 1526 q0 42 41 85.5t74 43.5q114 0 109 -115q-3 -49 -41 -74.5t-88 -25.5q-35 0 -65 26.5t-30 59.5z" />
<glyph unicode="&#x2c6;" horiz-adv-x="978" d="M223 963q1 6 3.5 11.5t8 12.5t8.5 10.5t11 11t10 9.5q30 27 35 35q19 22 68.5 67.5t70.5 71.5q20 26 45 35q8 4 15.5 5t15 -3t12 -7t11.5 -13t9.5 -14t10.5 -17q13 -20 31 -38.5t45.5 -42t38.5 -34.5q7 -6 24.5 -19.5t27.5 -22t21.5 -23t13 -26t-6 -26t-27.5 -28.5 q-27 -13 -51 -8.5t-33 18.5q-54 82 -133 133q-12 7 -24 7.5t-18 -2t-20 -9.5q-50 -27 -84 -94q-26 -54 -69 -66q-38 -8 -57.5 9t-12.5 57z" />
<glyph unicode="&#x2dc;" horiz-adv-x="1044" d="M223 987q-8 26 21 66q42 65 80.5 94t97.5 29q14 0 49 -24.5t66 -59.5q21 -24 30 -32.5t26.5 -18t37.5 -9.5q13 0 22.5 2.5t18.5 10.5t14 14t15 20.5t16 22.5q3 4 9.5 17.5t11.5 21t16.5 12.5t27.5 2q18 -6 30 -29t9 -41q-5 -38 -24.5 -61.5t-83.5 -65.5q-53 -34 -111 -34 q-29 0 -52.5 11t-37.5 24.5t-33 33t-33 29.5q-7 5 -16.5 12t-15 11.5t-12 8t-9.5 3.5q-8 0 -17 -3t-21 -16t-17 -34q-4 -12 -14 -28t-21 -20q-18 -10 -47 -1.5t-33 32.5z" />
<glyph unicode="&#x2000;" horiz-adv-x="1119" />
<glyph unicode="&#x2001;" horiz-adv-x="2238" />
<glyph unicode="&#x2002;" horiz-adv-x="1119" />
<glyph unicode="&#x2003;" horiz-adv-x="2238" />
<glyph unicode="&#x2004;" horiz-adv-x="746" />
<glyph unicode="&#x2005;" horiz-adv-x="559" />
<glyph unicode="&#x2006;" horiz-adv-x="373" />
<glyph unicode="&#x2007;" horiz-adv-x="373" />
<glyph unicode="&#x2008;" horiz-adv-x="279" />
<glyph unicode="&#x2009;" horiz-adv-x="447" />
<glyph unicode="&#x200a;" horiz-adv-x="124" />
<glyph unicode="&#x2010;" horiz-adv-x="1079" d="M219 324q-5 27 14 48t50 21q29 0 78.5 -7t72.5 -7q20 0 60 8q6 0 30 3t32 2.5t36 -3.5q74 -15 178 -2q85 4 90 -53q4 -36 -7.5 -51t-41.5 -15q-11 0 -37 3t-47 3q-26 0 -84.5 4.5t-95.5 4.5q-21 0 -75 -5.5t-95 -5.5q-8 0 -22 0.5t-26 0.5t-22 -1q-33 -3 -58 14t-30 38z " />
<glyph unicode="&#x2011;" horiz-adv-x="1079" d="M219 324q-5 27 14 48t50 21q29 0 78.5 -7t72.5 -7q20 0 60 8q6 0 30 3t32 2.5t36 -3.5q74 -15 178 -2q85 4 90 -53q4 -36 -7.5 -51t-41.5 -15q-11 0 -37 3t-47 3q-26 0 -84.5 4.5t-95.5 4.5q-21 0 -75 -5.5t-95 -5.5q-8 0 -22 0.5t-26 0.5t-22 -1q-33 -3 -58 14t-30 38z " />
<glyph unicode="&#x2012;" horiz-adv-x="1079" d="M219 324q-5 27 14 48t50 21q29 0 78.5 -7t72.5 -7q20 0 60 8q6 0 30 3t32 2.5t36 -3.5q74 -15 178 -2q85 4 90 -53q4 -36 -7.5 -51t-41.5 -15q-11 0 -37 3t-47 3q-26 0 -84.5 4.5t-95.5 4.5q-21 0 -75 -5.5t-95 -5.5q-8 0 -22 0.5t-26 0.5t-22 -1q-33 -3 -58 14t-30 38z " />
<glyph unicode="&#x2013;" horiz-adv-x="1740" d="M309 352q0 21 31 43t84 13q102 -16 207 -11q20 1 69.5 4.5t70 3.5t71.5 -6q52 -11 139 -2q36 3 112 -0.5t115 2.5q9 1 26 5.5t39 7t56 2.5q103 0 103 -70q0 -16 -16 -35t-42 -16q-39 5 -151 0q-45 -4 -154 -4q-34 0 -90 -0.5t-80 -0.5t-56 1.5t-57 5.5q-38 7 -125.5 0.5 t-128.5 -2.5q-99 4 -139 -8q-36 -9 -60 11.5t-24 55.5z" />
<glyph unicode="&#x2014;" horiz-adv-x="3481" d="M379 362q0 53 84 46q91 -11 205 -11q80 0 147 6q30 3 64 3.5t55.5 -0.5t64.5 -3.5t60 -3.5q211 -11 340 0q74 9 108 9q48 0 185 -9q29 -1 87.5 -3.5t88.5 -3t92 0.5q35 4 258 4q143 0 213 2q54 3 80 3t87.5 -2.5t106.5 -2.5q11 0 109.5 5.5t183.5 0.5q50 7 77.5 -13 t27.5 -56q0 -42 -49 -58t-99 -4q-67 15 -166 11q-11 0 -43.5 -1t-56 -0.5t-43.5 3.5q-52 8 -108 9t-134.5 -2t-119.5 -3q-22 0 -66 2t-66 2q-65 0 -157 -10q-79 -6 -125 -3.5t-127.5 8t-134.5 5.5q-91 3 -195 -4q-142 -9 -305 4q-166 5 -217 0q-66 -8 -229 -8 q-108 0 -185 -6q-50 -3 -74 20t-24 63z" />
<glyph unicode="&#x2018;" horiz-adv-x="737" d="M233 901q0 37 18.5 84t34 72.5t48.5 77.5q20 29 27.5 38.5t21 19t31.5 11.5q24 0 34.5 -18t10.5 -41q0 -12 -9.5 -26t-29.5 -34.5t-23 -23.5q-11 -11 -16.5 -32.5t2.5 -40.5t31 -19q33 0 59 -20.5t29 -53.5q15 -148 -133 -154q-59 0 -97.5 42t-38.5 118z" />
<glyph unicode="&#x2019;" horiz-adv-x="735" d="M233 745q0 14 7.5 26t10.5 14t17 12q24 17 43 42.5t22.5 44t-9.5 25.5q-20 6 -31 11t-26 17.5t-22 34.5t-7 54q0 46 29.5 77.5t86.5 31.5q77 0 112.5 -36.5t35.5 -109.5q0 -21 -13.5 -49.5t-27 -47t-40 -53t-32.5 -42.5q-4 -5 -18 -27t-24.5 -37.5t-27 -29t-30.5 -13.5 q-22 0 -39 14t-17 41z" />
<glyph unicode="&#x201a;" horiz-adv-x="720" d="M233 74q0 74 42.5 105.5t107.5 23.5q32 -4 67.5 -45.5t32.5 -98.5q-1 -33 -6 -61t-10.5 -47t-18.5 -42.5t-20.5 -35t-27 -38t-27.5 -38.5q-19 -31 -60 -35q-27 -4 -40 9t-13 36q0 8 3 16t6 14t11 14.5t11.5 12t14.5 13.5t13 12q53 42 35 58q-10 12 -45 22q-26 8 -51 42 t-25 63z" />
<glyph unicode="&#x201c;" horiz-adv-x="1120" d="M238 887q-5 36 5 76.5t19.5 60t37 64.5t28.5 47q45 79 100 79q36 0 45.5 -14.5t7.5 -44.5q-6 -37 -49 -59q-38 -13 -49 -62q-3 -12 7 -18t24 -6q27 0 52.5 -34.5t25.5 -74.5q0 -62 -43 -91.5t-97 -29.5q-44 0 -74.5 28.5t-39.5 78.5zM633 901q0 66 14 103t60 110 q5 6 22.5 34.5t33.5 42t38 13.5q35 0 50 -11.5t15 -43.5q0 -11 -2.5 -19t-9 -13t-12 -7.5t-17.5 -6.5t-18 -7q-17 -9 -30.5 -33t-6.5 -47q4 -14 16 -20.5t21 -4.5q36 9 58 -21t22 -79q-1 -51 -45.5 -80t-96.5 -29q-42 0 -77 37t-35 82z" />
<glyph unicode="&#x201d;" horiz-adv-x="1099" d="M233 1069q0 71 44 102t106 23q35 -4 71 -45t33 -98q-4 -75 -20 -107q-51 -105 -78 -147q-1 -1 -3.5 -6t-3 -7t-3 -6t-4.5 -6t-5 -6t-6 -6t-7 -5t-8.5 -5.5t-10.5 -4.5q-49 -18 -64 35q-6 22 5 39.5t30 35.5t25 30q38 38 18 55q-19 15 -39 21q-28 11 -54 44t-26 64z M612 1065q3 21 4.5 29t7 25t14.5 23.5t25 15.5t40.5 12.5t58.5 3.5q39 0 72.5 -34t29.5 -81q-4 -31 -24 -80l-9 -19q-7 -17 -10 -24q-9 -18 -23 -63t-32 -75t-49 -53q-29 -23 -57.5 -14.5t-28.5 45.5q0 17 12.5 32.5t27.5 27t27.5 31t12.5 42.5q0 17 -7.5 24t-21.5 13 q-40 17 -57 52t-13 67z" />
<glyph unicode="&#x201e;" horiz-adv-x="1138" d="M238 74q2 43 51 79.5t133 26.5q33 -1 54.5 -31.5t21.5 -64.5q0 -15 -1.5 -28t-5.5 -25t-6.5 -18.5t-9 -20t-8.5 -17.5q-42 -95 -98 -163q-42 -60 -60 -60q-25 0 -40 12t-15 27q0 27 7.5 38t31.5 28q23 17 37.5 49t-0.5 49q-11 7 -37 16q-62 33 -55 103zM651 66q3 29 7 43 t17.5 32t44.5 25.5t81 7.5q40 0 73 -34t27 -81q-3 -29 -23.5 -81t-25.5 -66q-21 -84 -57 -131q-4 -3 -17.5 -16t-21.5 -19q-29 -23 -59.5 -14.5t-30.5 45.5q0 5 1 10t4.5 10t5.5 8.5t8.5 9.5t9 8t11.5 9.5t11 9.5q31 37 31 68q0 25 -27 37q-41 24 -57 56.5t-13 62.5z" />
<glyph unicode="&#x2022;" horiz-adv-x="1079" d="M334 354q-28 48 -18.5 103t38.5 102t72.5 78t81.5 31q60 0 108 -21t77 -55t45.5 -72t21.5 -78q8 -71 -53 -142t-134 -71q-153 0 -239 125z" />
<glyph unicode="&#x2026;" horiz-adv-x="1695" d="M238 74q15 129 165 114q41 -4 73 -28t32 -74q0 -44 -19 -76t-46.5 -47.5t-50.5 -22t-40 -6.5q-41 0 -69 26.5t-37.5 57t-7.5 56.5zM737 51q0 41 32 85t77 44q57 0 97.5 -23t47.5 -63q12 -82 -27.5 -121t-103.5 -39q-40 0 -65.5 8.5t-37 28t-15 35.5t-5.5 45zM1219 45 q0 133 124 133q41 0 80 -35t39 -69q0 -81 -22 -114.5t-92 -33.5q-49 0 -89 32.5t-40 86.5z" />
<glyph unicode="&#x202f;" horiz-adv-x="447" />
<glyph unicode="&#x2039;" horiz-adv-x="841" d="M213 342q2 19 10.5 33.5t16.5 21t25.5 18t27.5 19.5q27 31 56.5 61.5t72.5 72t61 59.5q42 38 68 49q25 8 53.5 -9t28.5 -46q0 -26 -11 -39t-31 -19.5t-24 -9.5q-20 -11 -69 -55q-19 -19 -60.5 -58.5t-64.5 -62.5q-21 -15 -19 -32t35 -52q8 -8 41 -41.5t46 -46t36 -32 t41 -30.5q55 -31 55 -77q0 -18 -18 -37t-47 -19q-8 0 -15.5 1.5t-13 2.5t-11.5 5l-9 6t-8 7.5t-6.5 7t-6.5 8t-6 7.5q-28 47 -109 109q-16 12 -29.5 24.5t-37.5 37.5t-33 34q-17 17 -25 26t-15 25t-5 31z" />
<glyph unicode="&#x203a;" horiz-adv-x="806" d="M215 586q-8 36 9.5 57t58.5 14q17 -2 51 -36q32 -32 55 -48q15 -12 38.5 -37.5t25.5 -27.5q29 -27 71 -70.5t43 -44.5q12 -7 16.5 -10.5t9.5 -13.5t5 -27q0 -46 -47 -74q-6 -3 -12.5 -7.5t-11.5 -8t-12 -10.5t-10.5 -10t-11.5 -12t-10.5 -12t-12 -14.5t-11.5 -13.5 q-45 -61 -92.5 -111t-71.5 -53q-9 -3 -28 -3t-38 12q-26 20 -19 48.5t28 37.5q12 6 27.5 18.5t24 20.5t29.5 29.5t25 25.5q84 78 84 108v9.5v12t-0.5 13t-2.5 14.5t-5 13.5t-8 13.5q-53 66 -129 123q-2 1 -12.5 7.5t-14.5 9.5t-12.5 10t-12.5 12.5t-9 15t-7 19.5z" />
<glyph unicode="&#x205f;" horiz-adv-x="559" />
<glyph unicode="&#x20ac;" horiz-adv-x="1005" d="M135 260q0 34 13 49t51 15q13 0 47 -5.5t61 -5.5q10 0 22.5 14t12.5 31q-3 41 -24.5 50t-92.5 -5q-82 -13 -82 66q0 27 25 42t51 15q23 0 49 -3.5t33 -4t23 3.5q7 2 12.5 7t8.5 9.5t5.5 13.5t3.5 12.5t2.5 14.5t1.5 13q8 38 17 60.5t23.5 44.5t15.5 24q26 37 39 65 q18 37 79 88.5t109 75.5q93 49 145 49q81 0 78 -55q-2 -12 -6 -21t-12 -14.5t-12 -8t-16.5 -7t-16.5 -6.5q-11 -3 -41.5 -8.5t-53.5 -13.5t-38 -23q-5 -5 -42.5 -35t-52.5 -55q-2 -5 -38.5 -61t-36.5 -95q0 -16 1 -26t1 -18.5t4.5 -13t5.5 -7.5t9.5 -4t11.5 -1.5t16.5 0 t19.5 0.5q10 0 31 -0.5t33 -0.5t34 1.5t46 5.5q35 5 58 -7.5t17 -43.5q-7 -73 -90 -73q-11 0 -39 5t-49 5q-60 0 -106 -15q-23 -7 -28.5 -29t3.5 -40q5 -12 14 -18.5t14 -7.5t22 0t20 1q16 0 55.5 4t63.5 4q104 0 104 -57q0 -16 -12.5 -35t-30.5 -26q-6 -7 -44.5 -1.5 t-51.5 5.5q-8 -1 -27 0.5t-35.5 2t-33 -1t-24 -10t-3.5 -24.5q18 -74 90 -156q75 -81 168 -104q40 -13 50 -38.5t-9 -51.5q-7 -17 -28.5 -24t-37.5 -1q-36 10 -48 13.5t-48 18t-57.5 30t-52.5 45t-58 67.5q-54 80 -104 201q-14 32 -66 35q-13 2 -46.5 -2t-51.5 -4 q-29 3 -51.5 23t-22.5 38z" />
<glyph unicode="&#x2122;" horiz-adv-x="1562" d="M168 1096q0 24 13.5 43.5t37.5 19.5q34 0 82 -5t96 -5q20 0 43 1t51.5 2.5t45.5 2.5q34 0 62 -16t28 -54q0 -55 -49 -55q-12 0 -33 10.5t-33 10.5q-56 0 -74 -13q-10 -8 -10 -49q0 -45 1 -73.5t2 -40.5t1 -15q0 -20 3 -64t3 -71q0 -74 -55 -74q-31 0 -46.5 22t-12.5 62 q5 37 7.5 112t-3.5 183q0 21 -33 21q-13 0 -36.5 -1t-29.5 -1q-23 0 -42 15t-19 32zM762 934q-5 30 0 131q6 44 16 59t33 15q55 0 123 -66q71 -73 92 -98q17 -9 49 -4q55 18 84 59q6 10 15 21.5t17 20.5t17.5 20.5t16.5 21.5q3 4 8.5 11t8 9t8.5 5.5t13.5 4.5t18.5 1 q33 0 43 -24t2 -60q-18 -56 -18 -80q0 -18 -0.5 -55t0 -50t2.5 -33.5t6 -35.5q3 -13 3 -36t3 -34q10 -31 -8.5 -48t-44.5 -17t-44.5 17.5t-21.5 41.5q-2 12 -2.5 24t0 24.5t1 24.5t1 29t0.5 33q0 2 1 11q3 51 -7 51q-3 -1 -8 -6q-9 -12 -28.5 -24.5t-37.5 -16.5 q-8 -3 -25 -10.5t-30 -11t-29 -3.5q-56 0 -114 66q-39 39 -49 42q-12 2 -11 -20q0 -11 4 -33.5t4 -36.5q1 -21 4.5 -41t6 -33t4.5 -32.5t2 -42.5q0 -12 -1 -19.5t-4.5 -18t-13.5 -16t-26 -5.5q-52 -3 -67.5 20.5t-12.5 69.5q6 109 -4 178z" />
</font>
</defs>
</svg>
